G04 EAGLE Gerber RS-274X export*
G75*
%MOMM*%
%FSLAX34Y34*%
%LPD*%
%INBottom Copper*%
%IPPOS*%
%AMOC8*
5,1,8,0,0,1.08239X$1,22.5*%
G01*
%ADD10C,1.524000*%
%ADD11P,1.429621X8X22.500000*%
%ADD12P,1.429621X8X202.500000*%
%ADD13C,2.095500*%
%ADD14C,1.473200*%
%ADD15C,0.508000*%
%ADD16C,0.756400*%
%ADD17C,1.016000*%
%ADD18C,0.406400*%

G36*
X240021Y10176D02*
X240021Y10176D01*
X240118Y10186D01*
X240142Y10196D01*
X240168Y10200D01*
X240253Y10246D01*
X240343Y10286D01*
X240362Y10303D01*
X240385Y10316D01*
X240452Y10386D01*
X240524Y10452D01*
X240536Y10475D01*
X240554Y10494D01*
X240595Y10582D01*
X240642Y10668D01*
X240647Y10693D01*
X240658Y10717D01*
X240669Y10814D01*
X240686Y10910D01*
X240682Y10936D01*
X240685Y10961D01*
X240664Y11057D01*
X240650Y11153D01*
X240638Y11176D01*
X240633Y11202D01*
X240583Y11285D01*
X240539Y11372D01*
X240520Y11391D01*
X240507Y11413D01*
X240433Y11476D01*
X240363Y11544D01*
X240335Y11560D01*
X240320Y11573D01*
X240289Y11585D01*
X240216Y11625D01*
X239168Y12059D01*
X236595Y14632D01*
X235203Y17993D01*
X235203Y36871D01*
X236595Y40232D01*
X239168Y42805D01*
X242529Y44197D01*
X246167Y44197D01*
X249528Y42805D01*
X252101Y40232D01*
X253493Y36871D01*
X253493Y17993D01*
X252101Y14632D01*
X249528Y12059D01*
X248480Y11625D01*
X248397Y11574D01*
X248311Y11528D01*
X248293Y11510D01*
X248271Y11496D01*
X248209Y11420D01*
X248142Y11350D01*
X248131Y11326D01*
X248114Y11306D01*
X248079Y11215D01*
X248038Y11127D01*
X248035Y11101D01*
X248026Y11077D01*
X248022Y10979D01*
X248011Y10883D01*
X248016Y10857D01*
X248015Y10831D01*
X248042Y10737D01*
X248063Y10642D01*
X248077Y10620D01*
X248084Y10595D01*
X248139Y10515D01*
X248189Y10431D01*
X248209Y10414D01*
X248224Y10393D01*
X248302Y10334D01*
X248376Y10271D01*
X248401Y10261D01*
X248422Y10246D01*
X248514Y10216D01*
X248604Y10179D01*
X248637Y10176D01*
X248655Y10170D01*
X248688Y10170D01*
X248771Y10161D01*
X265325Y10161D01*
X265421Y10176D01*
X265518Y10186D01*
X265542Y10196D01*
X265568Y10200D01*
X265653Y10246D01*
X265743Y10286D01*
X265762Y10303D01*
X265785Y10316D01*
X265852Y10386D01*
X265924Y10452D01*
X265936Y10475D01*
X265954Y10494D01*
X265995Y10582D01*
X266042Y10668D01*
X266047Y10693D01*
X266058Y10717D01*
X266069Y10814D01*
X266086Y10910D01*
X266082Y10936D01*
X266085Y10961D01*
X266064Y11057D01*
X266050Y11153D01*
X266038Y11176D01*
X266033Y11202D01*
X265983Y11285D01*
X265939Y11372D01*
X265920Y11391D01*
X265907Y11413D01*
X265833Y11476D01*
X265763Y11544D01*
X265735Y11560D01*
X265720Y11573D01*
X265689Y11585D01*
X265616Y11625D01*
X264568Y12059D01*
X261995Y14632D01*
X260603Y17993D01*
X260603Y36871D01*
X261995Y40232D01*
X264568Y42805D01*
X267929Y44197D01*
X271567Y44197D01*
X274928Y42805D01*
X277501Y40232D01*
X278893Y36871D01*
X278893Y17993D01*
X277501Y14632D01*
X274928Y12059D01*
X273880Y11625D01*
X273797Y11574D01*
X273711Y11528D01*
X273693Y11510D01*
X273671Y11496D01*
X273609Y11420D01*
X273542Y11350D01*
X273531Y11326D01*
X273514Y11306D01*
X273479Y11215D01*
X273438Y11127D01*
X273435Y11101D01*
X273426Y11077D01*
X273422Y10979D01*
X273411Y10883D01*
X273416Y10857D01*
X273415Y10831D01*
X273442Y10737D01*
X273463Y10642D01*
X273477Y10620D01*
X273484Y10595D01*
X273539Y10515D01*
X273589Y10431D01*
X273609Y10414D01*
X273624Y10393D01*
X273702Y10334D01*
X273776Y10271D01*
X273801Y10261D01*
X273822Y10246D01*
X273914Y10216D01*
X274004Y10179D01*
X274037Y10176D01*
X274055Y10170D01*
X274088Y10170D01*
X274171Y10161D01*
X290725Y10161D01*
X290821Y10176D01*
X290918Y10186D01*
X290942Y10196D01*
X290968Y10200D01*
X291053Y10246D01*
X291143Y10286D01*
X291162Y10303D01*
X291185Y10316D01*
X291252Y10386D01*
X291324Y10452D01*
X291336Y10475D01*
X291354Y10494D01*
X291395Y10582D01*
X291442Y10668D01*
X291447Y10693D01*
X291458Y10717D01*
X291469Y10814D01*
X291486Y10910D01*
X291482Y10936D01*
X291485Y10961D01*
X291464Y11057D01*
X291450Y11153D01*
X291438Y11176D01*
X291433Y11202D01*
X291383Y11285D01*
X291339Y11372D01*
X291320Y11391D01*
X291307Y11413D01*
X291233Y11476D01*
X291163Y11544D01*
X291135Y11560D01*
X291120Y11573D01*
X291089Y11585D01*
X291016Y11625D01*
X289968Y12059D01*
X287395Y14632D01*
X286003Y17993D01*
X286003Y36871D01*
X287395Y40232D01*
X289968Y42805D01*
X293329Y44197D01*
X296967Y44197D01*
X300328Y42805D01*
X302901Y40232D01*
X304293Y36871D01*
X304293Y17993D01*
X302901Y14632D01*
X300328Y12059D01*
X299280Y11625D01*
X299197Y11574D01*
X299111Y11528D01*
X299093Y11510D01*
X299071Y11496D01*
X299009Y11420D01*
X298942Y11350D01*
X298931Y11326D01*
X298914Y11306D01*
X298879Y11215D01*
X298838Y11127D01*
X298835Y11101D01*
X298826Y11077D01*
X298822Y10979D01*
X298811Y10883D01*
X298816Y10857D01*
X298815Y10831D01*
X298842Y10737D01*
X298863Y10642D01*
X298877Y10620D01*
X298884Y10595D01*
X298939Y10515D01*
X298989Y10431D01*
X299009Y10414D01*
X299024Y10393D01*
X299102Y10334D01*
X299176Y10271D01*
X299201Y10261D01*
X299222Y10246D01*
X299314Y10216D01*
X299404Y10179D01*
X299437Y10176D01*
X299455Y10170D01*
X299488Y10170D01*
X299571Y10161D01*
X316125Y10161D01*
X316221Y10176D01*
X316318Y10186D01*
X316342Y10196D01*
X316368Y10200D01*
X316453Y10246D01*
X316543Y10286D01*
X316562Y10303D01*
X316585Y10316D01*
X316652Y10386D01*
X316724Y10452D01*
X316736Y10475D01*
X316754Y10494D01*
X316795Y10582D01*
X316842Y10668D01*
X316847Y10693D01*
X316858Y10717D01*
X316869Y10814D01*
X316886Y10910D01*
X316882Y10936D01*
X316885Y10961D01*
X316864Y11057D01*
X316850Y11153D01*
X316838Y11176D01*
X316833Y11202D01*
X316783Y11285D01*
X316739Y11372D01*
X316720Y11391D01*
X316707Y11413D01*
X316633Y11476D01*
X316563Y11544D01*
X316535Y11560D01*
X316520Y11573D01*
X316489Y11585D01*
X316416Y11625D01*
X315368Y12059D01*
X312795Y14632D01*
X311403Y17993D01*
X311403Y36871D01*
X312795Y40232D01*
X315368Y42805D01*
X318729Y44197D01*
X322367Y44197D01*
X325728Y42805D01*
X328301Y40232D01*
X329693Y36871D01*
X329693Y17993D01*
X328301Y14632D01*
X325728Y12059D01*
X324680Y11625D01*
X324597Y11574D01*
X324511Y11528D01*
X324493Y11510D01*
X324471Y11496D01*
X324409Y11420D01*
X324342Y11350D01*
X324331Y11326D01*
X324314Y11306D01*
X324279Y11215D01*
X324238Y11127D01*
X324235Y11101D01*
X324226Y11077D01*
X324222Y10979D01*
X324211Y10883D01*
X324216Y10857D01*
X324215Y10831D01*
X324242Y10737D01*
X324263Y10642D01*
X324277Y10620D01*
X324284Y10595D01*
X324339Y10515D01*
X324389Y10431D01*
X324409Y10414D01*
X324424Y10393D01*
X324502Y10334D01*
X324576Y10271D01*
X324601Y10261D01*
X324622Y10246D01*
X324714Y10216D01*
X324804Y10179D01*
X324837Y10176D01*
X324855Y10170D01*
X324888Y10170D01*
X324971Y10161D01*
X553974Y10161D01*
X553994Y10164D01*
X554013Y10162D01*
X554115Y10184D01*
X554217Y10200D01*
X554234Y10210D01*
X554254Y10214D01*
X554343Y10267D01*
X554434Y10316D01*
X554448Y10330D01*
X554465Y10340D01*
X554532Y10419D01*
X554604Y10494D01*
X554612Y10512D01*
X554625Y10527D01*
X554664Y10623D01*
X554707Y10717D01*
X554709Y10737D01*
X554717Y10755D01*
X554735Y10922D01*
X554735Y895350D01*
X554732Y895370D01*
X554734Y895389D01*
X554712Y895491D01*
X554696Y895593D01*
X554686Y895610D01*
X554682Y895630D01*
X554629Y895719D01*
X554580Y895810D01*
X554566Y895824D01*
X554556Y895841D01*
X554477Y895908D01*
X554402Y895980D01*
X554384Y895988D01*
X554369Y896001D01*
X554273Y896040D01*
X554179Y896083D01*
X554159Y896085D01*
X554141Y896093D01*
X553974Y896111D01*
X381475Y896111D01*
X381404Y896100D01*
X381332Y896098D01*
X381283Y896080D01*
X381232Y896072D01*
X381169Y896038D01*
X381101Y896013D01*
X381061Y895981D01*
X381015Y895956D01*
X380965Y895905D01*
X380909Y895860D01*
X380881Y895816D01*
X380845Y895778D01*
X380815Y895713D01*
X380776Y895653D01*
X380764Y895602D01*
X380742Y895555D01*
X380734Y895484D01*
X380716Y895414D01*
X380720Y895362D01*
X380715Y895311D01*
X380730Y895240D01*
X380736Y895169D01*
X380756Y895121D01*
X380767Y895070D01*
X380804Y895009D01*
X380832Y894943D01*
X380877Y894887D01*
X380893Y894859D01*
X380911Y894844D01*
X380937Y894812D01*
X388969Y886779D01*
X389064Y886711D01*
X389158Y886641D01*
X389164Y886639D01*
X389169Y886636D01*
X389280Y886602D01*
X389392Y886565D01*
X389398Y886565D01*
X389404Y886563D01*
X389521Y886566D01*
X389638Y886567D01*
X389645Y886570D01*
X389650Y886570D01*
X389667Y886576D01*
X389799Y886614D01*
X391881Y887477D01*
X395519Y887477D01*
X398880Y886085D01*
X401453Y883512D01*
X402845Y880151D01*
X402845Y861273D01*
X401453Y857912D01*
X399805Y856264D01*
X399763Y856206D01*
X399714Y856154D01*
X399692Y856107D01*
X399661Y856065D01*
X399640Y855996D01*
X399610Y855931D01*
X399604Y855879D01*
X399589Y855829D01*
X399591Y855758D01*
X399583Y855687D01*
X399594Y855636D01*
X399595Y855584D01*
X399620Y855516D01*
X399635Y855446D01*
X399662Y855401D01*
X399680Y855353D01*
X399725Y855297D01*
X399761Y855235D01*
X399801Y855201D01*
X399833Y855161D01*
X399894Y855122D01*
X399948Y855075D01*
X399997Y855056D01*
X400040Y855028D01*
X400110Y855010D01*
X400176Y854983D01*
X400248Y854975D01*
X400279Y854967D01*
X400302Y854969D01*
X400343Y854965D01*
X404401Y854965D01*
X404491Y854979D01*
X404582Y854987D01*
X404612Y854999D01*
X404644Y855004D01*
X404724Y855047D01*
X404808Y855083D01*
X404840Y855109D01*
X404861Y855120D01*
X404883Y855143D01*
X404939Y855188D01*
X409909Y860157D01*
X409977Y860252D01*
X410047Y860346D01*
X410049Y860352D01*
X410052Y860357D01*
X410087Y860468D01*
X410123Y860580D01*
X410123Y860586D01*
X410125Y860592D01*
X410122Y860709D01*
X410121Y860826D01*
X410118Y860833D01*
X410118Y860838D01*
X410112Y860855D01*
X410074Y860987D01*
X409955Y861273D01*
X409955Y880151D01*
X411347Y883512D01*
X413920Y886085D01*
X417281Y887477D01*
X420919Y887477D01*
X424280Y886085D01*
X426853Y883512D01*
X428245Y880151D01*
X428245Y861273D01*
X426853Y857912D01*
X424280Y855339D01*
X423635Y855072D01*
X423535Y855011D01*
X423435Y854951D01*
X423431Y854946D01*
X423426Y854943D01*
X423351Y854852D01*
X423275Y854764D01*
X423273Y854758D01*
X423269Y854753D01*
X423227Y854645D01*
X423183Y854536D01*
X423182Y854528D01*
X423181Y854523D01*
X423180Y854505D01*
X423165Y854369D01*
X423165Y704276D01*
X423176Y704205D01*
X423178Y704133D01*
X423196Y704085D01*
X423204Y704033D01*
X423238Y703970D01*
X423263Y703902D01*
X423295Y703862D01*
X423320Y703816D01*
X423372Y703766D01*
X423416Y703710D01*
X423460Y703682D01*
X423498Y703646D01*
X423563Y703616D01*
X423623Y703577D01*
X423674Y703565D01*
X423721Y703543D01*
X423792Y703535D01*
X423862Y703517D01*
X423914Y703521D01*
X423965Y703516D01*
X424036Y703531D01*
X424107Y703537D01*
X424155Y703557D01*
X424206Y703568D01*
X424267Y703605D01*
X424333Y703633D01*
X424389Y703678D01*
X424417Y703694D01*
X424432Y703712D01*
X424464Y703738D01*
X426764Y706037D01*
X430032Y707391D01*
X433568Y707391D01*
X436836Y706037D01*
X439337Y703536D01*
X440691Y700268D01*
X440691Y696732D01*
X439337Y693464D01*
X436836Y690963D01*
X433568Y689609D01*
X430032Y689609D01*
X426764Y690963D01*
X424464Y693262D01*
X424406Y693304D01*
X424354Y693354D01*
X424307Y693376D01*
X424265Y693406D01*
X424196Y693427D01*
X424131Y693457D01*
X424079Y693463D01*
X424029Y693478D01*
X423958Y693476D01*
X423887Y693484D01*
X423836Y693473D01*
X423784Y693472D01*
X423716Y693447D01*
X423646Y693432D01*
X423601Y693405D01*
X423553Y693387D01*
X423497Y693343D01*
X423435Y693306D01*
X423401Y693266D01*
X423361Y693234D01*
X423322Y693173D01*
X423275Y693119D01*
X423256Y693071D01*
X423228Y693027D01*
X423210Y692957D01*
X423183Y692891D01*
X423175Y692819D01*
X423167Y692788D01*
X423169Y692765D01*
X423165Y692724D01*
X423165Y671416D01*
X408084Y656335D01*
X239616Y656335D01*
X237012Y658939D01*
X206300Y689652D01*
X206206Y689719D01*
X206111Y689790D01*
X206105Y689792D01*
X206100Y689796D01*
X205989Y689830D01*
X205877Y689866D01*
X205871Y689866D01*
X205865Y689868D01*
X205748Y689865D01*
X205631Y689864D01*
X205624Y689862D01*
X205619Y689862D01*
X205601Y689855D01*
X205470Y689817D01*
X204969Y689609D01*
X201432Y689609D01*
X198164Y690963D01*
X195663Y693464D01*
X194309Y696732D01*
X194309Y700268D01*
X195663Y703536D01*
X198164Y706037D01*
X201432Y707391D01*
X204968Y707391D01*
X208236Y706037D01*
X210737Y703536D01*
X212091Y700268D01*
X212091Y696731D01*
X211883Y696230D01*
X211856Y696117D01*
X211828Y696003D01*
X211828Y695997D01*
X211827Y695991D01*
X211838Y695874D01*
X211847Y695758D01*
X211849Y695752D01*
X211850Y695746D01*
X211898Y695638D01*
X211943Y695531D01*
X211948Y695526D01*
X211950Y695521D01*
X211963Y695507D01*
X212048Y695400D01*
X242761Y664688D01*
X242835Y664635D01*
X242904Y664575D01*
X242934Y664563D01*
X242960Y664544D01*
X243047Y664517D01*
X243132Y664483D01*
X243173Y664479D01*
X243195Y664472D01*
X243228Y664473D01*
X243299Y664465D01*
X404401Y664465D01*
X404491Y664479D01*
X404582Y664487D01*
X404612Y664499D01*
X404644Y664504D01*
X404724Y664547D01*
X404808Y664583D01*
X404840Y664609D01*
X404861Y664620D01*
X404883Y664643D01*
X404939Y664688D01*
X414812Y674561D01*
X414865Y674635D01*
X414925Y674704D01*
X414937Y674734D01*
X414956Y674760D01*
X414983Y674847D01*
X415017Y674932D01*
X415021Y674973D01*
X415028Y674996D01*
X415027Y675028D01*
X415035Y675099D01*
X415035Y692724D01*
X415024Y692795D01*
X415022Y692867D01*
X415004Y692915D01*
X414996Y692967D01*
X414962Y693030D01*
X414937Y693098D01*
X414905Y693138D01*
X414880Y693184D01*
X414828Y693234D01*
X414784Y693290D01*
X414740Y693318D01*
X414702Y693354D01*
X414637Y693384D01*
X414577Y693423D01*
X414526Y693435D01*
X414479Y693457D01*
X414408Y693465D01*
X414338Y693483D01*
X414286Y693479D01*
X414235Y693484D01*
X414164Y693469D01*
X414093Y693463D01*
X414045Y693443D01*
X413994Y693432D01*
X413933Y693395D01*
X413867Y693367D01*
X413811Y693322D01*
X413783Y693306D01*
X413768Y693288D01*
X413736Y693262D01*
X411436Y690963D01*
X408168Y689609D01*
X404632Y689609D01*
X401364Y690963D01*
X398863Y693464D01*
X397509Y696732D01*
X397509Y700268D01*
X398863Y703536D01*
X401364Y706037D01*
X404632Y707391D01*
X408168Y707391D01*
X411436Y706037D01*
X413736Y703738D01*
X413794Y703696D01*
X413846Y703646D01*
X413893Y703624D01*
X413935Y703594D01*
X414004Y703573D01*
X414069Y703543D01*
X414121Y703537D01*
X414171Y703522D01*
X414242Y703524D01*
X414313Y703516D01*
X414364Y703527D01*
X414416Y703528D01*
X414484Y703553D01*
X414554Y703568D01*
X414599Y703595D01*
X414647Y703613D01*
X414703Y703657D01*
X414765Y703694D01*
X414799Y703734D01*
X414839Y703766D01*
X414878Y703827D01*
X414925Y703881D01*
X414944Y703929D01*
X414972Y703973D01*
X414990Y704043D01*
X415017Y704109D01*
X415025Y704181D01*
X415033Y704212D01*
X415031Y704235D01*
X415035Y704276D01*
X415035Y851949D01*
X415024Y852020D01*
X415022Y852092D01*
X415004Y852140D01*
X414996Y852192D01*
X414962Y852255D01*
X414937Y852323D01*
X414905Y852363D01*
X414880Y852409D01*
X414828Y852459D01*
X414784Y852515D01*
X414740Y852543D01*
X414702Y852579D01*
X414637Y852609D01*
X414577Y852648D01*
X414526Y852660D01*
X414479Y852682D01*
X414408Y852690D01*
X414338Y852708D01*
X414286Y852704D01*
X414235Y852709D01*
X414164Y852694D01*
X414093Y852688D01*
X414045Y852668D01*
X413994Y852657D01*
X413933Y852620D01*
X413867Y852592D01*
X413811Y852547D01*
X413783Y852531D01*
X413768Y852513D01*
X413736Y852487D01*
X410688Y849439D01*
X408084Y846835D01*
X328516Y846835D01*
X321153Y854198D01*
X321058Y854267D01*
X320965Y854336D01*
X320959Y854338D01*
X320954Y854342D01*
X320842Y854376D01*
X320731Y854413D01*
X320724Y854412D01*
X320718Y854414D01*
X320602Y854411D01*
X320485Y854410D01*
X320478Y854408D01*
X320473Y854408D01*
X320455Y854402D01*
X320324Y854363D01*
X319319Y853947D01*
X315681Y853947D01*
X312320Y855339D01*
X309747Y857912D01*
X308355Y861273D01*
X308355Y880151D01*
X309747Y883512D01*
X312320Y886085D01*
X315681Y887477D01*
X319319Y887477D01*
X322680Y886085D01*
X325253Y883512D01*
X326645Y880151D01*
X326645Y861273D01*
X326526Y860987D01*
X326499Y860873D01*
X326471Y860760D01*
X326471Y860753D01*
X326470Y860747D01*
X326481Y860631D01*
X326490Y860514D01*
X326493Y860509D01*
X326493Y860502D01*
X326541Y860395D01*
X326586Y860288D01*
X326591Y860282D01*
X326593Y860278D01*
X326606Y860264D01*
X326691Y860157D01*
X331661Y855188D01*
X331735Y855135D01*
X331804Y855075D01*
X331834Y855063D01*
X331860Y855044D01*
X331947Y855017D01*
X332032Y854983D01*
X332073Y854979D01*
X332096Y854972D01*
X332128Y854973D01*
X332199Y854965D01*
X336257Y854965D01*
X336328Y854976D01*
X336399Y854978D01*
X336448Y854996D01*
X336500Y855004D01*
X336563Y855038D01*
X336630Y855063D01*
X336671Y855095D01*
X336717Y855120D01*
X336766Y855172D01*
X336822Y855216D01*
X336851Y855260D01*
X336886Y855298D01*
X336917Y855363D01*
X336955Y855423D01*
X336968Y855474D01*
X336990Y855521D01*
X336998Y855592D01*
X337015Y855662D01*
X337011Y855714D01*
X337017Y855765D01*
X337002Y855836D01*
X336996Y855907D01*
X336976Y855955D01*
X336965Y856006D01*
X336928Y856067D01*
X336900Y856133D01*
X336855Y856189D01*
X336839Y856217D01*
X336821Y856232D01*
X336795Y856264D01*
X335147Y857912D01*
X333755Y861273D01*
X333755Y880151D01*
X335147Y883512D01*
X337720Y886085D01*
X341081Y887477D01*
X344719Y887477D01*
X348080Y886085D01*
X350653Y883512D01*
X352045Y880151D01*
X352045Y861273D01*
X350653Y857912D01*
X349005Y856264D01*
X348963Y856206D01*
X348914Y856154D01*
X348892Y856107D01*
X348861Y856065D01*
X348840Y855996D01*
X348810Y855931D01*
X348804Y855879D01*
X348789Y855829D01*
X348791Y855758D01*
X348783Y855687D01*
X348794Y855636D01*
X348795Y855584D01*
X348820Y855516D01*
X348835Y855446D01*
X348862Y855401D01*
X348880Y855353D01*
X348925Y855297D01*
X348961Y855235D01*
X349001Y855201D01*
X349033Y855161D01*
X349094Y855122D01*
X349148Y855075D01*
X349197Y855056D01*
X349240Y855028D01*
X349310Y855010D01*
X349376Y854983D01*
X349448Y854975D01*
X349479Y854967D01*
X349502Y854969D01*
X349543Y854965D01*
X361657Y854965D01*
X361728Y854976D01*
X361799Y854978D01*
X361848Y854996D01*
X361900Y855004D01*
X361963Y855038D01*
X362030Y855063D01*
X362071Y855095D01*
X362117Y855120D01*
X362166Y855172D01*
X362222Y855216D01*
X362251Y855260D01*
X362286Y855298D01*
X362317Y855363D01*
X362355Y855423D01*
X362368Y855474D01*
X362390Y855521D01*
X362398Y855592D01*
X362415Y855662D01*
X362411Y855714D01*
X362417Y855765D01*
X362402Y855836D01*
X362396Y855907D01*
X362376Y855955D01*
X362365Y856006D01*
X362328Y856067D01*
X362300Y856133D01*
X362255Y856189D01*
X362239Y856217D01*
X362221Y856232D01*
X362195Y856264D01*
X360547Y857912D01*
X359155Y861273D01*
X359155Y880151D01*
X360547Y883512D01*
X363120Y886085D01*
X366481Y887477D01*
X370119Y887477D01*
X373480Y886085D01*
X376053Y883512D01*
X377445Y880151D01*
X377445Y861273D01*
X376053Y857912D01*
X374405Y856264D01*
X374363Y856206D01*
X374314Y856154D01*
X374292Y856107D01*
X374261Y856065D01*
X374240Y855996D01*
X374210Y855931D01*
X374204Y855879D01*
X374189Y855829D01*
X374191Y855758D01*
X374183Y855687D01*
X374194Y855636D01*
X374195Y855584D01*
X374220Y855516D01*
X374235Y855446D01*
X374262Y855401D01*
X374280Y855353D01*
X374325Y855297D01*
X374361Y855235D01*
X374401Y855201D01*
X374433Y855161D01*
X374494Y855122D01*
X374548Y855075D01*
X374597Y855056D01*
X374640Y855028D01*
X374710Y855010D01*
X374776Y854983D01*
X374848Y854975D01*
X374879Y854967D01*
X374902Y854969D01*
X374943Y854965D01*
X387057Y854965D01*
X387128Y854976D01*
X387199Y854978D01*
X387248Y854996D01*
X387300Y855004D01*
X387363Y855038D01*
X387430Y855063D01*
X387471Y855095D01*
X387517Y855120D01*
X387566Y855172D01*
X387622Y855216D01*
X387651Y855260D01*
X387686Y855298D01*
X387717Y855363D01*
X387755Y855423D01*
X387768Y855474D01*
X387790Y855521D01*
X387798Y855592D01*
X387815Y855662D01*
X387811Y855714D01*
X387817Y855765D01*
X387802Y855836D01*
X387796Y855907D01*
X387776Y855955D01*
X387765Y856006D01*
X387728Y856067D01*
X387700Y856133D01*
X387655Y856189D01*
X387639Y856217D01*
X387621Y856232D01*
X387595Y856264D01*
X385947Y857912D01*
X384555Y861273D01*
X384555Y879381D01*
X384541Y879471D01*
X384533Y879562D01*
X384521Y879592D01*
X384516Y879624D01*
X384473Y879704D01*
X384437Y879788D01*
X384411Y879820D01*
X384400Y879841D01*
X384377Y879863D01*
X384332Y879919D01*
X374967Y889284D01*
X374893Y889337D01*
X374824Y889397D01*
X374794Y889409D01*
X374768Y889428D01*
X374681Y889455D01*
X374596Y889489D01*
X374555Y889493D01*
X374532Y889500D01*
X374500Y889499D01*
X374429Y889507D01*
X255999Y889507D01*
X255909Y889493D01*
X255818Y889485D01*
X255788Y889473D01*
X255756Y889468D01*
X255676Y889425D01*
X255592Y889389D01*
X255560Y889363D01*
X255539Y889352D01*
X255517Y889329D01*
X255461Y889284D01*
X249598Y883422D01*
X249531Y883328D01*
X249461Y883233D01*
X249459Y883227D01*
X249455Y883222D01*
X249421Y883111D01*
X249384Y883000D01*
X249384Y882993D01*
X249383Y882987D01*
X249386Y882870D01*
X249387Y882754D01*
X249389Y882746D01*
X249389Y882741D01*
X249395Y882724D01*
X249433Y882592D01*
X250445Y880151D01*
X250445Y861273D01*
X249053Y857912D01*
X246480Y855339D01*
X243119Y853947D01*
X239481Y853947D01*
X236120Y855339D01*
X234436Y857023D01*
X234420Y857035D01*
X234408Y857050D01*
X234321Y857106D01*
X234236Y857167D01*
X234217Y857173D01*
X234201Y857183D01*
X234100Y857209D01*
X234001Y857239D01*
X233981Y857239D01*
X233962Y857243D01*
X233859Y857235D01*
X233755Y857233D01*
X233737Y857226D01*
X233717Y857224D01*
X233622Y857184D01*
X233524Y857148D01*
X233509Y857136D01*
X233491Y857128D01*
X233360Y857023D01*
X232888Y856551D01*
X232834Y856477D01*
X232775Y856408D01*
X232763Y856378D01*
X232744Y856352D01*
X232717Y856264D01*
X232683Y856180D01*
X232679Y856139D01*
X232672Y856116D01*
X232673Y856084D01*
X232665Y856013D01*
X232665Y706948D01*
X232684Y706833D01*
X232701Y706717D01*
X232703Y706712D01*
X232704Y706705D01*
X232759Y706603D01*
X232812Y706498D01*
X232817Y706494D01*
X232820Y706488D01*
X232904Y706408D01*
X232988Y706326D01*
X232994Y706322D01*
X232998Y706319D01*
X233015Y706311D01*
X233135Y706245D01*
X233636Y706037D01*
X236137Y703536D01*
X237491Y700268D01*
X237491Y696732D01*
X236137Y693464D01*
X233636Y690963D01*
X230368Y689609D01*
X226832Y689609D01*
X223564Y690963D01*
X221063Y693464D01*
X219709Y696732D01*
X219709Y700268D01*
X221063Y703536D01*
X223564Y706037D01*
X224065Y706245D01*
X224165Y706306D01*
X224265Y706366D01*
X224269Y706371D01*
X224274Y706375D01*
X224349Y706465D01*
X224425Y706553D01*
X224427Y706559D01*
X224431Y706564D01*
X224473Y706672D01*
X224517Y706782D01*
X224518Y706789D01*
X224519Y706794D01*
X224520Y706812D01*
X224535Y706948D01*
X224535Y856957D01*
X224524Y857028D01*
X224522Y857099D01*
X224504Y857148D01*
X224496Y857200D01*
X224462Y857263D01*
X224437Y857330D01*
X224405Y857371D01*
X224380Y857417D01*
X224328Y857466D01*
X224284Y857522D01*
X224240Y857551D01*
X224202Y857586D01*
X224137Y857617D01*
X224077Y857655D01*
X224026Y857668D01*
X223979Y857690D01*
X223908Y857698D01*
X223838Y857715D01*
X223786Y857711D01*
X223735Y857717D01*
X223664Y857702D01*
X223593Y857696D01*
X223545Y857676D01*
X223494Y857665D01*
X223433Y857628D01*
X223367Y857600D01*
X223311Y857555D01*
X223283Y857539D01*
X223268Y857521D01*
X223236Y857495D01*
X221080Y855339D01*
X217719Y853947D01*
X214081Y853947D01*
X210720Y855339D01*
X208147Y857912D01*
X206755Y861273D01*
X206755Y880151D01*
X208147Y883512D01*
X210720Y886085D01*
X214081Y887477D01*
X217719Y887477D01*
X221080Y886085D01*
X223653Y883512D01*
X225045Y880151D01*
X225045Y862043D01*
X225056Y861972D01*
X225058Y861900D01*
X225076Y861852D01*
X225084Y861800D01*
X225118Y861737D01*
X225143Y861669D01*
X225175Y861629D01*
X225200Y861583D01*
X225252Y861533D01*
X225296Y861477D01*
X225340Y861449D01*
X225378Y861413D01*
X225443Y861383D01*
X225503Y861344D01*
X225554Y861332D01*
X225601Y861310D01*
X225672Y861302D01*
X225742Y861284D01*
X225794Y861288D01*
X225845Y861283D01*
X225916Y861298D01*
X225987Y861304D01*
X226035Y861324D01*
X226086Y861335D01*
X226147Y861372D01*
X226213Y861400D01*
X226269Y861445D01*
X226297Y861461D01*
X226312Y861479D01*
X226344Y861505D01*
X231932Y867093D01*
X231985Y867167D01*
X232045Y867236D01*
X232057Y867266D01*
X232076Y867292D01*
X232103Y867379D01*
X232137Y867464D01*
X232141Y867505D01*
X232148Y867528D01*
X232147Y867560D01*
X232155Y867631D01*
X232155Y880151D01*
X233547Y883512D01*
X236120Y886085D01*
X239481Y887477D01*
X241841Y887477D01*
X241931Y887491D01*
X242022Y887499D01*
X242052Y887511D01*
X242084Y887516D01*
X242164Y887559D01*
X242248Y887595D01*
X242280Y887621D01*
X242301Y887632D01*
X242323Y887655D01*
X242379Y887700D01*
X249491Y894812D01*
X249533Y894870D01*
X249583Y894922D01*
X249605Y894969D01*
X249635Y895011D01*
X249656Y895080D01*
X249686Y895145D01*
X249692Y895197D01*
X249707Y895247D01*
X249705Y895318D01*
X249713Y895389D01*
X249702Y895440D01*
X249701Y895492D01*
X249676Y895560D01*
X249661Y895630D01*
X249634Y895675D01*
X249616Y895723D01*
X249572Y895779D01*
X249535Y895841D01*
X249495Y895875D01*
X249463Y895915D01*
X249402Y895954D01*
X249348Y896001D01*
X249300Y896020D01*
X249256Y896048D01*
X249186Y896066D01*
X249120Y896093D01*
X249048Y896101D01*
X249017Y896109D01*
X248994Y896107D01*
X248953Y896111D01*
X178275Y896111D01*
X178204Y896100D01*
X178132Y896098D01*
X178083Y896080D01*
X178032Y896072D01*
X177969Y896038D01*
X177901Y896013D01*
X177861Y895981D01*
X177815Y895956D01*
X177765Y895905D01*
X177709Y895860D01*
X177681Y895816D01*
X177645Y895778D01*
X177615Y895713D01*
X177576Y895653D01*
X177564Y895602D01*
X177542Y895555D01*
X177534Y895484D01*
X177516Y895414D01*
X177520Y895362D01*
X177515Y895311D01*
X177530Y895240D01*
X177536Y895169D01*
X177556Y895121D01*
X177567Y895070D01*
X177604Y895009D01*
X177632Y894943D01*
X177677Y894887D01*
X177693Y894859D01*
X177711Y894844D01*
X177737Y894812D01*
X185769Y886779D01*
X185864Y886711D01*
X185958Y886641D01*
X185964Y886639D01*
X185969Y886636D01*
X186080Y886602D01*
X186192Y886565D01*
X186198Y886565D01*
X186204Y886563D01*
X186321Y886566D01*
X186438Y886567D01*
X186445Y886570D01*
X186450Y886570D01*
X186467Y886576D01*
X186599Y886614D01*
X188681Y887477D01*
X192319Y887477D01*
X195680Y886085D01*
X198253Y883512D01*
X199645Y880151D01*
X199645Y861273D01*
X198253Y857912D01*
X195680Y855339D01*
X192319Y853947D01*
X188681Y853947D01*
X185320Y855339D01*
X182747Y857912D01*
X181355Y861273D01*
X181355Y879381D01*
X181341Y879471D01*
X181333Y879562D01*
X181321Y879592D01*
X181316Y879624D01*
X181273Y879704D01*
X181237Y879788D01*
X181211Y879820D01*
X181200Y879841D01*
X181177Y879863D01*
X181132Y879919D01*
X171767Y889284D01*
X171693Y889337D01*
X171624Y889397D01*
X171594Y889409D01*
X171568Y889428D01*
X171481Y889455D01*
X171396Y889489D01*
X171355Y889493D01*
X171332Y889500D01*
X171300Y889499D01*
X171229Y889507D01*
X142993Y889507D01*
X142989Y889507D01*
X142985Y889507D01*
X142868Y889487D01*
X142750Y889468D01*
X142747Y889466D01*
X142743Y889465D01*
X142638Y889408D01*
X142533Y889352D01*
X142530Y889350D01*
X142527Y889348D01*
X142446Y889260D01*
X142364Y889174D01*
X142362Y889170D01*
X142359Y889168D01*
X142310Y889059D01*
X142260Y888951D01*
X142260Y888947D01*
X142258Y888943D01*
X142246Y888824D01*
X142233Y888707D01*
X142234Y888703D01*
X142233Y888699D01*
X142260Y888583D01*
X142285Y888466D01*
X142287Y888463D01*
X142288Y888459D01*
X142350Y888358D01*
X142411Y888255D01*
X142414Y888253D01*
X142417Y888249D01*
X142508Y888173D01*
X142598Y888095D01*
X142602Y888094D01*
X142605Y888091D01*
X142758Y888022D01*
X143600Y887748D01*
X145025Y887022D01*
X146319Y886082D01*
X147450Y884951D01*
X148390Y883657D01*
X149116Y882232D01*
X149611Y880711D01*
X149861Y879132D01*
X149861Y872235D01*
X140462Y872235D01*
X140442Y872232D01*
X140423Y872234D01*
X140321Y872212D01*
X140219Y872195D01*
X140202Y872186D01*
X140182Y872182D01*
X140093Y872129D01*
X140002Y872080D01*
X139988Y872066D01*
X139971Y872056D01*
X139904Y871977D01*
X139833Y871902D01*
X139824Y871884D01*
X139811Y871869D01*
X139773Y871773D01*
X139729Y871679D01*
X139727Y871659D01*
X139719Y871641D01*
X139701Y871474D01*
X139701Y870711D01*
X139699Y870711D01*
X139699Y871474D01*
X139696Y871494D01*
X139698Y871513D01*
X139676Y871615D01*
X139659Y871717D01*
X139650Y871734D01*
X139646Y871754D01*
X139593Y871843D01*
X139544Y871934D01*
X139530Y871948D01*
X139520Y871965D01*
X139441Y872032D01*
X139366Y872103D01*
X139348Y872112D01*
X139333Y872125D01*
X139237Y872164D01*
X139143Y872207D01*
X139123Y872209D01*
X139105Y872217D01*
X138938Y872235D01*
X129539Y872235D01*
X129539Y879132D01*
X129789Y880711D01*
X130284Y882232D01*
X131010Y883657D01*
X131950Y884951D01*
X133081Y886082D01*
X134375Y887022D01*
X135800Y887748D01*
X136642Y888022D01*
X136646Y888024D01*
X136650Y888025D01*
X136754Y888080D01*
X136861Y888135D01*
X136863Y888138D01*
X136867Y888140D01*
X136949Y888226D01*
X137032Y888311D01*
X137034Y888315D01*
X137036Y888318D01*
X137086Y888426D01*
X137138Y888533D01*
X137138Y888537D01*
X137140Y888541D01*
X137153Y888658D01*
X137167Y888778D01*
X137167Y888782D01*
X137167Y888785D01*
X137142Y888901D01*
X137118Y889018D01*
X137116Y889022D01*
X137115Y889026D01*
X137054Y889128D01*
X136994Y889231D01*
X136991Y889234D01*
X136989Y889237D01*
X136898Y889315D01*
X136808Y889393D01*
X136805Y889394D01*
X136802Y889397D01*
X136690Y889442D01*
X136581Y889487D01*
X136577Y889487D01*
X136574Y889489D01*
X136407Y889507D01*
X128999Y889507D01*
X128909Y889493D01*
X128818Y889485D01*
X128788Y889473D01*
X128756Y889468D01*
X128676Y889425D01*
X128592Y889389D01*
X128560Y889363D01*
X128539Y889352D01*
X128517Y889329D01*
X128461Y889284D01*
X122598Y883422D01*
X122531Y883328D01*
X122461Y883233D01*
X122459Y883227D01*
X122455Y883222D01*
X122421Y883111D01*
X122384Y883000D01*
X122384Y882993D01*
X122383Y882987D01*
X122386Y882870D01*
X122387Y882754D01*
X122389Y882746D01*
X122389Y882741D01*
X122395Y882724D01*
X122433Y882592D01*
X123445Y880151D01*
X123445Y861273D01*
X122053Y857912D01*
X119480Y855339D01*
X118835Y855072D01*
X118735Y855011D01*
X118635Y854951D01*
X118631Y854946D01*
X118626Y854943D01*
X118551Y854852D01*
X118475Y854764D01*
X118473Y854758D01*
X118469Y854753D01*
X118427Y854645D01*
X118383Y854536D01*
X118382Y854528D01*
X118381Y854523D01*
X118380Y854505D01*
X118365Y854369D01*
X118365Y804926D01*
X118368Y804906D01*
X118366Y804887D01*
X118388Y804785D01*
X118404Y804683D01*
X118414Y804666D01*
X118418Y804646D01*
X118471Y804557D01*
X118520Y804466D01*
X118534Y804452D01*
X118544Y804435D01*
X118623Y804368D01*
X118698Y804296D01*
X118716Y804288D01*
X118731Y804275D01*
X118827Y804236D01*
X118921Y804193D01*
X118941Y804191D01*
X118959Y804183D01*
X119126Y804165D01*
X123245Y804165D01*
X123335Y804179D01*
X123426Y804187D01*
X123455Y804199D01*
X123487Y804204D01*
X123568Y804247D01*
X123652Y804283D01*
X123684Y804309D01*
X123705Y804320D01*
X123727Y804343D01*
X123783Y804388D01*
X124802Y805407D01*
X129198Y805407D01*
X132307Y802298D01*
X132307Y797902D01*
X129198Y794793D01*
X124802Y794793D01*
X123783Y795812D01*
X123709Y795865D01*
X123639Y795925D01*
X123609Y795937D01*
X123583Y795956D01*
X123496Y795983D01*
X123411Y796017D01*
X123370Y796021D01*
X123348Y796028D01*
X123316Y796027D01*
X123245Y796035D01*
X112616Y796035D01*
X110235Y798416D01*
X110235Y854369D01*
X110216Y854484D01*
X110199Y854600D01*
X110197Y854605D01*
X110196Y854612D01*
X110141Y854714D01*
X110088Y854819D01*
X110083Y854823D01*
X110080Y854829D01*
X109996Y854909D01*
X109912Y854991D01*
X109906Y854995D01*
X109902Y854998D01*
X109885Y855006D01*
X109765Y855072D01*
X109120Y855339D01*
X106547Y857912D01*
X105155Y861273D01*
X105155Y880151D01*
X106547Y883512D01*
X109120Y886085D01*
X112481Y887477D01*
X114841Y887477D01*
X114931Y887491D01*
X115022Y887499D01*
X115052Y887511D01*
X115084Y887516D01*
X115164Y887559D01*
X115248Y887595D01*
X115280Y887621D01*
X115301Y887632D01*
X115323Y887655D01*
X115379Y887700D01*
X122491Y894812D01*
X122533Y894870D01*
X122583Y894922D01*
X122605Y894969D01*
X122635Y895011D01*
X122656Y895080D01*
X122686Y895145D01*
X122692Y895197D01*
X122707Y895247D01*
X122705Y895318D01*
X122713Y895389D01*
X122702Y895440D01*
X122701Y895492D01*
X122676Y895560D01*
X122661Y895630D01*
X122634Y895674D01*
X122616Y895723D01*
X122572Y895779D01*
X122535Y895841D01*
X122495Y895875D01*
X122463Y895915D01*
X122402Y895954D01*
X122348Y896001D01*
X122300Y896020D01*
X122256Y896048D01*
X122186Y896066D01*
X122120Y896093D01*
X122048Y896101D01*
X122017Y896109D01*
X121994Y896107D01*
X121953Y896111D01*
X10922Y896111D01*
X10902Y896108D01*
X10883Y896110D01*
X10781Y896088D01*
X10679Y896072D01*
X10662Y896062D01*
X10642Y896058D01*
X10553Y896005D01*
X10462Y895956D01*
X10448Y895942D01*
X10431Y895932D01*
X10364Y895853D01*
X10292Y895778D01*
X10284Y895760D01*
X10271Y895745D01*
X10232Y895649D01*
X10189Y895555D01*
X10187Y895535D01*
X10179Y895517D01*
X10161Y895350D01*
X10161Y10922D01*
X10164Y10902D01*
X10162Y10883D01*
X10184Y10781D01*
X10200Y10679D01*
X10210Y10662D01*
X10214Y10642D01*
X10267Y10553D01*
X10316Y10462D01*
X10330Y10448D01*
X10340Y10431D01*
X10419Y10364D01*
X10494Y10292D01*
X10512Y10284D01*
X10527Y10271D01*
X10623Y10232D01*
X10717Y10189D01*
X10737Y10187D01*
X10755Y10179D01*
X10922Y10161D01*
X239925Y10161D01*
X240021Y10176D01*
G37*
%LPC*%
G36*
X111913Y117220D02*
X111913Y117220D01*
X107501Y119048D01*
X104125Y122424D01*
X102298Y126835D01*
X102298Y142046D01*
X102283Y142137D01*
X102276Y142227D01*
X102263Y142257D01*
X102258Y142289D01*
X102215Y142370D01*
X102180Y142454D01*
X102154Y142486D01*
X102143Y142507D01*
X102120Y142529D01*
X102075Y142585D01*
X72566Y172094D01*
X70601Y174059D01*
X69595Y176486D01*
X69595Y687114D01*
X70601Y689541D01*
X72566Y691506D01*
X182148Y801089D01*
X182201Y801163D01*
X182261Y801232D01*
X182273Y801262D01*
X182292Y801289D01*
X182319Y801375D01*
X182353Y801460D01*
X182357Y801501D01*
X182364Y801524D01*
X182363Y801556D01*
X182371Y801627D01*
X182371Y803467D01*
X187133Y808229D01*
X193867Y808229D01*
X198629Y803467D01*
X198629Y796733D01*
X193867Y791971D01*
X192027Y791971D01*
X191937Y791957D01*
X191846Y791949D01*
X191816Y791937D01*
X191784Y791932D01*
X191704Y791889D01*
X191620Y791853D01*
X191588Y791827D01*
X191567Y791816D01*
X191561Y791810D01*
X191560Y791810D01*
X191543Y791792D01*
X191489Y791748D01*
X83028Y683287D01*
X82975Y683213D01*
X82915Y683144D01*
X82903Y683114D01*
X82884Y683087D01*
X82857Y683000D01*
X82823Y682916D01*
X82819Y682875D01*
X82812Y682852D01*
X82813Y682820D01*
X82805Y682749D01*
X82805Y180851D01*
X82819Y180761D01*
X82827Y180670D01*
X82839Y180640D01*
X82844Y180608D01*
X82887Y180528D01*
X82923Y180444D01*
X82949Y180412D01*
X82960Y180391D01*
X82983Y180369D01*
X83028Y180313D01*
X104706Y158634D01*
X104723Y158623D01*
X104735Y158607D01*
X104822Y158551D01*
X104906Y158491D01*
X104925Y158485D01*
X104942Y158474D01*
X105042Y158449D01*
X105141Y158418D01*
X105161Y158419D01*
X105180Y158414D01*
X105283Y158422D01*
X105387Y158425D01*
X105406Y158431D01*
X105426Y158433D01*
X105521Y158473D01*
X105618Y158509D01*
X105634Y158522D01*
X105652Y158529D01*
X105783Y158634D01*
X107501Y160352D01*
X111913Y162180D01*
X116687Y162180D01*
X121099Y160352D01*
X122817Y158634D01*
X122833Y158623D01*
X122846Y158607D01*
X122933Y158551D01*
X123017Y158491D01*
X123036Y158485D01*
X123053Y158474D01*
X123153Y158449D01*
X123252Y158418D01*
X123272Y158419D01*
X123291Y158414D01*
X123394Y158422D01*
X123498Y158425D01*
X123517Y158431D01*
X123536Y158433D01*
X123631Y158473D01*
X123729Y158509D01*
X123744Y158522D01*
X123763Y158529D01*
X123894Y158634D01*
X184794Y219534D01*
X186759Y221499D01*
X189186Y222505D01*
X466849Y222505D01*
X466939Y222519D01*
X467030Y222527D01*
X467060Y222539D01*
X467092Y222544D01*
X467172Y222587D01*
X467256Y222623D01*
X467288Y222649D01*
X467309Y222660D01*
X467331Y222683D01*
X467387Y222728D01*
X486693Y242034D01*
X486761Y242128D01*
X486831Y242223D01*
X486833Y242229D01*
X486837Y242234D01*
X486871Y242344D01*
X486908Y242456D01*
X486907Y242463D01*
X486909Y242469D01*
X486906Y242585D01*
X486905Y242702D01*
X486903Y242710D01*
X486903Y242715D01*
X486897Y242732D01*
X486858Y242863D01*
X486155Y244561D01*
X486155Y263439D01*
X487547Y266800D01*
X490120Y269373D01*
X493481Y270765D01*
X497119Y270765D01*
X500613Y269318D01*
X500726Y269291D01*
X500840Y269262D01*
X500846Y269263D01*
X500852Y269261D01*
X500969Y269272D01*
X501085Y269282D01*
X501091Y269284D01*
X501097Y269285D01*
X501204Y269332D01*
X501311Y269378D01*
X501317Y269383D01*
X501322Y269385D01*
X501335Y269397D01*
X501442Y269483D01*
X526572Y294613D01*
X526625Y294687D01*
X526685Y294756D01*
X526697Y294786D01*
X526716Y294813D01*
X526743Y294900D01*
X526777Y294984D01*
X526781Y295025D01*
X526788Y295048D01*
X526787Y295080D01*
X526795Y295151D01*
X526795Y539816D01*
X526781Y539906D01*
X526773Y539997D01*
X526761Y540027D01*
X526756Y540059D01*
X526713Y540139D01*
X526677Y540223D01*
X526651Y540255D01*
X526640Y540276D01*
X526617Y540298D01*
X526572Y540354D01*
X525863Y541064D01*
X524509Y544332D01*
X524509Y547868D01*
X525863Y551136D01*
X528364Y553637D01*
X531632Y554991D01*
X535168Y554991D01*
X538436Y553637D01*
X540937Y551136D01*
X542291Y547868D01*
X542291Y544332D01*
X540937Y541064D01*
X540228Y540354D01*
X540175Y540280D01*
X540115Y540211D01*
X540103Y540181D01*
X540084Y540155D01*
X540057Y540068D01*
X540023Y539983D01*
X540019Y539942D01*
X540012Y539919D01*
X540013Y539887D01*
X540005Y539816D01*
X540005Y290786D01*
X538999Y288359D01*
X504668Y254027D01*
X504615Y253953D01*
X504555Y253884D01*
X504543Y253854D01*
X504524Y253827D01*
X504497Y253740D01*
X504463Y253656D01*
X504459Y253615D01*
X504452Y253592D01*
X504453Y253560D01*
X504445Y253489D01*
X504445Y244561D01*
X503053Y241200D01*
X502058Y240206D01*
X502020Y240153D01*
X501974Y240106D01*
X501934Y240033D01*
X501915Y240006D01*
X501909Y239988D01*
X501893Y239959D01*
X500899Y237559D01*
X473641Y210301D01*
X471214Y209295D01*
X193551Y209295D01*
X193461Y209281D01*
X193370Y209273D01*
X193340Y209261D01*
X193308Y209256D01*
X193228Y209213D01*
X193144Y209177D01*
X193112Y209151D01*
X193091Y209140D01*
X193069Y209117D01*
X193013Y209072D01*
X126525Y142585D01*
X126472Y142511D01*
X126413Y142441D01*
X126400Y142411D01*
X126382Y142385D01*
X126355Y142298D01*
X126321Y142213D01*
X126316Y142172D01*
X126309Y142150D01*
X126310Y142118D01*
X126302Y142046D01*
X126302Y126835D01*
X124475Y122424D01*
X121099Y119048D01*
X116687Y117220D01*
X111913Y117220D01*
G37*
%LPD*%
%LPC*%
G36*
X276033Y245871D02*
X276033Y245871D01*
X271271Y250633D01*
X271271Y257367D01*
X275112Y261208D01*
X275165Y261282D01*
X275225Y261351D01*
X275237Y261382D01*
X275256Y261408D01*
X275283Y261495D01*
X275317Y261580D01*
X275321Y261621D01*
X275328Y261643D01*
X275327Y261675D01*
X275335Y261746D01*
X275335Y347854D01*
X275321Y347944D01*
X275313Y348035D01*
X275301Y348064D01*
X275296Y348096D01*
X275253Y348177D01*
X275217Y348261D01*
X275191Y348293D01*
X275180Y348314D01*
X275157Y348336D01*
X275112Y348392D01*
X271271Y352233D01*
X271271Y358967D01*
X276033Y363729D01*
X281465Y363729D01*
X281555Y363743D01*
X281646Y363751D01*
X281676Y363763D01*
X281708Y363768D01*
X281788Y363811D01*
X281872Y363847D01*
X281904Y363873D01*
X281925Y363884D01*
X281947Y363907D01*
X282003Y363952D01*
X389412Y471361D01*
X392016Y473965D01*
X490474Y473965D01*
X490494Y473968D01*
X490513Y473966D01*
X490615Y473988D01*
X490717Y474004D01*
X490734Y474014D01*
X490754Y474018D01*
X490843Y474071D01*
X490934Y474120D01*
X490948Y474134D01*
X490965Y474144D01*
X491032Y474223D01*
X491104Y474298D01*
X491112Y474316D01*
X491125Y474331D01*
X491164Y474427D01*
X491207Y474521D01*
X491209Y474541D01*
X491217Y474559D01*
X491235Y474726D01*
X491235Y506001D01*
X491221Y506091D01*
X491213Y506182D01*
X491201Y506212D01*
X491196Y506244D01*
X491153Y506324D01*
X491117Y506408D01*
X491091Y506440D01*
X491080Y506461D01*
X491057Y506483D01*
X491012Y506539D01*
X478535Y519016D01*
X478535Y537652D01*
X478516Y537767D01*
X478499Y537883D01*
X478497Y537888D01*
X478496Y537895D01*
X478441Y537997D01*
X478388Y538102D01*
X478383Y538106D01*
X478380Y538112D01*
X478296Y538192D01*
X478212Y538274D01*
X478206Y538278D01*
X478202Y538281D01*
X478185Y538289D01*
X478065Y538355D01*
X477564Y538563D01*
X475063Y541064D01*
X473709Y544332D01*
X473709Y547868D01*
X473917Y548370D01*
X473944Y548484D01*
X473972Y548597D01*
X473972Y548603D01*
X473973Y548609D01*
X473962Y548725D01*
X473953Y548842D01*
X473951Y548848D01*
X473950Y548854D01*
X473902Y548962D01*
X473857Y549069D01*
X473852Y549074D01*
X473850Y549079D01*
X473837Y549093D01*
X473752Y549200D01*
X443039Y579912D01*
X442965Y579965D01*
X442896Y580025D01*
X442866Y580037D01*
X442840Y580056D01*
X442753Y580083D01*
X442668Y580117D01*
X442627Y580121D01*
X442604Y580128D01*
X442572Y580127D01*
X442501Y580135D01*
X290416Y580135D01*
X241081Y629470D01*
X241007Y629523D01*
X240938Y629583D01*
X240908Y629595D01*
X240882Y629614D01*
X240795Y629641D01*
X240710Y629675D01*
X240669Y629679D01*
X240646Y629686D01*
X240614Y629685D01*
X240543Y629693D01*
X239102Y629693D01*
X235993Y632802D01*
X235993Y637198D01*
X239102Y640307D01*
X243498Y640307D01*
X246607Y637198D01*
X246607Y635757D01*
X246621Y635667D01*
X246629Y635576D01*
X246641Y635546D01*
X246646Y635514D01*
X246689Y635434D01*
X246725Y635350D01*
X246751Y635318D01*
X246762Y635297D01*
X246785Y635275D01*
X246830Y635219D01*
X293561Y588488D01*
X293635Y588435D01*
X293704Y588375D01*
X293734Y588363D01*
X293760Y588344D01*
X293847Y588317D01*
X293932Y588283D01*
X293973Y588279D01*
X293996Y588272D01*
X294028Y588273D01*
X294099Y588265D01*
X446184Y588265D01*
X479500Y554948D01*
X479595Y554880D01*
X479689Y554810D01*
X479695Y554808D01*
X479700Y554804D01*
X479811Y554770D01*
X479923Y554734D01*
X479929Y554734D01*
X479935Y554732D01*
X480052Y554735D01*
X480169Y554736D01*
X480176Y554738D01*
X480181Y554738D01*
X480199Y554745D01*
X480330Y554783D01*
X480832Y554991D01*
X484368Y554991D01*
X487636Y553637D01*
X490137Y551136D01*
X491491Y547868D01*
X491491Y544332D01*
X490137Y541064D01*
X487636Y538563D01*
X487135Y538355D01*
X487035Y538294D01*
X486935Y538234D01*
X486931Y538229D01*
X486926Y538225D01*
X486851Y538135D01*
X486775Y538047D01*
X486773Y538041D01*
X486769Y538036D01*
X486727Y537928D01*
X486683Y537818D01*
X486682Y537811D01*
X486681Y537806D01*
X486680Y537788D01*
X486665Y537652D01*
X486665Y522699D01*
X486679Y522609D01*
X486687Y522518D01*
X486699Y522488D01*
X486704Y522456D01*
X486747Y522376D01*
X486783Y522292D01*
X486809Y522260D01*
X486820Y522239D01*
X486843Y522217D01*
X486888Y522161D01*
X499365Y509684D01*
X499365Y371943D01*
X499384Y371828D01*
X499401Y371712D01*
X499403Y371707D01*
X499404Y371700D01*
X499459Y371598D01*
X499512Y371493D01*
X499517Y371489D01*
X499520Y371483D01*
X499604Y371403D01*
X499688Y371321D01*
X499694Y371317D01*
X499698Y371314D01*
X499715Y371306D01*
X499835Y371240D01*
X500480Y370973D01*
X503053Y368400D01*
X504445Y365039D01*
X504445Y346161D01*
X503053Y342800D01*
X500480Y340227D01*
X499835Y339960D01*
X499735Y339899D01*
X499635Y339839D01*
X499631Y339834D01*
X499626Y339831D01*
X499551Y339740D01*
X499475Y339652D01*
X499473Y339646D01*
X499469Y339641D01*
X499427Y339533D01*
X499383Y339424D01*
X499382Y339416D01*
X499381Y339411D01*
X499380Y339393D01*
X499365Y339257D01*
X499365Y328516D01*
X478252Y307403D01*
X478199Y307329D01*
X478139Y307260D01*
X478127Y307230D01*
X478108Y307204D01*
X478081Y307117D01*
X478047Y307032D01*
X478043Y306991D01*
X478036Y306969D01*
X478037Y306936D01*
X478029Y306865D01*
X478029Y301433D01*
X473267Y296671D01*
X466533Y296671D01*
X461771Y301433D01*
X461771Y308167D01*
X466533Y312929D01*
X471965Y312929D01*
X472055Y312943D01*
X472146Y312951D01*
X472176Y312963D01*
X472208Y312968D01*
X472288Y313011D01*
X472372Y313047D01*
X472404Y313073D01*
X472425Y313084D01*
X472447Y313107D01*
X472503Y313152D01*
X491012Y331661D01*
X491059Y331725D01*
X491074Y331741D01*
X491077Y331749D01*
X491125Y331804D01*
X491137Y331834D01*
X491156Y331860D01*
X491183Y331947D01*
X491217Y332032D01*
X491221Y332073D01*
X491228Y332096D01*
X491227Y332128D01*
X491235Y332199D01*
X491235Y339257D01*
X491216Y339372D01*
X491199Y339488D01*
X491197Y339493D01*
X491196Y339500D01*
X491141Y339602D01*
X491088Y339707D01*
X491083Y339711D01*
X491080Y339717D01*
X490996Y339797D01*
X490912Y339879D01*
X490906Y339883D01*
X490902Y339886D01*
X490885Y339894D01*
X490765Y339960D01*
X490120Y340227D01*
X487547Y342800D01*
X486155Y346161D01*
X486155Y365039D01*
X487547Y368400D01*
X490120Y370973D01*
X490765Y371240D01*
X490865Y371301D01*
X490965Y371361D01*
X490969Y371366D01*
X490974Y371369D01*
X491049Y371460D01*
X491125Y371548D01*
X491127Y371554D01*
X491131Y371559D01*
X491173Y371667D01*
X491217Y371776D01*
X491218Y371784D01*
X491219Y371789D01*
X491220Y371807D01*
X491235Y371943D01*
X491235Y465074D01*
X491232Y465094D01*
X491234Y465113D01*
X491212Y465215D01*
X491196Y465317D01*
X491186Y465334D01*
X491182Y465354D01*
X491129Y465443D01*
X491080Y465534D01*
X491066Y465548D01*
X491056Y465565D01*
X490977Y465632D01*
X490902Y465704D01*
X490884Y465712D01*
X490869Y465725D01*
X490773Y465764D01*
X490679Y465807D01*
X490659Y465809D01*
X490641Y465817D01*
X490474Y465835D01*
X395699Y465835D01*
X395609Y465821D01*
X395518Y465813D01*
X395488Y465801D01*
X395456Y465796D01*
X395376Y465753D01*
X395292Y465717D01*
X395260Y465691D01*
X395239Y465680D01*
X395217Y465657D01*
X395161Y465612D01*
X287752Y358203D01*
X287699Y358129D01*
X287639Y358060D01*
X287627Y358030D01*
X287608Y358004D01*
X287581Y357917D01*
X287547Y357832D01*
X287543Y357791D01*
X287536Y357769D01*
X287537Y357736D01*
X287529Y357665D01*
X287529Y352233D01*
X283688Y348392D01*
X283635Y348318D01*
X283575Y348249D01*
X283563Y348218D01*
X283544Y348192D01*
X283517Y348105D01*
X283483Y348020D01*
X283479Y347979D01*
X283472Y347957D01*
X283473Y347925D01*
X283465Y347854D01*
X283465Y261746D01*
X283479Y261656D01*
X283487Y261565D01*
X283499Y261536D01*
X283504Y261504D01*
X283547Y261423D01*
X283583Y261339D01*
X283609Y261307D01*
X283620Y261286D01*
X283643Y261264D01*
X283688Y261208D01*
X287529Y257367D01*
X287529Y250633D01*
X282767Y245871D01*
X276033Y245871D01*
G37*
%LPD*%
%LPC*%
G36*
X199833Y245871D02*
X199833Y245871D01*
X195071Y250633D01*
X195071Y257367D01*
X199833Y262129D01*
X205265Y262129D01*
X205355Y262143D01*
X205446Y262151D01*
X205476Y262163D01*
X205508Y262168D01*
X205588Y262211D01*
X205672Y262247D01*
X205704Y262273D01*
X205725Y262284D01*
X205730Y262289D01*
X205731Y262289D01*
X205749Y262308D01*
X205803Y262352D01*
X249712Y306261D01*
X249765Y306335D01*
X249825Y306404D01*
X249837Y306434D01*
X249856Y306460D01*
X249883Y306547D01*
X249917Y306632D01*
X249921Y306673D01*
X249928Y306696D01*
X249927Y306728D01*
X249935Y306799D01*
X249935Y446184D01*
X325912Y522161D01*
X325965Y522235D01*
X326025Y522304D01*
X326037Y522334D01*
X326056Y522360D01*
X326083Y522447D01*
X326117Y522532D01*
X326121Y522573D01*
X326128Y522596D01*
X326127Y522628D01*
X326135Y522699D01*
X326135Y537652D01*
X326116Y537767D01*
X326099Y537883D01*
X326097Y537888D01*
X326096Y537895D01*
X326041Y537997D01*
X325988Y538102D01*
X325983Y538106D01*
X325980Y538112D01*
X325896Y538192D01*
X325812Y538274D01*
X325806Y538278D01*
X325802Y538281D01*
X325785Y538289D01*
X325665Y538355D01*
X325164Y538563D01*
X322663Y541064D01*
X321309Y544332D01*
X321309Y547868D01*
X322663Y551136D01*
X325164Y553637D01*
X328432Y554991D01*
X331968Y554991D01*
X335236Y553637D01*
X337737Y551136D01*
X339091Y547868D01*
X339091Y544332D01*
X337737Y541064D01*
X335236Y538563D01*
X334735Y538355D01*
X334635Y538294D01*
X334535Y538234D01*
X334531Y538229D01*
X334526Y538225D01*
X334451Y538135D01*
X334375Y538047D01*
X334373Y538041D01*
X334369Y538036D01*
X334327Y537928D01*
X334283Y537818D01*
X334282Y537811D01*
X334281Y537806D01*
X334280Y537788D01*
X334265Y537652D01*
X334265Y519016D01*
X258288Y443039D01*
X258235Y442965D01*
X258175Y442896D01*
X258163Y442866D01*
X258144Y442840D01*
X258117Y442753D01*
X258083Y442668D01*
X258079Y442627D01*
X258072Y442604D01*
X258073Y442572D01*
X258065Y442501D01*
X258065Y303116D01*
X211552Y256603D01*
X211499Y256529D01*
X211439Y256460D01*
X211427Y256430D01*
X211408Y256404D01*
X211381Y256317D01*
X211347Y256232D01*
X211343Y256191D01*
X211336Y256168D01*
X211337Y256136D01*
X211329Y256065D01*
X211329Y250633D01*
X206567Y245871D01*
X199833Y245871D01*
G37*
%LPD*%
%LPC*%
G36*
X263333Y791971D02*
X263333Y791971D01*
X258571Y796733D01*
X258571Y803467D01*
X263333Y808229D01*
X265173Y808229D01*
X265263Y808243D01*
X265354Y808251D01*
X265384Y808263D01*
X265416Y808268D01*
X265496Y808311D01*
X265580Y808347D01*
X265612Y808373D01*
X265633Y808384D01*
X265655Y808407D01*
X265711Y808452D01*
X285272Y828013D01*
X285325Y828087D01*
X285385Y828156D01*
X285397Y828186D01*
X285416Y828213D01*
X285443Y828299D01*
X285477Y828384D01*
X285481Y828425D01*
X285488Y828448D01*
X285487Y828480D01*
X285495Y828551D01*
X285495Y856449D01*
X285481Y856539D01*
X285473Y856630D01*
X285461Y856660D01*
X285456Y856692D01*
X285413Y856772D01*
X285377Y856856D01*
X285351Y856888D01*
X285340Y856909D01*
X285317Y856931D01*
X285272Y856987D01*
X284347Y857912D01*
X282955Y861273D01*
X282955Y880151D01*
X284347Y883512D01*
X286920Y886085D01*
X290281Y887477D01*
X293919Y887477D01*
X297280Y886085D01*
X299853Y883512D01*
X301245Y880151D01*
X301245Y861273D01*
X299853Y857912D01*
X298928Y856987D01*
X298875Y856913D01*
X298815Y856844D01*
X298803Y856814D01*
X298784Y856787D01*
X298757Y856700D01*
X298723Y856616D01*
X298719Y856575D01*
X298712Y856552D01*
X298713Y856520D01*
X298705Y856449D01*
X298705Y824186D01*
X297699Y821759D01*
X275052Y799111D01*
X274999Y799037D01*
X274939Y798968D01*
X274927Y798938D01*
X274908Y798911D01*
X274881Y798824D01*
X274847Y798740D01*
X274843Y798699D01*
X274836Y798676D01*
X274837Y798644D01*
X274829Y798573D01*
X274829Y796733D01*
X270067Y791971D01*
X263333Y791971D01*
G37*
%LPD*%
%LPC*%
G36*
X454813Y117220D02*
X454813Y117220D01*
X450401Y119048D01*
X447025Y122424D01*
X445198Y126835D01*
X445198Y152565D01*
X447025Y156976D01*
X450401Y160352D01*
X452665Y161290D01*
X452765Y161352D01*
X452865Y161412D01*
X452869Y161417D01*
X452874Y161420D01*
X452949Y161510D01*
X453025Y161599D01*
X453027Y161605D01*
X453031Y161609D01*
X453073Y161718D01*
X453117Y161827D01*
X453118Y161834D01*
X453119Y161839D01*
X453120Y161857D01*
X453135Y161994D01*
X453135Y179484D01*
X477070Y203419D01*
X477123Y203493D01*
X477183Y203562D01*
X477195Y203592D01*
X477214Y203618D01*
X477241Y203705D01*
X477275Y203790D01*
X477279Y203831D01*
X477286Y203854D01*
X477285Y203886D01*
X477293Y203957D01*
X477293Y205398D01*
X480402Y208507D01*
X484798Y208507D01*
X487907Y205398D01*
X487907Y201002D01*
X484798Y197893D01*
X483357Y197893D01*
X483267Y197879D01*
X483176Y197871D01*
X483146Y197859D01*
X483114Y197854D01*
X483034Y197811D01*
X482950Y197775D01*
X482918Y197749D01*
X482897Y197738D01*
X482875Y197715D01*
X482819Y197670D01*
X461488Y176339D01*
X461435Y176265D01*
X461375Y176196D01*
X461363Y176166D01*
X461344Y176140D01*
X461317Y176053D01*
X461283Y175968D01*
X461279Y175927D01*
X461272Y175904D01*
X461273Y175872D01*
X461265Y175801D01*
X461265Y161994D01*
X461284Y161879D01*
X461301Y161763D01*
X461303Y161757D01*
X461304Y161751D01*
X461359Y161648D01*
X461412Y161543D01*
X461417Y161539D01*
X461420Y161533D01*
X461504Y161454D01*
X461588Y161371D01*
X461594Y161368D01*
X461598Y161364D01*
X461615Y161356D01*
X461735Y161290D01*
X463999Y160352D01*
X467375Y156976D01*
X469202Y152565D01*
X469202Y126835D01*
X467375Y122424D01*
X463999Y119048D01*
X459587Y117220D01*
X454813Y117220D01*
G37*
%LPD*%
%LPC*%
G36*
X390333Y296671D02*
X390333Y296671D01*
X385571Y301433D01*
X385571Y306865D01*
X385557Y306955D01*
X385549Y307046D01*
X385537Y307076D01*
X385532Y307108D01*
X385489Y307188D01*
X385453Y307272D01*
X385427Y307304D01*
X385416Y307325D01*
X385393Y307347D01*
X385348Y307403D01*
X366839Y325912D01*
X364235Y328516D01*
X364235Y339257D01*
X364216Y339372D01*
X364199Y339488D01*
X364197Y339493D01*
X364196Y339500D01*
X364141Y339602D01*
X364088Y339707D01*
X364083Y339711D01*
X364080Y339717D01*
X363996Y339797D01*
X363912Y339879D01*
X363906Y339883D01*
X363902Y339886D01*
X363885Y339894D01*
X363765Y339960D01*
X363120Y340227D01*
X360547Y342800D01*
X359155Y346161D01*
X359155Y365039D01*
X360547Y368400D01*
X363120Y370973D01*
X366481Y372365D01*
X370119Y372365D01*
X373480Y370973D01*
X376053Y368400D01*
X377445Y365039D01*
X377445Y346161D01*
X376053Y342800D01*
X373480Y340227D01*
X372835Y339960D01*
X372735Y339899D01*
X372635Y339839D01*
X372631Y339834D01*
X372626Y339831D01*
X372551Y339740D01*
X372475Y339652D01*
X372473Y339646D01*
X372469Y339641D01*
X372427Y339533D01*
X372383Y339424D01*
X372382Y339416D01*
X372381Y339411D01*
X372380Y339393D01*
X372365Y339257D01*
X372365Y332199D01*
X372379Y332109D01*
X372387Y332018D01*
X372399Y331988D01*
X372404Y331956D01*
X372447Y331876D01*
X372483Y331792D01*
X372509Y331760D01*
X372520Y331739D01*
X372543Y331717D01*
X372588Y331661D01*
X391097Y313152D01*
X391171Y313099D01*
X391240Y313039D01*
X391270Y313027D01*
X391296Y313008D01*
X391383Y312981D01*
X391468Y312947D01*
X391509Y312943D01*
X391531Y312936D01*
X391564Y312937D01*
X391635Y312929D01*
X397067Y312929D01*
X401829Y308167D01*
X401829Y301433D01*
X397067Y296671D01*
X390333Y296671D01*
G37*
%LPD*%
%LPC*%
G36*
X505613Y117220D02*
X505613Y117220D01*
X501201Y119048D01*
X497825Y122424D01*
X495998Y126835D01*
X495998Y152565D01*
X497825Y156976D01*
X501201Y160352D01*
X505613Y162180D01*
X510387Y162180D01*
X514799Y160352D01*
X518175Y156976D01*
X520002Y152565D01*
X520002Y126835D01*
X518175Y122424D01*
X514799Y119048D01*
X510387Y117220D01*
X505613Y117220D01*
G37*
%LPD*%
%LPC*%
G36*
X404013Y117220D02*
X404013Y117220D01*
X399601Y119048D01*
X396225Y122424D01*
X394398Y126835D01*
X394398Y152565D01*
X396225Y156976D01*
X399601Y160352D01*
X404013Y162180D01*
X408787Y162180D01*
X413199Y160352D01*
X416575Y156976D01*
X418402Y152565D01*
X418402Y126835D01*
X416575Y122424D01*
X413199Y119048D01*
X408787Y117220D01*
X404013Y117220D01*
G37*
%LPD*%
%LPC*%
G36*
X213513Y117220D02*
X213513Y117220D01*
X209101Y119048D01*
X205725Y122424D01*
X203898Y126835D01*
X203898Y152565D01*
X205725Y156976D01*
X209101Y160352D01*
X213513Y162180D01*
X218287Y162180D01*
X222699Y160352D01*
X226075Y156976D01*
X227902Y152565D01*
X227902Y126835D01*
X226075Y122424D01*
X222699Y119048D01*
X218287Y117220D01*
X213513Y117220D01*
G37*
%LPD*%
%LPC*%
G36*
X162713Y117220D02*
X162713Y117220D01*
X158301Y119048D01*
X154925Y122424D01*
X153098Y126835D01*
X153098Y152565D01*
X154925Y156976D01*
X158301Y160352D01*
X162713Y162180D01*
X167487Y162180D01*
X171899Y160352D01*
X175275Y156976D01*
X177102Y152565D01*
X177102Y126835D01*
X175275Y122424D01*
X171899Y119048D01*
X167487Y117220D01*
X162713Y117220D01*
G37*
%LPD*%
%LPC*%
G36*
X442681Y853947D02*
X442681Y853947D01*
X439320Y855339D01*
X436747Y857912D01*
X435355Y861273D01*
X435355Y880151D01*
X436747Y883512D01*
X439320Y886085D01*
X442681Y887477D01*
X446319Y887477D01*
X449680Y886085D01*
X452253Y883512D01*
X453645Y880151D01*
X453645Y861273D01*
X452253Y857912D01*
X449680Y855339D01*
X446319Y853947D01*
X442681Y853947D01*
G37*
%LPD*%
%LPC*%
G36*
X163281Y853947D02*
X163281Y853947D01*
X159920Y855339D01*
X157347Y857912D01*
X155955Y861273D01*
X155955Y880151D01*
X157347Y883512D01*
X159920Y886085D01*
X163281Y887477D01*
X166919Y887477D01*
X170280Y886085D01*
X172853Y883512D01*
X174245Y880151D01*
X174245Y861273D01*
X172853Y857912D01*
X170280Y855339D01*
X166919Y853947D01*
X163281Y853947D01*
G37*
%LPD*%
%LPC*%
G36*
X264881Y853947D02*
X264881Y853947D01*
X261520Y855339D01*
X258947Y857912D01*
X257555Y861273D01*
X257555Y880151D01*
X258947Y883512D01*
X261520Y886085D01*
X264881Y887477D01*
X268519Y887477D01*
X271880Y886085D01*
X274453Y883512D01*
X275845Y880151D01*
X275845Y861273D01*
X274453Y857912D01*
X271880Y855339D01*
X268519Y853947D01*
X264881Y853947D01*
G37*
%LPD*%
%LPC*%
G36*
X442681Y237235D02*
X442681Y237235D01*
X439320Y238627D01*
X436747Y241200D01*
X435355Y244561D01*
X435355Y263439D01*
X436747Y266800D01*
X439320Y269373D01*
X442681Y270765D01*
X446319Y270765D01*
X449680Y269373D01*
X452253Y266800D01*
X453645Y263439D01*
X453645Y244561D01*
X452253Y241200D01*
X449680Y238627D01*
X446319Y237235D01*
X442681Y237235D01*
G37*
%LPD*%
%LPC*%
G36*
X417281Y237235D02*
X417281Y237235D01*
X413920Y238627D01*
X411347Y241200D01*
X409955Y244561D01*
X409955Y263439D01*
X411347Y266800D01*
X413920Y269373D01*
X417281Y270765D01*
X420919Y270765D01*
X424280Y269373D01*
X426853Y266800D01*
X428245Y263439D01*
X428245Y244561D01*
X426853Y241200D01*
X424280Y238627D01*
X420919Y237235D01*
X417281Y237235D01*
G37*
%LPD*%
%LPC*%
G36*
X468081Y237235D02*
X468081Y237235D01*
X464720Y238627D01*
X462147Y241200D01*
X460755Y244561D01*
X460755Y263439D01*
X462147Y266800D01*
X464720Y269373D01*
X468081Y270765D01*
X471719Y270765D01*
X475080Y269373D01*
X477653Y266800D01*
X479045Y263439D01*
X479045Y244561D01*
X477653Y241200D01*
X475080Y238627D01*
X471719Y237235D01*
X468081Y237235D01*
G37*
%LPD*%
%LPC*%
G36*
X391881Y237235D02*
X391881Y237235D01*
X388520Y238627D01*
X385947Y241200D01*
X384555Y244561D01*
X384555Y263439D01*
X385947Y266800D01*
X388520Y269373D01*
X391881Y270765D01*
X395519Y270765D01*
X398880Y269373D01*
X401453Y266800D01*
X402845Y263439D01*
X402845Y244561D01*
X401453Y241200D01*
X398880Y238627D01*
X395519Y237235D01*
X391881Y237235D01*
G37*
%LPD*%
%LPC*%
G36*
X391881Y338835D02*
X391881Y338835D01*
X388520Y340227D01*
X385947Y342800D01*
X384555Y346161D01*
X384555Y365039D01*
X385947Y368400D01*
X388520Y370973D01*
X391881Y372365D01*
X395519Y372365D01*
X398880Y370973D01*
X401453Y368400D01*
X402845Y365039D01*
X402845Y346161D01*
X401453Y342800D01*
X398880Y340227D01*
X395519Y338835D01*
X391881Y338835D01*
G37*
%LPD*%
%LPC*%
G36*
X442681Y338835D02*
X442681Y338835D01*
X439320Y340227D01*
X436747Y342800D01*
X435355Y346161D01*
X435355Y365039D01*
X436747Y368400D01*
X439320Y370973D01*
X442681Y372365D01*
X446319Y372365D01*
X449680Y370973D01*
X452253Y368400D01*
X453645Y365039D01*
X453645Y346161D01*
X452253Y342800D01*
X449680Y340227D01*
X446319Y338835D01*
X442681Y338835D01*
G37*
%LPD*%
%LPC*%
G36*
X468081Y338835D02*
X468081Y338835D01*
X464720Y340227D01*
X462147Y342800D01*
X460755Y346161D01*
X460755Y365039D01*
X462147Y368400D01*
X464720Y370973D01*
X468081Y372365D01*
X471719Y372365D01*
X475080Y370973D01*
X477653Y368400D01*
X479045Y365039D01*
X479045Y346161D01*
X477653Y342800D01*
X475080Y340227D01*
X471719Y338835D01*
X468081Y338835D01*
G37*
%LPD*%
%LPC*%
G36*
X417281Y338835D02*
X417281Y338835D01*
X413920Y340227D01*
X411347Y342800D01*
X409955Y346161D01*
X409955Y365039D01*
X411347Y368400D01*
X413920Y370973D01*
X417281Y372365D01*
X420919Y372365D01*
X424280Y370973D01*
X426853Y368400D01*
X428245Y365039D01*
X428245Y346161D01*
X426853Y342800D01*
X424280Y340227D01*
X420919Y338835D01*
X417281Y338835D01*
G37*
%LPD*%
%LPC*%
G36*
X277632Y689609D02*
X277632Y689609D01*
X274364Y690963D01*
X271863Y693464D01*
X270509Y696732D01*
X270509Y700268D01*
X271863Y703536D01*
X274364Y706037D01*
X277632Y707391D01*
X281168Y707391D01*
X284436Y706037D01*
X286937Y703536D01*
X288291Y700268D01*
X288291Y696732D01*
X286937Y693464D01*
X284436Y690963D01*
X281168Y689609D01*
X277632Y689609D01*
G37*
%LPD*%
%LPC*%
G36*
X252232Y689609D02*
X252232Y689609D01*
X248964Y690963D01*
X246463Y693464D01*
X245109Y696732D01*
X245109Y700268D01*
X246463Y703536D01*
X248964Y706037D01*
X252232Y707391D01*
X255768Y707391D01*
X259036Y706037D01*
X261537Y703536D01*
X262891Y700268D01*
X262891Y696732D01*
X261537Y693464D01*
X259036Y690963D01*
X255768Y689609D01*
X252232Y689609D01*
G37*
%LPD*%
%LPC*%
G36*
X506232Y689609D02*
X506232Y689609D01*
X502964Y690963D01*
X500463Y693464D01*
X499109Y696732D01*
X499109Y700268D01*
X500463Y703536D01*
X502964Y706037D01*
X506232Y707391D01*
X509768Y707391D01*
X513036Y706037D01*
X515537Y703536D01*
X516891Y700268D01*
X516891Y696732D01*
X515537Y693464D01*
X513036Y690963D01*
X509768Y689609D01*
X506232Y689609D01*
G37*
%LPD*%
%LPC*%
G36*
X480832Y689609D02*
X480832Y689609D01*
X477564Y690963D01*
X475063Y693464D01*
X473709Y696732D01*
X473709Y700268D01*
X475063Y703536D01*
X477564Y706037D01*
X480832Y707391D01*
X484368Y707391D01*
X487636Y706037D01*
X490137Y703536D01*
X491491Y700268D01*
X491491Y696732D01*
X490137Y693464D01*
X487636Y690963D01*
X484368Y689609D01*
X480832Y689609D01*
G37*
%LPD*%
%LPC*%
G36*
X201432Y664209D02*
X201432Y664209D01*
X198164Y665563D01*
X195663Y668064D01*
X194309Y671332D01*
X194309Y674868D01*
X195663Y678136D01*
X198164Y680637D01*
X201432Y681991D01*
X204968Y681991D01*
X208236Y680637D01*
X210737Y678136D01*
X212091Y674868D01*
X212091Y671332D01*
X210737Y668064D01*
X208236Y665563D01*
X204968Y664209D01*
X201432Y664209D01*
G37*
%LPD*%
%LPC*%
G36*
X201432Y638809D02*
X201432Y638809D01*
X198164Y640163D01*
X195663Y642664D01*
X194309Y645932D01*
X194309Y649468D01*
X195663Y652736D01*
X198164Y655237D01*
X201432Y656591D01*
X204968Y656591D01*
X208236Y655237D01*
X210737Y652736D01*
X212091Y649468D01*
X212091Y645932D01*
X210737Y642664D01*
X208236Y640163D01*
X204968Y638809D01*
X201432Y638809D01*
G37*
%LPD*%
%LPC*%
G36*
X201432Y613409D02*
X201432Y613409D01*
X198164Y614763D01*
X195663Y617264D01*
X194309Y620532D01*
X194309Y624068D01*
X195663Y627336D01*
X198164Y629837D01*
X201432Y631191D01*
X204968Y631191D01*
X208236Y629837D01*
X210737Y627336D01*
X212091Y624068D01*
X212091Y620532D01*
X210737Y617264D01*
X208236Y614763D01*
X204968Y613409D01*
X201432Y613409D01*
G37*
%LPD*%
%LPC*%
G36*
X201432Y588009D02*
X201432Y588009D01*
X198164Y589363D01*
X195663Y591864D01*
X194309Y595132D01*
X194309Y598668D01*
X195663Y601936D01*
X198164Y604437D01*
X201432Y605791D01*
X204968Y605791D01*
X208236Y604437D01*
X210737Y601936D01*
X212091Y598668D01*
X212091Y595132D01*
X210737Y591864D01*
X208236Y589363D01*
X204968Y588009D01*
X201432Y588009D01*
G37*
%LPD*%
%LPC*%
G36*
X201432Y562609D02*
X201432Y562609D01*
X198164Y563963D01*
X195663Y566464D01*
X194309Y569732D01*
X194309Y573268D01*
X195663Y576536D01*
X198164Y579037D01*
X201432Y580391D01*
X204968Y580391D01*
X208236Y579037D01*
X210737Y576536D01*
X212091Y573268D01*
X212091Y569732D01*
X210737Y566464D01*
X208236Y563963D01*
X204968Y562609D01*
X201432Y562609D01*
G37*
%LPD*%
%LPC*%
G36*
X353832Y537209D02*
X353832Y537209D01*
X350564Y538563D01*
X348063Y541064D01*
X346709Y544332D01*
X346709Y547868D01*
X348063Y551136D01*
X350564Y553637D01*
X353832Y554991D01*
X357368Y554991D01*
X360636Y553637D01*
X363137Y551136D01*
X364491Y547868D01*
X364491Y544332D01*
X363137Y541064D01*
X360636Y538563D01*
X357368Y537209D01*
X353832Y537209D01*
G37*
%LPD*%
%LPC*%
G36*
X277632Y537209D02*
X277632Y537209D01*
X274364Y538563D01*
X271863Y541064D01*
X270509Y544332D01*
X270509Y547868D01*
X271863Y551136D01*
X274364Y553637D01*
X277632Y554991D01*
X281168Y554991D01*
X284436Y553637D01*
X286937Y551136D01*
X288291Y547868D01*
X288291Y544332D01*
X286937Y541064D01*
X284436Y538563D01*
X281168Y537209D01*
X277632Y537209D01*
G37*
%LPD*%
%LPC*%
G36*
X455432Y537209D02*
X455432Y537209D01*
X452164Y538563D01*
X449663Y541064D01*
X448309Y544332D01*
X448309Y547868D01*
X449663Y551136D01*
X452164Y553637D01*
X455432Y554991D01*
X458968Y554991D01*
X462236Y553637D01*
X464737Y551136D01*
X466091Y547868D01*
X466091Y544332D01*
X464737Y541064D01*
X462236Y538563D01*
X458968Y537209D01*
X455432Y537209D01*
G37*
%LPD*%
%LPC*%
G36*
X201432Y537209D02*
X201432Y537209D01*
X198164Y538563D01*
X195663Y541064D01*
X194309Y544332D01*
X194309Y547868D01*
X195663Y551136D01*
X198164Y553637D01*
X201432Y554991D01*
X204968Y554991D01*
X208236Y553637D01*
X210737Y551136D01*
X212091Y547868D01*
X212091Y544332D01*
X210737Y541064D01*
X208236Y538563D01*
X204968Y537209D01*
X201432Y537209D01*
G37*
%LPD*%
%LPC*%
G36*
X430032Y537209D02*
X430032Y537209D01*
X426764Y538563D01*
X424263Y541064D01*
X422909Y544332D01*
X422909Y547868D01*
X424263Y551136D01*
X426764Y553637D01*
X430032Y554991D01*
X433568Y554991D01*
X436836Y553637D01*
X439337Y551136D01*
X440691Y547868D01*
X440691Y544332D01*
X439337Y541064D01*
X436836Y538563D01*
X433568Y537209D01*
X430032Y537209D01*
G37*
%LPD*%
%LPC*%
G36*
X303032Y537209D02*
X303032Y537209D01*
X299764Y538563D01*
X297263Y541064D01*
X295909Y544332D01*
X295909Y547868D01*
X297263Y551136D01*
X299764Y553637D01*
X303032Y554991D01*
X306568Y554991D01*
X309836Y553637D01*
X312337Y551136D01*
X313691Y547868D01*
X313691Y544332D01*
X312337Y541064D01*
X309836Y538563D01*
X306568Y537209D01*
X303032Y537209D01*
G37*
%LPD*%
%LPC*%
G36*
X379232Y689609D02*
X379232Y689609D01*
X375964Y690963D01*
X373463Y693464D01*
X372109Y696732D01*
X372109Y700268D01*
X373463Y703536D01*
X375964Y706037D01*
X379232Y707391D01*
X382768Y707391D01*
X386036Y706037D01*
X388537Y703536D01*
X389891Y700268D01*
X389891Y696732D01*
X388537Y693464D01*
X386036Y690963D01*
X382768Y689609D01*
X379232Y689609D01*
G37*
%LPD*%
%LPC*%
G36*
X404632Y537209D02*
X404632Y537209D01*
X401364Y538563D01*
X398863Y541064D01*
X397509Y544332D01*
X397509Y547868D01*
X398863Y551136D01*
X401364Y553637D01*
X404632Y554991D01*
X408168Y554991D01*
X411436Y553637D01*
X413937Y551136D01*
X415291Y547868D01*
X415291Y544332D01*
X413937Y541064D01*
X411436Y538563D01*
X408168Y537209D01*
X404632Y537209D01*
G37*
%LPD*%
%LPC*%
G36*
X252232Y537209D02*
X252232Y537209D01*
X248964Y538563D01*
X246463Y541064D01*
X245109Y544332D01*
X245109Y547868D01*
X246463Y551136D01*
X248964Y553637D01*
X252232Y554991D01*
X255768Y554991D01*
X259036Y553637D01*
X261537Y551136D01*
X262891Y547868D01*
X262891Y544332D01*
X261537Y541064D01*
X259036Y538563D01*
X255768Y537209D01*
X252232Y537209D01*
G37*
%LPD*%
%LPC*%
G36*
X226832Y537209D02*
X226832Y537209D01*
X223564Y538563D01*
X221063Y541064D01*
X219709Y544332D01*
X219709Y547868D01*
X221063Y551136D01*
X223564Y553637D01*
X226832Y554991D01*
X230368Y554991D01*
X233636Y553637D01*
X236137Y551136D01*
X237491Y547868D01*
X237491Y544332D01*
X236137Y541064D01*
X233636Y538563D01*
X230368Y537209D01*
X226832Y537209D01*
G37*
%LPD*%
%LPC*%
G36*
X353832Y689609D02*
X353832Y689609D01*
X350564Y690963D01*
X348063Y693464D01*
X346709Y696732D01*
X346709Y700268D01*
X348063Y703536D01*
X350564Y706037D01*
X353832Y707391D01*
X357368Y707391D01*
X360636Y706037D01*
X363137Y703536D01*
X364491Y700268D01*
X364491Y696732D01*
X363137Y693464D01*
X360636Y690963D01*
X357368Y689609D01*
X353832Y689609D01*
G37*
%LPD*%
%LPC*%
G36*
X379232Y537209D02*
X379232Y537209D01*
X375964Y538563D01*
X373463Y541064D01*
X372109Y544332D01*
X372109Y547868D01*
X373463Y551136D01*
X375964Y553637D01*
X379232Y554991D01*
X382768Y554991D01*
X386036Y553637D01*
X388537Y551136D01*
X389891Y547868D01*
X389891Y544332D01*
X388537Y541064D01*
X386036Y538563D01*
X382768Y537209D01*
X379232Y537209D01*
G37*
%LPD*%
%LPC*%
G36*
X328432Y689609D02*
X328432Y689609D01*
X325164Y690963D01*
X322663Y693464D01*
X321309Y696732D01*
X321309Y700268D01*
X322663Y703536D01*
X325164Y706037D01*
X328432Y707391D01*
X331968Y707391D01*
X335236Y706037D01*
X337737Y703536D01*
X339091Y700268D01*
X339091Y696732D01*
X337737Y693464D01*
X335236Y690963D01*
X331968Y689609D01*
X328432Y689609D01*
G37*
%LPD*%
%LPC*%
G36*
X303032Y689609D02*
X303032Y689609D01*
X299764Y690963D01*
X297263Y693464D01*
X295909Y696732D01*
X295909Y700268D01*
X297263Y703536D01*
X299764Y706037D01*
X303032Y707391D01*
X306568Y707391D01*
X309836Y706037D01*
X312337Y703536D01*
X313691Y700268D01*
X313691Y696732D01*
X312337Y693464D01*
X309836Y690963D01*
X306568Y689609D01*
X303032Y689609D01*
G37*
%LPD*%
%LPC*%
G36*
X455432Y689609D02*
X455432Y689609D01*
X452164Y690963D01*
X449663Y693464D01*
X448309Y696732D01*
X448309Y700268D01*
X449663Y703536D01*
X452164Y706037D01*
X455432Y707391D01*
X458968Y707391D01*
X462236Y706037D01*
X464737Y703536D01*
X466091Y700268D01*
X466091Y696732D01*
X464737Y693464D01*
X462236Y690963D01*
X458968Y689609D01*
X455432Y689609D01*
G37*
%LPD*%
%LPC*%
G36*
X199833Y347471D02*
X199833Y347471D01*
X195071Y352233D01*
X195071Y358967D01*
X199833Y363729D01*
X206567Y363729D01*
X211329Y358967D01*
X211329Y352233D01*
X206567Y347471D01*
X199833Y347471D01*
G37*
%LPD*%
%LPC*%
G36*
X65023Y141223D02*
X65023Y141223D01*
X65023Y163117D01*
X66548Y162875D01*
X68497Y162242D01*
X70323Y161312D01*
X71981Y160107D01*
X73430Y158658D01*
X74634Y157000D01*
X75564Y155175D01*
X76198Y153226D01*
X76518Y151202D01*
X76518Y141223D01*
X65023Y141223D01*
G37*
%LPD*%
%LPC*%
G36*
X357123Y141223D02*
X357123Y141223D01*
X357123Y163117D01*
X358648Y162875D01*
X360597Y162242D01*
X362423Y161312D01*
X364081Y160107D01*
X365530Y158658D01*
X366734Y157000D01*
X367664Y155175D01*
X368298Y153226D01*
X368618Y151202D01*
X368618Y141223D01*
X357123Y141223D01*
G37*
%LPD*%
%LPC*%
G36*
X357123Y138177D02*
X357123Y138177D01*
X368618Y138177D01*
X368618Y128198D01*
X368298Y126174D01*
X367664Y124225D01*
X366734Y122400D01*
X365530Y120742D01*
X364081Y119293D01*
X362423Y118088D01*
X360597Y117158D01*
X358648Y116525D01*
X357123Y116283D01*
X357123Y138177D01*
G37*
%LPD*%
%LPC*%
G36*
X65023Y138177D02*
X65023Y138177D01*
X76518Y138177D01*
X76518Y128198D01*
X76198Y126174D01*
X75564Y124225D01*
X74634Y122400D01*
X73430Y120742D01*
X71981Y119293D01*
X70323Y118088D01*
X68497Y117158D01*
X66548Y116525D01*
X65023Y116283D01*
X65023Y138177D01*
G37*
%LPD*%
%LPC*%
G36*
X50482Y141223D02*
X50482Y141223D01*
X50482Y151202D01*
X50802Y153226D01*
X51436Y155175D01*
X52366Y157000D01*
X53570Y158658D01*
X55019Y160107D01*
X56677Y161312D01*
X58503Y162242D01*
X60452Y162875D01*
X61977Y163117D01*
X61977Y141223D01*
X50482Y141223D01*
G37*
%LPD*%
%LPC*%
G36*
X342582Y141223D02*
X342582Y141223D01*
X342582Y151202D01*
X342902Y153226D01*
X343536Y155175D01*
X344466Y157000D01*
X345670Y158658D01*
X347119Y160107D01*
X348777Y161312D01*
X350603Y162242D01*
X352552Y162875D01*
X354077Y163117D01*
X354077Y141223D01*
X342582Y141223D01*
G37*
%LPD*%
%LPC*%
G36*
X352552Y116525D02*
X352552Y116525D01*
X350603Y117158D01*
X348777Y118088D01*
X347119Y119293D01*
X345670Y120742D01*
X344466Y122400D01*
X343536Y124225D01*
X342902Y126174D01*
X342582Y128198D01*
X342582Y138177D01*
X354077Y138177D01*
X354077Y116283D01*
X352552Y116525D01*
G37*
%LPD*%
%LPC*%
G36*
X60452Y116525D02*
X60452Y116525D01*
X58503Y117158D01*
X56677Y118088D01*
X55019Y119293D01*
X53570Y120742D01*
X52366Y122400D01*
X51436Y124225D01*
X50802Y126174D01*
X50482Y128198D01*
X50482Y138177D01*
X61977Y138177D01*
X61977Y116283D01*
X60452Y116525D01*
G37*
%LPD*%
%LPC*%
G36*
X369823Y255523D02*
X369823Y255523D01*
X369823Y271666D01*
X370679Y271531D01*
X372200Y271036D01*
X373625Y270310D01*
X374919Y269370D01*
X376050Y268239D01*
X376990Y266945D01*
X377716Y265520D01*
X378211Y263999D01*
X378461Y262420D01*
X378461Y255523D01*
X369823Y255523D01*
G37*
%LPD*%
%LPC*%
G36*
X141223Y869189D02*
X141223Y869189D01*
X149861Y869189D01*
X149861Y862292D01*
X149611Y860713D01*
X149116Y859192D01*
X148390Y857767D01*
X147450Y856473D01*
X146319Y855342D01*
X145025Y854402D01*
X143600Y853676D01*
X142079Y853181D01*
X141223Y853046D01*
X141223Y869189D01*
G37*
%LPD*%
%LPC*%
G36*
X369823Y252477D02*
X369823Y252477D01*
X378461Y252477D01*
X378461Y245580D01*
X378211Y244001D01*
X377716Y242480D01*
X376990Y241055D01*
X376050Y239761D01*
X374919Y238630D01*
X373625Y237690D01*
X372200Y236964D01*
X370679Y236469D01*
X369823Y236334D01*
X369823Y252477D01*
G37*
%LPD*%
%LPC*%
G36*
X358139Y255523D02*
X358139Y255523D01*
X358139Y262420D01*
X358389Y263999D01*
X358884Y265520D01*
X359610Y266945D01*
X360550Y268239D01*
X361681Y269370D01*
X362975Y270310D01*
X364400Y271036D01*
X365921Y271531D01*
X366777Y271666D01*
X366777Y255523D01*
X358139Y255523D01*
G37*
%LPD*%
%LPC*%
G36*
X137321Y853181D02*
X137321Y853181D01*
X135800Y853676D01*
X134375Y854402D01*
X133081Y855342D01*
X131950Y856473D01*
X131010Y857767D01*
X130284Y859192D01*
X129789Y860713D01*
X129539Y862292D01*
X129539Y869189D01*
X138177Y869189D01*
X138177Y853046D01*
X137321Y853181D01*
G37*
%LPD*%
%LPC*%
G36*
X365921Y236469D02*
X365921Y236469D01*
X364400Y236964D01*
X362975Y237690D01*
X361681Y238630D01*
X360550Y239761D01*
X359610Y241055D01*
X358884Y242480D01*
X358389Y244001D01*
X358139Y245580D01*
X358139Y252477D01*
X366777Y252477D01*
X366777Y236334D01*
X365921Y236469D01*
G37*
%LPD*%
%LPC*%
G36*
X509523Y547623D02*
X509523Y547623D01*
X509523Y555889D01*
X510320Y555763D01*
X511803Y555281D01*
X513192Y554573D01*
X514454Y553656D01*
X515556Y552554D01*
X516473Y551292D01*
X517181Y549903D01*
X517663Y548420D01*
X517789Y547623D01*
X509523Y547623D01*
G37*
%LPD*%
%LPC*%
G36*
X534923Y700023D02*
X534923Y700023D01*
X534923Y708289D01*
X535720Y708163D01*
X537203Y707681D01*
X538592Y706973D01*
X539854Y706056D01*
X540956Y704954D01*
X541873Y703692D01*
X542581Y702303D01*
X543063Y700820D01*
X543189Y700023D01*
X534923Y700023D01*
G37*
%LPD*%
%LPC*%
G36*
X523611Y700023D02*
X523611Y700023D01*
X523737Y700820D01*
X524219Y702303D01*
X524927Y703692D01*
X525844Y704954D01*
X526946Y706056D01*
X528208Y706973D01*
X529597Y707681D01*
X531080Y708163D01*
X531877Y708289D01*
X531877Y700023D01*
X523611Y700023D01*
G37*
%LPD*%
%LPC*%
G36*
X509523Y544577D02*
X509523Y544577D01*
X517789Y544577D01*
X517663Y543780D01*
X517181Y542297D01*
X516473Y540908D01*
X515556Y539646D01*
X514454Y538544D01*
X513192Y537627D01*
X511803Y536919D01*
X510320Y536437D01*
X509523Y536311D01*
X509523Y544577D01*
G37*
%LPD*%
%LPC*%
G36*
X498211Y547623D02*
X498211Y547623D01*
X498337Y548420D01*
X498819Y549903D01*
X499527Y551292D01*
X500444Y552554D01*
X501546Y553656D01*
X502808Y554573D01*
X504197Y555281D01*
X505680Y555763D01*
X506477Y555889D01*
X506477Y547623D01*
X498211Y547623D01*
G37*
%LPD*%
%LPC*%
G36*
X534923Y696977D02*
X534923Y696977D01*
X543189Y696977D01*
X543063Y696180D01*
X542581Y694697D01*
X541873Y693308D01*
X540956Y692046D01*
X539854Y690944D01*
X538592Y690027D01*
X537203Y689319D01*
X535720Y688837D01*
X534923Y688711D01*
X534923Y696977D01*
G37*
%LPD*%
%LPC*%
G36*
X531080Y688837D02*
X531080Y688837D01*
X529597Y689319D01*
X528208Y690027D01*
X526946Y690944D01*
X525844Y692046D01*
X524927Y693308D01*
X524219Y694697D01*
X523737Y696180D01*
X523611Y696977D01*
X531877Y696977D01*
X531877Y688711D01*
X531080Y688837D01*
G37*
%LPD*%
%LPC*%
G36*
X505680Y536437D02*
X505680Y536437D01*
X504197Y536919D01*
X502808Y537627D01*
X501546Y538544D01*
X500444Y539646D01*
X499527Y540908D01*
X498819Y542297D01*
X498337Y543780D01*
X498211Y544577D01*
X506477Y544577D01*
X506477Y536311D01*
X505680Y536437D01*
G37*
%LPD*%
%LPC*%
G36*
X533399Y698499D02*
X533399Y698499D01*
X533399Y698501D01*
X533401Y698501D01*
X533401Y698499D01*
X533399Y698499D01*
G37*
%LPD*%
%LPC*%
G36*
X368299Y253999D02*
X368299Y253999D01*
X368299Y254001D01*
X368301Y254001D01*
X368301Y253999D01*
X368299Y253999D01*
G37*
%LPD*%
%LPC*%
G36*
X507999Y546099D02*
X507999Y546099D01*
X507999Y546101D01*
X508001Y546101D01*
X508001Y546099D01*
X507999Y546099D01*
G37*
%LPD*%
%LPC*%
G36*
X355599Y139699D02*
X355599Y139699D01*
X355599Y139701D01*
X355601Y139701D01*
X355601Y139699D01*
X355599Y139699D01*
G37*
%LPD*%
%LPC*%
G36*
X63499Y139699D02*
X63499Y139699D01*
X63499Y139701D01*
X63501Y139701D01*
X63501Y139699D01*
X63499Y139699D01*
G37*
%LPD*%
D10*
X495300Y261620D02*
X495300Y246380D01*
X469900Y246380D02*
X469900Y261620D01*
X444500Y261620D02*
X444500Y246380D01*
X419100Y246380D02*
X419100Y261620D01*
X393700Y261620D02*
X393700Y246380D01*
X368300Y246380D02*
X368300Y261620D01*
X495300Y347980D02*
X495300Y363220D01*
X469900Y363220D02*
X469900Y347980D01*
X444500Y347980D02*
X444500Y363220D01*
X419100Y363220D02*
X419100Y347980D01*
X393700Y347980D02*
X393700Y363220D01*
X368300Y363220D02*
X368300Y347980D01*
D11*
X190500Y800100D03*
X266700Y800100D03*
D12*
X279400Y254000D03*
X203200Y254000D03*
X279400Y355600D03*
X203200Y355600D03*
D11*
X393700Y304800D03*
X469900Y304800D03*
D10*
X114300Y863092D02*
X114300Y878332D01*
X139700Y878332D02*
X139700Y863092D01*
X165100Y863092D02*
X165100Y878332D01*
X190500Y878332D02*
X190500Y863092D01*
X215900Y863092D02*
X215900Y878332D01*
X241300Y878332D02*
X241300Y863092D01*
X266700Y863092D02*
X266700Y878332D01*
X292100Y878332D02*
X292100Y863092D01*
X317500Y863092D02*
X317500Y878332D01*
X342900Y878332D02*
X342900Y863092D01*
X368300Y863092D02*
X368300Y878332D01*
X393700Y878332D02*
X393700Y863092D01*
X419100Y863092D02*
X419100Y878332D01*
X444500Y878332D02*
X444500Y863092D01*
D13*
X63500Y150178D02*
X63500Y129223D01*
X114300Y129223D02*
X114300Y150178D01*
X165100Y150178D02*
X165100Y129223D01*
X215900Y129223D02*
X215900Y150178D01*
X355600Y150178D02*
X355600Y129223D01*
X406400Y129223D02*
X406400Y150178D01*
X457200Y150178D02*
X457200Y129223D01*
X508000Y129223D02*
X508000Y150178D01*
D10*
X320548Y35052D02*
X320548Y19812D01*
X295148Y19812D02*
X295148Y35052D01*
X269748Y35052D02*
X269748Y19812D01*
X244348Y19812D02*
X244348Y35052D01*
D14*
X482600Y698500D03*
X457200Y698500D03*
X431800Y698500D03*
X406400Y698500D03*
X381000Y698500D03*
X355600Y698500D03*
X330200Y698500D03*
X304800Y698500D03*
X279400Y698500D03*
X254000Y698500D03*
X228600Y698500D03*
X203200Y698500D03*
X203200Y546100D03*
X228600Y546100D03*
X254000Y546100D03*
X279400Y546100D03*
X304800Y546100D03*
X330200Y546100D03*
X355600Y546100D03*
X381000Y546100D03*
X406400Y546100D03*
X431800Y546100D03*
X457200Y546100D03*
X508000Y698500D03*
X482600Y546100D03*
X533400Y698500D03*
X533400Y546100D03*
X508000Y546100D03*
X203200Y571500D03*
X203200Y596900D03*
X203200Y622300D03*
X203200Y647700D03*
X203200Y673100D03*
D15*
X482600Y546100D02*
X482600Y520700D01*
X495300Y508000D01*
X495300Y469900D01*
X495300Y355600D01*
X495300Y330200D01*
X469900Y304800D01*
X279400Y355600D02*
X279400Y254000D01*
X279400Y355600D02*
X393700Y469900D01*
X495300Y469900D01*
D16*
X127000Y800100D03*
X241300Y635000D03*
D15*
X292100Y584200D01*
X444500Y584200D01*
X482600Y546100D01*
X127000Y800100D02*
X114300Y800100D01*
X114300Y870712D01*
X114300Y880872D01*
X127000Y893572D01*
X173228Y893572D01*
X190500Y876300D02*
X190500Y870712D01*
X190500Y876300D02*
X173228Y893572D01*
X279400Y699474D02*
X279400Y698500D01*
X228600Y698500D02*
X228600Y734213D01*
X228600Y698500D02*
X228600Y858012D01*
X241300Y870712D01*
X241300Y880872D02*
X254000Y893572D01*
X376428Y893572D01*
X393700Y876300D02*
X393700Y870712D01*
X241300Y870712D02*
X241300Y880872D01*
X376428Y893572D02*
X393700Y876300D01*
D17*
X292100Y825500D02*
X266700Y800100D01*
X292100Y825500D02*
X292100Y870712D01*
D18*
X419100Y863600D02*
X419100Y673100D01*
D15*
X419100Y863600D02*
X419100Y870712D01*
X419100Y863600D02*
X406400Y850900D01*
X330200Y850900D01*
X317500Y863600D01*
X317500Y870712D01*
X203200Y698500D02*
X241300Y660400D01*
X406400Y660400D01*
X419100Y673100D01*
X419100Y870712D01*
D17*
X190500Y800100D02*
X76200Y685800D01*
X76200Y177800D02*
X114300Y139700D01*
X76200Y177800D02*
X76200Y685800D01*
X533400Y546100D02*
X533400Y292100D01*
X495300Y254000D01*
X190500Y215900D02*
X114300Y139700D01*
X190500Y215900D02*
X469900Y215900D01*
X495300Y241300D01*
X495300Y254000D01*
D15*
X254000Y304800D02*
X254000Y444500D01*
X330200Y520700D01*
X330200Y546100D01*
X254000Y304800D02*
X203200Y254000D01*
X368300Y330200D02*
X393700Y304800D01*
X368300Y330200D02*
X368300Y355600D01*
X457200Y177800D02*
X457200Y139700D01*
X457200Y177800D02*
X482600Y203200D01*
D16*
X482600Y203200D03*
M02*
