G04 EAGLE Gerber RS-274X export*
G75*
%MOMM*%
%FSLAX34Y34*%
%LPD*%
%INTop Copper*%
%IPPOS*%
%AMOC8*
5,1,8,0,0,1.08239X$1,22.5*%
G01*
%ADD10C,1.524000*%
%ADD11P,1.429621X8X22.500000*%
%ADD12P,1.429621X8X202.500000*%
%ADD13C,2.095500*%
%ADD14C,1.473200*%
%ADD15C,0.756400*%
%ADD16C,0.508000*%

G36*
X240021Y10176D02*
X240021Y10176D01*
X240118Y10186D01*
X240142Y10196D01*
X240168Y10200D01*
X240253Y10246D01*
X240343Y10286D01*
X240362Y10303D01*
X240385Y10316D01*
X240452Y10386D01*
X240524Y10452D01*
X240536Y10475D01*
X240554Y10494D01*
X240595Y10582D01*
X240642Y10668D01*
X240647Y10693D01*
X240658Y10717D01*
X240669Y10814D01*
X240686Y10910D01*
X240682Y10936D01*
X240685Y10961D01*
X240664Y11057D01*
X240650Y11153D01*
X240638Y11176D01*
X240633Y11202D01*
X240583Y11285D01*
X240539Y11372D01*
X240520Y11391D01*
X240507Y11413D01*
X240433Y11476D01*
X240363Y11544D01*
X240335Y11560D01*
X240320Y11573D01*
X240289Y11585D01*
X240216Y11625D01*
X239168Y12059D01*
X236595Y14632D01*
X235203Y17993D01*
X235203Y36871D01*
X236595Y40232D01*
X239168Y42805D01*
X242529Y44197D01*
X246167Y44197D01*
X249528Y42805D01*
X252101Y40232D01*
X253493Y36871D01*
X253493Y17993D01*
X252101Y14632D01*
X249528Y12059D01*
X248480Y11625D01*
X248397Y11574D01*
X248311Y11528D01*
X248293Y11510D01*
X248271Y11496D01*
X248209Y11420D01*
X248142Y11350D01*
X248131Y11326D01*
X248114Y11306D01*
X248079Y11215D01*
X248038Y11127D01*
X248035Y11101D01*
X248026Y11077D01*
X248022Y10979D01*
X248011Y10883D01*
X248016Y10857D01*
X248015Y10831D01*
X248042Y10737D01*
X248063Y10642D01*
X248077Y10620D01*
X248084Y10595D01*
X248139Y10515D01*
X248189Y10431D01*
X248209Y10414D01*
X248224Y10393D01*
X248302Y10334D01*
X248376Y10271D01*
X248401Y10261D01*
X248422Y10246D01*
X248514Y10216D01*
X248604Y10179D01*
X248637Y10176D01*
X248655Y10170D01*
X248688Y10170D01*
X248771Y10161D01*
X265325Y10161D01*
X265421Y10176D01*
X265518Y10186D01*
X265542Y10196D01*
X265568Y10200D01*
X265653Y10246D01*
X265743Y10286D01*
X265762Y10303D01*
X265785Y10316D01*
X265852Y10386D01*
X265924Y10452D01*
X265936Y10475D01*
X265954Y10494D01*
X265995Y10582D01*
X266042Y10668D01*
X266047Y10693D01*
X266058Y10717D01*
X266069Y10814D01*
X266086Y10910D01*
X266082Y10936D01*
X266085Y10961D01*
X266064Y11057D01*
X266050Y11153D01*
X266038Y11176D01*
X266033Y11202D01*
X265983Y11285D01*
X265939Y11372D01*
X265920Y11391D01*
X265907Y11413D01*
X265833Y11476D01*
X265763Y11544D01*
X265735Y11560D01*
X265720Y11573D01*
X265689Y11585D01*
X265616Y11625D01*
X264568Y12059D01*
X261995Y14632D01*
X260603Y17993D01*
X260603Y36871D01*
X261995Y40232D01*
X264568Y42805D01*
X267929Y44197D01*
X271567Y44197D01*
X274928Y42805D01*
X277501Y40232D01*
X278893Y36871D01*
X278893Y17993D01*
X277501Y14632D01*
X274928Y12059D01*
X273880Y11625D01*
X273797Y11574D01*
X273711Y11528D01*
X273693Y11510D01*
X273671Y11496D01*
X273609Y11420D01*
X273542Y11350D01*
X273531Y11326D01*
X273514Y11306D01*
X273479Y11215D01*
X273438Y11127D01*
X273435Y11101D01*
X273426Y11077D01*
X273422Y10979D01*
X273411Y10883D01*
X273416Y10857D01*
X273415Y10831D01*
X273442Y10737D01*
X273463Y10642D01*
X273477Y10620D01*
X273484Y10595D01*
X273539Y10515D01*
X273589Y10431D01*
X273609Y10414D01*
X273624Y10393D01*
X273702Y10334D01*
X273776Y10271D01*
X273801Y10261D01*
X273822Y10246D01*
X273914Y10216D01*
X274004Y10179D01*
X274037Y10176D01*
X274055Y10170D01*
X274088Y10170D01*
X274171Y10161D01*
X290725Y10161D01*
X290821Y10176D01*
X290918Y10186D01*
X290942Y10196D01*
X290968Y10200D01*
X291053Y10246D01*
X291143Y10286D01*
X291162Y10303D01*
X291185Y10316D01*
X291252Y10386D01*
X291324Y10452D01*
X291336Y10475D01*
X291354Y10494D01*
X291395Y10582D01*
X291442Y10668D01*
X291447Y10693D01*
X291458Y10717D01*
X291469Y10814D01*
X291486Y10910D01*
X291482Y10936D01*
X291485Y10961D01*
X291464Y11057D01*
X291450Y11153D01*
X291438Y11176D01*
X291433Y11202D01*
X291383Y11285D01*
X291339Y11372D01*
X291320Y11391D01*
X291307Y11413D01*
X291233Y11476D01*
X291163Y11544D01*
X291135Y11560D01*
X291120Y11573D01*
X291089Y11585D01*
X291016Y11625D01*
X289968Y12059D01*
X287395Y14632D01*
X286003Y17993D01*
X286003Y36871D01*
X287395Y40232D01*
X289968Y42805D01*
X293329Y44197D01*
X296967Y44197D01*
X300328Y42805D01*
X302901Y40232D01*
X304293Y36871D01*
X304293Y17993D01*
X302901Y14632D01*
X300328Y12059D01*
X299280Y11625D01*
X299197Y11574D01*
X299111Y11528D01*
X299093Y11510D01*
X299071Y11496D01*
X299009Y11420D01*
X298942Y11350D01*
X298931Y11326D01*
X298914Y11306D01*
X298879Y11215D01*
X298838Y11127D01*
X298835Y11101D01*
X298826Y11077D01*
X298822Y10979D01*
X298811Y10883D01*
X298816Y10857D01*
X298815Y10831D01*
X298842Y10737D01*
X298863Y10642D01*
X298877Y10620D01*
X298884Y10595D01*
X298939Y10515D01*
X298989Y10431D01*
X299009Y10414D01*
X299024Y10393D01*
X299102Y10334D01*
X299176Y10271D01*
X299201Y10261D01*
X299222Y10246D01*
X299314Y10216D01*
X299404Y10179D01*
X299437Y10176D01*
X299455Y10170D01*
X299488Y10170D01*
X299571Y10161D01*
X316125Y10161D01*
X316221Y10176D01*
X316318Y10186D01*
X316342Y10196D01*
X316368Y10200D01*
X316453Y10246D01*
X316543Y10286D01*
X316562Y10303D01*
X316585Y10316D01*
X316652Y10386D01*
X316724Y10452D01*
X316736Y10475D01*
X316754Y10494D01*
X316795Y10582D01*
X316842Y10668D01*
X316847Y10693D01*
X316858Y10717D01*
X316869Y10814D01*
X316886Y10910D01*
X316882Y10936D01*
X316885Y10961D01*
X316864Y11057D01*
X316850Y11153D01*
X316838Y11176D01*
X316833Y11202D01*
X316783Y11285D01*
X316739Y11372D01*
X316720Y11391D01*
X316707Y11413D01*
X316633Y11476D01*
X316563Y11544D01*
X316535Y11560D01*
X316520Y11573D01*
X316489Y11585D01*
X316416Y11625D01*
X315368Y12059D01*
X312795Y14632D01*
X311403Y17993D01*
X311403Y36871D01*
X312795Y40232D01*
X315368Y42805D01*
X318729Y44197D01*
X322367Y44197D01*
X325728Y42805D01*
X328301Y40232D01*
X329693Y36871D01*
X329693Y17993D01*
X328301Y14632D01*
X325728Y12059D01*
X324680Y11625D01*
X324597Y11574D01*
X324511Y11528D01*
X324493Y11510D01*
X324471Y11496D01*
X324409Y11420D01*
X324342Y11350D01*
X324331Y11326D01*
X324314Y11306D01*
X324279Y11215D01*
X324238Y11127D01*
X324235Y11101D01*
X324226Y11077D01*
X324222Y10979D01*
X324211Y10883D01*
X324216Y10857D01*
X324215Y10831D01*
X324242Y10737D01*
X324263Y10642D01*
X324277Y10620D01*
X324284Y10595D01*
X324339Y10515D01*
X324389Y10431D01*
X324409Y10414D01*
X324424Y10393D01*
X324502Y10334D01*
X324576Y10271D01*
X324601Y10261D01*
X324622Y10246D01*
X324714Y10216D01*
X324804Y10179D01*
X324837Y10176D01*
X324855Y10170D01*
X324888Y10170D01*
X324971Y10161D01*
X553974Y10161D01*
X553994Y10164D01*
X554013Y10162D01*
X554115Y10184D01*
X554217Y10200D01*
X554234Y10210D01*
X554254Y10214D01*
X554343Y10267D01*
X554434Y10316D01*
X554448Y10330D01*
X554465Y10340D01*
X554532Y10419D01*
X554604Y10494D01*
X554612Y10512D01*
X554625Y10527D01*
X554664Y10623D01*
X554707Y10717D01*
X554709Y10737D01*
X554717Y10755D01*
X554735Y10922D01*
X554735Y895350D01*
X554732Y895370D01*
X554734Y895389D01*
X554712Y895491D01*
X554696Y895593D01*
X554686Y895610D01*
X554682Y895630D01*
X554629Y895719D01*
X554580Y895810D01*
X554566Y895824D01*
X554556Y895841D01*
X554477Y895908D01*
X554402Y895980D01*
X554384Y895988D01*
X554369Y896001D01*
X554273Y896040D01*
X554179Y896083D01*
X554159Y896085D01*
X554141Y896093D01*
X553974Y896111D01*
X330675Y896111D01*
X330604Y896100D01*
X330532Y896098D01*
X330483Y896080D01*
X330432Y896072D01*
X330369Y896038D01*
X330301Y896013D01*
X330261Y895981D01*
X330215Y895956D01*
X330165Y895905D01*
X330109Y895860D01*
X330081Y895816D01*
X330045Y895778D01*
X330015Y895713D01*
X329976Y895653D01*
X329964Y895602D01*
X329942Y895555D01*
X329934Y895484D01*
X329916Y895414D01*
X329920Y895362D01*
X329915Y895311D01*
X329930Y895240D01*
X329936Y895169D01*
X329956Y895121D01*
X329967Y895070D01*
X330004Y895009D01*
X330032Y894943D01*
X330077Y894887D01*
X330093Y894859D01*
X330111Y894844D01*
X330137Y894812D01*
X338169Y886779D01*
X338264Y886711D01*
X338358Y886641D01*
X338364Y886639D01*
X338369Y886636D01*
X338480Y886602D01*
X338592Y886565D01*
X338598Y886565D01*
X338604Y886563D01*
X338721Y886566D01*
X338838Y886567D01*
X338845Y886570D01*
X338850Y886570D01*
X338867Y886576D01*
X338999Y886614D01*
X341081Y887477D01*
X344719Y887477D01*
X348080Y886085D01*
X350653Y883512D01*
X352045Y880151D01*
X352045Y861273D01*
X350653Y857912D01*
X348080Y855339D01*
X344719Y853947D01*
X341081Y853947D01*
X337720Y855339D01*
X335147Y857912D01*
X333755Y861273D01*
X333755Y879381D01*
X333741Y879471D01*
X333733Y879562D01*
X333721Y879592D01*
X333716Y879624D01*
X333673Y879704D01*
X333637Y879788D01*
X333611Y879820D01*
X333600Y879841D01*
X333577Y879863D01*
X333532Y879919D01*
X324167Y889284D01*
X324093Y889337D01*
X324024Y889397D01*
X323994Y889409D01*
X323968Y889428D01*
X323881Y889455D01*
X323796Y889489D01*
X323755Y889493D01*
X323732Y889500D01*
X323700Y889499D01*
X323629Y889507D01*
X281399Y889507D01*
X281309Y889493D01*
X281218Y889485D01*
X281188Y889473D01*
X281156Y889468D01*
X281076Y889425D01*
X280992Y889389D01*
X280960Y889363D01*
X280939Y889352D01*
X280917Y889329D01*
X280861Y889284D01*
X274998Y883422D01*
X274931Y883328D01*
X274861Y883233D01*
X274859Y883227D01*
X274855Y883222D01*
X274821Y883111D01*
X274784Y883000D01*
X274784Y882993D01*
X274783Y882987D01*
X274786Y882870D01*
X274787Y882754D01*
X274789Y882746D01*
X274789Y882741D01*
X274795Y882724D01*
X274833Y882592D01*
X275845Y880151D01*
X275845Y861273D01*
X274453Y857912D01*
X271880Y855339D01*
X271235Y855072D01*
X271135Y855011D01*
X271035Y854951D01*
X271031Y854946D01*
X271026Y854943D01*
X270951Y854852D01*
X270875Y854764D01*
X270873Y854758D01*
X270869Y854753D01*
X270827Y854645D01*
X270783Y854536D01*
X270782Y854528D01*
X270781Y854523D01*
X270780Y854505D01*
X270765Y854369D01*
X270765Y836516D01*
X245588Y811339D01*
X245535Y811265D01*
X245475Y811196D01*
X245463Y811166D01*
X245444Y811140D01*
X245417Y811053D01*
X245383Y810968D01*
X245379Y810927D01*
X245372Y810904D01*
X245373Y810872D01*
X245365Y810801D01*
X245365Y763999D01*
X245380Y763909D01*
X245387Y763818D01*
X245399Y763788D01*
X245404Y763756D01*
X245447Y763676D01*
X245483Y763592D01*
X245509Y763560D01*
X245520Y763539D01*
X245543Y763517D01*
X245588Y763461D01*
X296165Y712884D01*
X296165Y704276D01*
X296176Y704205D01*
X296178Y704133D01*
X296196Y704085D01*
X296204Y704033D01*
X296238Y703970D01*
X296263Y703902D01*
X296295Y703862D01*
X296320Y703816D01*
X296372Y703766D01*
X296416Y703710D01*
X296460Y703682D01*
X296498Y703646D01*
X296563Y703616D01*
X296623Y703577D01*
X296674Y703565D01*
X296721Y703543D01*
X296792Y703535D01*
X296862Y703517D01*
X296914Y703521D01*
X296965Y703516D01*
X297036Y703531D01*
X297107Y703537D01*
X297155Y703557D01*
X297206Y703568D01*
X297267Y703605D01*
X297333Y703633D01*
X297389Y703678D01*
X297417Y703694D01*
X297432Y703712D01*
X297464Y703738D01*
X299764Y706037D01*
X303032Y707391D01*
X306569Y707391D01*
X307070Y707183D01*
X307183Y707156D01*
X307297Y707128D01*
X307303Y707128D01*
X307309Y707127D01*
X307426Y707138D01*
X307542Y707147D01*
X307548Y707149D01*
X307554Y707150D01*
X307662Y707198D01*
X307769Y707243D01*
X307774Y707248D01*
X307779Y707250D01*
X307793Y707263D01*
X307900Y707348D01*
X364012Y763461D01*
X364065Y763535D01*
X364125Y763604D01*
X364137Y763634D01*
X364156Y763660D01*
X364183Y763747D01*
X364217Y763832D01*
X364221Y763873D01*
X364228Y763896D01*
X364227Y763928D01*
X364235Y763999D01*
X364235Y854369D01*
X364216Y854484D01*
X364199Y854600D01*
X364197Y854605D01*
X364196Y854612D01*
X364141Y854714D01*
X364088Y854819D01*
X364083Y854823D01*
X364080Y854829D01*
X363996Y854909D01*
X363912Y854991D01*
X363906Y854995D01*
X363902Y854998D01*
X363885Y855006D01*
X363765Y855072D01*
X363120Y855339D01*
X360547Y857912D01*
X359155Y861273D01*
X359155Y880151D01*
X360547Y883512D01*
X363120Y886085D01*
X366481Y887477D01*
X370119Y887477D01*
X373480Y886085D01*
X376053Y883512D01*
X377445Y880151D01*
X377445Y861273D01*
X376053Y857912D01*
X373480Y855339D01*
X372835Y855072D01*
X372735Y855011D01*
X372635Y854951D01*
X372631Y854946D01*
X372626Y854943D01*
X372551Y854852D01*
X372475Y854764D01*
X372473Y854758D01*
X372469Y854753D01*
X372427Y854645D01*
X372383Y854536D01*
X372382Y854528D01*
X372381Y854523D01*
X372380Y854505D01*
X372365Y854369D01*
X372365Y760316D01*
X313648Y701600D01*
X313581Y701506D01*
X313510Y701411D01*
X313508Y701405D01*
X313504Y701400D01*
X313470Y701289D01*
X313434Y701177D01*
X313434Y701171D01*
X313432Y701165D01*
X313435Y701048D01*
X313436Y700931D01*
X313438Y700924D01*
X313438Y700919D01*
X313445Y700902D01*
X313483Y700770D01*
X313691Y700269D01*
X313691Y696732D01*
X312337Y693464D01*
X309836Y690963D01*
X306568Y689609D01*
X303032Y689609D01*
X299764Y690963D01*
X297464Y693262D01*
X297406Y693304D01*
X297354Y693354D01*
X297307Y693376D01*
X297265Y693406D01*
X297196Y693427D01*
X297131Y693457D01*
X297079Y693463D01*
X297029Y693478D01*
X296958Y693476D01*
X296887Y693484D01*
X296836Y693473D01*
X296784Y693472D01*
X296716Y693447D01*
X296646Y693432D01*
X296601Y693405D01*
X296553Y693387D01*
X296497Y693343D01*
X296435Y693306D01*
X296401Y693266D01*
X296361Y693234D01*
X296322Y693173D01*
X296275Y693119D01*
X296256Y693071D01*
X296228Y693027D01*
X296210Y692957D01*
X296183Y692891D01*
X296175Y692819D01*
X296167Y692788D01*
X296169Y692765D01*
X296165Y692724D01*
X296165Y633316D01*
X293561Y630712D01*
X212048Y549200D01*
X211981Y549106D01*
X211910Y549011D01*
X211908Y549005D01*
X211904Y549000D01*
X211870Y548889D01*
X211834Y548777D01*
X211834Y548771D01*
X211832Y548765D01*
X211835Y548648D01*
X211836Y548531D01*
X211838Y548524D01*
X211838Y548519D01*
X211845Y548501D01*
X211883Y548370D01*
X212091Y547869D01*
X212091Y544332D01*
X210737Y541064D01*
X208236Y538563D01*
X204968Y537209D01*
X201432Y537209D01*
X198164Y538563D01*
X195663Y541064D01*
X194309Y544332D01*
X194309Y547868D01*
X195663Y551136D01*
X198164Y553637D01*
X201432Y554991D01*
X204969Y554991D01*
X205470Y554783D01*
X205583Y554756D01*
X205697Y554728D01*
X205703Y554728D01*
X205709Y554727D01*
X205826Y554738D01*
X205942Y554747D01*
X205948Y554749D01*
X205954Y554750D01*
X206062Y554798D01*
X206169Y554843D01*
X206174Y554848D01*
X206179Y554850D01*
X206193Y554863D01*
X206300Y554948D01*
X287812Y636461D01*
X287865Y636535D01*
X287925Y636604D01*
X287937Y636634D01*
X287956Y636660D01*
X287983Y636747D01*
X288017Y636832D01*
X288021Y636873D01*
X288028Y636896D01*
X288027Y636928D01*
X288035Y636999D01*
X288035Y692724D01*
X288024Y692795D01*
X288022Y692867D01*
X288004Y692915D01*
X287996Y692967D01*
X287962Y693030D01*
X287937Y693098D01*
X287905Y693138D01*
X287880Y693184D01*
X287828Y693234D01*
X287784Y693290D01*
X287740Y693318D01*
X287702Y693354D01*
X287637Y693384D01*
X287577Y693423D01*
X287526Y693435D01*
X287479Y693457D01*
X287408Y693465D01*
X287338Y693483D01*
X287286Y693479D01*
X287235Y693484D01*
X287164Y693469D01*
X287093Y693463D01*
X287045Y693443D01*
X286994Y693432D01*
X286933Y693395D01*
X286867Y693367D01*
X286811Y693322D01*
X286783Y693306D01*
X286768Y693288D01*
X286736Y693262D01*
X284436Y690963D01*
X281168Y689609D01*
X277632Y689609D01*
X274364Y690963D01*
X271863Y693464D01*
X270509Y696732D01*
X270509Y700269D01*
X270717Y700770D01*
X270744Y700883D01*
X270772Y700997D01*
X270772Y701003D01*
X270773Y701009D01*
X270762Y701125D01*
X270753Y701242D01*
X270751Y701248D01*
X270750Y701254D01*
X270702Y701362D01*
X270657Y701469D01*
X270652Y701474D01*
X270650Y701479D01*
X270637Y701493D01*
X270552Y701600D01*
X227139Y745012D01*
X224535Y747616D01*
X224535Y836201D01*
X224521Y836291D01*
X224513Y836382D01*
X224501Y836412D01*
X224496Y836444D01*
X224453Y836524D01*
X224417Y836608D01*
X224391Y836640D01*
X224380Y836661D01*
X224357Y836683D01*
X224312Y836739D01*
X211835Y849216D01*
X211835Y854369D01*
X211816Y854484D01*
X211799Y854600D01*
X211797Y854605D01*
X211796Y854612D01*
X211741Y854714D01*
X211688Y854819D01*
X211683Y854823D01*
X211680Y854829D01*
X211596Y854909D01*
X211512Y854991D01*
X211506Y854995D01*
X211502Y854998D01*
X211485Y855006D01*
X211365Y855072D01*
X210720Y855339D01*
X208147Y857912D01*
X206755Y861273D01*
X206755Y880151D01*
X208147Y883512D01*
X210720Y886085D01*
X214081Y887477D01*
X217719Y887477D01*
X221080Y886085D01*
X223653Y883512D01*
X225045Y880151D01*
X225045Y861273D01*
X223653Y857912D01*
X221080Y855339D01*
X220435Y855072D01*
X220335Y855011D01*
X220235Y854951D01*
X220231Y854946D01*
X220226Y854943D01*
X220151Y854852D01*
X220075Y854764D01*
X220073Y854758D01*
X220069Y854753D01*
X220027Y854645D01*
X219983Y854536D01*
X219982Y854528D01*
X219981Y854523D01*
X219980Y854505D01*
X219965Y854369D01*
X219965Y852899D01*
X219979Y852809D01*
X219987Y852718D01*
X219999Y852688D01*
X220004Y852656D01*
X220047Y852576D01*
X220083Y852492D01*
X220109Y852460D01*
X220120Y852439D01*
X220143Y852417D01*
X220188Y852361D01*
X232665Y839884D01*
X232665Y751299D01*
X232679Y751209D01*
X232687Y751118D01*
X232699Y751088D01*
X232704Y751056D01*
X232747Y750976D01*
X232783Y750892D01*
X232809Y750860D01*
X232820Y750839D01*
X232843Y750817D01*
X232888Y750761D01*
X276300Y707348D01*
X276394Y707281D01*
X276489Y707210D01*
X276495Y707208D01*
X276500Y707204D01*
X276611Y707170D01*
X276723Y707134D01*
X276729Y707134D01*
X276735Y707132D01*
X276852Y707135D01*
X276969Y707136D01*
X276976Y707138D01*
X276981Y707138D01*
X276998Y707145D01*
X277130Y707183D01*
X277631Y707391D01*
X281168Y707391D01*
X284436Y706037D01*
X286736Y703738D01*
X286794Y703696D01*
X286846Y703646D01*
X286893Y703624D01*
X286935Y703594D01*
X287004Y703573D01*
X287069Y703543D01*
X287121Y703537D01*
X287171Y703522D01*
X287242Y703524D01*
X287313Y703516D01*
X287364Y703527D01*
X287416Y703528D01*
X287484Y703553D01*
X287554Y703568D01*
X287599Y703595D01*
X287647Y703613D01*
X287703Y703657D01*
X287765Y703694D01*
X287799Y703734D01*
X287839Y703766D01*
X287878Y703827D01*
X287925Y703881D01*
X287944Y703929D01*
X287972Y703973D01*
X287990Y704043D01*
X288017Y704109D01*
X288025Y704181D01*
X288033Y704212D01*
X288031Y704235D01*
X288035Y704276D01*
X288035Y709201D01*
X288021Y709291D01*
X288013Y709382D01*
X288001Y709412D01*
X287996Y709444D01*
X287953Y709524D01*
X287917Y709608D01*
X287891Y709640D01*
X287880Y709661D01*
X287857Y709683D01*
X287812Y709739D01*
X237235Y760316D01*
X237235Y814484D01*
X262412Y839661D01*
X262465Y839735D01*
X262525Y839804D01*
X262537Y839834D01*
X262556Y839860D01*
X262583Y839947D01*
X262617Y840032D01*
X262621Y840073D01*
X262628Y840096D01*
X262627Y840128D01*
X262635Y840199D01*
X262635Y854369D01*
X262616Y854484D01*
X262599Y854600D01*
X262597Y854605D01*
X262596Y854612D01*
X262541Y854714D01*
X262488Y854819D01*
X262483Y854823D01*
X262480Y854829D01*
X262396Y854909D01*
X262312Y854991D01*
X262306Y854995D01*
X262302Y854998D01*
X262285Y855006D01*
X262165Y855072D01*
X261520Y855339D01*
X258947Y857912D01*
X257555Y861273D01*
X257555Y880151D01*
X258947Y883512D01*
X261520Y886085D01*
X264881Y887477D01*
X267241Y887477D01*
X267331Y887491D01*
X267422Y887499D01*
X267452Y887511D01*
X267484Y887516D01*
X267564Y887559D01*
X267648Y887595D01*
X267680Y887621D01*
X267701Y887632D01*
X267723Y887655D01*
X267779Y887700D01*
X274891Y894812D01*
X274933Y894870D01*
X274983Y894922D01*
X275005Y894969D01*
X275035Y895011D01*
X275056Y895080D01*
X275086Y895145D01*
X275092Y895197D01*
X275107Y895247D01*
X275105Y895318D01*
X275113Y895389D01*
X275102Y895440D01*
X275101Y895492D01*
X275076Y895560D01*
X275061Y895630D01*
X275034Y895675D01*
X275016Y895723D01*
X274972Y895779D01*
X274935Y895841D01*
X274895Y895875D01*
X274863Y895915D01*
X274802Y895954D01*
X274748Y896001D01*
X274700Y896020D01*
X274656Y896048D01*
X274586Y896066D01*
X274520Y896093D01*
X274448Y896101D01*
X274417Y896109D01*
X274394Y896107D01*
X274353Y896111D01*
X10922Y896111D01*
X10902Y896108D01*
X10883Y896110D01*
X10781Y896088D01*
X10679Y896072D01*
X10662Y896062D01*
X10642Y896058D01*
X10553Y896005D01*
X10462Y895956D01*
X10448Y895942D01*
X10431Y895932D01*
X10364Y895853D01*
X10292Y895778D01*
X10284Y895760D01*
X10271Y895745D01*
X10232Y895649D01*
X10189Y895555D01*
X10187Y895535D01*
X10179Y895517D01*
X10161Y895350D01*
X10161Y10922D01*
X10164Y10902D01*
X10162Y10883D01*
X10184Y10781D01*
X10200Y10679D01*
X10210Y10662D01*
X10214Y10642D01*
X10267Y10553D01*
X10316Y10462D01*
X10330Y10448D01*
X10340Y10431D01*
X10419Y10364D01*
X10494Y10292D01*
X10512Y10284D01*
X10527Y10271D01*
X10623Y10232D01*
X10717Y10189D01*
X10737Y10187D01*
X10755Y10179D01*
X10922Y10161D01*
X239925Y10161D01*
X240021Y10176D01*
G37*
%LPC*%
G36*
X442681Y338835D02*
X442681Y338835D01*
X439320Y340227D01*
X436747Y342800D01*
X435355Y346161D01*
X435355Y365039D01*
X436747Y368400D01*
X439320Y370973D01*
X439965Y371240D01*
X440065Y371301D01*
X440165Y371361D01*
X440169Y371366D01*
X440174Y371369D01*
X440249Y371460D01*
X440325Y371548D01*
X440327Y371554D01*
X440331Y371559D01*
X440373Y371667D01*
X440417Y371776D01*
X440418Y371784D01*
X440419Y371789D01*
X440420Y371807D01*
X440435Y371943D01*
X440435Y540324D01*
X440424Y540395D01*
X440422Y540467D01*
X440404Y540515D01*
X440396Y540567D01*
X440362Y540630D01*
X440337Y540698D01*
X440305Y540738D01*
X440280Y540784D01*
X440228Y540834D01*
X440184Y540890D01*
X440140Y540918D01*
X440102Y540954D01*
X440037Y540984D01*
X439977Y541023D01*
X439926Y541035D01*
X439879Y541057D01*
X439808Y541065D01*
X439738Y541083D01*
X439686Y541079D01*
X439635Y541084D01*
X439564Y541069D01*
X439493Y541063D01*
X439445Y541043D01*
X439394Y541032D01*
X439333Y540995D01*
X439267Y540967D01*
X439211Y540922D01*
X439183Y540906D01*
X439168Y540888D01*
X439136Y540862D01*
X436836Y538563D01*
X433568Y537209D01*
X430032Y537209D01*
X426764Y538563D01*
X424263Y541064D01*
X422909Y544332D01*
X422909Y547868D01*
X424263Y551136D01*
X426764Y553637D01*
X430032Y554991D01*
X433568Y554991D01*
X436836Y553637D01*
X439136Y551338D01*
X439194Y551296D01*
X439246Y551246D01*
X439293Y551224D01*
X439335Y551194D01*
X439404Y551173D01*
X439469Y551143D01*
X439521Y551137D01*
X439571Y551122D01*
X439642Y551124D01*
X439713Y551116D01*
X439764Y551127D01*
X439816Y551128D01*
X439884Y551153D01*
X439954Y551168D01*
X439999Y551195D01*
X440047Y551213D01*
X440103Y551257D01*
X440165Y551294D01*
X440199Y551334D01*
X440239Y551366D01*
X440278Y551427D01*
X440325Y551481D01*
X440344Y551529D01*
X440372Y551573D01*
X440390Y551643D01*
X440417Y551709D01*
X440425Y551781D01*
X440433Y551812D01*
X440431Y551835D01*
X440435Y551876D01*
X440435Y573184D01*
X478312Y611061D01*
X478365Y611135D01*
X478425Y611204D01*
X478437Y611234D01*
X478456Y611260D01*
X478483Y611347D01*
X478517Y611432D01*
X478521Y611473D01*
X478528Y611496D01*
X478527Y611528D01*
X478535Y611599D01*
X478535Y690052D01*
X478516Y690167D01*
X478499Y690283D01*
X478497Y690288D01*
X478496Y690295D01*
X478441Y690397D01*
X478388Y690502D01*
X478383Y690506D01*
X478380Y690512D01*
X478296Y690592D01*
X478212Y690674D01*
X478206Y690678D01*
X478202Y690681D01*
X478185Y690689D01*
X478065Y690755D01*
X477564Y690963D01*
X475063Y693464D01*
X473709Y696732D01*
X473709Y700268D01*
X475063Y703536D01*
X477564Y706037D01*
X480832Y707391D01*
X484368Y707391D01*
X487636Y706037D01*
X490137Y703536D01*
X491491Y700268D01*
X491491Y696732D01*
X490137Y693464D01*
X487636Y690963D01*
X487135Y690755D01*
X487035Y690694D01*
X486935Y690634D01*
X486931Y690629D01*
X486926Y690625D01*
X486851Y690535D01*
X486775Y690447D01*
X486773Y690441D01*
X486769Y690436D01*
X486727Y690328D01*
X486683Y690218D01*
X486682Y690211D01*
X486681Y690206D01*
X486680Y690188D01*
X486665Y690052D01*
X486665Y607916D01*
X448788Y570039D01*
X448735Y569965D01*
X448675Y569896D01*
X448663Y569866D01*
X448644Y569840D01*
X448617Y569753D01*
X448583Y569668D01*
X448579Y569627D01*
X448572Y569604D01*
X448573Y569572D01*
X448565Y569501D01*
X448565Y551876D01*
X448576Y551805D01*
X448578Y551733D01*
X448596Y551685D01*
X448604Y551633D01*
X448638Y551570D01*
X448663Y551502D01*
X448695Y551462D01*
X448720Y551416D01*
X448772Y551366D01*
X448816Y551310D01*
X448860Y551282D01*
X448898Y551246D01*
X448963Y551216D01*
X449023Y551177D01*
X449074Y551165D01*
X449121Y551143D01*
X449192Y551135D01*
X449262Y551117D01*
X449314Y551121D01*
X449365Y551116D01*
X449436Y551131D01*
X449507Y551137D01*
X449555Y551157D01*
X449606Y551168D01*
X449667Y551205D01*
X449733Y551233D01*
X449789Y551278D01*
X449817Y551294D01*
X449832Y551312D01*
X449864Y551338D01*
X452164Y553637D01*
X455432Y554991D01*
X458968Y554991D01*
X462236Y553637D01*
X464536Y551338D01*
X464594Y551296D01*
X464646Y551246D01*
X464693Y551224D01*
X464735Y551194D01*
X464804Y551173D01*
X464869Y551143D01*
X464921Y551137D01*
X464971Y551122D01*
X465042Y551124D01*
X465113Y551116D01*
X465164Y551127D01*
X465216Y551128D01*
X465284Y551153D01*
X465354Y551168D01*
X465399Y551195D01*
X465447Y551213D01*
X465503Y551257D01*
X465565Y551294D01*
X465599Y551334D01*
X465639Y551366D01*
X465678Y551427D01*
X465725Y551481D01*
X465744Y551529D01*
X465772Y551573D01*
X465790Y551643D01*
X465817Y551709D01*
X465825Y551781D01*
X465833Y551812D01*
X465831Y551835D01*
X465835Y551876D01*
X465835Y560484D01*
X503712Y598361D01*
X503765Y598435D01*
X503825Y598504D01*
X503837Y598534D01*
X503856Y598560D01*
X503883Y598647D01*
X503917Y598732D01*
X503921Y598773D01*
X503928Y598796D01*
X503927Y598828D01*
X503935Y598899D01*
X503935Y690052D01*
X503916Y690167D01*
X503899Y690283D01*
X503897Y690288D01*
X503896Y690295D01*
X503841Y690397D01*
X503788Y690502D01*
X503783Y690506D01*
X503780Y690512D01*
X503696Y690592D01*
X503612Y690674D01*
X503606Y690678D01*
X503602Y690681D01*
X503585Y690689D01*
X503465Y690755D01*
X502964Y690963D01*
X500463Y693464D01*
X499109Y696732D01*
X499109Y700268D01*
X500463Y703536D01*
X502964Y706037D01*
X506232Y707391D01*
X509768Y707391D01*
X513036Y706037D01*
X515537Y703536D01*
X516891Y700268D01*
X516891Y696732D01*
X515537Y693464D01*
X513036Y690963D01*
X512535Y690755D01*
X512435Y690694D01*
X512335Y690634D01*
X512331Y690629D01*
X512326Y690625D01*
X512251Y690535D01*
X512175Y690447D01*
X512173Y690441D01*
X512169Y690436D01*
X512127Y690328D01*
X512083Y690218D01*
X512082Y690211D01*
X512081Y690206D01*
X512080Y690188D01*
X512065Y690052D01*
X512065Y595216D01*
X474188Y557339D01*
X474135Y557265D01*
X474075Y557196D01*
X474063Y557166D01*
X474044Y557140D01*
X474017Y557053D01*
X473983Y556968D01*
X473979Y556927D01*
X473972Y556904D01*
X473973Y556872D01*
X473965Y556801D01*
X473965Y551876D01*
X473976Y551805D01*
X473978Y551733D01*
X473996Y551685D01*
X474004Y551633D01*
X474038Y551570D01*
X474063Y551502D01*
X474095Y551462D01*
X474120Y551416D01*
X474172Y551366D01*
X474216Y551310D01*
X474260Y551282D01*
X474298Y551246D01*
X474363Y551216D01*
X474423Y551177D01*
X474474Y551165D01*
X474521Y551143D01*
X474592Y551135D01*
X474662Y551117D01*
X474714Y551121D01*
X474765Y551116D01*
X474836Y551131D01*
X474907Y551137D01*
X474955Y551157D01*
X475006Y551168D01*
X475067Y551205D01*
X475133Y551233D01*
X475189Y551278D01*
X475217Y551294D01*
X475232Y551312D01*
X475264Y551338D01*
X477564Y553637D01*
X480832Y554991D01*
X484368Y554991D01*
X487636Y553637D01*
X490137Y551136D01*
X491491Y547868D01*
X491491Y544332D01*
X490137Y541064D01*
X487636Y538563D01*
X484368Y537209D01*
X480832Y537209D01*
X477564Y538563D01*
X475264Y540862D01*
X475206Y540904D01*
X475154Y540954D01*
X475107Y540976D01*
X475065Y541006D01*
X474996Y541027D01*
X474931Y541057D01*
X474879Y541063D01*
X474829Y541078D01*
X474758Y541076D01*
X474687Y541084D01*
X474636Y541073D01*
X474584Y541072D01*
X474516Y541047D01*
X474446Y541032D01*
X474401Y541005D01*
X474353Y540987D01*
X474297Y540943D01*
X474235Y540906D01*
X474201Y540866D01*
X474161Y540834D01*
X474122Y540773D01*
X474075Y540719D01*
X474056Y540671D01*
X474028Y540627D01*
X474010Y540557D01*
X473983Y540491D01*
X473975Y540419D01*
X473967Y540388D01*
X473969Y540365D01*
X473965Y540324D01*
X473965Y371943D01*
X473984Y371828D01*
X474001Y371712D01*
X474003Y371707D01*
X474004Y371700D01*
X474059Y371598D01*
X474112Y371493D01*
X474117Y371489D01*
X474120Y371483D01*
X474204Y371403D01*
X474288Y371321D01*
X474294Y371317D01*
X474298Y371314D01*
X474315Y371306D01*
X474435Y371240D01*
X475080Y370973D01*
X477653Y368400D01*
X479045Y365039D01*
X479045Y346161D01*
X477653Y342800D01*
X475080Y340227D01*
X471719Y338835D01*
X468081Y338835D01*
X464720Y340227D01*
X462147Y342800D01*
X460755Y346161D01*
X460755Y365039D01*
X462147Y368400D01*
X464720Y370973D01*
X465365Y371240D01*
X465465Y371301D01*
X465565Y371361D01*
X465569Y371366D01*
X465574Y371369D01*
X465649Y371460D01*
X465725Y371548D01*
X465727Y371554D01*
X465731Y371559D01*
X465773Y371667D01*
X465817Y371776D01*
X465818Y371784D01*
X465819Y371789D01*
X465820Y371807D01*
X465835Y371943D01*
X465835Y540324D01*
X465824Y540395D01*
X465822Y540467D01*
X465804Y540515D01*
X465796Y540567D01*
X465762Y540630D01*
X465737Y540698D01*
X465705Y540738D01*
X465680Y540784D01*
X465628Y540834D01*
X465584Y540890D01*
X465540Y540918D01*
X465502Y540954D01*
X465437Y540984D01*
X465377Y541023D01*
X465326Y541035D01*
X465279Y541057D01*
X465208Y541065D01*
X465138Y541083D01*
X465086Y541079D01*
X465035Y541084D01*
X464964Y541069D01*
X464893Y541063D01*
X464845Y541043D01*
X464794Y541032D01*
X464733Y540995D01*
X464667Y540967D01*
X464611Y540922D01*
X464583Y540906D01*
X464568Y540888D01*
X464536Y540862D01*
X462236Y538563D01*
X458968Y537209D01*
X455432Y537209D01*
X452164Y538563D01*
X449864Y540862D01*
X449806Y540904D01*
X449754Y540954D01*
X449707Y540976D01*
X449665Y541006D01*
X449596Y541027D01*
X449531Y541057D01*
X449479Y541063D01*
X449429Y541078D01*
X449358Y541076D01*
X449287Y541084D01*
X449236Y541073D01*
X449184Y541072D01*
X449116Y541047D01*
X449046Y541032D01*
X449001Y541005D01*
X448953Y540987D01*
X448897Y540943D01*
X448835Y540906D01*
X448801Y540866D01*
X448761Y540834D01*
X448722Y540773D01*
X448675Y540719D01*
X448656Y540671D01*
X448628Y540627D01*
X448610Y540557D01*
X448583Y540491D01*
X448575Y540419D01*
X448567Y540388D01*
X448569Y540365D01*
X448565Y540324D01*
X448565Y371943D01*
X448584Y371828D01*
X448601Y371712D01*
X448603Y371707D01*
X448604Y371700D01*
X448659Y371598D01*
X448712Y371493D01*
X448717Y371489D01*
X448720Y371483D01*
X448804Y371403D01*
X448888Y371321D01*
X448894Y371317D01*
X448898Y371314D01*
X448915Y371306D01*
X449035Y371240D01*
X449680Y370973D01*
X452253Y368400D01*
X453645Y365039D01*
X453645Y346161D01*
X452253Y342800D01*
X449680Y340227D01*
X446319Y338835D01*
X442681Y338835D01*
G37*
%LPD*%
%LPC*%
G36*
X213513Y117220D02*
X213513Y117220D01*
X209101Y119048D01*
X205725Y122424D01*
X203898Y126835D01*
X203898Y152565D01*
X205725Y156976D01*
X209101Y160352D01*
X211365Y161290D01*
X211465Y161352D01*
X211565Y161412D01*
X211569Y161417D01*
X211574Y161420D01*
X211649Y161510D01*
X211725Y161599D01*
X211727Y161605D01*
X211731Y161609D01*
X211773Y161718D01*
X211817Y161827D01*
X211818Y161834D01*
X211819Y161839D01*
X211820Y161857D01*
X211835Y161994D01*
X211835Y217584D01*
X224312Y230061D01*
X224365Y230135D01*
X224425Y230204D01*
X224437Y230234D01*
X224456Y230260D01*
X224483Y230347D01*
X224517Y230432D01*
X224521Y230473D01*
X224528Y230496D01*
X224527Y230528D01*
X224535Y230599D01*
X224535Y315501D01*
X224521Y315591D01*
X224513Y315682D01*
X224501Y315712D01*
X224496Y315744D01*
X224453Y315824D01*
X224417Y315908D01*
X224391Y315940D01*
X224380Y315961D01*
X224357Y315983D01*
X224312Y316039D01*
X201739Y338612D01*
X199135Y341216D01*
X199135Y347854D01*
X199121Y347944D01*
X199113Y348035D01*
X199101Y348064D01*
X199096Y348096D01*
X199053Y348177D01*
X199017Y348261D01*
X198991Y348293D01*
X198980Y348314D01*
X198957Y348336D01*
X198912Y348392D01*
X195071Y352233D01*
X195071Y358967D01*
X199833Y363729D01*
X205265Y363729D01*
X205355Y363743D01*
X205446Y363751D01*
X205476Y363763D01*
X205508Y363768D01*
X205588Y363811D01*
X205672Y363847D01*
X205704Y363873D01*
X205725Y363884D01*
X205747Y363907D01*
X205803Y363952D01*
X351312Y509461D01*
X351365Y509535D01*
X351425Y509604D01*
X351437Y509634D01*
X351456Y509660D01*
X351483Y509747D01*
X351517Y509832D01*
X351521Y509873D01*
X351528Y509896D01*
X351527Y509928D01*
X351535Y509999D01*
X351535Y537652D01*
X351516Y537767D01*
X351499Y537883D01*
X351497Y537888D01*
X351496Y537895D01*
X351441Y537997D01*
X351388Y538102D01*
X351383Y538106D01*
X351380Y538112D01*
X351296Y538192D01*
X351212Y538274D01*
X351206Y538278D01*
X351202Y538281D01*
X351185Y538289D01*
X351065Y538355D01*
X350564Y538563D01*
X348063Y541064D01*
X346709Y544332D01*
X346709Y547868D01*
X348063Y551136D01*
X350564Y553637D01*
X353832Y554991D01*
X357368Y554991D01*
X360636Y553637D01*
X363137Y551136D01*
X364491Y547868D01*
X364491Y544332D01*
X363137Y541064D01*
X360636Y538563D01*
X360135Y538355D01*
X360035Y538294D01*
X359935Y538234D01*
X359931Y538229D01*
X359926Y538225D01*
X359851Y538135D01*
X359775Y538047D01*
X359773Y538041D01*
X359769Y538036D01*
X359727Y537928D01*
X359683Y537818D01*
X359682Y537811D01*
X359681Y537806D01*
X359680Y537788D01*
X359665Y537652D01*
X359665Y506316D01*
X357061Y503712D01*
X211552Y358203D01*
X211499Y358129D01*
X211439Y358060D01*
X211427Y358030D01*
X211408Y358004D01*
X211381Y357917D01*
X211347Y357832D01*
X211343Y357791D01*
X211336Y357769D01*
X211337Y357736D01*
X211329Y357665D01*
X211329Y352233D01*
X207488Y348392D01*
X207435Y348318D01*
X207375Y348249D01*
X207363Y348218D01*
X207344Y348192D01*
X207317Y348105D01*
X207283Y348020D01*
X207279Y347979D01*
X207272Y347957D01*
X207273Y347925D01*
X207265Y347854D01*
X207265Y344899D01*
X207279Y344809D01*
X207287Y344718D01*
X207299Y344688D01*
X207304Y344656D01*
X207347Y344576D01*
X207383Y344492D01*
X207409Y344460D01*
X207420Y344439D01*
X207443Y344417D01*
X207488Y344361D01*
X230061Y321788D01*
X232665Y319184D01*
X232665Y226916D01*
X220188Y214439D01*
X220135Y214365D01*
X220075Y214296D01*
X220063Y214266D01*
X220044Y214240D01*
X220017Y214153D01*
X219983Y214068D01*
X219979Y214027D01*
X219972Y214004D01*
X219973Y213972D01*
X219965Y213901D01*
X219965Y161994D01*
X219984Y161879D01*
X220001Y161763D01*
X220003Y161757D01*
X220004Y161751D01*
X220059Y161648D01*
X220112Y161543D01*
X220117Y161539D01*
X220120Y161533D01*
X220204Y161454D01*
X220288Y161371D01*
X220294Y161368D01*
X220298Y161364D01*
X220315Y161356D01*
X220435Y161290D01*
X222699Y160352D01*
X226075Y156976D01*
X227902Y152565D01*
X227902Y126835D01*
X226075Y122424D01*
X222699Y119048D01*
X218287Y117220D01*
X213513Y117220D01*
G37*
%LPD*%
%LPC*%
G36*
X201432Y613409D02*
X201432Y613409D01*
X198164Y614763D01*
X195663Y617264D01*
X194309Y620532D01*
X194309Y624068D01*
X195663Y627336D01*
X197962Y629636D01*
X198004Y629694D01*
X198054Y629746D01*
X198076Y629793D01*
X198106Y629835D01*
X198127Y629904D01*
X198157Y629969D01*
X198163Y630021D01*
X198178Y630071D01*
X198176Y630142D01*
X198184Y630213D01*
X198173Y630264D01*
X198172Y630316D01*
X198147Y630384D01*
X198132Y630454D01*
X198105Y630499D01*
X198087Y630547D01*
X198043Y630603D01*
X198006Y630665D01*
X197966Y630699D01*
X197934Y630739D01*
X197873Y630778D01*
X197819Y630825D01*
X197771Y630844D01*
X197727Y630872D01*
X197657Y630890D01*
X197591Y630917D01*
X197519Y630925D01*
X197488Y630933D01*
X197465Y630931D01*
X197424Y630935D01*
X163416Y630935D01*
X148335Y646016D01*
X148335Y772701D01*
X148321Y772791D01*
X148313Y772882D01*
X148301Y772912D01*
X148296Y772944D01*
X148253Y773024D01*
X148217Y773108D01*
X148191Y773140D01*
X148180Y773161D01*
X148157Y773183D01*
X148112Y773239D01*
X126781Y794570D01*
X126707Y794623D01*
X126638Y794683D01*
X126608Y794695D01*
X126582Y794714D01*
X126495Y794741D01*
X126410Y794775D01*
X126369Y794779D01*
X126347Y794786D01*
X126314Y794785D01*
X126243Y794793D01*
X124802Y794793D01*
X121693Y797902D01*
X121693Y802298D01*
X124802Y805407D01*
X129198Y805407D01*
X132307Y802298D01*
X132307Y800857D01*
X132321Y800767D01*
X132329Y800676D01*
X132341Y800646D01*
X132346Y800614D01*
X132389Y800534D01*
X132425Y800450D01*
X132451Y800418D01*
X132462Y800397D01*
X132485Y800375D01*
X132530Y800319D01*
X153861Y778988D01*
X156465Y776384D01*
X156465Y649699D01*
X156479Y649609D01*
X156487Y649518D01*
X156499Y649488D01*
X156504Y649456D01*
X156547Y649376D01*
X156583Y649292D01*
X156609Y649260D01*
X156620Y649239D01*
X156643Y649217D01*
X156688Y649161D01*
X166561Y639288D01*
X166635Y639235D01*
X166704Y639175D01*
X166734Y639163D01*
X166760Y639144D01*
X166847Y639117D01*
X166932Y639083D01*
X166973Y639079D01*
X166996Y639072D01*
X167028Y639073D01*
X167099Y639065D01*
X197424Y639065D01*
X197495Y639076D01*
X197567Y639078D01*
X197615Y639096D01*
X197667Y639104D01*
X197730Y639138D01*
X197798Y639163D01*
X197838Y639195D01*
X197884Y639220D01*
X197934Y639272D01*
X197990Y639316D01*
X198018Y639360D01*
X198054Y639398D01*
X198084Y639463D01*
X198123Y639523D01*
X198135Y639574D01*
X198157Y639621D01*
X198165Y639692D01*
X198183Y639762D01*
X198179Y639814D01*
X198184Y639865D01*
X198169Y639936D01*
X198163Y640007D01*
X198143Y640055D01*
X198132Y640106D01*
X198095Y640167D01*
X198067Y640233D01*
X198022Y640289D01*
X198006Y640317D01*
X197988Y640332D01*
X197962Y640364D01*
X195663Y642664D01*
X194309Y645932D01*
X194309Y649468D01*
X195663Y652736D01*
X198164Y655237D01*
X201432Y656591D01*
X204968Y656591D01*
X208236Y655237D01*
X210737Y652736D01*
X212091Y649468D01*
X212091Y645932D01*
X210737Y642664D01*
X208438Y640364D01*
X208396Y640306D01*
X208346Y640254D01*
X208324Y640207D01*
X208294Y640165D01*
X208273Y640096D01*
X208243Y640031D01*
X208237Y639979D01*
X208222Y639929D01*
X208224Y639858D01*
X208216Y639787D01*
X208227Y639736D01*
X208228Y639684D01*
X208253Y639616D01*
X208268Y639546D01*
X208295Y639501D01*
X208313Y639453D01*
X208357Y639397D01*
X208394Y639335D01*
X208434Y639301D01*
X208466Y639261D01*
X208527Y639222D01*
X208581Y639175D01*
X208629Y639156D01*
X208673Y639128D01*
X208743Y639110D01*
X208809Y639083D01*
X208881Y639075D01*
X208912Y639067D01*
X208935Y639069D01*
X208976Y639065D01*
X237545Y639065D01*
X237635Y639079D01*
X237726Y639087D01*
X237755Y639099D01*
X237787Y639104D01*
X237868Y639147D01*
X237952Y639183D01*
X237984Y639209D01*
X238005Y639220D01*
X238027Y639243D01*
X238083Y639288D01*
X239102Y640307D01*
X243498Y640307D01*
X246607Y637198D01*
X246607Y632802D01*
X243498Y629693D01*
X239102Y629693D01*
X238083Y630712D01*
X238009Y630765D01*
X237939Y630825D01*
X237909Y630837D01*
X237883Y630856D01*
X237796Y630883D01*
X237711Y630917D01*
X237670Y630921D01*
X237648Y630928D01*
X237616Y630927D01*
X237545Y630935D01*
X208976Y630935D01*
X208905Y630924D01*
X208833Y630922D01*
X208785Y630904D01*
X208733Y630896D01*
X208670Y630862D01*
X208602Y630837D01*
X208562Y630805D01*
X208516Y630780D01*
X208466Y630728D01*
X208410Y630684D01*
X208382Y630640D01*
X208346Y630602D01*
X208316Y630537D01*
X208277Y630477D01*
X208265Y630426D01*
X208243Y630379D01*
X208235Y630308D01*
X208217Y630238D01*
X208221Y630186D01*
X208216Y630135D01*
X208231Y630064D01*
X208237Y629993D01*
X208257Y629945D01*
X208268Y629894D01*
X208305Y629833D01*
X208333Y629767D01*
X208378Y629711D01*
X208394Y629683D01*
X208412Y629668D01*
X208438Y629636D01*
X210737Y627336D01*
X212091Y624068D01*
X212091Y620532D01*
X210737Y617264D01*
X208236Y614763D01*
X204968Y613409D01*
X201432Y613409D01*
G37*
%LPD*%
%LPC*%
G36*
X505613Y117220D02*
X505613Y117220D01*
X501201Y119048D01*
X497825Y122424D01*
X495998Y126835D01*
X495998Y145639D01*
X495983Y145729D01*
X495976Y145820D01*
X495963Y145849D01*
X495958Y145881D01*
X495915Y145962D01*
X495880Y146046D01*
X495854Y146078D01*
X495843Y146099D01*
X495820Y146121D01*
X495795Y146151D01*
X495794Y146154D01*
X495792Y146156D01*
X495775Y146177D01*
X443039Y198912D01*
X440435Y201516D01*
X440435Y237657D01*
X440416Y237772D01*
X440399Y237888D01*
X440397Y237893D01*
X440396Y237900D01*
X440341Y238002D01*
X440288Y238107D01*
X440283Y238111D01*
X440280Y238117D01*
X440196Y238197D01*
X440112Y238279D01*
X440106Y238283D01*
X440102Y238286D01*
X440085Y238294D01*
X439965Y238360D01*
X439320Y238627D01*
X436747Y241200D01*
X435355Y244561D01*
X435355Y263439D01*
X436747Y266800D01*
X439320Y269373D01*
X442681Y270765D01*
X446319Y270765D01*
X449680Y269373D01*
X452253Y266800D01*
X453645Y263439D01*
X453645Y244561D01*
X452253Y241200D01*
X449680Y238627D01*
X449035Y238360D01*
X448935Y238299D01*
X448835Y238239D01*
X448831Y238234D01*
X448826Y238231D01*
X448751Y238140D01*
X448675Y238052D01*
X448673Y238046D01*
X448669Y238041D01*
X448627Y237933D01*
X448583Y237824D01*
X448582Y237816D01*
X448581Y237811D01*
X448580Y237793D01*
X448565Y237657D01*
X448565Y205199D01*
X448579Y205109D01*
X448587Y205018D01*
X448599Y204988D01*
X448604Y204956D01*
X448647Y204876D01*
X448683Y204792D01*
X448709Y204760D01*
X448720Y204739D01*
X448743Y204717D01*
X448788Y204661D01*
X496623Y156825D01*
X496661Y156798D01*
X496692Y156764D01*
X496760Y156727D01*
X496823Y156682D01*
X496867Y156668D01*
X496907Y156646D01*
X496984Y156632D01*
X497058Y156609D01*
X497104Y156610D01*
X497149Y156602D01*
X497226Y156614D01*
X497304Y156616D01*
X497347Y156632D01*
X497393Y156638D01*
X497462Y156673D01*
X497535Y156700D01*
X497571Y156729D01*
X497612Y156750D01*
X497666Y156805D01*
X497727Y156854D01*
X497752Y156893D01*
X497784Y156926D01*
X497796Y156947D01*
X501201Y160352D01*
X505613Y162180D01*
X510387Y162180D01*
X514799Y160352D01*
X518175Y156976D01*
X520002Y152565D01*
X520002Y126835D01*
X518175Y122424D01*
X514799Y119048D01*
X510387Y117220D01*
X505613Y117220D01*
G37*
%LPD*%
%LPC*%
G36*
X252232Y689609D02*
X252232Y689609D01*
X248964Y690963D01*
X246463Y693464D01*
X245109Y696732D01*
X245109Y700269D01*
X245317Y700770D01*
X245344Y700883D01*
X245372Y700997D01*
X245372Y701003D01*
X245373Y701009D01*
X245362Y701125D01*
X245353Y701242D01*
X245351Y701248D01*
X245350Y701254D01*
X245302Y701362D01*
X245257Y701469D01*
X245252Y701474D01*
X245250Y701479D01*
X245237Y701493D01*
X245152Y701600D01*
X214439Y732312D01*
X211835Y734916D01*
X211835Y798101D01*
X211821Y798191D01*
X211813Y798282D01*
X211801Y798312D01*
X211796Y798344D01*
X211753Y798424D01*
X211717Y798508D01*
X211691Y798540D01*
X211680Y798561D01*
X211657Y798583D01*
X211612Y798639D01*
X161035Y849216D01*
X161035Y854369D01*
X161016Y854484D01*
X160999Y854600D01*
X160997Y854605D01*
X160996Y854612D01*
X160941Y854714D01*
X160888Y854819D01*
X160883Y854823D01*
X160880Y854829D01*
X160796Y854909D01*
X160712Y854991D01*
X160706Y854995D01*
X160702Y854998D01*
X160685Y855006D01*
X160565Y855072D01*
X159920Y855339D01*
X157347Y857912D01*
X155955Y861273D01*
X155955Y880151D01*
X157347Y883512D01*
X159920Y886085D01*
X163281Y887477D01*
X166919Y887477D01*
X170280Y886085D01*
X172853Y883512D01*
X174245Y880151D01*
X174245Y861273D01*
X172853Y857912D01*
X170280Y855339D01*
X169635Y855072D01*
X169535Y855011D01*
X169435Y854951D01*
X169431Y854946D01*
X169426Y854943D01*
X169351Y854852D01*
X169275Y854764D01*
X169273Y854758D01*
X169269Y854753D01*
X169227Y854645D01*
X169183Y854536D01*
X169182Y854528D01*
X169181Y854523D01*
X169180Y854505D01*
X169165Y854369D01*
X169165Y852899D01*
X169179Y852809D01*
X169187Y852718D01*
X169199Y852688D01*
X169204Y852656D01*
X169247Y852576D01*
X169283Y852492D01*
X169309Y852460D01*
X169320Y852439D01*
X169343Y852417D01*
X169388Y852361D01*
X219965Y801784D01*
X219965Y738599D01*
X219979Y738509D01*
X219987Y738418D01*
X219999Y738388D01*
X220004Y738356D01*
X220047Y738276D01*
X220083Y738192D01*
X220109Y738160D01*
X220120Y738139D01*
X220143Y738117D01*
X220188Y738061D01*
X250900Y707348D01*
X250994Y707281D01*
X251089Y707210D01*
X251095Y707208D01*
X251100Y707204D01*
X251211Y707170D01*
X251323Y707134D01*
X251329Y707134D01*
X251335Y707132D01*
X251452Y707135D01*
X251569Y707136D01*
X251576Y707138D01*
X251581Y707138D01*
X251598Y707145D01*
X251730Y707183D01*
X252231Y707391D01*
X255768Y707391D01*
X259036Y706037D01*
X261537Y703536D01*
X262891Y700268D01*
X262891Y696732D01*
X261537Y693464D01*
X259036Y690963D01*
X255768Y689609D01*
X252232Y689609D01*
G37*
%LPD*%
%LPC*%
G36*
X455432Y689609D02*
X455432Y689609D01*
X452164Y690963D01*
X449663Y693464D01*
X448309Y696732D01*
X448309Y700268D01*
X449663Y703536D01*
X452164Y706037D01*
X452620Y706226D01*
X452719Y706288D01*
X452819Y706348D01*
X452823Y706352D01*
X452829Y706356D01*
X452903Y706446D01*
X452979Y706534D01*
X452981Y706540D01*
X452985Y706545D01*
X453027Y706653D01*
X453071Y706763D01*
X453072Y706770D01*
X453074Y706775D01*
X453074Y706793D01*
X453090Y706929D01*
X453090Y856059D01*
X453075Y856149D01*
X453068Y856240D01*
X453055Y856270D01*
X453050Y856301D01*
X453007Y856382D01*
X452971Y856466D01*
X452946Y856498D01*
X452935Y856519D01*
X452911Y856541D01*
X452867Y856597D01*
X452440Y857023D01*
X452424Y857035D01*
X452412Y857050D01*
X452325Y857107D01*
X452241Y857167D01*
X452222Y857173D01*
X452205Y857183D01*
X452105Y857209D01*
X452006Y857239D01*
X451986Y857239D01*
X451966Y857243D01*
X451863Y857235D01*
X451760Y857233D01*
X451741Y857226D01*
X451721Y857224D01*
X451626Y857184D01*
X451529Y857148D01*
X451513Y857136D01*
X451495Y857128D01*
X451364Y857023D01*
X449680Y855339D01*
X446319Y853947D01*
X442681Y853947D01*
X439320Y855339D01*
X436747Y857912D01*
X435355Y861273D01*
X435355Y880151D01*
X436747Y883512D01*
X439320Y886085D01*
X442681Y887477D01*
X446319Y887477D01*
X449680Y886085D01*
X452253Y883512D01*
X453645Y880151D01*
X453645Y867631D01*
X453659Y867541D01*
X453667Y867450D01*
X453679Y867420D01*
X453684Y867388D01*
X453727Y867308D01*
X453763Y867224D01*
X453789Y867192D01*
X453800Y867171D01*
X453823Y867149D01*
X453868Y867093D01*
X461219Y859741D01*
X461219Y706967D01*
X461238Y706852D01*
X461255Y706736D01*
X461258Y706731D01*
X461259Y706724D01*
X461313Y706622D01*
X461366Y706517D01*
X461371Y706513D01*
X461374Y706507D01*
X461458Y706427D01*
X461542Y706345D01*
X461549Y706341D01*
X461552Y706338D01*
X461569Y706330D01*
X461689Y706264D01*
X462236Y706037D01*
X464737Y703536D01*
X466091Y700268D01*
X466091Y696732D01*
X464737Y693464D01*
X462236Y690963D01*
X458968Y689609D01*
X455432Y689609D01*
G37*
%LPD*%
%LPC*%
G36*
X162713Y117220D02*
X162713Y117220D01*
X158301Y119048D01*
X154925Y122424D01*
X153098Y126835D01*
X153098Y152565D01*
X154925Y156976D01*
X158301Y160352D01*
X160565Y161290D01*
X160665Y161352D01*
X160765Y161412D01*
X160769Y161417D01*
X160774Y161420D01*
X160849Y161510D01*
X160925Y161599D01*
X160927Y161605D01*
X160931Y161609D01*
X160973Y161718D01*
X161017Y161827D01*
X161018Y161834D01*
X161019Y161839D01*
X161020Y161857D01*
X161035Y161994D01*
X161035Y217584D01*
X194848Y251397D01*
X194901Y251471D01*
X194961Y251540D01*
X194973Y251570D01*
X194992Y251596D01*
X195019Y251683D01*
X195053Y251768D01*
X195057Y251809D01*
X195064Y251832D01*
X195063Y251864D01*
X195071Y251935D01*
X195071Y257367D01*
X199833Y262129D01*
X206567Y262129D01*
X211329Y257367D01*
X211329Y250633D01*
X206567Y245871D01*
X201135Y245871D01*
X201045Y245857D01*
X200954Y245849D01*
X200924Y245837D01*
X200892Y245832D01*
X200812Y245789D01*
X200728Y245753D01*
X200696Y245727D01*
X200675Y245716D01*
X200653Y245693D01*
X200597Y245648D01*
X169388Y214439D01*
X169335Y214365D01*
X169275Y214296D01*
X169263Y214266D01*
X169244Y214240D01*
X169217Y214153D01*
X169183Y214068D01*
X169179Y214027D01*
X169172Y214004D01*
X169173Y213972D01*
X169165Y213901D01*
X169165Y161994D01*
X169184Y161879D01*
X169201Y161763D01*
X169203Y161757D01*
X169204Y161751D01*
X169259Y161648D01*
X169312Y161543D01*
X169317Y161539D01*
X169320Y161533D01*
X169404Y161454D01*
X169488Y161371D01*
X169494Y161368D01*
X169498Y161364D01*
X169515Y161356D01*
X169635Y161290D01*
X171899Y160352D01*
X175275Y156976D01*
X177102Y152565D01*
X177102Y126835D01*
X175275Y122424D01*
X171899Y119048D01*
X167487Y117220D01*
X162713Y117220D01*
G37*
%LPD*%
%LPC*%
G36*
X404013Y117220D02*
X404013Y117220D01*
X399601Y119048D01*
X396225Y122424D01*
X394398Y126835D01*
X394398Y152565D01*
X396225Y156976D01*
X399601Y160352D01*
X404013Y162180D01*
X408787Y162180D01*
X413199Y160352D01*
X416575Y156976D01*
X418402Y152565D01*
X418402Y126835D01*
X416575Y122424D01*
X413199Y119048D01*
X408787Y117220D01*
X404013Y117220D01*
G37*
%LPD*%
%LPC*%
G36*
X454813Y117220D02*
X454813Y117220D01*
X450401Y119048D01*
X447025Y122424D01*
X445198Y126835D01*
X445198Y152565D01*
X447025Y156976D01*
X450401Y160352D01*
X454813Y162180D01*
X459587Y162180D01*
X463999Y160352D01*
X467375Y156976D01*
X469202Y152565D01*
X469202Y126835D01*
X467375Y122424D01*
X463999Y119048D01*
X459587Y117220D01*
X454813Y117220D01*
G37*
%LPD*%
%LPC*%
G36*
X111913Y117220D02*
X111913Y117220D01*
X107501Y119048D01*
X104125Y122424D01*
X102298Y126835D01*
X102298Y152565D01*
X104125Y156976D01*
X107501Y160352D01*
X111913Y162180D01*
X116687Y162180D01*
X121099Y160352D01*
X124475Y156976D01*
X126302Y152565D01*
X126302Y126835D01*
X124475Y122424D01*
X121099Y119048D01*
X116687Y117220D01*
X111913Y117220D01*
G37*
%LPD*%
%LPC*%
G36*
X480402Y197893D02*
X480402Y197893D01*
X477293Y201002D01*
X477293Y202443D01*
X477279Y202533D01*
X477271Y202624D01*
X477259Y202654D01*
X477254Y202686D01*
X477211Y202766D01*
X477175Y202850D01*
X477149Y202882D01*
X477138Y202903D01*
X477115Y202925D01*
X477070Y202981D01*
X465835Y214216D01*
X465835Y237657D01*
X465816Y237772D01*
X465799Y237888D01*
X465797Y237893D01*
X465796Y237900D01*
X465741Y238002D01*
X465688Y238107D01*
X465683Y238111D01*
X465680Y238117D01*
X465596Y238197D01*
X465512Y238279D01*
X465506Y238283D01*
X465502Y238286D01*
X465485Y238294D01*
X465365Y238360D01*
X464720Y238627D01*
X462147Y241200D01*
X460755Y244561D01*
X460755Y263439D01*
X462147Y266800D01*
X464720Y269373D01*
X468081Y270765D01*
X471719Y270765D01*
X475080Y269373D01*
X477653Y266800D01*
X479045Y263439D01*
X479045Y244561D01*
X477653Y241200D01*
X475080Y238627D01*
X474435Y238360D01*
X474335Y238299D01*
X474235Y238239D01*
X474231Y238234D01*
X474226Y238231D01*
X474151Y238140D01*
X474075Y238052D01*
X474073Y238046D01*
X474069Y238041D01*
X474027Y237933D01*
X473983Y237824D01*
X473982Y237816D01*
X473981Y237811D01*
X473980Y237793D01*
X473965Y237657D01*
X473965Y217899D01*
X473979Y217809D01*
X473987Y217718D01*
X473999Y217688D01*
X474004Y217656D01*
X474047Y217576D01*
X474083Y217492D01*
X474109Y217460D01*
X474120Y217439D01*
X474143Y217417D01*
X474188Y217361D01*
X482819Y208730D01*
X482893Y208677D01*
X482962Y208617D01*
X482992Y208605D01*
X483018Y208586D01*
X483105Y208559D01*
X483190Y208525D01*
X483231Y208521D01*
X483254Y208514D01*
X483286Y208515D01*
X483357Y208507D01*
X484798Y208507D01*
X487907Y205398D01*
X487907Y201002D01*
X484798Y197893D01*
X480402Y197893D01*
G37*
%LPD*%
%LPC*%
G36*
X391881Y853947D02*
X391881Y853947D01*
X388520Y855339D01*
X385947Y857912D01*
X384555Y861273D01*
X384555Y880151D01*
X385947Y883512D01*
X388520Y886085D01*
X391881Y887477D01*
X395519Y887477D01*
X398880Y886085D01*
X401453Y883512D01*
X402845Y880151D01*
X402845Y861273D01*
X401453Y857912D01*
X398880Y855339D01*
X395519Y853947D01*
X391881Y853947D01*
G37*
%LPD*%
%LPC*%
G36*
X315681Y853947D02*
X315681Y853947D01*
X312320Y855339D01*
X309747Y857912D01*
X308355Y861273D01*
X308355Y880151D01*
X309747Y883512D01*
X312320Y886085D01*
X315681Y887477D01*
X319319Y887477D01*
X322680Y886085D01*
X325253Y883512D01*
X326645Y880151D01*
X326645Y861273D01*
X325253Y857912D01*
X322680Y855339D01*
X319319Y853947D01*
X315681Y853947D01*
G37*
%LPD*%
%LPC*%
G36*
X290281Y853947D02*
X290281Y853947D01*
X286920Y855339D01*
X284347Y857912D01*
X282955Y861273D01*
X282955Y880151D01*
X284347Y883512D01*
X286920Y886085D01*
X290281Y887477D01*
X293919Y887477D01*
X297280Y886085D01*
X299853Y883512D01*
X301245Y880151D01*
X301245Y861273D01*
X299853Y857912D01*
X297280Y855339D01*
X293919Y853947D01*
X290281Y853947D01*
G37*
%LPD*%
%LPC*%
G36*
X239481Y853947D02*
X239481Y853947D01*
X236120Y855339D01*
X233547Y857912D01*
X232155Y861273D01*
X232155Y880151D01*
X233547Y883512D01*
X236120Y886085D01*
X239481Y887477D01*
X243119Y887477D01*
X246480Y886085D01*
X249053Y883512D01*
X250445Y880151D01*
X250445Y861273D01*
X249053Y857912D01*
X246480Y855339D01*
X243119Y853947D01*
X239481Y853947D01*
G37*
%LPD*%
%LPC*%
G36*
X188681Y853947D02*
X188681Y853947D01*
X185320Y855339D01*
X182747Y857912D01*
X181355Y861273D01*
X181355Y880151D01*
X182747Y883512D01*
X185320Y886085D01*
X188681Y887477D01*
X192319Y887477D01*
X195680Y886085D01*
X198253Y883512D01*
X199645Y880151D01*
X199645Y861273D01*
X198253Y857912D01*
X195680Y855339D01*
X192319Y853947D01*
X188681Y853947D01*
G37*
%LPD*%
%LPC*%
G36*
X112481Y853947D02*
X112481Y853947D01*
X109120Y855339D01*
X106547Y857912D01*
X105155Y861273D01*
X105155Y880151D01*
X106547Y883512D01*
X109120Y886085D01*
X112481Y887477D01*
X116119Y887477D01*
X119480Y886085D01*
X122053Y883512D01*
X123445Y880151D01*
X123445Y861273D01*
X122053Y857912D01*
X119480Y855339D01*
X116119Y853947D01*
X112481Y853947D01*
G37*
%LPD*%
%LPC*%
G36*
X417281Y853947D02*
X417281Y853947D01*
X413920Y855339D01*
X411347Y857912D01*
X409955Y861273D01*
X409955Y880151D01*
X411347Y883512D01*
X413920Y886085D01*
X417281Y887477D01*
X420919Y887477D01*
X424280Y886085D01*
X426853Y883512D01*
X428245Y880151D01*
X428245Y861273D01*
X426853Y857912D01*
X424280Y855339D01*
X420919Y853947D01*
X417281Y853947D01*
G37*
%LPD*%
%LPC*%
G36*
X391881Y237235D02*
X391881Y237235D01*
X388520Y238627D01*
X385947Y241200D01*
X384555Y244561D01*
X384555Y263439D01*
X385947Y266800D01*
X388520Y269373D01*
X391881Y270765D01*
X395519Y270765D01*
X398880Y269373D01*
X401453Y266800D01*
X402845Y263439D01*
X402845Y244561D01*
X401453Y241200D01*
X398880Y238627D01*
X395519Y237235D01*
X391881Y237235D01*
G37*
%LPD*%
%LPC*%
G36*
X493481Y237235D02*
X493481Y237235D01*
X490120Y238627D01*
X487547Y241200D01*
X486155Y244561D01*
X486155Y263439D01*
X487547Y266800D01*
X490120Y269373D01*
X493481Y270765D01*
X497119Y270765D01*
X500480Y269373D01*
X503053Y266800D01*
X504445Y263439D01*
X504445Y244561D01*
X503053Y241200D01*
X500480Y238627D01*
X497119Y237235D01*
X493481Y237235D01*
G37*
%LPD*%
%LPC*%
G36*
X417281Y237235D02*
X417281Y237235D01*
X413920Y238627D01*
X411347Y241200D01*
X409955Y244561D01*
X409955Y263439D01*
X411347Y266800D01*
X413920Y269373D01*
X417281Y270765D01*
X420919Y270765D01*
X424280Y269373D01*
X426853Y266800D01*
X428245Y263439D01*
X428245Y244561D01*
X426853Y241200D01*
X424280Y238627D01*
X420919Y237235D01*
X417281Y237235D01*
G37*
%LPD*%
%LPC*%
G36*
X493481Y338835D02*
X493481Y338835D01*
X490120Y340227D01*
X487547Y342800D01*
X486155Y346161D01*
X486155Y365039D01*
X487547Y368400D01*
X490120Y370973D01*
X493481Y372365D01*
X497119Y372365D01*
X500480Y370973D01*
X503053Y368400D01*
X504445Y365039D01*
X504445Y346161D01*
X503053Y342800D01*
X500480Y340227D01*
X497119Y338835D01*
X493481Y338835D01*
G37*
%LPD*%
%LPC*%
G36*
X366481Y338835D02*
X366481Y338835D01*
X363120Y340227D01*
X360547Y342800D01*
X359155Y346161D01*
X359155Y365039D01*
X360547Y368400D01*
X363120Y370973D01*
X366481Y372365D01*
X370119Y372365D01*
X373480Y370973D01*
X376053Y368400D01*
X377445Y365039D01*
X377445Y346161D01*
X376053Y342800D01*
X373480Y340227D01*
X370119Y338835D01*
X366481Y338835D01*
G37*
%LPD*%
%LPC*%
G36*
X417281Y338835D02*
X417281Y338835D01*
X413920Y340227D01*
X411347Y342800D01*
X409955Y346161D01*
X409955Y365039D01*
X411347Y368400D01*
X413920Y370973D01*
X417281Y372365D01*
X420919Y372365D01*
X424280Y370973D01*
X426853Y368400D01*
X428245Y365039D01*
X428245Y346161D01*
X426853Y342800D01*
X424280Y340227D01*
X420919Y338835D01*
X417281Y338835D01*
G37*
%LPD*%
%LPC*%
G36*
X391881Y338835D02*
X391881Y338835D01*
X388520Y340227D01*
X385947Y342800D01*
X384555Y346161D01*
X384555Y365039D01*
X385947Y368400D01*
X388520Y370973D01*
X391881Y372365D01*
X395519Y372365D01*
X398880Y370973D01*
X401453Y368400D01*
X402845Y365039D01*
X402845Y346161D01*
X401453Y342800D01*
X398880Y340227D01*
X395519Y338835D01*
X391881Y338835D01*
G37*
%LPD*%
%LPC*%
G36*
X404632Y689609D02*
X404632Y689609D01*
X401364Y690963D01*
X398863Y693464D01*
X397509Y696732D01*
X397509Y700268D01*
X398863Y703536D01*
X401364Y706037D01*
X404632Y707391D01*
X408168Y707391D01*
X411436Y706037D01*
X413937Y703536D01*
X415291Y700268D01*
X415291Y696732D01*
X413937Y693464D01*
X411436Y690963D01*
X408168Y689609D01*
X404632Y689609D01*
G37*
%LPD*%
%LPC*%
G36*
X201432Y689609D02*
X201432Y689609D01*
X198164Y690963D01*
X195663Y693464D01*
X194309Y696732D01*
X194309Y700268D01*
X195663Y703536D01*
X198164Y706037D01*
X201432Y707391D01*
X204968Y707391D01*
X208236Y706037D01*
X210737Y703536D01*
X212091Y700268D01*
X212091Y696732D01*
X210737Y693464D01*
X208236Y690963D01*
X204968Y689609D01*
X201432Y689609D01*
G37*
%LPD*%
%LPC*%
G36*
X379232Y689609D02*
X379232Y689609D01*
X375964Y690963D01*
X373463Y693464D01*
X372109Y696732D01*
X372109Y700268D01*
X373463Y703536D01*
X375964Y706037D01*
X379232Y707391D01*
X382768Y707391D01*
X386036Y706037D01*
X388537Y703536D01*
X389891Y700268D01*
X389891Y696732D01*
X388537Y693464D01*
X386036Y690963D01*
X382768Y689609D01*
X379232Y689609D01*
G37*
%LPD*%
%LPC*%
G36*
X430032Y689609D02*
X430032Y689609D01*
X426764Y690963D01*
X424263Y693464D01*
X422909Y696732D01*
X422909Y700268D01*
X424263Y703536D01*
X426764Y706037D01*
X430032Y707391D01*
X433568Y707391D01*
X436836Y706037D01*
X439337Y703536D01*
X440691Y700268D01*
X440691Y696732D01*
X439337Y693464D01*
X436836Y690963D01*
X433568Y689609D01*
X430032Y689609D01*
G37*
%LPD*%
%LPC*%
G36*
X328432Y689609D02*
X328432Y689609D01*
X325164Y690963D01*
X322663Y693464D01*
X321309Y696732D01*
X321309Y700268D01*
X322663Y703536D01*
X325164Y706037D01*
X328432Y707391D01*
X331968Y707391D01*
X335236Y706037D01*
X337737Y703536D01*
X339091Y700268D01*
X339091Y696732D01*
X337737Y693464D01*
X335236Y690963D01*
X331968Y689609D01*
X328432Y689609D01*
G37*
%LPD*%
%LPC*%
G36*
X226832Y689609D02*
X226832Y689609D01*
X223564Y690963D01*
X221063Y693464D01*
X219709Y696732D01*
X219709Y700268D01*
X221063Y703536D01*
X223564Y706037D01*
X226832Y707391D01*
X230368Y707391D01*
X233636Y706037D01*
X236137Y703536D01*
X237491Y700268D01*
X237491Y696732D01*
X236137Y693464D01*
X233636Y690963D01*
X230368Y689609D01*
X226832Y689609D01*
G37*
%LPD*%
%LPC*%
G36*
X353832Y689609D02*
X353832Y689609D01*
X350564Y690963D01*
X348063Y693464D01*
X346709Y696732D01*
X346709Y700268D01*
X348063Y703536D01*
X350564Y706037D01*
X353832Y707391D01*
X357368Y707391D01*
X360636Y706037D01*
X363137Y703536D01*
X364491Y700268D01*
X364491Y696732D01*
X363137Y693464D01*
X360636Y690963D01*
X357368Y689609D01*
X353832Y689609D01*
G37*
%LPD*%
%LPC*%
G36*
X201432Y664209D02*
X201432Y664209D01*
X198164Y665563D01*
X195663Y668064D01*
X194309Y671332D01*
X194309Y674868D01*
X195663Y678136D01*
X198164Y680637D01*
X201432Y681991D01*
X204968Y681991D01*
X208236Y680637D01*
X210737Y678136D01*
X212091Y674868D01*
X212091Y671332D01*
X210737Y668064D01*
X208236Y665563D01*
X204968Y664209D01*
X201432Y664209D01*
G37*
%LPD*%
%LPC*%
G36*
X201432Y588009D02*
X201432Y588009D01*
X198164Y589363D01*
X195663Y591864D01*
X194309Y595132D01*
X194309Y598668D01*
X195663Y601936D01*
X198164Y604437D01*
X201432Y605791D01*
X204968Y605791D01*
X208236Y604437D01*
X210737Y601936D01*
X212091Y598668D01*
X212091Y595132D01*
X210737Y591864D01*
X208236Y589363D01*
X204968Y588009D01*
X201432Y588009D01*
G37*
%LPD*%
%LPC*%
G36*
X201432Y562609D02*
X201432Y562609D01*
X198164Y563963D01*
X195663Y566464D01*
X194309Y569732D01*
X194309Y573268D01*
X195663Y576536D01*
X198164Y579037D01*
X201432Y580391D01*
X204968Y580391D01*
X208236Y579037D01*
X210737Y576536D01*
X212091Y573268D01*
X212091Y569732D01*
X210737Y566464D01*
X208236Y563963D01*
X204968Y562609D01*
X201432Y562609D01*
G37*
%LPD*%
%LPC*%
G36*
X404632Y537209D02*
X404632Y537209D01*
X401364Y538563D01*
X398863Y541064D01*
X397509Y544332D01*
X397509Y547868D01*
X398863Y551136D01*
X401364Y553637D01*
X404632Y554991D01*
X408168Y554991D01*
X411436Y553637D01*
X413937Y551136D01*
X415291Y547868D01*
X415291Y544332D01*
X413937Y541064D01*
X411436Y538563D01*
X408168Y537209D01*
X404632Y537209D01*
G37*
%LPD*%
%LPC*%
G36*
X226832Y537209D02*
X226832Y537209D01*
X223564Y538563D01*
X221063Y541064D01*
X219709Y544332D01*
X219709Y547868D01*
X221063Y551136D01*
X223564Y553637D01*
X226832Y554991D01*
X230368Y554991D01*
X233636Y553637D01*
X236137Y551136D01*
X237491Y547868D01*
X237491Y544332D01*
X236137Y541064D01*
X233636Y538563D01*
X230368Y537209D01*
X226832Y537209D01*
G37*
%LPD*%
%LPC*%
G36*
X531632Y537209D02*
X531632Y537209D01*
X528364Y538563D01*
X525863Y541064D01*
X524509Y544332D01*
X524509Y547868D01*
X525863Y551136D01*
X528364Y553637D01*
X531632Y554991D01*
X535168Y554991D01*
X538436Y553637D01*
X540937Y551136D01*
X542291Y547868D01*
X542291Y544332D01*
X540937Y541064D01*
X538436Y538563D01*
X535168Y537209D01*
X531632Y537209D01*
G37*
%LPD*%
%LPC*%
G36*
X252232Y537209D02*
X252232Y537209D01*
X248964Y538563D01*
X246463Y541064D01*
X245109Y544332D01*
X245109Y547868D01*
X246463Y551136D01*
X248964Y553637D01*
X252232Y554991D01*
X255768Y554991D01*
X259036Y553637D01*
X261537Y551136D01*
X262891Y547868D01*
X262891Y544332D01*
X261537Y541064D01*
X259036Y538563D01*
X255768Y537209D01*
X252232Y537209D01*
G37*
%LPD*%
%LPC*%
G36*
X277632Y537209D02*
X277632Y537209D01*
X274364Y538563D01*
X271863Y541064D01*
X270509Y544332D01*
X270509Y547868D01*
X271863Y551136D01*
X274364Y553637D01*
X277632Y554991D01*
X281168Y554991D01*
X284436Y553637D01*
X286937Y551136D01*
X288291Y547868D01*
X288291Y544332D01*
X286937Y541064D01*
X284436Y538563D01*
X281168Y537209D01*
X277632Y537209D01*
G37*
%LPD*%
%LPC*%
G36*
X303032Y537209D02*
X303032Y537209D01*
X299764Y538563D01*
X297263Y541064D01*
X295909Y544332D01*
X295909Y547868D01*
X297263Y551136D01*
X299764Y553637D01*
X303032Y554991D01*
X306568Y554991D01*
X309836Y553637D01*
X312337Y551136D01*
X313691Y547868D01*
X313691Y544332D01*
X312337Y541064D01*
X309836Y538563D01*
X306568Y537209D01*
X303032Y537209D01*
G37*
%LPD*%
%LPC*%
G36*
X328432Y537209D02*
X328432Y537209D01*
X325164Y538563D01*
X322663Y541064D01*
X321309Y544332D01*
X321309Y547868D01*
X322663Y551136D01*
X325164Y553637D01*
X328432Y554991D01*
X331968Y554991D01*
X335236Y553637D01*
X337737Y551136D01*
X339091Y547868D01*
X339091Y544332D01*
X337737Y541064D01*
X335236Y538563D01*
X331968Y537209D01*
X328432Y537209D01*
G37*
%LPD*%
%LPC*%
G36*
X379232Y537209D02*
X379232Y537209D01*
X375964Y538563D01*
X373463Y541064D01*
X372109Y544332D01*
X372109Y547868D01*
X373463Y551136D01*
X375964Y553637D01*
X379232Y554991D01*
X382768Y554991D01*
X386036Y553637D01*
X388537Y551136D01*
X389891Y547868D01*
X389891Y544332D01*
X388537Y541064D01*
X386036Y538563D01*
X382768Y537209D01*
X379232Y537209D01*
G37*
%LPD*%
%LPC*%
G36*
X276033Y347471D02*
X276033Y347471D01*
X271271Y352233D01*
X271271Y358967D01*
X276033Y363729D01*
X282767Y363729D01*
X287529Y358967D01*
X287529Y352233D01*
X282767Y347471D01*
X276033Y347471D01*
G37*
%LPD*%
%LPC*%
G36*
X390333Y296671D02*
X390333Y296671D01*
X385571Y301433D01*
X385571Y308167D01*
X390333Y312929D01*
X397067Y312929D01*
X401829Y308167D01*
X401829Y301433D01*
X397067Y296671D01*
X390333Y296671D01*
G37*
%LPD*%
%LPC*%
G36*
X466533Y296671D02*
X466533Y296671D01*
X461771Y301433D01*
X461771Y308167D01*
X466533Y312929D01*
X473267Y312929D01*
X478029Y308167D01*
X478029Y301433D01*
X473267Y296671D01*
X466533Y296671D01*
G37*
%LPD*%
%LPC*%
G36*
X276033Y245871D02*
X276033Y245871D01*
X271271Y250633D01*
X271271Y257367D01*
X276033Y262129D01*
X282767Y262129D01*
X287529Y257367D01*
X287529Y250633D01*
X282767Y245871D01*
X276033Y245871D01*
G37*
%LPD*%
%LPC*%
G36*
X187133Y791971D02*
X187133Y791971D01*
X182371Y796733D01*
X182371Y803467D01*
X187133Y808229D01*
X193867Y808229D01*
X198629Y803467D01*
X198629Y796733D01*
X193867Y791971D01*
X187133Y791971D01*
G37*
%LPD*%
%LPC*%
G36*
X263333Y791971D02*
X263333Y791971D01*
X258571Y796733D01*
X258571Y803467D01*
X263333Y808229D01*
X270067Y808229D01*
X274829Y803467D01*
X274829Y796733D01*
X270067Y791971D01*
X263333Y791971D01*
G37*
%LPD*%
%LPC*%
G36*
X65023Y141223D02*
X65023Y141223D01*
X65023Y163117D01*
X66548Y162875D01*
X68497Y162242D01*
X70323Y161312D01*
X71981Y160107D01*
X73430Y158658D01*
X74634Y157000D01*
X75564Y155175D01*
X76198Y153226D01*
X76518Y151202D01*
X76518Y141223D01*
X65023Y141223D01*
G37*
%LPD*%
%LPC*%
G36*
X357123Y141223D02*
X357123Y141223D01*
X357123Y163117D01*
X358648Y162875D01*
X360597Y162242D01*
X362423Y161312D01*
X364081Y160107D01*
X365530Y158658D01*
X366734Y157000D01*
X367664Y155175D01*
X368298Y153226D01*
X368618Y151202D01*
X368618Y141223D01*
X357123Y141223D01*
G37*
%LPD*%
%LPC*%
G36*
X65023Y138177D02*
X65023Y138177D01*
X76518Y138177D01*
X76518Y128198D01*
X76198Y126174D01*
X75564Y124225D01*
X74634Y122400D01*
X73430Y120742D01*
X71981Y119293D01*
X70323Y118088D01*
X68497Y117158D01*
X66548Y116525D01*
X65023Y116283D01*
X65023Y138177D01*
G37*
%LPD*%
%LPC*%
G36*
X357123Y138177D02*
X357123Y138177D01*
X368618Y138177D01*
X368618Y128198D01*
X368298Y126174D01*
X367664Y124225D01*
X366734Y122400D01*
X365530Y120742D01*
X364081Y119293D01*
X362423Y118088D01*
X360597Y117158D01*
X358648Y116525D01*
X357123Y116283D01*
X357123Y138177D01*
G37*
%LPD*%
%LPC*%
G36*
X50482Y141223D02*
X50482Y141223D01*
X50482Y151202D01*
X50802Y153226D01*
X51436Y155175D01*
X52366Y157000D01*
X53570Y158658D01*
X55019Y160107D01*
X56677Y161312D01*
X58503Y162242D01*
X60452Y162875D01*
X61977Y163117D01*
X61977Y141223D01*
X50482Y141223D01*
G37*
%LPD*%
%LPC*%
G36*
X342582Y141223D02*
X342582Y141223D01*
X342582Y151202D01*
X342902Y153226D01*
X343536Y155175D01*
X344466Y157000D01*
X345670Y158658D01*
X347119Y160107D01*
X348777Y161312D01*
X350603Y162242D01*
X352552Y162875D01*
X354077Y163117D01*
X354077Y141223D01*
X342582Y141223D01*
G37*
%LPD*%
%LPC*%
G36*
X60452Y116525D02*
X60452Y116525D01*
X58503Y117158D01*
X56677Y118088D01*
X55019Y119293D01*
X53570Y120742D01*
X52366Y122400D01*
X51436Y124225D01*
X50802Y126174D01*
X50482Y128198D01*
X50482Y138177D01*
X61977Y138177D01*
X61977Y116283D01*
X60452Y116525D01*
G37*
%LPD*%
%LPC*%
G36*
X352552Y116525D02*
X352552Y116525D01*
X350603Y117158D01*
X348777Y118088D01*
X347119Y119293D01*
X345670Y120742D01*
X344466Y122400D01*
X343536Y124225D01*
X342902Y126174D01*
X342582Y128198D01*
X342582Y138177D01*
X354077Y138177D01*
X354077Y116283D01*
X352552Y116525D01*
G37*
%LPD*%
%LPC*%
G36*
X141223Y872235D02*
X141223Y872235D01*
X141223Y888378D01*
X142079Y888243D01*
X143600Y887748D01*
X145025Y887022D01*
X146319Y886082D01*
X147450Y884951D01*
X148390Y883657D01*
X149116Y882232D01*
X149611Y880711D01*
X149861Y879132D01*
X149861Y872235D01*
X141223Y872235D01*
G37*
%LPD*%
%LPC*%
G36*
X369823Y255523D02*
X369823Y255523D01*
X369823Y271666D01*
X370679Y271531D01*
X372200Y271036D01*
X373625Y270310D01*
X374919Y269370D01*
X376050Y268239D01*
X376990Y266945D01*
X377716Y265520D01*
X378211Y263999D01*
X378461Y262420D01*
X378461Y255523D01*
X369823Y255523D01*
G37*
%LPD*%
%LPC*%
G36*
X369823Y252477D02*
X369823Y252477D01*
X378461Y252477D01*
X378461Y245580D01*
X378211Y244001D01*
X377716Y242480D01*
X376990Y241055D01*
X376050Y239761D01*
X374919Y238630D01*
X373625Y237690D01*
X372200Y236964D01*
X370679Y236469D01*
X369823Y236334D01*
X369823Y252477D01*
G37*
%LPD*%
%LPC*%
G36*
X141223Y869189D02*
X141223Y869189D01*
X149861Y869189D01*
X149861Y862292D01*
X149611Y860713D01*
X149116Y859192D01*
X148390Y857767D01*
X147450Y856473D01*
X146319Y855342D01*
X145025Y854402D01*
X143600Y853676D01*
X142079Y853181D01*
X141223Y853046D01*
X141223Y869189D01*
G37*
%LPD*%
%LPC*%
G36*
X129539Y872235D02*
X129539Y872235D01*
X129539Y879132D01*
X129789Y880711D01*
X130284Y882232D01*
X131010Y883657D01*
X131950Y884951D01*
X133081Y886082D01*
X134375Y887022D01*
X135800Y887748D01*
X137321Y888243D01*
X138177Y888378D01*
X138177Y872235D01*
X129539Y872235D01*
G37*
%LPD*%
%LPC*%
G36*
X358139Y255523D02*
X358139Y255523D01*
X358139Y262420D01*
X358389Y263999D01*
X358884Y265520D01*
X359610Y266945D01*
X360550Y268239D01*
X361681Y269370D01*
X362975Y270310D01*
X364400Y271036D01*
X365921Y271531D01*
X366777Y271666D01*
X366777Y255523D01*
X358139Y255523D01*
G37*
%LPD*%
%LPC*%
G36*
X137321Y853181D02*
X137321Y853181D01*
X135800Y853676D01*
X134375Y854402D01*
X133081Y855342D01*
X131950Y856473D01*
X131010Y857767D01*
X130284Y859192D01*
X129789Y860713D01*
X129539Y862292D01*
X129539Y869189D01*
X138177Y869189D01*
X138177Y853046D01*
X137321Y853181D01*
G37*
%LPD*%
%LPC*%
G36*
X365921Y236469D02*
X365921Y236469D01*
X364400Y236964D01*
X362975Y237690D01*
X361681Y238630D01*
X360550Y239761D01*
X359610Y241055D01*
X358884Y242480D01*
X358389Y244001D01*
X358139Y245580D01*
X358139Y252477D01*
X366777Y252477D01*
X366777Y236334D01*
X365921Y236469D01*
G37*
%LPD*%
%LPC*%
G36*
X509523Y547623D02*
X509523Y547623D01*
X509523Y555889D01*
X510320Y555763D01*
X511803Y555281D01*
X513192Y554573D01*
X514454Y553656D01*
X515556Y552554D01*
X516473Y551292D01*
X517181Y549903D01*
X517663Y548420D01*
X517789Y547623D01*
X509523Y547623D01*
G37*
%LPD*%
%LPC*%
G36*
X534923Y700023D02*
X534923Y700023D01*
X534923Y708289D01*
X535720Y708163D01*
X537203Y707681D01*
X538592Y706973D01*
X539854Y706056D01*
X540956Y704954D01*
X541873Y703692D01*
X542581Y702303D01*
X543063Y700820D01*
X543189Y700023D01*
X534923Y700023D01*
G37*
%LPD*%
%LPC*%
G36*
X523611Y700023D02*
X523611Y700023D01*
X523737Y700820D01*
X524219Y702303D01*
X524927Y703692D01*
X525844Y704954D01*
X526946Y706056D01*
X528208Y706973D01*
X529597Y707681D01*
X531080Y708163D01*
X531877Y708289D01*
X531877Y700023D01*
X523611Y700023D01*
G37*
%LPD*%
%LPC*%
G36*
X534923Y696977D02*
X534923Y696977D01*
X543189Y696977D01*
X543063Y696180D01*
X542581Y694697D01*
X541873Y693308D01*
X540956Y692046D01*
X539854Y690944D01*
X538592Y690027D01*
X537203Y689319D01*
X535720Y688837D01*
X534923Y688711D01*
X534923Y696977D01*
G37*
%LPD*%
%LPC*%
G36*
X509523Y544577D02*
X509523Y544577D01*
X517789Y544577D01*
X517663Y543780D01*
X517181Y542297D01*
X516473Y540908D01*
X515556Y539646D01*
X514454Y538544D01*
X513192Y537627D01*
X511803Y536919D01*
X510320Y536437D01*
X509523Y536311D01*
X509523Y544577D01*
G37*
%LPD*%
%LPC*%
G36*
X498211Y547623D02*
X498211Y547623D01*
X498337Y548420D01*
X498819Y549903D01*
X499527Y551292D01*
X500444Y552554D01*
X501546Y553656D01*
X502808Y554573D01*
X504197Y555281D01*
X505680Y555763D01*
X506477Y555889D01*
X506477Y547623D01*
X498211Y547623D01*
G37*
%LPD*%
%LPC*%
G36*
X531080Y688837D02*
X531080Y688837D01*
X529597Y689319D01*
X528208Y690027D01*
X526946Y690944D01*
X525844Y692046D01*
X524927Y693308D01*
X524219Y694697D01*
X523737Y696180D01*
X523611Y696977D01*
X531877Y696977D01*
X531877Y688711D01*
X531080Y688837D01*
G37*
%LPD*%
%LPC*%
G36*
X505680Y536437D02*
X505680Y536437D01*
X504197Y536919D01*
X502808Y537627D01*
X501546Y538544D01*
X500444Y539646D01*
X499527Y540908D01*
X498819Y542297D01*
X498337Y543780D01*
X498211Y544577D01*
X506477Y544577D01*
X506477Y536311D01*
X505680Y536437D01*
G37*
%LPD*%
%LPC*%
G36*
X533399Y698499D02*
X533399Y698499D01*
X533399Y698501D01*
X533401Y698501D01*
X533401Y698499D01*
X533399Y698499D01*
G37*
%LPD*%
%LPC*%
G36*
X139699Y870711D02*
X139699Y870711D01*
X139699Y870713D01*
X139701Y870713D01*
X139701Y870711D01*
X139699Y870711D01*
G37*
%LPD*%
%LPC*%
G36*
X355599Y139699D02*
X355599Y139699D01*
X355599Y139701D01*
X355601Y139701D01*
X355601Y139699D01*
X355599Y139699D01*
G37*
%LPD*%
%LPC*%
G36*
X63499Y139699D02*
X63499Y139699D01*
X63499Y139701D01*
X63501Y139701D01*
X63501Y139699D01*
X63499Y139699D01*
G37*
%LPD*%
%LPC*%
G36*
X507999Y546099D02*
X507999Y546099D01*
X507999Y546101D01*
X508001Y546101D01*
X508001Y546099D01*
X507999Y546099D01*
G37*
%LPD*%
%LPC*%
G36*
X368299Y253999D02*
X368299Y253999D01*
X368299Y254001D01*
X368301Y254001D01*
X368301Y253999D01*
X368299Y253999D01*
G37*
%LPD*%
D10*
X495300Y261620D02*
X495300Y246380D01*
X469900Y246380D02*
X469900Y261620D01*
X444500Y261620D02*
X444500Y246380D01*
X419100Y246380D02*
X419100Y261620D01*
X393700Y261620D02*
X393700Y246380D01*
X368300Y246380D02*
X368300Y261620D01*
X495300Y347980D02*
X495300Y363220D01*
X469900Y363220D02*
X469900Y347980D01*
X444500Y347980D02*
X444500Y363220D01*
X419100Y363220D02*
X419100Y347980D01*
X393700Y347980D02*
X393700Y363220D01*
X368300Y363220D02*
X368300Y347980D01*
D11*
X190500Y800100D03*
X266700Y800100D03*
D12*
X279400Y254000D03*
X203200Y254000D03*
X279400Y355600D03*
X203200Y355600D03*
D11*
X393700Y304800D03*
X469900Y304800D03*
D10*
X114300Y863092D02*
X114300Y878332D01*
X139700Y878332D02*
X139700Y863092D01*
X165100Y863092D02*
X165100Y878332D01*
X190500Y878332D02*
X190500Y863092D01*
X215900Y863092D02*
X215900Y878332D01*
X241300Y878332D02*
X241300Y863092D01*
X266700Y863092D02*
X266700Y878332D01*
X292100Y878332D02*
X292100Y863092D01*
X317500Y863092D02*
X317500Y878332D01*
X342900Y878332D02*
X342900Y863092D01*
X368300Y863092D02*
X368300Y878332D01*
X393700Y878332D02*
X393700Y863092D01*
X419100Y863092D02*
X419100Y878332D01*
X444500Y878332D02*
X444500Y863092D01*
D13*
X63500Y150178D02*
X63500Y129223D01*
X114300Y129223D02*
X114300Y150178D01*
X165100Y150178D02*
X165100Y129223D01*
X215900Y129223D02*
X215900Y150178D01*
X355600Y150178D02*
X355600Y129223D01*
X406400Y129223D02*
X406400Y150178D01*
X457200Y150178D02*
X457200Y129223D01*
X508000Y129223D02*
X508000Y150178D01*
D10*
X320548Y35052D02*
X320548Y19812D01*
X295148Y19812D02*
X295148Y35052D01*
X269748Y35052D02*
X269748Y19812D01*
X244348Y19812D02*
X244348Y35052D01*
D14*
X482600Y698500D03*
X457200Y698500D03*
X431800Y698500D03*
X406400Y698500D03*
X381000Y698500D03*
X355600Y698500D03*
X330200Y698500D03*
X304800Y698500D03*
X279400Y698500D03*
X254000Y698500D03*
X228600Y698500D03*
X203200Y698500D03*
X203200Y546100D03*
X228600Y546100D03*
X254000Y546100D03*
X279400Y546100D03*
X304800Y546100D03*
X330200Y546100D03*
X355600Y546100D03*
X381000Y546100D03*
X406400Y546100D03*
X431800Y546100D03*
X457200Y546100D03*
X508000Y698500D03*
X482600Y546100D03*
X533400Y698500D03*
X533400Y546100D03*
X508000Y546100D03*
X203200Y571500D03*
X203200Y596900D03*
X203200Y622300D03*
X203200Y647700D03*
X203200Y673100D03*
D15*
X127000Y800100D03*
X241300Y635000D03*
D16*
X152400Y774700D02*
X127000Y800100D01*
X152400Y774700D02*
X152400Y647700D01*
X165100Y635000D01*
X241300Y635000D01*
X165100Y850900D02*
X165100Y870712D01*
X165100Y850900D02*
X215900Y800100D01*
X215900Y736600D02*
X254000Y698500D01*
X215900Y736600D02*
X215900Y800100D01*
X228600Y749300D02*
X279400Y698500D01*
X228600Y749300D02*
X228600Y838200D01*
X215900Y850900D01*
X215900Y870712D01*
X368300Y870712D02*
X368300Y762000D01*
X304800Y698500D01*
X457154Y858058D02*
X444500Y870712D01*
X457154Y698546D02*
X457200Y698500D01*
X457154Y698546D02*
X457154Y858058D01*
X266700Y870712D02*
X266700Y838200D01*
X241300Y812800D01*
X241300Y762000D01*
X292100Y711200D01*
X292100Y635000D02*
X203200Y546100D01*
X292100Y635000D02*
X292100Y711200D01*
X266700Y880872D02*
X279400Y893572D01*
X325628Y893572D01*
X266700Y880872D02*
X266700Y870712D01*
X325628Y893572D02*
X342900Y876300D01*
X342900Y870712D01*
X508000Y698500D02*
X508000Y596900D01*
X469900Y558800D01*
X469900Y355600D01*
X482600Y609600D02*
X482600Y698500D01*
X482600Y609600D02*
X444500Y571500D01*
X444500Y355600D01*
X165100Y215900D02*
X165100Y139700D01*
X165100Y215900D02*
X203200Y254000D01*
X228600Y317500D02*
X203200Y342900D01*
X203200Y355600D01*
X228600Y317500D02*
X228600Y228600D01*
X215900Y215900D01*
X215900Y139700D01*
X203200Y355600D02*
X355600Y508000D01*
X355600Y546100D01*
D15*
X482600Y203200D03*
D16*
X469900Y215900D01*
X469900Y254000D01*
X444500Y203200D02*
X508000Y139700D01*
X444500Y203200D02*
X444500Y254000D01*
M02*
