G04 EAGLE Gerber RS-274X export*
G75*
%MOMM*%
%FSLAX34Y34*%
%LPD*%
%INSilkscreen Bottom*%
%IPPOS*%
%AMOC8*
5,1,8,0,0,1.08239X$1,22.5*%
G01*
%ADD10R,0.036069X0.109219*%
%ADD11R,0.036319X1.488438*%
%ADD12R,0.036319X2.214875*%
%ADD13R,0.036319X2.687319*%
%ADD14R,0.036319X2.903219*%
%ADD15R,0.036319X3.121656*%
%ADD16R,0.036319X0.035556*%
%ADD17R,0.036319X1.671319*%
%ADD18R,0.036319X3.411219*%
%ADD19R,0.036319X2.395219*%
%ADD20R,0.036069X3.594100*%
%ADD21R,0.036069X2.720338*%
%ADD22R,0.036319X3.810000*%
%ADD23R,0.036319X3.012438*%
%ADD24R,0.036319X4.025900*%
%ADD25R,0.036319X3.337563*%
%ADD26R,0.036319X4.173219*%
%ADD27R,0.036319X3.591556*%
%ADD28R,0.036319X4.391656*%
%ADD29R,0.036319X4.572000*%
%ADD30R,0.036319X4.028437*%
%ADD31R,0.036319X4.716775*%
%ADD32R,0.036069X4.826000*%
%ADD33R,0.036069X4.389119*%
%ADD34R,0.036319X4.970781*%
%ADD35R,0.036319X5.118100*%
%ADD36R,0.036319X5.224781*%
%ADD37R,0.036319X4.899656*%
%ADD38R,0.036319X5.372100*%
%ADD39R,0.036319X5.041900*%
%ADD40R,0.036319X5.588000*%
%ADD41R,0.036319X5.224775*%
%ADD42R,0.036319X5.369556*%
%ADD43R,0.036069X5.732781*%
%ADD44R,0.036069X5.514337*%
%ADD45R,0.036319X5.803900*%
%ADD46R,0.036319X5.661656*%
%ADD47R,0.036319X5.951219*%
%ADD48R,0.036319X5.806438*%
%ADD49R,0.036319X6.096000*%
%ADD50R,0.036319X5.913119*%
%ADD51R,0.036319X6.169656*%
%ADD52R,0.036319X6.057900*%
%ADD53R,0.036319X6.276338*%
%ADD54R,0.036319X6.388100*%
%ADD55R,0.036319X6.278875*%
%ADD56R,0.036069X6.459219*%
%ADD57R,0.036069X6.421119*%
%ADD58R,0.036319X6.530337*%
%ADD59R,0.036319X6.713219*%
%ADD60R,0.036319X6.604000*%
%ADD61R,0.036319X6.748781*%
%ADD62R,0.036319X6.819900*%
%ADD63R,0.036319X6.822438*%
%ADD64R,0.036319X6.931656*%
%ADD65R,0.036319X6.893556*%
%ADD66R,0.036319X7.002775*%
%ADD67R,0.036319X7.002781*%
%ADD68R,0.036069X7.073900*%
%ADD69R,0.036069X7.112000*%
%ADD70R,0.036319X7.150100*%
%ADD71R,0.036319X7.221219*%
%ADD72R,0.036319X0.038100*%
%ADD73R,0.036319X7.256781*%
%ADD74R,0.036319X7.256775*%
%ADD75R,0.036319X7.401556*%
%ADD76R,0.036319X7.330438*%
%ADD77R,0.036319X7.475219*%
%ADD78R,0.036319X7.439656*%
%ADD79R,0.036319X7.548875*%
%ADD80R,0.036319X7.546337*%
%ADD81R,0.036319X7.620000*%
%ADD82R,0.036069X7.620000*%
%ADD83R,0.036069X7.693656*%
%ADD84R,0.036319X7.729219*%
%ADD85R,0.036319X7.800338*%
%ADD86R,0.036319X7.874000*%
%ADD87R,0.036319X7.835900*%
%ADD88R,0.036319X7.909556*%
%ADD89R,0.036319X7.912100*%
%ADD90R,0.036319X8.018781*%
%ADD91R,0.036319X7.983219*%
%ADD92R,0.036319X8.092438*%
%ADD93R,0.036319X8.054338*%
%ADD94R,0.036319X8.163556*%
%ADD95R,0.036069X8.089900*%
%ADD96R,0.036069X8.275319*%
%ADD97R,0.036319X8.166100*%
%ADD98R,0.036319X8.346438*%
%ADD99R,0.036319X8.237219*%
%ADD100R,0.036319X8.526781*%
%ADD101R,0.036319X8.272781*%
%ADD102R,0.036319X8.562337*%
%ADD103R,0.036319X8.343900*%
%ADD104R,0.036319X8.636000*%
%ADD105R,0.036319X8.420100*%
%ADD106R,0.036319X8.709656*%
%ADD107R,0.036319X8.491219*%
%ADD108R,0.036319X8.780775*%
%ADD109R,0.036069X8.526781*%
%ADD110R,0.036069X8.854438*%
%ADD111R,0.036319X8.963656*%
%ADD112R,0.036319X8.707119*%
%ADD113R,0.036319X9.034781*%
%ADD114R,0.036319X8.745219*%
%ADD115R,0.036319X9.105900*%
%ADD116R,0.036319X9.182100*%
%ADD117R,0.036319X8.816338*%
%ADD118R,0.036319X9.217656*%
%ADD119R,0.036319X8.851900*%
%ADD120R,0.036319X9.324338*%
%ADD121R,0.036069X8.928100*%
%ADD122R,0.036069X9.398000*%
%ADD123R,0.036319X9.433556*%
%ADD124R,0.036319X8.999219*%
%ADD125R,0.036319X9.507219*%
%ADD126R,0.036319X9.070338*%
%ADD127R,0.036319X9.580875*%
%ADD128R,0.036319X9.144000*%
%ADD129R,0.036319X9.652000*%
%ADD130R,0.036319X9.687563*%
%ADD131R,0.036319X9.758681*%
%ADD132R,0.036069X9.253219*%
%ADD133R,0.036069X9.834881*%
%ADD134R,0.036319X9.288781*%
%ADD135R,0.036319X9.870438*%
%ADD136R,0.036319X9.359900*%
%ADD137R,0.036319X9.941556*%
%ADD138R,0.036319X10.015219*%
%ADD139R,0.036319X9.436100*%
%ADD140R,0.036319X10.088875*%
%ADD141R,0.036319X9.471656*%
%ADD142R,0.036319X10.124438*%
%ADD143R,0.036319X9.542775*%
%ADD144R,0.036319X10.160000*%
%ADD145R,0.036069X9.542781*%
%ADD146R,0.036069X0.035556*%
%ADD147R,0.036069X10.195556*%
%ADD148R,0.036319X9.578337*%
%ADD149R,0.036319X10.340338*%
%ADD150R,0.036319X9.613900*%
%ADD151R,0.036319X10.375900*%
%ADD152R,0.036319X9.725656*%
%ADD153R,0.036319X10.414000*%
%ADD154R,0.036319X10.452100*%
%ADD155R,0.036319X9.796781*%
%ADD156R,0.036319X10.523219*%
%ADD157R,0.036069X9.832338*%
%ADD158R,0.036069X0.038100*%
%ADD159R,0.036069X10.558781*%
%ADD160R,0.036319X9.832338*%
%ADD161R,0.036319X10.632437*%
%ADD162R,0.036319X9.867900*%
%ADD163R,0.036319X0.073656*%
%ADD164R,0.036319X1.125219*%
%ADD165R,0.036319X10.703556*%
%ADD166R,0.036319X1.597656*%
%ADD167R,0.036319X10.706100*%
%ADD168R,0.036319X9.944100*%
%ADD169R,0.036319X0.035563*%
%ADD170R,0.036319X2.032000*%
%ADD171R,0.036319X10.741656*%
%ADD172R,0.036319X9.979656*%
%ADD173R,0.036319X10.777219*%
%ADD174R,0.036319X2.720338*%
%ADD175R,0.036319X10.848338*%
%ADD176R,0.036069X10.050781*%
%ADD177R,0.036069X2.974338*%
%ADD178R,0.036069X10.848338*%
%ADD179R,0.036319X10.050781*%
%ADD180R,0.036319X3.263900*%
%ADD181R,0.036319X10.922000*%
%ADD182R,0.036319X10.121900*%
%ADD183R,0.036319X3.520438*%
%ADD184R,0.036319X10.995656*%
%ADD185R,0.036319X10.198100*%
%ADD186R,0.036319X3.990338*%
%ADD187R,0.036319X11.031219*%
%ADD188R,0.036319X10.233656*%
%ADD189R,0.036319X4.246875*%
%ADD190R,0.036319X4.462781*%
%ADD191R,0.036319X11.102338*%
%ADD192R,0.036069X10.304775*%
%ADD193R,0.036069X4.681219*%
%ADD194R,0.036069X11.102338*%
%ADD195R,0.036319X10.378438*%
%ADD196R,0.036319X4.935219*%
%ADD197R,0.036319X11.176000*%
%ADD198R,0.036319X5.044437*%
%ADD199R,0.036319X11.249656*%
%ADD200R,0.036319X5.262881*%
%ADD201R,0.036319X11.211556*%
%ADD202R,0.036319X5.478781*%
%ADD203R,0.036319X10.449556*%
%ADD204R,0.036319X11.323319*%
%ADD205R,0.036319X10.485119*%
%ADD206R,0.036319X11.394438*%
%ADD207R,0.036069X10.485119*%
%ADD208R,0.036069X6.096000*%
%ADD209R,0.036069X11.358875*%
%ADD210R,0.036319X10.520681*%
%ADD211R,0.036319X0.106681*%
%ADD212R,0.036319X6.350000*%
%ADD213R,0.036319X11.358875*%
%ADD214R,0.036319X10.558781*%
%ADD215R,0.036319X6.642100*%
%ADD216R,0.036319X11.430000*%
%ADD217R,0.036319X10.596881*%
%ADD218R,0.036319X0.109219*%
%ADD219R,0.036319X18.722338*%
%ADD220R,0.036319X10.668000*%
%ADD221R,0.036319X4.282438*%
%ADD222R,0.036319X0.147319*%
%ADD223R,0.036319X2.324100*%
%ADD224R,0.036319X19.121119*%
%ADD225R,0.036319X10.487656*%
%ADD226R,0.036319X19.702781*%
%ADD227R,0.036069X10.668000*%
%ADD228R,0.036069X0.726438*%
%ADD229R,0.036069X31.023556*%
%ADD230R,0.036319X10.739119*%
%ADD231R,0.036319X32.512000*%
%ADD232R,0.036319X32.550100*%
%ADD233R,0.036319X32.621219*%
%ADD234R,0.036319X10.850875*%
%ADD235R,0.036319X32.656781*%
%ADD236R,0.036069X10.850875*%
%ADD237R,0.036069X32.692338*%
%ADD238R,0.036319X32.727900*%
%ADD239R,0.036319X10.886438*%
%ADD240R,0.036319X32.766000*%
%ADD241R,0.036319X32.801556*%
%ADD242R,0.036319X32.837119*%
%ADD243R,0.036319X32.875219*%
%ADD244R,0.036069X10.957556*%
%ADD245R,0.036069X32.913319*%
%ADD246R,0.036319X10.957556*%
%ADD247R,0.036319X32.913319*%
%ADD248R,0.036319X32.948875*%
%ADD249R,0.036319X32.984437*%
%ADD250R,0.036319X33.020000*%
%ADD251R,0.036319X11.066781*%
%ADD252R,0.036319X33.055556*%
%ADD253R,0.036069X11.066781*%
%ADD254R,0.036069X33.055556*%
%ADD255R,0.036319X33.129219*%
%ADD256R,0.036319X33.164781*%
%ADD257R,0.036319X33.274000*%
%ADD258R,0.036319X33.345119*%
%ADD259R,0.036319X33.418781*%
%ADD260R,0.036319X33.492438*%
%ADD261R,0.036069X33.563563*%
%ADD262R,0.036319X11.140438*%
%ADD263R,0.036319X33.637219*%
%ADD264R,0.036319X33.708337*%
%ADD265R,0.036319X33.782000*%
%ADD266R,0.036319X33.853119*%
%ADD267R,0.036319X33.888681*%
%ADD268R,0.036319X33.962338*%
%ADD269R,0.036069X11.140438*%
%ADD270R,0.036069X33.997900*%
%ADD271R,0.036319X34.036000*%
%ADD272R,0.036319X34.071556*%
%ADD273R,0.036319X34.107119*%
%ADD274R,0.036319X34.142681*%
%ADD275R,0.036319X11.211563*%
%ADD276R,0.036319X34.216338*%
%ADD277R,0.036319X34.290000*%
%ADD278R,0.036069X45.575219*%
%ADD279R,0.036319X45.537119*%
%ADD280R,0.036319X45.575219*%
%ADD281R,0.036069X45.537119*%
%ADD282R,0.036319X45.501556*%
%ADD283R,0.036319X45.539656*%
%ADD284R,0.036069X45.648875*%
%ADD285R,0.036319X45.829219*%
%ADD286R,0.036319X45.864775*%
%ADD287R,0.036319X45.974000*%
%ADD288R,0.036319X46.009556*%
%ADD289R,0.036319X46.012100*%
%ADD290R,0.036319X46.047656*%
%ADD291R,0.036069X46.083219*%
%ADD292R,0.036319X46.121319*%
%ADD293R,0.036319X46.156875*%
%ADD294R,0.036319X46.192438*%
%ADD295R,0.036319X46.154338*%
%ADD296R,0.036069X46.154338*%
%ADD297R,0.036319X46.118781*%
%ADD298R,0.036319X46.083219*%
%ADD299R,0.036069X46.047656*%
%ADD300R,0.036319X45.935900*%
%ADD301R,0.036319X45.900337*%
%ADD302R,0.036069X45.864781*%
%ADD303R,0.036319X45.864781*%
%ADD304R,0.036319X45.793656*%
%ADD305R,0.036319X45.758100*%
%ADD306R,0.036069X45.720000*%
%ADD307R,0.036319X45.681900*%
%ADD308R,0.036319X45.720000*%
%ADD309R,0.036319X45.646338*%
%ADD310R,0.036319X45.610781*%
%ADD311R,0.036069X45.539656*%
%ADD312R,0.036319X45.466000*%
%ADD313R,0.036319X45.430438*%
%ADD314R,0.036319X45.356775*%
%ADD315R,0.036069X45.321219*%
%ADD316R,0.036319X45.285656*%
%ADD317R,0.036319X45.321219*%
%ADD318R,0.036319X45.392338*%
%ADD319R,0.036319X45.504100*%
%ADD320R,0.036069X45.572681*%
%ADD321R,0.036319X45.791119*%
%ADD322R,0.036319X45.938437*%
%ADD323R,0.036069X45.974000*%
%ADD324R,0.036319X46.118775*%
%ADD325R,0.036319X46.228000*%
%ADD326R,0.036319X46.446438*%
%ADD327R,0.036069X46.408338*%
%ADD328R,0.036319X46.553119*%
%ADD329R,0.036319X0.071119*%
%ADD330R,0.036319X46.555656*%
%ADD331R,0.036319X46.662337*%
%ADD332R,0.036319X46.700437*%
%ADD333R,0.036069X46.626775*%
%ADD334R,0.036319X46.626775*%
%ADD335R,0.036319X46.591219*%
%ADD336R,0.036319X46.629319*%
%ADD337R,0.036319X0.980438*%
%ADD338R,0.036069X46.553119*%
%ADD339R,0.036069X1.379219*%
%ADD340R,0.036319X46.517556*%
%ADD341R,0.036319X1.778000*%
%ADD342R,0.036319X48.658775*%
%ADD343R,0.036319X48.694338*%
%ADD344R,0.036319X49.530000*%
%ADD345R,0.036319X49.857656*%
%ADD346R,0.036069X49.966881*%
%ADD347R,0.036319X50.073556*%
%ADD348R,0.036319X50.147219*%
%ADD349R,0.036319X50.218338*%
%ADD350R,0.036319X50.256438*%
%ADD351R,0.036319X50.292000*%
%ADD352R,0.036069X50.327556*%
%ADD353R,0.036319X50.365656*%
%ADD354R,0.036319X50.401219*%
%ADD355R,0.036319X50.436775*%
%ADD356R,0.036069X50.436775*%
%ADD357R,0.036319X50.474875*%
%ADD358R,0.036069X50.474875*%
%ADD359R,0.036319X50.510438*%
%ADD360R,0.036319X50.546000*%
%ADD361R,0.036069X50.546000*%
%ADD362R,0.036319X50.581563*%
%ADD363R,0.036069X50.581563*%
%ADD364R,0.036319X50.617119*%
%ADD365R,0.036069X50.617119*%
%ADD366R,0.036319X50.581556*%
%ADD367R,0.036319X50.507900*%
%ADD368R,0.036319X50.436781*%
%ADD369R,0.036319X50.111656*%
%ADD370R,0.036319X49.456338*%
%ADD371R,0.036319X49.131219*%
%ADD372R,0.036319X49.095656*%
%ADD373R,0.036319X49.057556*%
%ADD374R,0.036069X49.022000*%
%ADD375R,0.036319X48.803563*%
%ADD376R,0.036319X0.144781*%
%ADD377R,0.036319X47.932338*%
%ADD378R,0.036069X47.932338*%
%ADD379R,0.036319X47.896781*%
%ADD380R,0.036069X47.970438*%
%ADD381R,0.036319X48.077119*%
%ADD382R,0.036319X48.115219*%
%ADD383R,0.036319X48.224438*%
%ADD384R,0.036319X48.331119*%
%ADD385R,0.036069X48.369219*%
%ADD386R,0.036319X48.404781*%
%ADD387R,0.036319X48.369219*%
%ADD388R,0.036319X48.221900*%
%ADD389R,0.036319X48.186338*%
%ADD390R,0.036069X48.150781*%
%ADD391R,0.036319X48.150781*%
%ADD392R,0.036319X48.041563*%
%ADD393R,0.036319X47.970438*%
%ADD394R,0.036319X47.934875*%
%ADD395R,0.036069X47.861219*%
%ADD396R,0.036319X47.680875*%
%ADD397R,0.036319X47.642775*%
%ADD398R,0.036319X47.607219*%
%ADD399R,0.036319X47.571656*%
%ADD400R,0.036319X47.536100*%
%ADD401R,0.036069X47.680875*%
%ADD402R,0.036319X47.678338*%
%ADD403R,0.036069X47.678338*%
%ADD404R,0.036319X47.642781*%
%ADD405R,0.036069X47.607219*%
%ADD406R,0.036319X47.569119*%
%ADD407R,0.036319X47.533556*%
%ADD408R,0.036069X47.498000*%
%ADD409R,0.036319X47.498000*%
%ADD410R,0.036319X47.533563*%
%ADD411R,0.036319X47.208438*%
%ADD412R,0.036319X47.170338*%
%ADD413R,0.036069X1.524000*%
%ADD414R,0.036069X45.247556*%
%ADD415R,0.036319X45.102775*%
%ADD416R,0.036319X45.067219*%
%ADD417R,0.036319X44.993556*%
%ADD418R,0.036319X44.922438*%
%ADD419R,0.036319X44.848775*%
%ADD420R,0.036319X44.777656*%
%ADD421R,0.036069X44.704000*%
%ADD422R,0.036319X44.632875*%
%ADD423R,0.036319X44.559219*%
%ADD424R,0.036319X44.523656*%
%ADD425R,0.036319X44.450000*%
%ADD426R,0.036319X44.378875*%
%ADD427R,0.036319X44.343319*%
%ADD428R,0.036069X44.269656*%
%ADD429R,0.036319X44.231556*%
%ADD430R,0.036319X44.160438*%
%ADD431R,0.036319X44.124875*%
%ADD432R,0.036319X44.051219*%
%ADD433R,0.036319X43.977556*%
%ADD434R,0.036319X43.977563*%
%ADD435R,0.036069X43.906438*%
%ADD436R,0.036319X43.832781*%
%ADD437R,0.036319X43.759119*%
%ADD438R,0.036319X43.723562*%
%ADD439R,0.036319X43.652438*%
%ADD440R,0.036319X43.578775*%
%ADD441R,0.036319X43.507656*%
%ADD442R,0.036069X43.434000*%
%ADD443R,0.036319X43.362875*%
%ADD444R,0.036319X43.251119*%
%ADD445R,0.036319X43.180000*%
%ADD446R,0.036319X43.070781*%
%ADD447R,0.036319X42.999656*%
%ADD448R,0.036319X42.926000*%
%ADD449R,0.036069X42.816781*%
%ADD450R,0.036319X42.778681*%
%ADD451R,0.036319X42.707556*%
%ADD452R,0.036319X42.633900*%
%ADD453R,0.036319X42.562781*%
%ADD454R,0.036319X42.489119*%
%ADD455R,0.036319X42.453563*%
%ADD456R,0.036069X42.344338*%
%ADD457R,0.036319X42.308781*%
%ADD458R,0.036319X42.235119*%
%ADD459R,0.036319X42.199562*%
%ADD460R,0.036319X42.164000*%
%ADD461R,0.036319X42.092875*%
%ADD462R,0.036319X42.019219*%
%ADD463R,0.036069X41.983656*%
%ADD464R,0.036319X41.945556*%
%ADD465R,0.036319X41.874437*%
%ADD466R,0.036319X41.803319*%
%ADD467R,0.036319X41.765219*%
%ADD468R,0.036319X41.694100*%
%ADD469R,0.036069X41.620438*%
%ADD470R,0.036319X41.584875*%
%ADD471R,0.036319X41.546775*%
%ADD472R,0.036069X41.546775*%
%ADD473R,0.036319X41.511219*%
%ADD474R,0.036319X41.475656*%
%ADD475R,0.036069X41.475656*%
%ADD476R,0.036319X41.402000*%
%ADD477R,0.036319X41.366438*%
%ADD478R,0.036069X41.366438*%
%ADD479R,0.036319X41.292781*%
%ADD480R,0.036319X41.254681*%
%ADD481R,0.036069X41.219119*%
%ADD482R,0.036319X41.219119*%
%ADD483R,0.036319X41.183563*%
%ADD484R,0.036319X41.148000*%
%ADD485R,0.036319X41.112437*%
%ADD486R,0.036319X41.076875*%
%ADD487R,0.036069X41.076875*%
%ADD488R,0.036319X41.038775*%
%ADD489R,0.036319X41.003219*%
%ADD490R,0.036319X40.932100*%
%ADD491R,0.036319X40.894000*%
%ADD492R,0.036069X40.894000*%
%ADD493R,0.036319X40.858438*%
%ADD494R,0.036319X40.822875*%
%ADD495R,0.036319X40.749219*%
%ADD496R,0.036319X40.711119*%
%ADD497R,0.036069X40.640000*%
%ADD498R,0.036319X40.601900*%
%ADD499R,0.036319X40.566338*%
%ADD500R,0.036319X40.530781*%
%ADD501R,0.036069X40.530781*%
%ADD502R,0.036319X40.495219*%
%ADD503R,0.036319X40.424100*%
%ADD504R,0.036069X40.424100*%
%ADD505R,0.036319X40.386000*%
%ADD506R,0.036319X40.347900*%
%ADD507R,0.036319X40.312338*%
%ADD508R,0.036319X40.238681*%
%ADD509R,0.036319X40.022781*%
%ADD510R,0.036319X39.585900*%
%ADD511R,0.036069X39.187119*%
%ADD512R,0.036319X38.752781*%
%ADD513R,0.036319X38.318438*%
%ADD514R,0.036319X37.917119*%
%ADD515R,0.036319X37.447219*%
%ADD516R,0.036319X36.974781*%
%ADD517R,0.036319X36.611563*%
%ADD518R,0.036069X36.540438*%
%ADD519R,0.036319X36.431219*%
%ADD520R,0.036319X36.395656*%
%ADD521R,0.036319X36.322000*%
%ADD522R,0.036319X36.250875*%
%ADD523R,0.036319X36.212775*%
%ADD524R,0.036319X36.141656*%
%ADD525R,0.036069X36.068000*%
%ADD526R,0.036319X35.996875*%
%ADD527R,0.036319X2.613656*%
%ADD528R,0.036319X14.805656*%
%ADD529R,0.036319X2.540000*%
%ADD530R,0.036319X2.504438*%
%ADD531R,0.036319X9.469119*%
%ADD532R,0.036319X9.326875*%
%ADD533R,0.036319X2.468881*%
%ADD534R,0.036319X11.356338*%
%ADD535R,0.036069X2.430781*%
%ADD536R,0.036069X11.356338*%
%ADD537R,0.036319X9.072881*%
%ADD538R,0.036319X8.961119*%
%ADD539R,0.036319X8.854438*%
%ADD540R,0.036319X2.359656*%
%ADD541R,0.036319X11.320775*%
%ADD542R,0.036319X2.286000*%
%ADD543R,0.036319X2.247900*%
%ADD544R,0.036319X11.285219*%
%ADD545R,0.036069X8.417563*%
%ADD546R,0.036069X2.212338*%
%ADD547R,0.036069X11.249656*%
%ADD548R,0.036319X8.275319*%
%ADD549R,0.036319X2.176781*%
%ADD550R,0.036319X2.138681*%
%ADD551R,0.036319X7.945119*%
%ADD552R,0.036319X2.103119*%
%ADD553R,0.036319X7.802875*%
%ADD554R,0.036319X1.996438*%
%ADD555R,0.036069X1.996438*%
%ADD556R,0.036319X1.958338*%
%ADD557R,0.036319X7.366000*%
%ADD558R,0.036319X1.922781*%
%ADD559R,0.036319X7.294875*%
%ADD560R,0.036319X1.887219*%
%ADD561R,0.036319X7.147556*%
%ADD562R,0.036319X1.851656*%
%ADD563R,0.036319X7.038337*%
%ADD564R,0.036319X1.813556*%
%ADD565R,0.036319X6.929119*%
%ADD566R,0.036069X6.822438*%
%ADD567R,0.036069X1.742438*%
%ADD568R,0.036069X11.028681*%
%ADD569R,0.036319X6.677656*%
%ADD570R,0.036319X1.706875*%
%ADD571R,0.036319X11.028681*%
%ADD572R,0.036319X6.639556*%
%ADD573R,0.036319X6.459219*%
%ADD574R,0.036319X1.668775*%
%ADD575R,0.036319X10.993119*%
%ADD576R,0.036319X6.385556*%
%ADD577R,0.036319X10.957562*%
%ADD578R,0.036319X6.240775*%
%ADD579R,0.036319X1.562100*%
%ADD580R,0.036319X1.524000*%
%ADD581R,0.036069X6.022337*%
%ADD582R,0.036069X10.922000*%
%ADD583R,0.036319X5.915656*%
%ADD584R,0.036319X5.842000*%
%ADD585R,0.036319X1.452875*%
%ADD586R,0.036319X5.732781*%
%ADD587R,0.036319X1.417319*%
%ADD588R,0.036319X1.341119*%
%ADD589R,0.036319X5.334000*%
%ADD590R,0.036319X1.305556*%
%ADD591R,0.036069X5.260338*%
%ADD592R,0.036069X1.270000*%
%ADD593R,0.036069X10.812775*%
%ADD594R,0.036319X1.270000*%
%ADD595R,0.036319X5.006337*%
%ADD596R,0.036319X1.231900*%
%ADD597R,0.036319X4.826000*%
%ADD598R,0.036319X1.196338*%
%ADD599R,0.036319X4.716781*%
%ADD600R,0.036319X4.607556*%
%ADD601R,0.036319X1.089656*%
%ADD602R,0.036069X4.427219*%
%ADD603R,0.036069X1.051556*%
%ADD604R,0.036069X10.706100*%
%ADD605R,0.036319X4.356100*%
%ADD606R,0.036319X1.016000*%
%ADD607R,0.036319X4.244338*%
%ADD608R,0.036319X4.137656*%
%ADD609R,0.036319X10.629900*%
%ADD610R,0.036319X0.942338*%
%ADD611R,0.036319X3.919219*%
%ADD612R,0.036319X0.906781*%
%ADD613R,0.036319X0.835656*%
%ADD614R,0.036069X3.919219*%
%ADD615R,0.036069X0.800100*%
%ADD616R,0.036069X10.594337*%
%ADD617R,0.036319X3.954781*%
%ADD618R,0.036319X4.064000*%
%ADD619R,0.036319X0.797556*%
%ADD620R,0.036319X0.762000*%
%ADD621R,0.036319X0.726438*%
%ADD622R,0.036319X4.353556*%
%ADD623R,0.036319X0.723900*%
%ADD624R,0.036069X10.523219*%
%ADD625R,0.036319X4.500875*%
%ADD626R,0.036319X4.536437*%
%ADD627R,0.036319X0.690875*%
%ADD628R,0.036319X4.533900*%
%ADD629R,0.036319X0.690881*%
%ADD630R,0.036069X4.607556*%
%ADD631R,0.036069X0.762000*%
%ADD632R,0.036069X10.375900*%
%ADD633R,0.036319X0.688338*%
%ADD634R,0.036319X4.427219*%
%ADD635R,0.036319X4.318000*%
%ADD636R,0.036319X10.269219*%
%ADD637R,0.036069X4.173219*%
%ADD638R,0.036069X0.652781*%
%ADD639R,0.036069X10.269219*%
%ADD640R,0.036319X0.617219*%
%ADD641R,0.036319X4.099563*%
%ADD642R,0.036319X0.614681*%
%ADD643R,0.036319X10.231119*%
%ADD644R,0.036319X0.579119*%
%ADD645R,0.036319X0.543563*%
%ADD646R,0.036319X0.508000*%
%ADD647R,0.036319X3.883656*%
%ADD648R,0.036319X0.472438*%
%ADD649R,0.036069X3.916681*%
%ADD650R,0.036069X0.398775*%
%ADD651R,0.036069X10.160000*%
%ADD652R,0.036319X0.434338*%
%ADD653R,0.036319X0.363219*%
%ADD654R,0.036319X0.215900*%
%ADD655R,0.036319X10.053319*%
%ADD656R,0.036069X3.883656*%
%ADD657R,0.036069X10.053319*%
%ADD658R,0.036319X3.881119*%
%ADD659R,0.036319X9.977119*%
%ADD660R,0.036319X3.845563*%
%ADD661R,0.036069X9.941556*%
%ADD662R,0.036319X3.845556*%
%ADD663R,0.036319X9.906000*%
%ADD664R,0.036319X3.916681*%
%ADD665R,0.036319X3.848100*%
%ADD666R,0.036069X3.848100*%
%ADD667R,0.036319X9.761219*%
%ADD668R,0.036069X9.652000*%
%ADD669R,0.036069X3.881119*%
%ADD670R,0.036319X9.542781*%
%ADD671R,0.036069X9.471656*%
%ADD672R,0.036319X9.362438*%
%ADD673R,0.036069X3.845563*%
%ADD674R,0.036069X9.326875*%
%ADD675R,0.036319X9.291319*%
%ADD676R,0.036319X9.253219*%
%ADD677R,0.036069X3.845556*%
%ADD678R,0.036069X9.215119*%
%ADD679R,0.036319X9.179556*%
%ADD680R,0.036319X9.108438*%
%ADD681R,0.036069X9.108438*%
%ADD682R,0.036069X8.961119*%
%ADD683R,0.036319X8.925556*%
%ADD684R,0.036069X8.745219*%
%ADD685R,0.036319X8.674100*%
%ADD686R,0.036069X8.636000*%
%ADD687R,0.036319X8.600437*%
%ADD688R,0.036319X8.526775*%
%ADD689R,0.036069X8.526775*%
%ADD690R,0.036319X8.455656*%
%ADD691R,0.036319X8.417556*%
%ADD692R,0.036069X3.810000*%
%ADD693R,0.036069X8.417556*%
%ADD694R,0.036319X8.382000*%
%ADD695R,0.036319X8.310881*%
%ADD696R,0.036069X8.272781*%
%ADD697R,0.036319X8.234681*%
%ADD698R,0.036319X8.199119*%
%ADD699R,0.036319X8.163563*%
%ADD700R,0.036069X8.163563*%
%ADD701R,0.036319X8.128000*%
%ADD702R,0.036319X8.056875*%
%ADD703R,0.036069X0.434338*%
%ADD704R,0.036069X8.056875*%
%ADD705R,0.036319X0.543556*%
%ADD706R,0.036319X8.018775*%
%ADD707R,0.036319X4.754875*%
%ADD708R,0.036319X7.947656*%
%ADD709R,0.036069X4.645656*%
%ADD710R,0.036069X7.947656*%
%ADD711R,0.036319X4.498337*%
%ADD712R,0.036319X4.424681*%
%ADD713R,0.036319X4.353562*%
%ADD714R,0.036069X4.282438*%
%ADD715R,0.036069X7.835900*%
%ADD716R,0.036319X4.208781*%
%ADD717R,0.036319X7.764781*%
%ADD718R,0.036319X4.462775*%
%ADD719R,0.036069X4.424681*%
%ADD720R,0.036319X7.693656*%
%ADD721R,0.036319X7.658100*%
%ADD722R,0.036319X4.645656*%
%ADD723R,0.036319X4.681219*%
%ADD724R,0.036319X4.719319*%
%ADD725R,0.036319X7.581900*%
%ADD726R,0.036069X7.581900*%
%ADD727R,0.036319X7.510781*%
%ADD728R,0.036319X5.153656*%
%ADD729R,0.036319X5.186681*%
%ADD730R,0.036069X5.262875*%
%ADD731R,0.036069X7.475219*%
%ADD732R,0.036319X5.298438*%
%ADD733R,0.036319X5.552437*%
%ADD734R,0.036319X5.623556*%
%ADD735R,0.036069X7.874000*%
%ADD736R,0.036069X7.401556*%
%ADD737R,0.036319X12.009119*%
%ADD738R,0.036319X19.994875*%
%ADD739R,0.036319X19.921219*%
%ADD740R,0.036319X19.850100*%
%ADD741R,0.036319X19.812000*%
%ADD742R,0.036319X19.740875*%
%ADD743R,0.036069X19.667219*%
%ADD744R,0.036319X19.593556*%
%ADD745R,0.036319X19.558000*%
%ADD746R,0.036319X19.519900*%
%ADD747R,0.036319X19.413219*%
%ADD748R,0.036319X19.375119*%
%ADD749R,0.036319X19.268438*%
%ADD750R,0.036069X19.230338*%
%ADD751R,0.036319X19.159219*%
%ADD752R,0.036319X19.085556*%
%ADD753R,0.036319X19.014437*%
%ADD754R,0.036319X18.940781*%
%ADD755R,0.036319X18.869656*%
%ADD756R,0.036319X18.834100*%
%ADD757R,0.036069X18.760438*%
%ADD758R,0.036319X18.686781*%
%ADD759R,0.036319X18.651219*%
%ADD760R,0.036319X18.542000*%
%ADD761R,0.036319X18.503900*%
%ADD762R,0.036319X18.432781*%
%ADD763R,0.036319X18.394681*%
%ADD764R,0.036069X18.323556*%
%ADD765R,0.036319X18.214337*%
%ADD766R,0.036319X18.178781*%
%ADD767R,0.036319X18.105119*%
%ADD768R,0.036319X18.034000*%
%ADD769R,0.036319X17.998438*%
%ADD770R,0.036319X17.960338*%
%ADD771R,0.036069X17.853656*%
%ADD772R,0.036319X17.780000*%
%ADD773R,0.036319X17.744438*%
%ADD774R,0.036319X17.670775*%
%ADD775R,0.036319X17.599656*%
%ADD776R,0.036319X17.561556*%
%ADD777R,0.036319X17.454875*%
%ADD778R,0.036069X17.419319*%
%ADD779R,0.036319X17.381219*%
%ADD780R,0.036319X17.345656*%
%ADD781R,0.036319X17.272000*%
%ADD782R,0.036319X17.200875*%
%ADD783R,0.036319X17.162775*%
%ADD784R,0.036319X17.091656*%
%ADD785R,0.036069X17.053556*%
%ADD786R,0.036319X16.982437*%
%ADD787R,0.036319X16.908781*%
%ADD788R,0.036319X16.873219*%
%ADD789R,0.036069X16.873219*%
%ADD790R,0.036319X16.802100*%
%ADD791R,0.036319X16.725900*%
%ADD792R,0.036319X16.690338*%
%ADD793R,0.036319X16.581119*%
%ADD794R,0.036319X16.220437*%
%ADD795R,0.036319X16.111219*%
%ADD796R,0.036069X15.966438*%
%ADD797R,0.036319X15.638781*%
%ADD798R,0.036319X14.442438*%
%ADD799R,0.036319X0.436875*%
%ADD800R,0.036319X13.027656*%
%ADD801R,0.036319X0.401319*%
%ADD802R,0.036319X12.552681*%
%ADD803R,0.036319X0.325119*%
%ADD804R,0.036069X10.487656*%
%ADD805R,0.036319X9.215119*%
%ADD806R,0.036319X7.548881*%
%ADD807R,0.036319X6.024875*%
%ADD808R,0.036319X3.738875*%
%ADD809C,0.152400*%
%ADD810C,0.127000*%


D10*
X352083Y242408D03*
D11*
X351721Y245317D03*
D12*
X351358Y244580D03*
D13*
X350995Y244402D03*
D14*
X350632Y244034D03*
D15*
X350268Y244034D03*
D16*
X350268Y260557D03*
D17*
X350268Y587302D03*
D18*
X349905Y244034D03*
D19*
X349905Y588382D03*
D20*
X349543Y243856D03*
D21*
X349543Y587848D03*
D22*
X349181Y243869D03*
D23*
X349181Y587480D03*
D24*
X348818Y243856D03*
D25*
X348818Y587302D03*
D26*
X348455Y243856D03*
D27*
X348455Y587480D03*
D28*
X348092Y243856D03*
D16*
X348092Y266348D03*
D22*
X348092Y587480D03*
D29*
X347728Y244047D03*
D30*
X347728Y587480D03*
D31*
X347365Y244034D03*
D26*
X347365Y587493D03*
D32*
X347003Y243869D03*
D33*
X347003Y587480D03*
D34*
X346641Y243856D03*
D29*
X346641Y587658D03*
D35*
X346278Y243856D03*
D31*
X346278Y587671D03*
D36*
X345915Y243678D03*
D37*
X345915Y587848D03*
D38*
X345552Y243678D03*
D16*
X345552Y271428D03*
D39*
X345552Y587848D03*
D40*
X345188Y244047D03*
D41*
X345188Y587671D03*
D40*
X344825Y243666D03*
D42*
X344825Y587658D03*
D43*
X344463Y243678D03*
D44*
X344463Y587671D03*
D45*
X344101Y243678D03*
D46*
X344101Y587671D03*
D47*
X343738Y243678D03*
D48*
X343738Y587658D03*
D49*
X343375Y244047D03*
D50*
X343375Y587480D03*
D51*
X343012Y243678D03*
D52*
X343012Y587848D03*
D53*
X342648Y243856D03*
D51*
X342648Y587671D03*
D54*
X342285Y243678D03*
D55*
X342285Y587480D03*
D56*
X341923Y243678D03*
D57*
X341923Y587480D03*
D58*
X341561Y243678D03*
D16*
X341561Y277245D03*
D58*
X341561Y587671D03*
D59*
X341198Y244212D03*
D60*
X341198Y587658D03*
D61*
X340835Y243678D03*
D59*
X340835Y587493D03*
D62*
X340472Y243678D03*
D63*
X340472Y587658D03*
D64*
X340108Y243501D03*
D65*
X340108Y587658D03*
D66*
X339745Y243501D03*
D67*
X339745Y587848D03*
D68*
X339383Y243856D03*
D69*
X339383Y588039D03*
D70*
X339021Y243856D03*
D71*
X339021Y587848D03*
D72*
X338658Y206848D03*
D73*
X338658Y243678D03*
D74*
X338658Y587671D03*
D75*
X338295Y243310D03*
D76*
X338295Y587658D03*
D77*
X337932Y243323D03*
D78*
X337932Y587848D03*
D79*
X337568Y243310D03*
D80*
X337568Y587671D03*
X337205Y243678D03*
D81*
X337205Y587658D03*
D82*
X336843Y243666D03*
D83*
X336843Y587671D03*
D84*
X336481Y243501D03*
D85*
X336481Y587848D03*
X336118Y243501D03*
D86*
X336118Y587480D03*
D87*
X335755Y243678D03*
D88*
X335755Y587658D03*
D89*
X335392Y243678D03*
D90*
X335392Y587493D03*
D91*
X335028Y243678D03*
D92*
X335028Y587480D03*
D93*
X334665Y243678D03*
D94*
X334665Y587480D03*
D95*
X334303Y243856D03*
D96*
X334303Y587302D03*
D97*
X333941Y243856D03*
D98*
X333941Y587302D03*
D99*
X333578Y243856D03*
D100*
X333578Y587112D03*
D101*
X333215Y243678D03*
D102*
X333215Y586934D03*
D103*
X332852Y243678D03*
D104*
X332852Y586947D03*
D105*
X332488Y243678D03*
D106*
X332488Y586934D03*
D107*
X332125Y243678D03*
D108*
X332125Y586934D03*
D109*
X331763Y243856D03*
D110*
X331763Y586947D03*
D16*
X331401Y200308D03*
D102*
X331401Y243678D03*
D111*
X331401Y586756D03*
D112*
X331038Y243310D03*
D113*
X331038Y586756D03*
D114*
X330675Y243501D03*
D115*
X330675Y586756D03*
D114*
X330312Y243856D03*
D116*
X330312Y586756D03*
D117*
X329948Y243856D03*
D118*
X329948Y586578D03*
D119*
X329585Y243678D03*
D120*
X329585Y586401D03*
D121*
X329223Y243678D03*
D122*
X329223Y586388D03*
D111*
X328861Y243856D03*
D123*
X328861Y586210D03*
D124*
X328498Y243678D03*
D125*
X328498Y586223D03*
D126*
X328135Y243678D03*
D127*
X328135Y586210D03*
D128*
X327772Y243666D03*
D129*
X327772Y586210D03*
D128*
X327408Y243666D03*
D130*
X327408Y586032D03*
D118*
X327045Y243678D03*
D131*
X327045Y586032D03*
D132*
X326683Y243856D03*
D133*
X326683Y586032D03*
D134*
X326321Y243678D03*
D135*
X326321Y585855D03*
D136*
X325958Y243678D03*
D137*
X325958Y585855D03*
D136*
X325595Y243678D03*
D138*
X325595Y585842D03*
D139*
X325232Y243678D03*
D140*
X325232Y585855D03*
D141*
X324868Y243501D03*
D142*
X324868Y585677D03*
D143*
X324505Y243501D03*
D16*
X324505Y534140D03*
D144*
X324505Y585855D03*
D145*
X324143Y243856D03*
D146*
X324143Y534140D03*
D147*
X324143Y585677D03*
D148*
X323781Y243678D03*
D149*
X323781Y585308D03*
D150*
X323418Y243856D03*
D149*
X323418Y585664D03*
D129*
X323055Y243666D03*
D151*
X323055Y585486D03*
D152*
X322692Y243678D03*
D153*
X322692Y585677D03*
D152*
X322328Y243678D03*
D154*
X322328Y585486D03*
D155*
X321965Y243678D03*
D156*
X321965Y585486D03*
D157*
X321603Y243856D03*
D158*
X321603Y531968D03*
D159*
X321603Y585308D03*
D160*
X321241Y243501D03*
D72*
X321241Y531968D03*
D161*
X321241Y585677D03*
D162*
X320878Y243678D03*
D163*
X320878Y494046D03*
D164*
X320878Y501133D03*
D165*
X320878Y584940D03*
D162*
X320515Y243678D03*
D166*
X320515Y501311D03*
D167*
X320515Y585308D03*
D168*
X320152Y243678D03*
D169*
X320152Y489512D03*
D170*
X320152Y500942D03*
D171*
X320152Y585486D03*
D172*
X319788Y243856D03*
D19*
X319788Y500574D03*
D173*
X319788Y585308D03*
D138*
X319425Y243678D03*
D174*
X319425Y500396D03*
D175*
X319425Y585308D03*
D176*
X319063Y243856D03*
D146*
X319063Y484077D03*
D177*
X319063Y500218D03*
D146*
X319063Y516005D03*
D178*
X319063Y585308D03*
D179*
X318701Y243856D03*
D180*
X318701Y500218D03*
D181*
X318701Y585296D03*
D182*
X318338Y243856D03*
D183*
X318338Y499672D03*
D181*
X318338Y585296D03*
D144*
X317975Y244047D03*
D22*
X317975Y498936D03*
D184*
X317975Y585308D03*
D185*
X317612Y243856D03*
D186*
X317612Y498771D03*
D187*
X317612Y585131D03*
D188*
X317248Y244034D03*
D189*
X317248Y498580D03*
D187*
X317248Y585131D03*
D188*
X316885Y244034D03*
D190*
X316885Y498212D03*
D191*
X316885Y585131D03*
D192*
X316523Y244034D03*
D193*
X316523Y497856D03*
D194*
X316523Y585131D03*
D195*
X316161Y244047D03*
D196*
X316161Y497678D03*
D197*
X316161Y585118D03*
D153*
X315798Y243869D03*
D198*
X315798Y497488D03*
D199*
X315798Y585131D03*
D195*
X315435Y244047D03*
D200*
X315435Y497132D03*
D201*
X315435Y584940D03*
D153*
X315072Y244225D03*
D202*
X315072Y496408D03*
D72*
X315072Y528336D03*
D199*
X315072Y585131D03*
D203*
X314708Y244047D03*
D46*
X314708Y496231D03*
D204*
X314708Y584762D03*
D205*
X314345Y244225D03*
D50*
X314345Y495685D03*
D206*
X314345Y584762D03*
D207*
X313983Y244225D03*
D208*
X313983Y495126D03*
D209*
X313983Y584940D03*
D210*
X313621Y244402D03*
D211*
X313621Y461572D03*
D212*
X313621Y494592D03*
D213*
X313621Y584940D03*
D214*
X313258Y244212D03*
D215*
X313258Y493868D03*
D216*
X313258Y584940D03*
D217*
X312895Y244402D03*
D72*
X312895Y396256D03*
D64*
X312895Y492776D03*
D216*
X312895Y584940D03*
D217*
X312532Y244402D03*
D218*
X312532Y396612D03*
D219*
X312532Y548478D03*
D220*
X312168Y244402D03*
D221*
X312168Y355070D03*
D222*
X312168Y396802D03*
D223*
X312168Y411318D03*
D224*
X312168Y546840D03*
D220*
X311805Y244402D03*
D225*
X311805Y385004D03*
D226*
X311805Y543932D03*
D227*
X311443Y244402D03*
D228*
X311443Y322050D03*
D229*
X311443Y487328D03*
D230*
X311081Y244402D03*
D231*
X311081Y480267D03*
D230*
X310718Y244402D03*
D231*
X310718Y480267D03*
D173*
X310355Y244593D03*
D232*
X310355Y480076D03*
D173*
X309992Y244593D03*
D233*
X309992Y480076D03*
D173*
X309628Y244593D03*
D233*
X309628Y480076D03*
D234*
X309265Y244580D03*
D235*
X309265Y479898D03*
D236*
X308903Y244580D03*
D237*
X308903Y479721D03*
D234*
X308541Y244580D03*
D238*
X308541Y479898D03*
D239*
X308178Y244758D03*
D240*
X308178Y479708D03*
D239*
X307815Y244758D03*
D241*
X307815Y479530D03*
D239*
X307452Y244758D03*
D241*
X307452Y479530D03*
D181*
X307088Y244936D03*
D242*
X307088Y479352D03*
D184*
X306725Y244948D03*
D243*
X306725Y479543D03*
D244*
X306363Y244758D03*
D245*
X306363Y479352D03*
D246*
X306001Y244758D03*
D247*
X306001Y479352D03*
D184*
X305638Y244948D03*
D248*
X305638Y479175D03*
D184*
X305275Y244948D03*
D249*
X305275Y479352D03*
D187*
X304912Y244771D03*
D250*
X304912Y479175D03*
D251*
X304548Y244948D03*
D250*
X304548Y479175D03*
D251*
X304185Y244948D03*
D252*
X304185Y478997D03*
D253*
X303823Y244948D03*
D254*
X303823Y478997D03*
D251*
X303461Y244948D03*
D255*
X303461Y478984D03*
D191*
X303098Y245126D03*
D256*
X303098Y478806D03*
D191*
X302735Y245126D03*
D257*
X302735Y478260D03*
D191*
X302372Y245126D03*
D258*
X302372Y477905D03*
D191*
X302008Y245126D03*
D259*
X302008Y477536D03*
D191*
X301645Y245126D03*
D260*
X301645Y477168D03*
D194*
X301283Y245126D03*
D261*
X301283Y476812D03*
D262*
X300921Y245317D03*
D263*
X300921Y476444D03*
D262*
X300558Y245317D03*
D264*
X300558Y476444D03*
D262*
X300195Y245317D03*
D265*
X300195Y476076D03*
D197*
X299832Y245139D03*
D266*
X299832Y475720D03*
D197*
X299468Y245139D03*
D267*
X299468Y475542D03*
D262*
X299105Y245317D03*
D268*
X299105Y475174D03*
D269*
X298743Y245317D03*
D270*
X298743Y474996D03*
D262*
X298381Y245317D03*
D271*
X298381Y474806D03*
D197*
X298018Y245495D03*
D272*
X298018Y474628D03*
D197*
X297655Y245495D03*
D273*
X297655Y474450D03*
D197*
X297292Y245495D03*
D274*
X297292Y474272D03*
D275*
X296928Y245672D03*
D276*
X296928Y473904D03*
D197*
X296565Y245495D03*
D277*
X296565Y473536D03*
D278*
X296203Y417491D03*
D279*
X295841Y417300D03*
X295478Y417300D03*
X295115Y417300D03*
D280*
X294752Y417491D03*
D279*
X294388Y417300D03*
X294025Y417300D03*
D281*
X293663Y417300D03*
D279*
X293301Y417300D03*
X292938Y417300D03*
X292575Y417300D03*
X292212Y417300D03*
D282*
X291848Y417478D03*
D283*
X291485Y417668D03*
D284*
X291123Y418215D03*
D285*
X290761Y419116D03*
D286*
X290398Y419294D03*
D287*
X290035Y419840D03*
D288*
X289672Y420018D03*
D289*
X289308Y420386D03*
D290*
X288945Y420564D03*
D291*
X288583Y420742D03*
D292*
X288221Y420932D03*
D293*
X287858Y421110D03*
X287495Y421110D03*
D294*
X287132Y421288D03*
D295*
X286768Y421478D03*
X286405Y421478D03*
D296*
X286043Y421478D03*
D295*
X285681Y421478D03*
D297*
X285318Y421656D03*
X284955Y421656D03*
X284592Y421656D03*
D298*
X284228Y421478D03*
D290*
X283865Y421656D03*
D299*
X283503Y421656D03*
D290*
X283141Y421656D03*
D287*
X282778Y421669D03*
X282415Y421669D03*
D300*
X282052Y421478D03*
D301*
X281688Y421656D03*
X281325Y421656D03*
D302*
X280963Y421478D03*
D303*
X280601Y421478D03*
D285*
X280238Y421656D03*
X279875Y421656D03*
D304*
X279512Y421478D03*
D305*
X279148Y421656D03*
D304*
X278785Y421834D03*
D306*
X278423Y421466D03*
D307*
X278061Y421656D03*
D308*
X277698Y421466D03*
D309*
X277335Y421478D03*
D310*
X276972Y421656D03*
X276608Y421656D03*
D283*
X276245Y421656D03*
D311*
X275883Y421656D03*
D282*
X275521Y421847D03*
D312*
X275158Y421669D03*
D313*
X274795Y421847D03*
X274432Y421847D03*
D314*
X274068Y421834D03*
X273705Y421834D03*
D315*
X273343Y422012D03*
D316*
X272981Y421834D03*
D317*
X272618Y421656D03*
D318*
X272255Y421301D03*
D313*
X271892Y420755D03*
D319*
X271528Y420386D03*
D16*
X271165Y190885D03*
D280*
X271165Y420386D03*
D10*
X270803Y190872D03*
D320*
X270803Y419662D03*
D146*
X270803Y648085D03*
D307*
X270441Y419116D03*
D308*
X270078Y418926D03*
D321*
X269715Y418570D03*
X269352Y418215D03*
D303*
X268988Y417846D03*
D322*
X268625Y417478D03*
D158*
X268263Y186528D03*
D323*
X268263Y416945D03*
D324*
X267901Y416221D03*
D298*
X267538Y416398D03*
D293*
X267175Y416030D03*
D294*
X266812Y415497D03*
D218*
X266448Y182896D03*
D325*
X266448Y415319D03*
D326*
X266085Y414227D03*
D327*
X265723Y414036D03*
D146*
X265723Y647348D03*
D328*
X265361Y413312D03*
D329*
X265361Y647170D03*
D328*
X264998Y413312D03*
D211*
X264998Y646992D03*
D330*
X264635Y412944D03*
D211*
X264635Y646992D03*
D330*
X264272Y412944D03*
D218*
X264272Y646624D03*
D331*
X263908Y413858D03*
D332*
X263545Y413668D03*
D333*
X263183Y413681D03*
D334*
X262821Y413681D03*
D335*
X262458Y413503D03*
D336*
X262095Y413312D03*
D335*
X261732Y413503D03*
D328*
X261368Y413312D03*
X261005Y413312D03*
D337*
X261005Y658245D03*
D338*
X260643Y413312D03*
D339*
X260643Y658054D03*
D340*
X260281Y413135D03*
D341*
X260281Y657152D03*
D328*
X259918Y413312D03*
D170*
X259918Y656619D03*
D342*
X259555Y423841D03*
D343*
X259192Y424018D03*
D344*
X258828Y420196D03*
D345*
X258465Y418938D03*
D346*
X258103Y418392D03*
D347*
X257741Y418215D03*
D348*
X257378Y417846D03*
D349*
X257015Y417491D03*
D350*
X256652Y417300D03*
D351*
X256288Y417122D03*
X255925Y417122D03*
D352*
X255563Y416945D03*
D353*
X255201Y416754D03*
X254838Y416754D03*
X254475Y416754D03*
D354*
X254112Y416932D03*
D355*
X253748Y416754D03*
X253385Y416754D03*
D356*
X253023Y416754D03*
D355*
X252661Y416754D03*
X252298Y416754D03*
X251935Y416754D03*
X251572Y416754D03*
X251208Y416754D03*
X250845Y416754D03*
D356*
X250483Y416754D03*
D355*
X250121Y416754D03*
D357*
X249758Y416945D03*
X249395Y416945D03*
X249032Y416945D03*
X248668Y416945D03*
X248305Y416945D03*
D358*
X247943Y416945D03*
D357*
X247581Y416945D03*
X247218Y416945D03*
X246855Y416945D03*
X246492Y416945D03*
X246128Y416945D03*
X245765Y416945D03*
D358*
X245403Y416945D03*
D359*
X245041Y417122D03*
X244678Y417122D03*
X244315Y417122D03*
D360*
X243952Y416945D03*
X243588Y416945D03*
X243225Y416945D03*
D361*
X242863Y416945D03*
D360*
X242501Y416945D03*
X242138Y416945D03*
X241775Y416945D03*
X241412Y416945D03*
X241048Y416945D03*
X240685Y416945D03*
D361*
X240323Y416945D03*
D362*
X239961Y417122D03*
X239598Y417122D03*
X239235Y417122D03*
X238872Y417122D03*
X238508Y417122D03*
X238145Y417122D03*
D363*
X237783Y417122D03*
D362*
X237421Y417122D03*
X237058Y417122D03*
X236695Y417122D03*
X236332Y417122D03*
X235968Y417122D03*
D364*
X235605Y417300D03*
D365*
X235243Y417300D03*
D364*
X234881Y417300D03*
X234518Y417300D03*
D362*
X234155Y417122D03*
X233792Y417122D03*
X233428Y417122D03*
X233065Y417122D03*
D365*
X232703Y416945D03*
D366*
X232341Y416767D03*
X231978Y416767D03*
D360*
X231615Y416589D03*
D367*
X231252Y416398D03*
D368*
X230888Y416398D03*
D354*
X230525Y416221D03*
D352*
X230163Y416208D03*
D350*
X229801Y415852D03*
D369*
X229438Y415484D03*
D370*
X229075Y412588D03*
D371*
X228712Y411318D03*
D372*
X228348Y411496D03*
D373*
X227985Y411687D03*
D374*
X227623Y412220D03*
D375*
X227261Y413312D03*
D376*
X226898Y176546D03*
D377*
X226898Y417668D03*
X226535Y417668D03*
X226172Y417668D03*
X225808Y417668D03*
X225445Y417668D03*
D378*
X225083Y417668D03*
D377*
X224721Y417668D03*
X224358Y417668D03*
X223995Y417668D03*
X223632Y417668D03*
D379*
X223268Y417846D03*
X222905Y417846D03*
D380*
X222543Y417478D03*
D381*
X222181Y416945D03*
D382*
X221818Y416754D03*
X221455Y416754D03*
X221092Y416754D03*
D383*
X220728Y417300D03*
D384*
X220365Y418215D03*
D385*
X220003Y418024D03*
D386*
X219641Y418202D03*
D387*
X219278Y418024D03*
X218915Y418024D03*
X218552Y418024D03*
D388*
X218188Y419116D03*
D389*
X217825Y419294D03*
D390*
X217463Y419472D03*
D391*
X217101Y419472D03*
D382*
X216738Y419294D03*
D392*
X216375Y419662D03*
D393*
X216012Y419662D03*
D394*
X215648Y419485D03*
X215285Y419485D03*
D395*
X214923Y419472D03*
D396*
X214561Y418570D03*
D397*
X214198Y418761D03*
D398*
X213835Y418583D03*
D399*
X213472Y418761D03*
D400*
X213108Y418938D03*
D16*
X212745Y179988D03*
D400*
X212745Y418938D03*
D401*
X212383Y418215D03*
D396*
X212021Y418215D03*
X211658Y418215D03*
D397*
X211295Y418024D03*
X210932Y418024D03*
D402*
X210568Y417846D03*
X210205Y417846D03*
D403*
X209843Y417846D03*
D402*
X209481Y417846D03*
D404*
X209118Y417668D03*
X208755Y417668D03*
D398*
X208392Y417846D03*
X208028Y417846D03*
X207665Y417846D03*
D405*
X207303Y417846D03*
D398*
X206941Y417846D03*
D399*
X206578Y417668D03*
D398*
X206215Y417491D03*
X205852Y417491D03*
X205488Y417491D03*
D405*
X204763Y417491D03*
D406*
X204401Y417300D03*
X204038Y417300D03*
X203675Y417300D03*
X203312Y417300D03*
X202948Y417300D03*
D407*
X202585Y417478D03*
D408*
X202223Y417300D03*
D409*
X201861Y417300D03*
D410*
X201498Y417122D03*
D411*
X201135Y418748D03*
X200772Y418748D03*
X200408Y418748D03*
D412*
X200045Y418938D03*
D413*
X199683Y191062D03*
D146*
X199683Y199597D03*
D158*
X199683Y200676D03*
D414*
X199683Y428197D03*
D415*
X199321Y428921D03*
D416*
X198958Y429098D03*
D417*
X198595Y429467D03*
D418*
X198232Y429822D03*
D419*
X197868Y430191D03*
D420*
X197505Y430546D03*
D421*
X197143Y430915D03*
D422*
X196781Y430915D03*
D423*
X196418Y431283D03*
D424*
X196055Y431461D03*
D425*
X195692Y431829D03*
D426*
X195328Y432185D03*
D427*
X194965Y432362D03*
D428*
X194603Y432731D03*
D429*
X194241Y433277D03*
D430*
X193878Y433632D03*
D431*
X193515Y433810D03*
D432*
X193152Y434178D03*
D433*
X192788Y434547D03*
D434*
X192425Y434902D03*
D435*
X192063Y435258D03*
D436*
X191701Y435626D03*
D437*
X191338Y435995D03*
D438*
X190975Y436172D03*
D439*
X190612Y436172D03*
D440*
X190248Y436541D03*
D441*
X189885Y436896D03*
D442*
X189523Y436909D03*
D443*
X189161Y437265D03*
D444*
X188798Y437442D03*
D445*
X188435Y437798D03*
D446*
X188072Y437988D03*
D447*
X187708Y437988D03*
D448*
X187345Y438357D03*
D449*
X186983Y438522D03*
D450*
X186621Y438712D03*
D451*
X186258Y439068D03*
D452*
X185895Y439436D03*
D453*
X185532Y439792D03*
D454*
X185168Y439805D03*
D455*
X184805Y439982D03*
D456*
X184443Y440528D03*
D457*
X184081Y440706D03*
D458*
X183718Y441075D03*
D459*
X183355Y441252D03*
D460*
X182992Y441430D03*
D461*
X182628Y441430D03*
D462*
X182265Y441798D03*
D463*
X181903Y441976D03*
D464*
X181541Y442167D03*
D465*
X181178Y442522D03*
D466*
X180815Y442522D03*
D467*
X180452Y442713D03*
D468*
X180088Y443068D03*
X179725Y443068D03*
D469*
X179363Y443437D03*
D470*
X179001Y443615D03*
X178638Y443615D03*
D471*
X178275Y443424D03*
X177912Y443424D03*
X177548Y443424D03*
X177185Y443424D03*
D472*
X176823Y443424D03*
D471*
X176461Y443424D03*
X176098Y443424D03*
D473*
X175735Y443246D03*
X175372Y443246D03*
D474*
X175008Y443424D03*
X174645Y443424D03*
D475*
X174283Y443424D03*
D474*
X173921Y443424D03*
D476*
X173558Y443437D03*
X173195Y443437D03*
X172832Y443437D03*
X172468Y443437D03*
D477*
X172105Y443615D03*
D478*
X171743Y443615D03*
D477*
X171381Y443615D03*
D479*
X171018Y443602D03*
X170655Y443602D03*
X170292Y443602D03*
D480*
X169928Y443792D03*
X169565Y443792D03*
D481*
X169203Y443615D03*
D482*
X168841Y443615D03*
D483*
X168478Y443792D03*
X168115Y443792D03*
D484*
X167752Y443970D03*
D485*
X167388Y443792D03*
D486*
X167025Y443970D03*
D487*
X166663Y443970D03*
D488*
X166301Y444161D03*
X165938Y444161D03*
D489*
X165575Y444338D03*
X165212Y444338D03*
D490*
X164848Y444338D03*
D491*
X164485Y444529D03*
D492*
X164123Y444529D03*
D493*
X163761Y444707D03*
X163398Y444707D03*
D494*
X163035Y444885D03*
D495*
X162672Y444872D03*
X162308Y444872D03*
D496*
X161945Y445062D03*
D497*
X161583Y445418D03*
D498*
X161221Y445608D03*
X160858Y445608D03*
D499*
X160495Y445431D03*
D500*
X160132Y445608D03*
X159768Y445608D03*
X159405Y445608D03*
D501*
X159043Y445608D03*
D500*
X158681Y445608D03*
D502*
X158318Y445786D03*
D503*
X157955Y445786D03*
X157592Y445786D03*
X157228Y445786D03*
X156865Y445786D03*
D504*
X156503Y445786D03*
D505*
X156141Y445977D03*
D506*
X155778Y445786D03*
D507*
X155415Y445964D03*
D508*
X155052Y446332D03*
D509*
X154688Y447412D03*
D510*
X154325Y449596D03*
D511*
X153963Y451590D03*
D512*
X153601Y453406D03*
D513*
X153238Y455578D03*
D514*
X152875Y457585D03*
D515*
X152512Y459934D03*
D516*
X152148Y462296D03*
D16*
X151785Y280140D03*
D517*
X151785Y464112D03*
D518*
X151423Y464468D03*
D519*
X151061Y464658D03*
D520*
X150698Y464836D03*
D521*
X150335Y465205D03*
D522*
X149972Y465560D03*
D523*
X149608Y465751D03*
D524*
X149245Y466106D03*
D525*
X148883Y466119D03*
D526*
X148521Y466475D03*
D138*
X148158Y336922D03*
D527*
X148158Y404791D03*
D376*
X148158Y496942D03*
D528*
X148158Y572431D03*
D135*
X147795Y336935D03*
D529*
X147795Y404778D03*
D216*
X147795Y589309D03*
D148*
X147432Y336211D03*
D530*
X147432Y404600D03*
D216*
X147432Y589309D03*
D531*
X147068Y336020D03*
D530*
X147068Y404600D03*
D206*
X147068Y589487D03*
D532*
X146705Y336020D03*
D533*
X146705Y404422D03*
D534*
X146705Y589296D03*
D132*
X146343Y336033D03*
D535*
X146343Y404232D03*
D536*
X146343Y589296D03*
D537*
X145981Y335842D03*
D19*
X145981Y404054D03*
D534*
X145981Y589296D03*
D538*
X145618Y336020D03*
D19*
X145618Y404054D03*
D534*
X145618Y589296D03*
D539*
X145255Y335842D03*
D540*
X145255Y403876D03*
D541*
X145255Y589474D03*
D112*
X144892Y335842D03*
D542*
X144892Y403889D03*
D541*
X144892Y589474D03*
D104*
X144528Y335842D03*
D543*
X144528Y403698D03*
D544*
X144528Y589296D03*
D100*
X144165Y336033D03*
D543*
X144165Y403698D03*
D199*
X144165Y589474D03*
D545*
X143803Y335842D03*
D546*
X143803Y403521D03*
D547*
X143803Y589474D03*
D548*
X143441Y335842D03*
D549*
X143441Y403343D03*
D199*
X143441Y589474D03*
D94*
X143078Y336020D03*
D550*
X143078Y403152D03*
D199*
X143078Y589474D03*
D92*
X142715Y336020D03*
D550*
X142715Y403152D03*
D201*
X142715Y589665D03*
D551*
X142352Y336020D03*
D552*
X142352Y402975D03*
D197*
X142352Y589487D03*
D553*
X141988Y336020D03*
D170*
X141988Y402975D03*
D197*
X141988Y589487D03*
D84*
X141625Y336033D03*
D554*
X141625Y402797D03*
D262*
X141625Y589665D03*
D82*
X141263Y336198D03*
D555*
X141263Y402797D03*
D269*
X141263Y589665D03*
D80*
X140901Y336211D03*
D556*
X140901Y402606D03*
D262*
X140901Y589665D03*
D557*
X140538Y336020D03*
D558*
X140538Y402428D03*
D262*
X140538Y589665D03*
D559*
X140175Y336020D03*
D560*
X140175Y402251D03*
D262*
X140175Y589665D03*
D561*
X139812Y336020D03*
D562*
X139812Y402428D03*
D251*
X139812Y589652D03*
D563*
X139448Y336211D03*
D564*
X139448Y402238D03*
D251*
X139448Y589652D03*
D565*
X139085Y336020D03*
D341*
X139085Y402060D03*
D251*
X139085Y589652D03*
D566*
X138723Y336198D03*
D567*
X138723Y401882D03*
D568*
X138723Y589842D03*
D569*
X138361Y336211D03*
D570*
X138361Y401705D03*
D571*
X138361Y589842D03*
D572*
X137998Y336020D03*
D570*
X137998Y401705D03*
D571*
X137998Y589842D03*
D573*
X137635Y336211D03*
D574*
X137635Y401514D03*
D575*
X137635Y589665D03*
D576*
X137272Y336198D03*
D166*
X137272Y401514D03*
D577*
X137272Y589842D03*
D578*
X136908Y336211D03*
D579*
X136908Y401336D03*
D577*
X136908Y589842D03*
D51*
X136545Y336211D03*
D580*
X136545Y401146D03*
D577*
X136545Y589842D03*
D581*
X136183Y336211D03*
D413*
X136183Y401146D03*
D582*
X136183Y590020D03*
D583*
X135821Y336388D03*
D11*
X135821Y400968D03*
D181*
X135821Y590020D03*
D584*
X135458Y336376D03*
D585*
X135458Y400790D03*
D239*
X135458Y589842D03*
D586*
X135095Y336566D03*
D587*
X135095Y400612D03*
D239*
X135095Y589842D03*
D40*
X134732Y336198D03*
D587*
X134732Y400612D03*
D239*
X134732Y589842D03*
D202*
X134368Y336388D03*
D588*
X134368Y400612D03*
D234*
X134368Y590020D03*
D589*
X134005Y336376D03*
D590*
X134005Y400435D03*
D234*
X134005Y590020D03*
D591*
X133643Y336388D03*
D592*
X133643Y400257D03*
D593*
X133643Y590211D03*
D35*
X133281Y336388D03*
D594*
X133281Y400257D03*
D173*
X133281Y590033D03*
D595*
X132918Y336566D03*
D596*
X132918Y400066D03*
D173*
X132918Y590033D03*
D196*
X132555Y336566D03*
D596*
X132555Y400066D03*
D173*
X132555Y590033D03*
D597*
X132192Y336376D03*
D598*
X132192Y399888D03*
D171*
X132192Y590211D03*
D599*
X131828Y336566D03*
D164*
X131828Y399888D03*
D171*
X131828Y590211D03*
D600*
X131465Y336757D03*
D601*
X131465Y399711D03*
D171*
X131465Y590211D03*
D602*
X131103Y336566D03*
D603*
X131103Y399520D03*
D604*
X131103Y590388D03*
D605*
X130741Y336566D03*
D606*
X130741Y399342D03*
D220*
X130741Y590198D03*
D607*
X130378Y336744D03*
D337*
X130378Y399165D03*
D220*
X130378Y590198D03*
D608*
X130015Y336566D03*
D337*
X130015Y399165D03*
D609*
X130015Y590388D03*
D30*
X129652Y336757D03*
D610*
X129652Y398974D03*
D609*
X129652Y590388D03*
D611*
X129288Y336566D03*
D612*
X129288Y398796D03*
D609*
X129288Y590388D03*
D611*
X128925Y337303D03*
D613*
X128925Y398796D03*
D609*
X128925Y590388D03*
D614*
X128563Y337658D03*
D615*
X128563Y398618D03*
D616*
X128563Y590566D03*
D617*
X128201Y337836D03*
D613*
X128201Y398441D03*
D214*
X128201Y590388D03*
D618*
X127838Y338027D03*
D619*
X127838Y398250D03*
D214*
X127838Y590388D03*
D26*
X127475Y338573D03*
D620*
X127475Y398072D03*
D214*
X127475Y590388D03*
D189*
X127112Y338560D03*
D621*
X127112Y397895D03*
D156*
X127112Y590566D03*
D221*
X126748Y338738D03*
D620*
X126748Y397717D03*
D156*
X126748Y590566D03*
D622*
X126385Y338738D03*
D623*
X126385Y397526D03*
D156*
X126385Y590566D03*
D602*
X126023Y339106D03*
D228*
X126023Y397158D03*
D624*
X126023Y590566D03*
D625*
X125661Y339475D03*
D621*
X125661Y396802D03*
D154*
X125661Y590566D03*
D626*
X125298Y340008D03*
D627*
X125298Y396980D03*
D154*
X125298Y590566D03*
D628*
X124935Y340376D03*
D627*
X124935Y396625D03*
D154*
X124935Y590566D03*
D626*
X124572Y340745D03*
D623*
X124572Y396078D03*
D154*
X124572Y590566D03*
D628*
X124208Y341468D03*
D621*
X124208Y395710D03*
D153*
X124208Y590757D03*
D626*
X123845Y341837D03*
D629*
X123845Y395532D03*
D151*
X123845Y590566D03*
D630*
X123483Y342548D03*
D631*
X123483Y395532D03*
D632*
X123483Y590566D03*
D29*
X123121Y343107D03*
D633*
X123121Y395164D03*
D151*
X123121Y590566D03*
D190*
X122758Y344008D03*
D633*
X122758Y394808D03*
D149*
X122758Y590744D03*
D634*
X122395Y344923D03*
D627*
X122395Y394440D03*
D149*
X122395Y590744D03*
D635*
X122032Y345825D03*
D627*
X122032Y394440D03*
D149*
X122032Y590744D03*
D635*
X121668Y346917D03*
D627*
X121668Y394085D03*
D636*
X121668Y590744D03*
D16*
X121305Y325505D03*
D607*
X121305Y347641D03*
D633*
X121305Y393716D03*
D636*
X121305Y590744D03*
D637*
X120943Y348352D03*
D638*
X120943Y393538D03*
D639*
X120943Y590744D03*
D26*
X120581Y349088D03*
D640*
X120581Y393361D03*
D636*
X120581Y590744D03*
D641*
X120218Y349812D03*
D642*
X120218Y392992D03*
D643*
X120218Y590935D03*
D618*
X119855Y350727D03*
D644*
X119855Y393170D03*
D643*
X119855Y590935D03*
D617*
X119492Y351628D03*
D645*
X119492Y392992D03*
D643*
X119492Y590935D03*
D611*
X119128Y352543D03*
D646*
X119128Y392815D03*
D144*
X119128Y590935D03*
D647*
X118765Y353076D03*
D648*
X118765Y392637D03*
D144*
X118765Y590935D03*
D649*
X118403Y353622D03*
D650*
X118403Y392624D03*
D651*
X118403Y590935D03*
D647*
X118041Y354168D03*
D652*
X118041Y392446D03*
D142*
X118041Y591112D03*
D611*
X117678Y354702D03*
D653*
X117678Y392446D03*
D142*
X117678Y591112D03*
D647*
X117315Y355261D03*
D16*
X117315Y375568D03*
D654*
X117315Y392446D03*
D142*
X117315Y591112D03*
D617*
X116952Y356353D03*
D163*
X116952Y392446D03*
D142*
X116952Y591112D03*
D647*
X116588Y356708D03*
D655*
X116588Y591112D03*
D611*
X116225Y357242D03*
D655*
X116225Y591112D03*
D656*
X115863Y357801D03*
D657*
X115863Y591112D03*
D647*
X115501Y358156D03*
D138*
X115501Y591303D03*
D658*
X115138Y358880D03*
D138*
X115138Y591303D03*
D647*
X114775Y359604D03*
D659*
X114775Y591112D03*
D658*
X114412Y359972D03*
D659*
X114412Y591112D03*
D647*
X114048Y360696D03*
D137*
X114048Y591290D03*
D660*
X113685Y361242D03*
D137*
X113685Y591290D03*
D656*
X113323Y361788D03*
D661*
X113323Y591290D03*
D662*
X112961Y362335D03*
D663*
X112961Y591468D03*
D647*
X112598Y362881D03*
D135*
X112598Y591290D03*
D647*
X112235Y363236D03*
D135*
X112235Y591290D03*
D664*
X111872Y363782D03*
D135*
X111872Y591290D03*
D665*
X111508Y364506D03*
D160*
X111508Y591481D03*
D658*
X111145Y365052D03*
D160*
X111145Y591481D03*
D666*
X110783Y365598D03*
D157*
X110783Y591481D03*
D664*
X110421Y366322D03*
D667*
X110421Y591481D03*
D662*
X110058Y366678D03*
D667*
X110058Y591481D03*
D662*
X109695Y367415D03*
D667*
X109695Y591481D03*
D647*
X109332Y367961D03*
D152*
X109332Y591658D03*
D662*
X108968Y368507D03*
D152*
X108968Y591658D03*
D658*
X108605Y369040D03*
D152*
X108605Y591658D03*
D666*
X108243Y369586D03*
D668*
X108243Y591646D03*
D662*
X107881Y370310D03*
D129*
X107881Y591646D03*
D665*
X107518Y370678D03*
D129*
X107518Y591646D03*
D660*
X107155Y371402D03*
D129*
X107155Y591646D03*
D662*
X106792Y371758D03*
D150*
X106792Y591836D03*
D662*
X106428Y372495D03*
D150*
X106428Y591836D03*
D647*
X106065Y373041D03*
D148*
X106065Y591658D03*
D669*
X105703Y373765D03*
D145*
X105703Y591836D03*
D662*
X105341Y374298D03*
D670*
X105341Y591836D03*
D647*
X104978Y374844D03*
D670*
X104978Y591836D03*
D662*
X104615Y375390D03*
D670*
X104615Y591836D03*
D647*
X104252Y375936D03*
D125*
X104252Y592014D03*
D660*
X103888Y376482D03*
D141*
X103888Y591836D03*
D665*
X103525Y377206D03*
D125*
X103525Y591658D03*
D656*
X103163Y377384D03*
D146*
X103163Y397717D03*
D671*
X103163Y591836D03*
D611*
X102801Y378654D03*
D123*
X102801Y592027D03*
D662*
X102438Y378667D03*
D123*
X102438Y592027D03*
D662*
X102075Y379378D03*
D123*
X102075Y592027D03*
D665*
X101712Y379746D03*
D672*
X101712Y592027D03*
D662*
X101348Y380470D03*
D672*
X101348Y592027D03*
D662*
X100985Y381207D03*
D672*
X100985Y592027D03*
D673*
X100623Y381562D03*
D674*
X100623Y592205D03*
D665*
X100261Y382286D03*
D532*
X100261Y592205D03*
D662*
X99898Y382655D03*
D532*
X99898Y592205D03*
D665*
X99535Y383378D03*
D675*
X99535Y592382D03*
D658*
X99172Y383925D03*
D676*
X99172Y592192D03*
D647*
X98808Y384648D03*
D676*
X98808Y592192D03*
D662*
X98445Y385195D03*
D676*
X98445Y592192D03*
D677*
X98083Y385550D03*
D678*
X98083Y592382D03*
D662*
X97721Y386287D03*
D679*
X97721Y592205D03*
D658*
X97358Y386820D03*
D679*
X97358Y592205D03*
D665*
X96995Y387366D03*
D128*
X96995Y592382D03*
D658*
X96632Y387912D03*
D128*
X96632Y592382D03*
D665*
X96268Y388458D03*
D128*
X96268Y592382D03*
D658*
X95905Y389005D03*
D680*
X95905Y592560D03*
D656*
X95543Y389728D03*
D681*
X95543Y592560D03*
D662*
X95181Y390275D03*
D537*
X95181Y592382D03*
D662*
X94818Y390630D03*
D537*
X94818Y592382D03*
D662*
X94455Y391367D03*
D113*
X94455Y592573D03*
D658*
X94092Y391900D03*
D113*
X94092Y592573D03*
D647*
X93728Y392624D03*
D113*
X93728Y592573D03*
D658*
X93365Y392992D03*
D124*
X93365Y592751D03*
D666*
X93003Y393538D03*
D682*
X93003Y592560D03*
D658*
X92641Y394085D03*
D538*
X92641Y592560D03*
D662*
X92278Y394618D03*
D683*
X92278Y592738D03*
D647*
X91915Y395164D03*
D683*
X91915Y592738D03*
D662*
X91552Y395710D03*
D683*
X91552Y592738D03*
D662*
X91188Y396447D03*
D683*
X91188Y592738D03*
D658*
X90825Y396980D03*
D539*
X90825Y592738D03*
D666*
X90463Y397526D03*
D110*
X90463Y592738D03*
D662*
X90101Y397895D03*
D539*
X90101Y592738D03*
D665*
X89738Y398618D03*
D117*
X89738Y592928D03*
D22*
X89375Y399165D03*
D117*
X89375Y592928D03*
D662*
X89012Y399698D03*
D108*
X89012Y592751D03*
D665*
X88648Y400066D03*
D108*
X88648Y592751D03*
D662*
X88285Y400790D03*
D114*
X88285Y592928D03*
D677*
X87923Y401527D03*
D684*
X87923Y592928D03*
D660*
X87561Y401882D03*
D114*
X87561Y592928D03*
D665*
X87198Y402606D03*
D106*
X87198Y593106D03*
D662*
X86835Y402975D03*
D106*
X86835Y593106D03*
D665*
X86472Y403698D03*
D685*
X86472Y592928D03*
D660*
X86108Y404422D03*
D685*
X86108Y592928D03*
D647*
X85745Y404968D03*
D104*
X85745Y593119D03*
D677*
X85383Y405515D03*
D686*
X85383Y593119D03*
D662*
X85021Y405870D03*
D104*
X85021Y593119D03*
D662*
X84658Y406607D03*
D687*
X84658Y593297D03*
D22*
X84295Y407140D03*
D102*
X84295Y593106D03*
D665*
X83932Y407686D03*
D102*
X83932Y593106D03*
D662*
X83568Y408055D03*
D688*
X83568Y593284D03*
D665*
X83205Y408778D03*
D688*
X83205Y593284D03*
D677*
X82843Y409147D03*
D689*
X82843Y593284D03*
D662*
X82481Y409858D03*
D688*
X82481Y593284D03*
D22*
X82118Y410417D03*
D107*
X82118Y593462D03*
D662*
X81755Y410950D03*
D690*
X81755Y593284D03*
D665*
X81392Y411318D03*
D690*
X81392Y593284D03*
D660*
X81028Y412042D03*
D72*
X81028Y431816D03*
D691*
X81028Y593475D03*
D647*
X80665Y412944D03*
D691*
X80665Y593475D03*
D692*
X80303Y413312D03*
D693*
X80303Y593475D03*
D665*
X79941Y413858D03*
D694*
X79941Y593297D03*
D660*
X79578Y414582D03*
D98*
X79578Y593475D03*
D662*
X79215Y414938D03*
D98*
X79215Y593475D03*
D662*
X78852Y415675D03*
D695*
X78852Y593652D03*
D662*
X78488Y416030D03*
D695*
X78488Y593652D03*
D647*
X78125Y416576D03*
D695*
X78125Y593652D03*
D673*
X77763Y417122D03*
D696*
X77763Y593462D03*
D665*
X77401Y417846D03*
D697*
X77401Y593652D03*
D662*
X77038Y418215D03*
D697*
X77038Y593652D03*
D665*
X76675Y418938D03*
D697*
X76675Y593652D03*
D22*
X76312Y419485D03*
D697*
X76312Y593652D03*
D662*
X75948Y420018D03*
D698*
X75948Y593830D03*
D665*
X75585Y420386D03*
D699*
X75585Y593652D03*
D656*
X75223Y421301D03*
D700*
X75223Y593652D03*
D662*
X74861Y421847D03*
D701*
X74861Y593830D03*
D660*
X74498Y422202D03*
D699*
X74498Y593652D03*
D22*
X74135Y422736D03*
D701*
X74135Y593830D03*
D662*
X73772Y423295D03*
D92*
X73772Y594008D03*
D22*
X73408Y423828D03*
D702*
X73408Y593830D03*
D22*
X73045Y424920D03*
D702*
X73045Y593830D03*
D656*
X72683Y425288D03*
D703*
X72683Y453406D03*
D704*
X72683Y593830D03*
D647*
X72321Y425644D03*
D705*
X72321Y452860D03*
D706*
X72321Y594021D03*
D662*
X71958Y426190D03*
D627*
X71958Y452505D03*
D706*
X71958Y594021D03*
D662*
X71595Y426927D03*
D620*
X71595Y452149D03*
D91*
X71595Y593843D03*
D658*
X71232Y427460D03*
D613*
X71232Y451781D03*
D91*
X71232Y593843D03*
D707*
X70868Y432540D03*
D708*
X70868Y594021D03*
D31*
X70505Y432731D03*
D708*
X70505Y594021D03*
D709*
X70143Y433086D03*
D710*
X70143Y594021D03*
D29*
X69781Y433455D03*
D89*
X69781Y594198D03*
D626*
X69418Y433632D03*
D86*
X69418Y594008D03*
D711*
X69055Y434178D03*
D86*
X69055Y594008D03*
D190*
X68692Y434356D03*
D86*
X68692Y594008D03*
D712*
X68328Y434902D03*
D86*
X68328Y594008D03*
D713*
X67965Y434902D03*
D87*
X67965Y594198D03*
D714*
X67603Y435258D03*
D715*
X67603Y594198D03*
D716*
X67241Y435626D03*
D87*
X67241Y594198D03*
D716*
X66878Y435982D03*
D85*
X66878Y594021D03*
D716*
X66515Y436718D03*
D717*
X66515Y594198D03*
D221*
X66152Y437442D03*
D717*
X66152Y594198D03*
D605*
X65788Y438166D03*
D84*
X65788Y594376D03*
D718*
X65425Y439081D03*
D84*
X65425Y594376D03*
D719*
X65063Y439982D03*
D83*
X65063Y594198D03*
D711*
X64701Y440706D03*
D720*
X64701Y594198D03*
D626*
X64338Y441608D03*
D721*
X64338Y594376D03*
D600*
X63975Y442345D03*
D721*
X63975Y594376D03*
D722*
X63612Y443246D03*
D721*
X63612Y594376D03*
D723*
X63248Y444161D03*
D81*
X63248Y594186D03*
D724*
X62885Y445062D03*
D725*
X62885Y594376D03*
D32*
X62523Y445977D03*
D726*
X62523Y594376D03*
D37*
X62161Y447056D03*
D725*
X62161Y594376D03*
D34*
X61798Y448148D03*
D725*
X61798Y594376D03*
D198*
X61435Y448872D03*
D80*
X61435Y594554D03*
D35*
X61072Y449596D03*
D727*
X61072Y594376D03*
D728*
X60708Y450511D03*
D727*
X60708Y594376D03*
D729*
X60345Y451412D03*
D727*
X60345Y594376D03*
D730*
X59983Y452505D03*
D731*
X59983Y594554D03*
D732*
X59621Y453038D03*
D77*
X59621Y594554D03*
D42*
X59258Y454130D03*
D77*
X59258Y594554D03*
D202*
X58895Y455032D03*
D78*
X58895Y594376D03*
D202*
X58532Y455768D03*
D75*
X58532Y594567D03*
D733*
X58168Y456848D03*
D75*
X58168Y594567D03*
D734*
X57805Y457940D03*
D75*
X57805Y594567D03*
D735*
X57443Y469548D03*
D736*
X57443Y594567D03*
D737*
X57081Y490960D03*
D75*
X57081Y594567D03*
D738*
X56718Y531245D03*
D739*
X56355Y531613D03*
D740*
X55992Y531968D03*
D741*
X55628Y532159D03*
D742*
X55265Y532515D03*
D743*
X54903Y532502D03*
D744*
X54541Y532870D03*
D745*
X54178Y533048D03*
D746*
X53815Y533238D03*
D747*
X53452Y533772D03*
D748*
X53088Y533962D03*
D749*
X52725Y534140D03*
D750*
X52363Y534331D03*
D751*
X52001Y534686D03*
D752*
X51638Y535055D03*
D753*
X51275Y535410D03*
D754*
X50912Y535423D03*
D755*
X50548Y535778D03*
D756*
X50185Y535956D03*
D757*
X49823Y536325D03*
D758*
X49461Y536693D03*
D759*
X49098Y536871D03*
D760*
X48735Y537036D03*
D761*
X48372Y537226D03*
D762*
X48008Y537582D03*
D763*
X47645Y537772D03*
D764*
X47283Y538128D03*
D765*
X46921Y538318D03*
D766*
X46558Y538496D03*
D767*
X46195Y538865D03*
D768*
X45832Y539220D03*
D769*
X45468Y539398D03*
D770*
X45105Y539588D03*
D771*
X44743Y539766D03*
D772*
X44381Y540135D03*
D773*
X44018Y540312D03*
D774*
X43655Y540681D03*
D775*
X43292Y541036D03*
D776*
X42928Y541227D03*
D777*
X42565Y541405D03*
D778*
X42203Y541582D03*
D779*
X41841Y542128D03*
D780*
X41478Y542306D03*
D781*
X41115Y542675D03*
D782*
X40752Y543030D03*
D783*
X40388Y543221D03*
D784*
X40025Y543576D03*
D785*
X39663Y543767D03*
D784*
X39301Y543576D03*
D786*
X38938Y543767D03*
D787*
X38575Y543398D03*
D788*
X38212Y543576D03*
D787*
X37848Y543398D03*
D788*
X37485Y543221D03*
D789*
X37123Y543221D03*
D790*
X36761Y543576D03*
D791*
X36398Y543576D03*
D792*
X36035Y543754D03*
D793*
X35672Y543945D03*
D16*
X35308Y463757D03*
D794*
X35308Y545748D03*
D795*
X34945Y545938D03*
D796*
X34583Y546307D03*
D797*
X34221Y547208D03*
D798*
X33858Y545570D03*
D72*
X33858Y618328D03*
D799*
X33858Y621415D03*
D800*
X33495Y542128D03*
D163*
X33495Y617414D03*
D801*
X33495Y621592D03*
D802*
X33132Y541582D03*
D16*
X33132Y605997D03*
D803*
X33132Y621592D03*
D737*
X32768Y541760D03*
D534*
X32405Y541036D03*
D804*
X32043Y539588D03*
D135*
X31681Y539398D03*
D805*
X31318Y539042D03*
D107*
X30955Y539411D03*
D806*
X30592Y539042D03*
D807*
X30228Y540135D03*
D808*
X29865Y541760D03*
D809*
X412750Y858012D02*
X425450Y858012D01*
X431800Y864362D01*
X431800Y877062D01*
X425450Y883412D01*
X387350Y858012D02*
X381000Y864362D01*
X387350Y858012D02*
X400050Y858012D01*
X406400Y864362D01*
X406400Y877062D01*
X400050Y883412D01*
X387350Y883412D01*
X381000Y877062D01*
X406400Y864362D02*
X412750Y858012D01*
X406400Y877062D02*
X412750Y883412D01*
X425450Y883412D01*
X349250Y858012D02*
X336550Y858012D01*
X349250Y858012D02*
X355600Y864362D01*
X355600Y877062D01*
X349250Y883412D01*
X355600Y864362D02*
X361950Y858012D01*
X374650Y858012D01*
X381000Y864362D01*
X381000Y877062D01*
X374650Y883412D01*
X361950Y883412D01*
X355600Y877062D01*
X311150Y858012D02*
X304800Y864362D01*
X311150Y858012D02*
X323850Y858012D01*
X330200Y864362D01*
X330200Y877062D01*
X323850Y883412D01*
X311150Y883412D01*
X304800Y877062D01*
X330200Y864362D02*
X336550Y858012D01*
X330200Y877062D02*
X336550Y883412D01*
X349250Y883412D01*
X273050Y858012D02*
X260350Y858012D01*
X273050Y858012D02*
X279400Y864362D01*
X279400Y877062D01*
X273050Y883412D01*
X279400Y864362D02*
X285750Y858012D01*
X298450Y858012D01*
X304800Y864362D01*
X304800Y877062D01*
X298450Y883412D01*
X285750Y883412D01*
X279400Y877062D01*
X234950Y858012D02*
X228600Y864362D01*
X234950Y858012D02*
X247650Y858012D01*
X254000Y864362D01*
X254000Y877062D01*
X247650Y883412D01*
X234950Y883412D01*
X228600Y877062D01*
X254000Y864362D02*
X260350Y858012D01*
X254000Y877062D02*
X260350Y883412D01*
X273050Y883412D01*
X196850Y858012D02*
X184150Y858012D01*
X196850Y858012D02*
X203200Y864362D01*
X203200Y877062D01*
X196850Y883412D01*
X203200Y864362D02*
X209550Y858012D01*
X222250Y858012D01*
X228600Y864362D01*
X228600Y877062D01*
X222250Y883412D01*
X209550Y883412D01*
X203200Y877062D01*
X158750Y858012D02*
X152400Y864362D01*
X158750Y858012D02*
X171450Y858012D01*
X177800Y864362D01*
X177800Y877062D01*
X171450Y883412D01*
X158750Y883412D01*
X152400Y877062D01*
X177800Y864362D02*
X184150Y858012D01*
X177800Y877062D02*
X184150Y883412D01*
X196850Y883412D01*
X120650Y858012D02*
X107950Y858012D01*
X120650Y858012D02*
X127000Y864362D01*
X127000Y877062D01*
X120650Y883412D01*
X127000Y864362D02*
X133350Y858012D01*
X146050Y858012D01*
X152400Y864362D01*
X152400Y877062D01*
X146050Y883412D01*
X133350Y883412D01*
X127000Y877062D01*
X101600Y877062D02*
X101600Y864362D01*
X107950Y858012D01*
X101600Y877062D02*
X107950Y883412D01*
X120650Y883412D01*
X431800Y864362D02*
X438150Y858012D01*
X450850Y858012D01*
X457200Y864362D01*
X457200Y877062D01*
X450850Y883412D01*
X438150Y883412D01*
X431800Y877062D01*
D810*
X314452Y851789D02*
X314452Y840359D01*
X317627Y851789D02*
X311277Y851789D01*
X306959Y848614D02*
X306959Y843534D01*
X306959Y848614D02*
X306957Y848725D01*
X306951Y848835D01*
X306942Y848946D01*
X306928Y849056D01*
X306911Y849165D01*
X306890Y849274D01*
X306865Y849382D01*
X306836Y849489D01*
X306804Y849595D01*
X306768Y849700D01*
X306728Y849803D01*
X306685Y849905D01*
X306638Y850006D01*
X306587Y850105D01*
X306534Y850202D01*
X306477Y850296D01*
X306416Y850389D01*
X306353Y850480D01*
X306286Y850569D01*
X306216Y850655D01*
X306143Y850738D01*
X306068Y850820D01*
X305990Y850898D01*
X305908Y850973D01*
X305825Y851046D01*
X305739Y851116D01*
X305650Y851183D01*
X305559Y851246D01*
X305466Y851307D01*
X305372Y851364D01*
X305275Y851417D01*
X305176Y851468D01*
X305075Y851515D01*
X304973Y851558D01*
X304870Y851598D01*
X304765Y851634D01*
X304659Y851666D01*
X304552Y851695D01*
X304444Y851720D01*
X304335Y851741D01*
X304226Y851758D01*
X304116Y851772D01*
X304005Y851781D01*
X303895Y851787D01*
X303784Y851789D01*
X303673Y851787D01*
X303563Y851781D01*
X303452Y851772D01*
X303342Y851758D01*
X303233Y851741D01*
X303124Y851720D01*
X303016Y851695D01*
X302909Y851666D01*
X302803Y851634D01*
X302698Y851598D01*
X302595Y851558D01*
X302493Y851515D01*
X302392Y851468D01*
X302293Y851417D01*
X302197Y851364D01*
X302102Y851307D01*
X302009Y851246D01*
X301918Y851183D01*
X301829Y851116D01*
X301743Y851046D01*
X301660Y850973D01*
X301578Y850898D01*
X301500Y850820D01*
X301425Y850738D01*
X301352Y850655D01*
X301282Y850569D01*
X301215Y850480D01*
X301152Y850389D01*
X301091Y850296D01*
X301034Y850202D01*
X300981Y850105D01*
X300930Y850006D01*
X300883Y849905D01*
X300840Y849803D01*
X300800Y849700D01*
X300764Y849595D01*
X300732Y849489D01*
X300703Y849382D01*
X300678Y849274D01*
X300657Y849165D01*
X300640Y849056D01*
X300626Y848946D01*
X300617Y848835D01*
X300611Y848725D01*
X300609Y848614D01*
X300609Y843534D01*
X300611Y843423D01*
X300617Y843313D01*
X300626Y843202D01*
X300640Y843092D01*
X300657Y842983D01*
X300678Y842874D01*
X300703Y842766D01*
X300732Y842659D01*
X300764Y842553D01*
X300800Y842448D01*
X300840Y842345D01*
X300883Y842243D01*
X300930Y842142D01*
X300981Y842043D01*
X301034Y841947D01*
X301091Y841852D01*
X301152Y841759D01*
X301215Y841668D01*
X301282Y841579D01*
X301352Y841493D01*
X301425Y841410D01*
X301500Y841328D01*
X301578Y841250D01*
X301660Y841175D01*
X301743Y841102D01*
X301829Y841032D01*
X301918Y840965D01*
X302009Y840902D01*
X302102Y840841D01*
X302197Y840784D01*
X302293Y840731D01*
X302392Y840680D01*
X302493Y840633D01*
X302595Y840590D01*
X302698Y840550D01*
X302803Y840514D01*
X302909Y840482D01*
X303016Y840453D01*
X303124Y840428D01*
X303233Y840407D01*
X303342Y840390D01*
X303452Y840376D01*
X303563Y840367D01*
X303673Y840361D01*
X303784Y840359D01*
X303895Y840361D01*
X304005Y840367D01*
X304116Y840376D01*
X304226Y840390D01*
X304335Y840407D01*
X304444Y840428D01*
X304552Y840453D01*
X304659Y840482D01*
X304765Y840514D01*
X304870Y840550D01*
X304973Y840590D01*
X305075Y840633D01*
X305176Y840680D01*
X305275Y840731D01*
X305371Y840784D01*
X305466Y840841D01*
X305559Y840902D01*
X305650Y840965D01*
X305739Y841032D01*
X305825Y841102D01*
X305908Y841175D01*
X305990Y841250D01*
X306068Y841328D01*
X306143Y841410D01*
X306216Y841493D01*
X306286Y841579D01*
X306353Y841668D01*
X306416Y841759D01*
X306477Y841852D01*
X306534Y841947D01*
X306587Y842043D01*
X306638Y842142D01*
X306685Y842243D01*
X306728Y842345D01*
X306768Y842448D01*
X306804Y842553D01*
X306836Y842659D01*
X306865Y842766D01*
X306890Y842874D01*
X306911Y842983D01*
X306928Y843092D01*
X306942Y843202D01*
X306951Y843313D01*
X306957Y843423D01*
X306959Y843534D01*
X295148Y843534D02*
X295148Y851789D01*
X295148Y843534D02*
X295146Y843423D01*
X295140Y843313D01*
X295131Y843202D01*
X295117Y843092D01*
X295100Y842983D01*
X295079Y842874D01*
X295054Y842766D01*
X295025Y842659D01*
X294993Y842553D01*
X294957Y842448D01*
X294917Y842345D01*
X294874Y842243D01*
X294827Y842142D01*
X294776Y842043D01*
X294723Y841947D01*
X294666Y841852D01*
X294605Y841759D01*
X294542Y841668D01*
X294475Y841579D01*
X294405Y841493D01*
X294332Y841410D01*
X294257Y841328D01*
X294179Y841250D01*
X294097Y841175D01*
X294014Y841102D01*
X293928Y841032D01*
X293839Y840965D01*
X293748Y840902D01*
X293655Y840841D01*
X293560Y840784D01*
X293464Y840731D01*
X293365Y840680D01*
X293264Y840633D01*
X293162Y840590D01*
X293059Y840550D01*
X292954Y840514D01*
X292848Y840482D01*
X292741Y840453D01*
X292633Y840428D01*
X292524Y840407D01*
X292415Y840390D01*
X292305Y840376D01*
X292194Y840367D01*
X292084Y840361D01*
X291973Y840359D01*
X291862Y840361D01*
X291752Y840367D01*
X291641Y840376D01*
X291531Y840390D01*
X291422Y840407D01*
X291313Y840428D01*
X291205Y840453D01*
X291098Y840482D01*
X290992Y840514D01*
X290887Y840550D01*
X290784Y840590D01*
X290682Y840633D01*
X290581Y840680D01*
X290482Y840731D01*
X290386Y840784D01*
X290291Y840841D01*
X290198Y840902D01*
X290107Y840965D01*
X290018Y841032D01*
X289932Y841102D01*
X289849Y841175D01*
X289767Y841250D01*
X289689Y841328D01*
X289614Y841410D01*
X289541Y841493D01*
X289471Y841579D01*
X289404Y841668D01*
X289341Y841759D01*
X289280Y841852D01*
X289223Y841947D01*
X289170Y842043D01*
X289119Y842142D01*
X289072Y842243D01*
X289029Y842345D01*
X288989Y842448D01*
X288953Y842553D01*
X288921Y842659D01*
X288892Y842766D01*
X288867Y842874D01*
X288846Y842983D01*
X288829Y843092D01*
X288815Y843202D01*
X288806Y843313D01*
X288800Y843423D01*
X288798Y843534D01*
X288798Y851789D01*
X280834Y840359D02*
X278294Y840359D01*
X280834Y840359D02*
X280934Y840361D01*
X281033Y840367D01*
X281133Y840377D01*
X281231Y840390D01*
X281330Y840408D01*
X281427Y840429D01*
X281523Y840454D01*
X281619Y840483D01*
X281713Y840516D01*
X281806Y840552D01*
X281897Y840592D01*
X281987Y840636D01*
X282075Y840683D01*
X282161Y840733D01*
X282245Y840787D01*
X282327Y840844D01*
X282406Y840904D01*
X282484Y840968D01*
X282558Y841034D01*
X282630Y841103D01*
X282699Y841175D01*
X282765Y841249D01*
X282829Y841327D01*
X282889Y841406D01*
X282946Y841488D01*
X283000Y841572D01*
X283050Y841658D01*
X283097Y841746D01*
X283141Y841836D01*
X283181Y841927D01*
X283217Y842020D01*
X283250Y842114D01*
X283279Y842210D01*
X283304Y842306D01*
X283325Y842403D01*
X283343Y842502D01*
X283356Y842600D01*
X283366Y842700D01*
X283372Y842799D01*
X283374Y842899D01*
X283374Y849249D01*
X283372Y849349D01*
X283366Y849448D01*
X283356Y849548D01*
X283343Y849646D01*
X283325Y849745D01*
X283304Y849842D01*
X283279Y849938D01*
X283250Y850034D01*
X283217Y850128D01*
X283181Y850221D01*
X283141Y850312D01*
X283097Y850402D01*
X283050Y850490D01*
X283000Y850576D01*
X282946Y850660D01*
X282889Y850742D01*
X282829Y850821D01*
X282765Y850899D01*
X282699Y850973D01*
X282630Y851045D01*
X282558Y851114D01*
X282484Y851180D01*
X282406Y851244D01*
X282327Y851304D01*
X282245Y851361D01*
X282161Y851415D01*
X282075Y851465D01*
X281987Y851512D01*
X281897Y851556D01*
X281806Y851596D01*
X281713Y851632D01*
X281619Y851665D01*
X281523Y851694D01*
X281427Y851719D01*
X281330Y851740D01*
X281231Y851758D01*
X281133Y851771D01*
X281033Y851781D01*
X280934Y851787D01*
X280834Y851789D01*
X278294Y851789D01*
X273431Y851789D02*
X273431Y840359D01*
X273431Y846709D02*
X267081Y846709D01*
X267081Y851789D02*
X267081Y840359D01*
X258191Y840359D02*
X258091Y840361D01*
X257992Y840367D01*
X257892Y840377D01*
X257794Y840390D01*
X257695Y840408D01*
X257598Y840429D01*
X257502Y840454D01*
X257406Y840483D01*
X257312Y840516D01*
X257219Y840552D01*
X257128Y840592D01*
X257038Y840636D01*
X256950Y840683D01*
X256864Y840733D01*
X256780Y840787D01*
X256698Y840844D01*
X256619Y840904D01*
X256541Y840968D01*
X256467Y841034D01*
X256395Y841103D01*
X256326Y841175D01*
X256260Y841249D01*
X256196Y841327D01*
X256136Y841406D01*
X256079Y841488D01*
X256025Y841572D01*
X255975Y841658D01*
X255928Y841746D01*
X255884Y841836D01*
X255844Y841927D01*
X255808Y842020D01*
X255775Y842114D01*
X255746Y842210D01*
X255721Y842306D01*
X255700Y842403D01*
X255682Y842502D01*
X255669Y842600D01*
X255659Y842700D01*
X255653Y842799D01*
X255651Y842899D01*
X258191Y840359D02*
X258332Y840361D01*
X258473Y840366D01*
X258614Y840376D01*
X258755Y840389D01*
X258895Y840405D01*
X259035Y840426D01*
X259174Y840450D01*
X259313Y840478D01*
X259450Y840509D01*
X259587Y840544D01*
X259723Y840582D01*
X259858Y840624D01*
X259991Y840670D01*
X260124Y840719D01*
X260255Y840772D01*
X260384Y840828D01*
X260513Y840887D01*
X260639Y840950D01*
X260764Y841016D01*
X260887Y841085D01*
X261008Y841158D01*
X261127Y841234D01*
X261245Y841313D01*
X261360Y841394D01*
X261472Y841479D01*
X261583Y841567D01*
X261691Y841658D01*
X261797Y841751D01*
X261900Y841848D01*
X262001Y841947D01*
X261683Y849249D02*
X261681Y849349D01*
X261675Y849448D01*
X261665Y849548D01*
X261652Y849646D01*
X261634Y849745D01*
X261613Y849842D01*
X261588Y849938D01*
X261559Y850034D01*
X261526Y850128D01*
X261490Y850221D01*
X261450Y850312D01*
X261406Y850402D01*
X261359Y850490D01*
X261309Y850576D01*
X261255Y850660D01*
X261198Y850742D01*
X261138Y850821D01*
X261074Y850899D01*
X261008Y850973D01*
X260939Y851045D01*
X260867Y851114D01*
X260793Y851180D01*
X260715Y851244D01*
X260636Y851304D01*
X260554Y851361D01*
X260470Y851415D01*
X260384Y851465D01*
X260296Y851512D01*
X260206Y851556D01*
X260115Y851596D01*
X260022Y851632D01*
X259928Y851665D01*
X259832Y851694D01*
X259736Y851719D01*
X259639Y851740D01*
X259540Y851758D01*
X259442Y851771D01*
X259342Y851781D01*
X259243Y851787D01*
X259143Y851789D01*
X259143Y851790D02*
X259010Y851788D01*
X258877Y851783D01*
X258744Y851773D01*
X258611Y851760D01*
X258479Y851743D01*
X258347Y851723D01*
X258216Y851699D01*
X258086Y851671D01*
X257956Y851640D01*
X257828Y851605D01*
X257700Y851566D01*
X257574Y851524D01*
X257449Y851478D01*
X257325Y851429D01*
X257202Y851377D01*
X257081Y851321D01*
X256962Y851261D01*
X256844Y851199D01*
X256729Y851133D01*
X256615Y851064D01*
X256503Y850991D01*
X256393Y850916D01*
X256285Y850837D01*
X260414Y847026D02*
X260498Y847078D01*
X260581Y847133D01*
X260661Y847192D01*
X260739Y847253D01*
X260814Y847317D01*
X260887Y847385D01*
X260958Y847455D01*
X261025Y847527D01*
X261090Y847602D01*
X261152Y847680D01*
X261211Y847760D01*
X261267Y847842D01*
X261319Y847926D01*
X261368Y848012D01*
X261414Y848100D01*
X261457Y848190D01*
X261496Y848281D01*
X261531Y848374D01*
X261563Y848468D01*
X261591Y848563D01*
X261616Y848659D01*
X261636Y848756D01*
X261654Y848854D01*
X261667Y848952D01*
X261676Y849051D01*
X261682Y849150D01*
X261684Y849249D01*
X256921Y845122D02*
X256837Y845070D01*
X256754Y845015D01*
X256674Y844956D01*
X256596Y844895D01*
X256521Y844831D01*
X256448Y844763D01*
X256377Y844693D01*
X256310Y844621D01*
X256245Y844546D01*
X256183Y844468D01*
X256124Y844388D01*
X256068Y844306D01*
X256016Y844222D01*
X255967Y844136D01*
X255921Y844048D01*
X255878Y843958D01*
X255839Y843867D01*
X255804Y843774D01*
X255772Y843680D01*
X255744Y843585D01*
X255719Y843489D01*
X255699Y843392D01*
X255681Y843294D01*
X255668Y843196D01*
X255659Y843097D01*
X255653Y842998D01*
X255651Y842899D01*
X256921Y845122D02*
X260413Y847027D01*
X248449Y840359D02*
X245909Y840359D01*
X248449Y840359D02*
X248549Y840361D01*
X248648Y840367D01*
X248748Y840377D01*
X248846Y840390D01*
X248945Y840408D01*
X249042Y840429D01*
X249138Y840454D01*
X249234Y840483D01*
X249328Y840516D01*
X249421Y840552D01*
X249512Y840592D01*
X249602Y840636D01*
X249690Y840683D01*
X249776Y840733D01*
X249860Y840787D01*
X249942Y840844D01*
X250021Y840904D01*
X250099Y840968D01*
X250173Y841034D01*
X250245Y841103D01*
X250314Y841175D01*
X250380Y841249D01*
X250444Y841327D01*
X250504Y841406D01*
X250561Y841488D01*
X250615Y841572D01*
X250665Y841658D01*
X250712Y841746D01*
X250756Y841836D01*
X250796Y841927D01*
X250832Y842020D01*
X250865Y842114D01*
X250894Y842210D01*
X250919Y842306D01*
X250940Y842403D01*
X250958Y842502D01*
X250971Y842600D01*
X250981Y842700D01*
X250987Y842799D01*
X250989Y842899D01*
X250989Y849249D01*
X250987Y849349D01*
X250981Y849448D01*
X250971Y849548D01*
X250958Y849646D01*
X250940Y849745D01*
X250919Y849842D01*
X250894Y849938D01*
X250865Y850034D01*
X250832Y850128D01*
X250796Y850221D01*
X250756Y850312D01*
X250712Y850402D01*
X250665Y850490D01*
X250615Y850576D01*
X250561Y850660D01*
X250504Y850742D01*
X250444Y850821D01*
X250380Y850899D01*
X250314Y850973D01*
X250245Y851045D01*
X250173Y851114D01*
X250099Y851180D01*
X250021Y851244D01*
X249942Y851304D01*
X249860Y851361D01*
X249776Y851415D01*
X249690Y851465D01*
X249602Y851512D01*
X249512Y851556D01*
X249421Y851596D01*
X249328Y851632D01*
X249234Y851665D01*
X249138Y851694D01*
X249042Y851719D01*
X248945Y851740D01*
X248846Y851758D01*
X248748Y851771D01*
X248648Y851781D01*
X248549Y851787D01*
X248449Y851789D01*
X245909Y851789D01*
X240963Y851789D02*
X240963Y840359D01*
X240963Y851789D02*
X237788Y851789D01*
X237677Y851787D01*
X237567Y851781D01*
X237456Y851772D01*
X237346Y851758D01*
X237237Y851741D01*
X237128Y851720D01*
X237020Y851695D01*
X236913Y851666D01*
X236807Y851634D01*
X236702Y851598D01*
X236599Y851558D01*
X236497Y851515D01*
X236396Y851468D01*
X236297Y851417D01*
X236201Y851364D01*
X236106Y851307D01*
X236013Y851246D01*
X235922Y851183D01*
X235833Y851116D01*
X235747Y851046D01*
X235664Y850973D01*
X235582Y850898D01*
X235504Y850820D01*
X235429Y850738D01*
X235356Y850655D01*
X235286Y850569D01*
X235219Y850480D01*
X235156Y850389D01*
X235095Y850296D01*
X235038Y850202D01*
X234985Y850105D01*
X234934Y850006D01*
X234887Y849905D01*
X234844Y849803D01*
X234804Y849700D01*
X234768Y849595D01*
X234736Y849489D01*
X234707Y849382D01*
X234682Y849274D01*
X234661Y849165D01*
X234644Y849056D01*
X234630Y848946D01*
X234621Y848835D01*
X234615Y848725D01*
X234613Y848614D01*
X234615Y848503D01*
X234621Y848393D01*
X234630Y848282D01*
X234644Y848172D01*
X234661Y848063D01*
X234682Y847954D01*
X234707Y847846D01*
X234736Y847739D01*
X234768Y847633D01*
X234804Y847528D01*
X234844Y847425D01*
X234887Y847323D01*
X234934Y847222D01*
X234985Y847123D01*
X235038Y847027D01*
X235095Y846932D01*
X235156Y846839D01*
X235219Y846748D01*
X235286Y846659D01*
X235356Y846573D01*
X235429Y846490D01*
X235504Y846408D01*
X235582Y846330D01*
X235664Y846255D01*
X235747Y846182D01*
X235833Y846112D01*
X235922Y846045D01*
X236013Y845982D01*
X236106Y845921D01*
X236201Y845864D01*
X236297Y845811D01*
X236396Y845760D01*
X236497Y845713D01*
X236599Y845670D01*
X236702Y845630D01*
X236807Y845594D01*
X236913Y845562D01*
X237020Y845533D01*
X237128Y845508D01*
X237237Y845487D01*
X237346Y845470D01*
X237456Y845456D01*
X237567Y845447D01*
X237677Y845441D01*
X237788Y845439D01*
X240963Y845439D01*
X237153Y845439D02*
X234613Y840359D01*
X229210Y840359D02*
X224130Y840359D01*
X229210Y840359D02*
X229210Y851789D01*
X224130Y851789D01*
X225400Y846709D02*
X229210Y846709D01*
X219304Y840359D02*
X214224Y840359D01*
X219304Y840359D02*
X219304Y851789D01*
X214224Y851789D01*
X215494Y846709D02*
X219304Y846709D01*
X209423Y851789D02*
X209423Y840359D01*
X203073Y840359D02*
X209423Y851789D01*
X203073Y851789D02*
X203073Y840359D01*
D809*
X276098Y40132D02*
X282448Y33782D01*
X276098Y40132D02*
X263398Y40132D01*
X257048Y33782D01*
X257048Y21082D01*
X263398Y14732D01*
X276098Y14732D01*
X282448Y21082D01*
X314198Y40132D02*
X326898Y40132D01*
X314198Y40132D02*
X307848Y33782D01*
X307848Y21082D01*
X314198Y14732D01*
X307848Y33782D02*
X301498Y40132D01*
X288798Y40132D01*
X282448Y33782D01*
X282448Y21082D01*
X288798Y14732D01*
X301498Y14732D01*
X307848Y21082D01*
X333248Y21082D02*
X333248Y33782D01*
X326898Y40132D01*
X333248Y21082D02*
X326898Y14732D01*
X314198Y14732D01*
X250698Y40132D02*
X237998Y40132D01*
X231648Y33782D01*
X231648Y21082D01*
X237998Y14732D01*
X257048Y33782D02*
X250698Y40132D01*
X257048Y21082D02*
X250698Y14732D01*
X237998Y14732D01*
D810*
X342900Y46355D02*
X342900Y57785D01*
X346075Y57785D02*
X339725Y57785D01*
X335407Y54610D02*
X335407Y49530D01*
X335407Y54610D02*
X335405Y54721D01*
X335399Y54831D01*
X335390Y54942D01*
X335376Y55052D01*
X335359Y55161D01*
X335338Y55270D01*
X335313Y55378D01*
X335284Y55485D01*
X335252Y55591D01*
X335216Y55696D01*
X335176Y55799D01*
X335133Y55901D01*
X335086Y56002D01*
X335035Y56101D01*
X334982Y56198D01*
X334925Y56292D01*
X334864Y56385D01*
X334801Y56476D01*
X334734Y56565D01*
X334664Y56651D01*
X334591Y56734D01*
X334516Y56816D01*
X334438Y56894D01*
X334356Y56969D01*
X334273Y57042D01*
X334187Y57112D01*
X334098Y57179D01*
X334007Y57242D01*
X333914Y57303D01*
X333820Y57360D01*
X333723Y57413D01*
X333624Y57464D01*
X333523Y57511D01*
X333421Y57554D01*
X333318Y57594D01*
X333213Y57630D01*
X333107Y57662D01*
X333000Y57691D01*
X332892Y57716D01*
X332783Y57737D01*
X332674Y57754D01*
X332564Y57768D01*
X332453Y57777D01*
X332343Y57783D01*
X332232Y57785D01*
X332121Y57783D01*
X332011Y57777D01*
X331900Y57768D01*
X331790Y57754D01*
X331681Y57737D01*
X331572Y57716D01*
X331464Y57691D01*
X331357Y57662D01*
X331251Y57630D01*
X331146Y57594D01*
X331043Y57554D01*
X330941Y57511D01*
X330840Y57464D01*
X330741Y57413D01*
X330645Y57360D01*
X330550Y57303D01*
X330457Y57242D01*
X330366Y57179D01*
X330277Y57112D01*
X330191Y57042D01*
X330108Y56969D01*
X330026Y56894D01*
X329948Y56816D01*
X329873Y56734D01*
X329800Y56651D01*
X329730Y56565D01*
X329663Y56476D01*
X329600Y56385D01*
X329539Y56292D01*
X329482Y56197D01*
X329429Y56101D01*
X329378Y56002D01*
X329331Y55901D01*
X329288Y55799D01*
X329248Y55696D01*
X329212Y55591D01*
X329180Y55485D01*
X329151Y55378D01*
X329126Y55270D01*
X329105Y55161D01*
X329088Y55052D01*
X329074Y54942D01*
X329065Y54831D01*
X329059Y54721D01*
X329057Y54610D01*
X329057Y49530D01*
X329059Y49419D01*
X329065Y49309D01*
X329074Y49198D01*
X329088Y49088D01*
X329105Y48979D01*
X329126Y48870D01*
X329151Y48762D01*
X329180Y48655D01*
X329212Y48549D01*
X329248Y48444D01*
X329288Y48341D01*
X329331Y48239D01*
X329378Y48138D01*
X329429Y48039D01*
X329482Y47943D01*
X329539Y47848D01*
X329600Y47755D01*
X329663Y47664D01*
X329730Y47575D01*
X329800Y47489D01*
X329873Y47406D01*
X329948Y47324D01*
X330026Y47246D01*
X330108Y47171D01*
X330191Y47098D01*
X330277Y47028D01*
X330366Y46961D01*
X330457Y46898D01*
X330550Y46837D01*
X330645Y46780D01*
X330741Y46727D01*
X330840Y46676D01*
X330941Y46629D01*
X331043Y46586D01*
X331146Y46546D01*
X331251Y46510D01*
X331357Y46478D01*
X331464Y46449D01*
X331572Y46424D01*
X331681Y46403D01*
X331790Y46386D01*
X331900Y46372D01*
X332011Y46363D01*
X332121Y46357D01*
X332232Y46355D01*
X332343Y46357D01*
X332453Y46363D01*
X332564Y46372D01*
X332674Y46386D01*
X332783Y46403D01*
X332892Y46424D01*
X333000Y46449D01*
X333107Y46478D01*
X333213Y46510D01*
X333318Y46546D01*
X333421Y46586D01*
X333523Y46629D01*
X333624Y46676D01*
X333723Y46727D01*
X333819Y46780D01*
X333914Y46837D01*
X334007Y46898D01*
X334098Y46961D01*
X334187Y47028D01*
X334273Y47098D01*
X334356Y47171D01*
X334438Y47246D01*
X334516Y47324D01*
X334591Y47406D01*
X334664Y47489D01*
X334734Y47575D01*
X334801Y47664D01*
X334864Y47755D01*
X334925Y47848D01*
X334982Y47942D01*
X335035Y48039D01*
X335086Y48138D01*
X335133Y48239D01*
X335176Y48341D01*
X335216Y48444D01*
X335252Y48549D01*
X335284Y48655D01*
X335313Y48762D01*
X335338Y48870D01*
X335359Y48979D01*
X335376Y49088D01*
X335390Y49198D01*
X335399Y49309D01*
X335405Y49419D01*
X335407Y49530D01*
X323596Y49530D02*
X323596Y57785D01*
X323596Y49530D02*
X323594Y49419D01*
X323588Y49309D01*
X323579Y49198D01*
X323565Y49088D01*
X323548Y48979D01*
X323527Y48870D01*
X323502Y48762D01*
X323473Y48655D01*
X323441Y48549D01*
X323405Y48444D01*
X323365Y48341D01*
X323322Y48239D01*
X323275Y48138D01*
X323224Y48039D01*
X323171Y47942D01*
X323114Y47848D01*
X323053Y47755D01*
X322990Y47664D01*
X322923Y47575D01*
X322853Y47489D01*
X322780Y47406D01*
X322705Y47324D01*
X322627Y47246D01*
X322545Y47171D01*
X322462Y47098D01*
X322376Y47028D01*
X322287Y46961D01*
X322196Y46898D01*
X322103Y46837D01*
X322008Y46780D01*
X321912Y46727D01*
X321813Y46676D01*
X321712Y46629D01*
X321610Y46586D01*
X321507Y46546D01*
X321402Y46510D01*
X321296Y46478D01*
X321189Y46449D01*
X321081Y46424D01*
X320972Y46403D01*
X320863Y46386D01*
X320753Y46372D01*
X320642Y46363D01*
X320532Y46357D01*
X320421Y46355D01*
X320310Y46357D01*
X320200Y46363D01*
X320089Y46372D01*
X319979Y46386D01*
X319870Y46403D01*
X319761Y46424D01*
X319653Y46449D01*
X319546Y46478D01*
X319440Y46510D01*
X319335Y46546D01*
X319232Y46586D01*
X319130Y46629D01*
X319029Y46676D01*
X318930Y46727D01*
X318834Y46780D01*
X318739Y46837D01*
X318646Y46898D01*
X318555Y46961D01*
X318466Y47028D01*
X318380Y47098D01*
X318297Y47171D01*
X318215Y47246D01*
X318137Y47324D01*
X318062Y47406D01*
X317989Y47489D01*
X317919Y47575D01*
X317852Y47664D01*
X317789Y47755D01*
X317728Y47848D01*
X317671Y47943D01*
X317618Y48039D01*
X317567Y48138D01*
X317520Y48239D01*
X317477Y48341D01*
X317437Y48444D01*
X317401Y48549D01*
X317369Y48655D01*
X317340Y48762D01*
X317315Y48870D01*
X317294Y48979D01*
X317277Y49088D01*
X317263Y49198D01*
X317254Y49309D01*
X317248Y49419D01*
X317246Y49530D01*
X317246Y57785D01*
X309282Y46355D02*
X306742Y46355D01*
X309282Y46355D02*
X309382Y46357D01*
X309481Y46363D01*
X309581Y46373D01*
X309679Y46386D01*
X309778Y46404D01*
X309875Y46425D01*
X309971Y46450D01*
X310067Y46479D01*
X310161Y46512D01*
X310254Y46548D01*
X310345Y46588D01*
X310435Y46632D01*
X310523Y46679D01*
X310609Y46729D01*
X310693Y46783D01*
X310775Y46840D01*
X310854Y46900D01*
X310932Y46964D01*
X311006Y47030D01*
X311078Y47099D01*
X311147Y47171D01*
X311213Y47245D01*
X311277Y47323D01*
X311337Y47402D01*
X311394Y47484D01*
X311448Y47568D01*
X311498Y47654D01*
X311545Y47742D01*
X311589Y47832D01*
X311629Y47923D01*
X311665Y48016D01*
X311698Y48110D01*
X311727Y48206D01*
X311752Y48302D01*
X311773Y48399D01*
X311791Y48498D01*
X311804Y48596D01*
X311814Y48696D01*
X311820Y48795D01*
X311822Y48895D01*
X311822Y55245D01*
X311820Y55345D01*
X311814Y55444D01*
X311804Y55544D01*
X311791Y55642D01*
X311773Y55741D01*
X311752Y55838D01*
X311727Y55934D01*
X311698Y56030D01*
X311665Y56124D01*
X311629Y56217D01*
X311589Y56308D01*
X311545Y56398D01*
X311498Y56486D01*
X311448Y56572D01*
X311394Y56656D01*
X311337Y56738D01*
X311277Y56817D01*
X311213Y56895D01*
X311147Y56969D01*
X311078Y57041D01*
X311006Y57110D01*
X310932Y57176D01*
X310854Y57240D01*
X310775Y57300D01*
X310693Y57357D01*
X310609Y57411D01*
X310523Y57461D01*
X310435Y57508D01*
X310345Y57552D01*
X310254Y57592D01*
X310161Y57628D01*
X310067Y57661D01*
X309971Y57690D01*
X309875Y57715D01*
X309778Y57736D01*
X309679Y57754D01*
X309581Y57767D01*
X309481Y57777D01*
X309382Y57783D01*
X309282Y57785D01*
X306742Y57785D01*
X301879Y57785D02*
X301879Y46355D01*
X301879Y52705D02*
X295529Y52705D01*
X295529Y57785D02*
X295529Y46355D01*
X290576Y45085D02*
X285496Y45085D01*
X277495Y46355D02*
X277395Y46357D01*
X277296Y46363D01*
X277196Y46373D01*
X277098Y46386D01*
X276999Y46404D01*
X276902Y46425D01*
X276806Y46450D01*
X276710Y46479D01*
X276616Y46512D01*
X276523Y46548D01*
X276432Y46588D01*
X276342Y46632D01*
X276254Y46679D01*
X276168Y46729D01*
X276084Y46783D01*
X276002Y46840D01*
X275923Y46900D01*
X275845Y46964D01*
X275771Y47030D01*
X275699Y47099D01*
X275630Y47171D01*
X275564Y47245D01*
X275500Y47323D01*
X275440Y47402D01*
X275383Y47484D01*
X275329Y47568D01*
X275279Y47654D01*
X275232Y47742D01*
X275188Y47832D01*
X275148Y47923D01*
X275112Y48016D01*
X275079Y48110D01*
X275050Y48206D01*
X275025Y48302D01*
X275004Y48399D01*
X274986Y48498D01*
X274973Y48596D01*
X274963Y48696D01*
X274957Y48795D01*
X274955Y48895D01*
X277495Y46355D02*
X277636Y46357D01*
X277777Y46362D01*
X277918Y46372D01*
X278059Y46385D01*
X278199Y46401D01*
X278339Y46422D01*
X278478Y46446D01*
X278617Y46474D01*
X278754Y46505D01*
X278891Y46540D01*
X279027Y46578D01*
X279162Y46620D01*
X279295Y46666D01*
X279428Y46715D01*
X279559Y46768D01*
X279688Y46824D01*
X279817Y46883D01*
X279943Y46946D01*
X280068Y47012D01*
X280191Y47081D01*
X280312Y47154D01*
X280431Y47230D01*
X280549Y47309D01*
X280664Y47390D01*
X280776Y47475D01*
X280887Y47563D01*
X280995Y47654D01*
X281101Y47747D01*
X281204Y47844D01*
X281305Y47943D01*
X280988Y55245D02*
X280986Y55345D01*
X280980Y55444D01*
X280970Y55544D01*
X280957Y55642D01*
X280939Y55741D01*
X280918Y55838D01*
X280893Y55934D01*
X280864Y56030D01*
X280831Y56124D01*
X280795Y56217D01*
X280755Y56308D01*
X280711Y56398D01*
X280664Y56486D01*
X280614Y56572D01*
X280560Y56656D01*
X280503Y56738D01*
X280443Y56817D01*
X280379Y56895D01*
X280313Y56969D01*
X280244Y57041D01*
X280172Y57110D01*
X280098Y57176D01*
X280020Y57240D01*
X279941Y57300D01*
X279859Y57357D01*
X279775Y57411D01*
X279689Y57461D01*
X279601Y57508D01*
X279511Y57552D01*
X279420Y57592D01*
X279327Y57628D01*
X279233Y57661D01*
X279137Y57690D01*
X279041Y57715D01*
X278944Y57736D01*
X278845Y57754D01*
X278747Y57767D01*
X278647Y57777D01*
X278548Y57783D01*
X278448Y57785D01*
X278448Y57786D02*
X278315Y57784D01*
X278182Y57779D01*
X278049Y57769D01*
X277916Y57756D01*
X277784Y57739D01*
X277652Y57719D01*
X277521Y57695D01*
X277391Y57667D01*
X277261Y57636D01*
X277133Y57601D01*
X277005Y57562D01*
X276879Y57520D01*
X276754Y57474D01*
X276630Y57425D01*
X276507Y57373D01*
X276386Y57317D01*
X276267Y57257D01*
X276149Y57195D01*
X276034Y57129D01*
X275920Y57060D01*
X275808Y56987D01*
X275698Y56912D01*
X275590Y56833D01*
X279718Y53022D02*
X279802Y53074D01*
X279885Y53129D01*
X279965Y53188D01*
X280043Y53249D01*
X280118Y53313D01*
X280191Y53381D01*
X280262Y53451D01*
X280329Y53523D01*
X280394Y53598D01*
X280456Y53676D01*
X280515Y53756D01*
X280571Y53838D01*
X280623Y53922D01*
X280672Y54008D01*
X280718Y54096D01*
X280761Y54186D01*
X280800Y54277D01*
X280835Y54370D01*
X280867Y54464D01*
X280895Y54559D01*
X280920Y54655D01*
X280940Y54752D01*
X280958Y54850D01*
X280971Y54948D01*
X280980Y55047D01*
X280986Y55146D01*
X280988Y55245D01*
X276225Y51118D02*
X276141Y51066D01*
X276058Y51011D01*
X275978Y50952D01*
X275900Y50891D01*
X275825Y50827D01*
X275752Y50759D01*
X275681Y50689D01*
X275614Y50617D01*
X275549Y50542D01*
X275487Y50464D01*
X275428Y50384D01*
X275372Y50302D01*
X275320Y50218D01*
X275271Y50132D01*
X275225Y50044D01*
X275182Y49954D01*
X275143Y49863D01*
X275108Y49770D01*
X275076Y49676D01*
X275048Y49581D01*
X275023Y49485D01*
X275003Y49388D01*
X274985Y49290D01*
X274972Y49192D01*
X274963Y49093D01*
X274957Y48994D01*
X274955Y48895D01*
X276225Y51118D02*
X279718Y53023D01*
X269875Y49530D02*
X269875Y57785D01*
X269875Y49530D02*
X269873Y49419D01*
X269867Y49309D01*
X269858Y49198D01*
X269844Y49088D01*
X269827Y48979D01*
X269806Y48870D01*
X269781Y48762D01*
X269752Y48655D01*
X269720Y48549D01*
X269684Y48444D01*
X269644Y48341D01*
X269601Y48239D01*
X269554Y48138D01*
X269503Y48039D01*
X269450Y47942D01*
X269393Y47848D01*
X269332Y47755D01*
X269269Y47664D01*
X269202Y47575D01*
X269132Y47489D01*
X269059Y47406D01*
X268984Y47324D01*
X268906Y47246D01*
X268824Y47171D01*
X268741Y47098D01*
X268655Y47028D01*
X268566Y46961D01*
X268475Y46898D01*
X268382Y46837D01*
X268287Y46780D01*
X268191Y46727D01*
X268092Y46676D01*
X267991Y46629D01*
X267889Y46586D01*
X267786Y46546D01*
X267681Y46510D01*
X267575Y46478D01*
X267468Y46449D01*
X267360Y46424D01*
X267251Y46403D01*
X267142Y46386D01*
X267032Y46372D01*
X266921Y46363D01*
X266811Y46357D01*
X266700Y46355D01*
X266589Y46357D01*
X266479Y46363D01*
X266368Y46372D01*
X266258Y46386D01*
X266149Y46403D01*
X266040Y46424D01*
X265932Y46449D01*
X265825Y46478D01*
X265719Y46510D01*
X265614Y46546D01*
X265511Y46586D01*
X265409Y46629D01*
X265308Y46676D01*
X265209Y46727D01*
X265113Y46780D01*
X265018Y46837D01*
X264925Y46898D01*
X264834Y46961D01*
X264745Y47028D01*
X264659Y47098D01*
X264576Y47171D01*
X264494Y47246D01*
X264416Y47324D01*
X264341Y47406D01*
X264268Y47489D01*
X264198Y47575D01*
X264131Y47664D01*
X264068Y47755D01*
X264007Y47848D01*
X263950Y47943D01*
X263897Y48039D01*
X263846Y48138D01*
X263799Y48239D01*
X263756Y48341D01*
X263716Y48444D01*
X263680Y48549D01*
X263648Y48655D01*
X263619Y48762D01*
X263594Y48870D01*
X263573Y48979D01*
X263556Y49088D01*
X263542Y49198D01*
X263533Y49309D01*
X263527Y49419D01*
X263525Y49530D01*
X263525Y57785D01*
X257493Y57785D02*
X257493Y46355D01*
X257493Y57785D02*
X254318Y57785D01*
X254207Y57783D01*
X254097Y57777D01*
X253986Y57768D01*
X253876Y57754D01*
X253767Y57737D01*
X253658Y57716D01*
X253550Y57691D01*
X253443Y57662D01*
X253337Y57630D01*
X253232Y57594D01*
X253129Y57554D01*
X253027Y57511D01*
X252926Y57464D01*
X252827Y57413D01*
X252731Y57360D01*
X252636Y57303D01*
X252543Y57242D01*
X252452Y57179D01*
X252363Y57112D01*
X252277Y57042D01*
X252194Y56969D01*
X252112Y56894D01*
X252034Y56816D01*
X251959Y56734D01*
X251886Y56651D01*
X251816Y56565D01*
X251749Y56476D01*
X251686Y56385D01*
X251625Y56292D01*
X251568Y56197D01*
X251515Y56101D01*
X251464Y56002D01*
X251417Y55901D01*
X251374Y55799D01*
X251334Y55696D01*
X251298Y55591D01*
X251266Y55485D01*
X251237Y55378D01*
X251212Y55270D01*
X251191Y55161D01*
X251174Y55052D01*
X251160Y54942D01*
X251151Y54831D01*
X251145Y54721D01*
X251143Y54610D01*
X251145Y54499D01*
X251151Y54389D01*
X251160Y54278D01*
X251174Y54168D01*
X251191Y54059D01*
X251212Y53950D01*
X251237Y53842D01*
X251266Y53735D01*
X251298Y53629D01*
X251334Y53524D01*
X251374Y53421D01*
X251417Y53319D01*
X251464Y53218D01*
X251515Y53119D01*
X251568Y53022D01*
X251625Y52928D01*
X251686Y52835D01*
X251749Y52744D01*
X251816Y52655D01*
X251886Y52569D01*
X251959Y52486D01*
X252034Y52404D01*
X252112Y52326D01*
X252194Y52251D01*
X252277Y52178D01*
X252363Y52108D01*
X252452Y52041D01*
X252543Y51978D01*
X252636Y51917D01*
X252731Y51860D01*
X252827Y51807D01*
X252926Y51756D01*
X253027Y51709D01*
X253129Y51666D01*
X253232Y51626D01*
X253337Y51590D01*
X253443Y51558D01*
X253550Y51529D01*
X253658Y51504D01*
X253767Y51483D01*
X253876Y51466D01*
X253986Y51452D01*
X254097Y51443D01*
X254207Y51437D01*
X254318Y51435D01*
X257493Y51435D01*
X246063Y46355D02*
X246063Y57785D01*
X242888Y57785D01*
X242777Y57783D01*
X242667Y57777D01*
X242556Y57768D01*
X242446Y57754D01*
X242337Y57737D01*
X242228Y57716D01*
X242120Y57691D01*
X242013Y57662D01*
X241907Y57630D01*
X241802Y57594D01*
X241699Y57554D01*
X241597Y57511D01*
X241496Y57464D01*
X241397Y57413D01*
X241301Y57360D01*
X241206Y57303D01*
X241113Y57242D01*
X241022Y57179D01*
X240933Y57112D01*
X240847Y57042D01*
X240764Y56969D01*
X240682Y56894D01*
X240604Y56816D01*
X240529Y56734D01*
X240456Y56651D01*
X240386Y56565D01*
X240319Y56476D01*
X240256Y56385D01*
X240195Y56292D01*
X240138Y56197D01*
X240085Y56101D01*
X240034Y56002D01*
X239987Y55901D01*
X239944Y55799D01*
X239904Y55696D01*
X239868Y55591D01*
X239836Y55485D01*
X239807Y55378D01*
X239782Y55270D01*
X239761Y55161D01*
X239744Y55052D01*
X239730Y54942D01*
X239721Y54831D01*
X239715Y54721D01*
X239713Y54610D01*
X239715Y54499D01*
X239721Y54389D01*
X239730Y54278D01*
X239744Y54168D01*
X239761Y54059D01*
X239782Y53950D01*
X239807Y53842D01*
X239836Y53735D01*
X239868Y53629D01*
X239904Y53524D01*
X239944Y53421D01*
X239987Y53319D01*
X240034Y53218D01*
X240085Y53119D01*
X240138Y53022D01*
X240195Y52928D01*
X240256Y52835D01*
X240319Y52744D01*
X240386Y52655D01*
X240456Y52569D01*
X240529Y52486D01*
X240604Y52404D01*
X240682Y52326D01*
X240764Y52251D01*
X240847Y52178D01*
X240933Y52108D01*
X241022Y52041D01*
X241113Y51978D01*
X241206Y51917D01*
X241301Y51860D01*
X241397Y51807D01*
X241496Y51756D01*
X241597Y51709D01*
X241699Y51666D01*
X241802Y51626D01*
X241907Y51590D01*
X242013Y51558D01*
X242120Y51529D01*
X242228Y51504D01*
X242337Y51483D01*
X242446Y51466D01*
X242556Y51452D01*
X242667Y51443D01*
X242777Y51437D01*
X242888Y51435D01*
X246063Y51435D01*
X235204Y49530D02*
X235204Y54610D01*
X235202Y54721D01*
X235196Y54831D01*
X235187Y54942D01*
X235173Y55052D01*
X235156Y55161D01*
X235135Y55270D01*
X235110Y55378D01*
X235081Y55485D01*
X235049Y55591D01*
X235013Y55696D01*
X234973Y55799D01*
X234930Y55901D01*
X234883Y56002D01*
X234832Y56101D01*
X234779Y56198D01*
X234722Y56292D01*
X234661Y56385D01*
X234598Y56476D01*
X234531Y56565D01*
X234461Y56651D01*
X234388Y56734D01*
X234313Y56816D01*
X234235Y56894D01*
X234153Y56969D01*
X234070Y57042D01*
X233984Y57112D01*
X233895Y57179D01*
X233804Y57242D01*
X233711Y57303D01*
X233617Y57360D01*
X233520Y57413D01*
X233421Y57464D01*
X233320Y57511D01*
X233218Y57554D01*
X233115Y57594D01*
X233010Y57630D01*
X232904Y57662D01*
X232797Y57691D01*
X232689Y57716D01*
X232580Y57737D01*
X232471Y57754D01*
X232361Y57768D01*
X232250Y57777D01*
X232140Y57783D01*
X232029Y57785D01*
X231918Y57783D01*
X231808Y57777D01*
X231697Y57768D01*
X231587Y57754D01*
X231478Y57737D01*
X231369Y57716D01*
X231261Y57691D01*
X231154Y57662D01*
X231048Y57630D01*
X230943Y57594D01*
X230840Y57554D01*
X230738Y57511D01*
X230637Y57464D01*
X230538Y57413D01*
X230442Y57360D01*
X230347Y57303D01*
X230254Y57242D01*
X230163Y57179D01*
X230074Y57112D01*
X229988Y57042D01*
X229905Y56969D01*
X229823Y56894D01*
X229745Y56816D01*
X229670Y56734D01*
X229597Y56651D01*
X229527Y56565D01*
X229460Y56476D01*
X229397Y56385D01*
X229336Y56292D01*
X229279Y56197D01*
X229226Y56101D01*
X229175Y56002D01*
X229128Y55901D01*
X229085Y55799D01*
X229045Y55696D01*
X229009Y55591D01*
X228977Y55485D01*
X228948Y55378D01*
X228923Y55270D01*
X228902Y55161D01*
X228885Y55052D01*
X228871Y54942D01*
X228862Y54831D01*
X228856Y54721D01*
X228854Y54610D01*
X228854Y49530D01*
X228856Y49419D01*
X228862Y49309D01*
X228871Y49198D01*
X228885Y49088D01*
X228902Y48979D01*
X228923Y48870D01*
X228948Y48762D01*
X228977Y48655D01*
X229009Y48549D01*
X229045Y48444D01*
X229085Y48341D01*
X229128Y48239D01*
X229175Y48138D01*
X229226Y48039D01*
X229279Y47943D01*
X229336Y47848D01*
X229397Y47755D01*
X229460Y47664D01*
X229527Y47575D01*
X229597Y47489D01*
X229670Y47406D01*
X229745Y47324D01*
X229823Y47246D01*
X229905Y47171D01*
X229988Y47098D01*
X230074Y47028D01*
X230163Y46961D01*
X230254Y46898D01*
X230347Y46837D01*
X230442Y46780D01*
X230538Y46727D01*
X230637Y46676D01*
X230738Y46629D01*
X230840Y46586D01*
X230943Y46546D01*
X231048Y46510D01*
X231154Y46478D01*
X231261Y46449D01*
X231369Y46424D01*
X231478Y46403D01*
X231587Y46386D01*
X231697Y46372D01*
X231808Y46363D01*
X231918Y46357D01*
X232029Y46355D01*
X232140Y46357D01*
X232250Y46363D01*
X232361Y46372D01*
X232471Y46386D01*
X232580Y46403D01*
X232689Y46424D01*
X232797Y46449D01*
X232904Y46478D01*
X233010Y46510D01*
X233115Y46546D01*
X233218Y46586D01*
X233320Y46629D01*
X233421Y46676D01*
X233520Y46727D01*
X233616Y46780D01*
X233711Y46837D01*
X233804Y46898D01*
X233895Y46961D01*
X233984Y47028D01*
X234070Y47098D01*
X234153Y47171D01*
X234235Y47246D01*
X234313Y47324D01*
X234388Y47406D01*
X234461Y47489D01*
X234531Y47575D01*
X234598Y47664D01*
X234661Y47755D01*
X234722Y47848D01*
X234779Y47942D01*
X234832Y48039D01*
X234883Y48138D01*
X234930Y48239D01*
X234973Y48341D01*
X235013Y48444D01*
X235049Y48549D01*
X235081Y48655D01*
X235110Y48762D01*
X235135Y48870D01*
X235156Y48979D01*
X235173Y49088D01*
X235187Y49198D01*
X235196Y49309D01*
X235202Y49419D01*
X235204Y49530D01*
X223310Y46355D02*
X223310Y57785D01*
X220135Y57785D01*
X220024Y57783D01*
X219914Y57777D01*
X219803Y57768D01*
X219693Y57754D01*
X219584Y57737D01*
X219475Y57716D01*
X219367Y57691D01*
X219260Y57662D01*
X219154Y57630D01*
X219049Y57594D01*
X218946Y57554D01*
X218844Y57511D01*
X218743Y57464D01*
X218644Y57413D01*
X218548Y57360D01*
X218453Y57303D01*
X218360Y57242D01*
X218269Y57179D01*
X218180Y57112D01*
X218094Y57042D01*
X218011Y56969D01*
X217929Y56894D01*
X217851Y56816D01*
X217776Y56734D01*
X217703Y56651D01*
X217633Y56565D01*
X217566Y56476D01*
X217503Y56385D01*
X217442Y56292D01*
X217385Y56197D01*
X217332Y56101D01*
X217281Y56002D01*
X217234Y55901D01*
X217191Y55799D01*
X217151Y55696D01*
X217115Y55591D01*
X217083Y55485D01*
X217054Y55378D01*
X217029Y55270D01*
X217008Y55161D01*
X216991Y55052D01*
X216977Y54942D01*
X216968Y54831D01*
X216962Y54721D01*
X216960Y54610D01*
X216962Y54499D01*
X216968Y54389D01*
X216977Y54278D01*
X216991Y54168D01*
X217008Y54059D01*
X217029Y53950D01*
X217054Y53842D01*
X217083Y53735D01*
X217115Y53629D01*
X217151Y53524D01*
X217191Y53421D01*
X217234Y53319D01*
X217281Y53218D01*
X217332Y53119D01*
X217385Y53022D01*
X217442Y52928D01*
X217503Y52835D01*
X217566Y52744D01*
X217633Y52655D01*
X217703Y52569D01*
X217776Y52486D01*
X217851Y52404D01*
X217929Y52326D01*
X218011Y52251D01*
X218094Y52178D01*
X218180Y52108D01*
X218269Y52041D01*
X218360Y51978D01*
X218453Y51917D01*
X218548Y51860D01*
X218644Y51807D01*
X218743Y51756D01*
X218844Y51709D01*
X218946Y51666D01*
X219049Y51626D01*
X219154Y51590D01*
X219260Y51558D01*
X219367Y51529D01*
X219475Y51504D01*
X219584Y51483D01*
X219693Y51466D01*
X219803Y51452D01*
X219914Y51443D01*
X220024Y51437D01*
X220135Y51435D01*
X223310Y51435D01*
X219500Y51435D02*
X216960Y46355D01*
X209550Y46355D02*
X209550Y57785D01*
X212725Y57785D02*
X206375Y57785D01*
M02*
