G04 EAGLE Gerber RS-274X export*
G75*
%MOMM*%
%FSLAX34Y34*%
%LPD*%
%INSoldermask Top*%
%IPPOS*%
%AMOC8*
5,1,8,0,0,1.08239X$1,22.5*%
G01*
%ADD10C,1.727200*%
%ADD11P,1.649562X8X22.500000*%
%ADD12P,1.649562X8X202.500000*%
%ADD13C,2.298700*%
%ADD14C,1.676400*%
%ADD15C,0.959600*%


D10*
X495300Y261620D02*
X495300Y246380D01*
X469900Y246380D02*
X469900Y261620D01*
X444500Y261620D02*
X444500Y246380D01*
X419100Y246380D02*
X419100Y261620D01*
X393700Y261620D02*
X393700Y246380D01*
X368300Y246380D02*
X368300Y261620D01*
X495300Y347980D02*
X495300Y363220D01*
X469900Y363220D02*
X469900Y347980D01*
X444500Y347980D02*
X444500Y363220D01*
X419100Y363220D02*
X419100Y347980D01*
X393700Y347980D02*
X393700Y363220D01*
X368300Y363220D02*
X368300Y347980D01*
D11*
X190500Y800100D03*
X266700Y800100D03*
D12*
X279400Y254000D03*
X203200Y254000D03*
X279400Y355600D03*
X203200Y355600D03*
D11*
X393700Y304800D03*
X469900Y304800D03*
D10*
X114300Y863092D02*
X114300Y878332D01*
X139700Y878332D02*
X139700Y863092D01*
X165100Y863092D02*
X165100Y878332D01*
X190500Y878332D02*
X190500Y863092D01*
X215900Y863092D02*
X215900Y878332D01*
X241300Y878332D02*
X241300Y863092D01*
X266700Y863092D02*
X266700Y878332D01*
X292100Y878332D02*
X292100Y863092D01*
X317500Y863092D02*
X317500Y878332D01*
X342900Y878332D02*
X342900Y863092D01*
X368300Y863092D02*
X368300Y878332D01*
X393700Y878332D02*
X393700Y863092D01*
X419100Y863092D02*
X419100Y878332D01*
X444500Y878332D02*
X444500Y863092D01*
D13*
X63500Y150178D02*
X63500Y129223D01*
X114300Y129223D02*
X114300Y150178D01*
X165100Y150178D02*
X165100Y129223D01*
X215900Y129223D02*
X215900Y150178D01*
X355600Y150178D02*
X355600Y129223D01*
X406400Y129223D02*
X406400Y150178D01*
X457200Y150178D02*
X457200Y129223D01*
X508000Y129223D02*
X508000Y150178D01*
D10*
X320548Y35052D02*
X320548Y19812D01*
X295148Y19812D02*
X295148Y35052D01*
X269748Y35052D02*
X269748Y19812D01*
X244348Y19812D02*
X244348Y35052D01*
D14*
X482600Y698500D03*
X457200Y698500D03*
X431800Y698500D03*
X406400Y698500D03*
X381000Y698500D03*
X355600Y698500D03*
X330200Y698500D03*
X304800Y698500D03*
X279400Y698500D03*
X254000Y698500D03*
X228600Y698500D03*
X203200Y698500D03*
X203200Y546100D03*
X228600Y546100D03*
X254000Y546100D03*
X279400Y546100D03*
X304800Y546100D03*
X330200Y546100D03*
X355600Y546100D03*
X381000Y546100D03*
X406400Y546100D03*
X431800Y546100D03*
X457200Y546100D03*
X508000Y698500D03*
X482600Y546100D03*
X533400Y698500D03*
X533400Y546100D03*
X508000Y546100D03*
X203200Y571500D03*
X203200Y596900D03*
X203200Y622300D03*
X203200Y647700D03*
X203200Y673100D03*
D15*
X127000Y800100D03*
X241300Y635000D03*
X482600Y203200D03*
M02*
