M48
;GenerationSoftware,Autodesk,EAGLE,9.6.2*%
;CreationDate,2021-05-27T03:05:48Z*%
FMAT,2
ICI,OFF
METRIC,TZ,000.000
T5C0.350
T4C0.813
T3C0.965
T2C1.016
T1C1.397
%
G90
M71
T1
X11430Y13970
X6350Y13970
X50800Y13970
X45720Y13970
X40640Y13970
X35560Y13970
X21590Y13970
X16510Y13970
T2
X44450Y25400
X41910Y25400
X29210Y87071
X36830Y25400
X49530Y35560
X46990Y35560
X44450Y35560
X41910Y35560
X39370Y35560
X36830Y35560
X26975Y6071
X29515Y6071
X32055Y6071
X39370Y25400
X13970Y87071
X11430Y87071
X24435Y6071
X49530Y25400
X44450Y87071
X41910Y87071
X39370Y87071
X36830Y87071
X34290Y87071
X31750Y87071
X46990Y25400
X26670Y87071
X24130Y87071
X21590Y87071
X19050Y87071
X16510Y87071
T3
X20320Y59690
X20320Y62230
X20320Y64770
X20320Y67310
X45720Y54610
X48260Y69850
X45720Y69850
X43180Y69850
X40640Y69850
X38100Y69850
X35560Y69850
X33020Y69850
X30480Y69850
X27940Y69850
X25400Y69850
X22860Y69850
X20320Y69850
X20320Y54610
X22860Y54610
X25400Y54610
X27940Y54610
X30480Y54610
X33020Y54610
X35560Y54610
X38100Y54610
X40640Y54610
X43180Y54610
X50800Y69850
X48260Y54610
X53340Y69850
X53340Y54610
X50800Y54610
X20320Y57150
T4
X20320Y33020
X26670Y80010
X19050Y80010
X46990Y30480
X39370Y30480
X20320Y39370
X27940Y39370
X27940Y33020
T5
X24130Y82550
X25400Y78740
X22860Y66040
X13970Y66040
X33020Y77470
X48260Y20320
M30