G04 EAGLE Gerber RS-274X export*
G75*
%MOMM*%
%FSLAX34Y34*%
%LPD*%
%INBottom Copper*%
%IPPOS*%
%AMOC8*
5,1,8,0,0,1.08239X$1,22.5*%
G01*
%ADD10C,1.524000*%
%ADD11P,1.429621X8X22.500000*%
%ADD12P,1.429621X8X202.500000*%
%ADD13C,2.095500*%
%ADD14C,1.473200*%
%ADD15C,0.508000*%
%ADD16C,0.756400*%
%ADD17C,1.016000*%

G36*
X553994Y10164D02*
X553994Y10164D01*
X554013Y10162D01*
X554115Y10184D01*
X554217Y10200D01*
X554234Y10210D01*
X554254Y10214D01*
X554343Y10267D01*
X554434Y10316D01*
X554448Y10330D01*
X554465Y10340D01*
X554532Y10419D01*
X554604Y10494D01*
X554612Y10512D01*
X554625Y10527D01*
X554664Y10623D01*
X554707Y10717D01*
X554709Y10737D01*
X554717Y10755D01*
X554735Y10922D01*
X554735Y895350D01*
X554732Y895370D01*
X554734Y895389D01*
X554712Y895491D01*
X554696Y895593D01*
X554686Y895610D01*
X554682Y895630D01*
X554629Y895719D01*
X554580Y895810D01*
X554566Y895824D01*
X554556Y895841D01*
X554477Y895908D01*
X554402Y895980D01*
X554384Y895988D01*
X554369Y896001D01*
X554273Y896040D01*
X554179Y896083D01*
X554159Y896085D01*
X554141Y896093D01*
X553974Y896111D01*
X10922Y896111D01*
X10902Y896108D01*
X10883Y896110D01*
X10781Y896088D01*
X10679Y896072D01*
X10662Y896062D01*
X10642Y896058D01*
X10553Y896005D01*
X10462Y895956D01*
X10448Y895942D01*
X10431Y895932D01*
X10364Y895853D01*
X10292Y895778D01*
X10284Y895760D01*
X10271Y895745D01*
X10232Y895649D01*
X10189Y895555D01*
X10187Y895535D01*
X10179Y895517D01*
X10161Y895350D01*
X10161Y10922D01*
X10164Y10902D01*
X10162Y10883D01*
X10184Y10781D01*
X10200Y10679D01*
X10210Y10662D01*
X10214Y10642D01*
X10267Y10553D01*
X10316Y10462D01*
X10330Y10448D01*
X10340Y10431D01*
X10419Y10364D01*
X10494Y10292D01*
X10512Y10284D01*
X10527Y10271D01*
X10623Y10232D01*
X10717Y10189D01*
X10737Y10187D01*
X10755Y10179D01*
X10922Y10161D01*
X553974Y10161D01*
X553994Y10164D01*
G37*
%LPC*%
G36*
X111913Y117220D02*
X111913Y117220D01*
X107501Y119048D01*
X104125Y122424D01*
X102298Y126835D01*
X102298Y142046D01*
X102283Y142136D01*
X102276Y142227D01*
X102263Y142257D01*
X102258Y142289D01*
X102215Y142370D01*
X102180Y142454D01*
X102154Y142486D01*
X102143Y142507D01*
X102120Y142529D01*
X102075Y142585D01*
X70601Y174059D01*
X69595Y176486D01*
X69595Y687114D01*
X70601Y689541D01*
X182148Y801089D01*
X182201Y801163D01*
X182261Y801232D01*
X182273Y801262D01*
X182292Y801289D01*
X182319Y801376D01*
X182353Y801460D01*
X182357Y801501D01*
X182364Y801524D01*
X182363Y801556D01*
X182371Y801627D01*
X182371Y803467D01*
X187133Y808229D01*
X193867Y808229D01*
X198629Y803467D01*
X198629Y796733D01*
X193867Y791971D01*
X192027Y791971D01*
X191937Y791957D01*
X191846Y791949D01*
X191816Y791937D01*
X191784Y791932D01*
X191704Y791889D01*
X191620Y791853D01*
X191588Y791827D01*
X191567Y791816D01*
X191561Y791810D01*
X191560Y791810D01*
X191543Y791792D01*
X191489Y791748D01*
X83028Y683287D01*
X82975Y683213D01*
X82915Y683144D01*
X82903Y683114D01*
X82884Y683087D01*
X82857Y683000D01*
X82823Y682916D01*
X82819Y682875D01*
X82812Y682852D01*
X82813Y682820D01*
X82805Y682749D01*
X82805Y180851D01*
X82819Y180761D01*
X82827Y180670D01*
X82839Y180640D01*
X82844Y180608D01*
X82887Y180528D01*
X82923Y180444D01*
X82949Y180412D01*
X82960Y180391D01*
X82983Y180369D01*
X83028Y180313D01*
X104706Y158634D01*
X104723Y158623D01*
X104735Y158607D01*
X104822Y158551D01*
X104906Y158491D01*
X104925Y158485D01*
X104942Y158474D01*
X105042Y158449D01*
X105141Y158418D01*
X105161Y158419D01*
X105180Y158414D01*
X105283Y158422D01*
X105387Y158425D01*
X105406Y158431D01*
X105426Y158433D01*
X105521Y158473D01*
X105618Y158509D01*
X105634Y158522D01*
X105652Y158529D01*
X105783Y158634D01*
X107501Y160352D01*
X111913Y162180D01*
X116687Y162180D01*
X121099Y160352D01*
X122817Y158634D01*
X122833Y158623D01*
X122846Y158607D01*
X122933Y158551D01*
X123017Y158491D01*
X123036Y158485D01*
X123053Y158474D01*
X123153Y158449D01*
X123252Y158418D01*
X123272Y158419D01*
X123291Y158414D01*
X123394Y158422D01*
X123498Y158425D01*
X123517Y158431D01*
X123536Y158433D01*
X123631Y158473D01*
X123729Y158509D01*
X123744Y158522D01*
X123763Y158529D01*
X123894Y158634D01*
X184794Y219534D01*
X186759Y221499D01*
X189186Y222505D01*
X466849Y222505D01*
X466939Y222519D01*
X467030Y222527D01*
X467060Y222539D01*
X467092Y222544D01*
X467172Y222587D01*
X467256Y222623D01*
X467288Y222649D01*
X467309Y222660D01*
X467331Y222683D01*
X467387Y222728D01*
X486693Y242034D01*
X486761Y242128D01*
X486831Y242223D01*
X486833Y242229D01*
X486837Y242234D01*
X486871Y242344D01*
X486908Y242456D01*
X486907Y242463D01*
X486909Y242469D01*
X486906Y242585D01*
X486905Y242702D01*
X486903Y242710D01*
X486903Y242715D01*
X486897Y242732D01*
X486858Y242863D01*
X486155Y244561D01*
X486155Y263439D01*
X487547Y266800D01*
X490120Y269373D01*
X493481Y270765D01*
X497119Y270765D01*
X500613Y269318D01*
X500726Y269291D01*
X500840Y269262D01*
X500846Y269263D01*
X500852Y269261D01*
X500969Y269272D01*
X501085Y269282D01*
X501091Y269284D01*
X501097Y269285D01*
X501204Y269332D01*
X501311Y269378D01*
X501317Y269383D01*
X501322Y269385D01*
X501335Y269397D01*
X501442Y269483D01*
X526572Y294613D01*
X526625Y294687D01*
X526685Y294756D01*
X526697Y294786D01*
X526716Y294813D01*
X526743Y294900D01*
X526777Y294984D01*
X526781Y295025D01*
X526788Y295048D01*
X526787Y295080D01*
X526795Y295151D01*
X526795Y539816D01*
X526781Y539906D01*
X526773Y539997D01*
X526761Y540027D01*
X526756Y540059D01*
X526713Y540139D01*
X526677Y540223D01*
X526651Y540255D01*
X526640Y540276D01*
X526617Y540298D01*
X526572Y540354D01*
X525863Y541064D01*
X524509Y544332D01*
X524509Y547868D01*
X525863Y551136D01*
X528364Y553637D01*
X531632Y554991D01*
X535168Y554991D01*
X538436Y553637D01*
X540937Y551136D01*
X542291Y547868D01*
X542291Y544332D01*
X540937Y541064D01*
X540228Y540354D01*
X540175Y540280D01*
X540115Y540211D01*
X540103Y540181D01*
X540084Y540155D01*
X540057Y540068D01*
X540023Y539983D01*
X540019Y539942D01*
X540012Y539919D01*
X540013Y539887D01*
X540005Y539816D01*
X540005Y290786D01*
X538999Y288359D01*
X504668Y254027D01*
X504615Y253953D01*
X504555Y253884D01*
X504543Y253854D01*
X504524Y253827D01*
X504497Y253740D01*
X504463Y253656D01*
X504459Y253615D01*
X504452Y253592D01*
X504453Y253560D01*
X504445Y253489D01*
X504445Y244561D01*
X503053Y241200D01*
X502058Y240206D01*
X502020Y240153D01*
X501974Y240106D01*
X501934Y240033D01*
X501915Y240006D01*
X501909Y239988D01*
X501893Y239959D01*
X500899Y237559D01*
X473641Y210301D01*
X471214Y209295D01*
X193551Y209295D01*
X193461Y209281D01*
X193370Y209273D01*
X193340Y209261D01*
X193308Y209256D01*
X193228Y209213D01*
X193144Y209177D01*
X193112Y209151D01*
X193091Y209140D01*
X193069Y209117D01*
X193013Y209072D01*
X126525Y142585D01*
X126472Y142511D01*
X126413Y142441D01*
X126400Y142411D01*
X126382Y142385D01*
X126355Y142298D01*
X126321Y142213D01*
X126316Y142172D01*
X126309Y142150D01*
X126310Y142118D01*
X126302Y142046D01*
X126302Y126835D01*
X124475Y122424D01*
X121099Y119048D01*
X116687Y117220D01*
X111913Y117220D01*
G37*
%LPD*%
%LPC*%
G36*
X466533Y296671D02*
X466533Y296671D01*
X461771Y301433D01*
X461771Y308167D01*
X466533Y312929D01*
X471965Y312929D01*
X472055Y312943D01*
X472146Y312951D01*
X472176Y312963D01*
X472208Y312968D01*
X472288Y313011D01*
X472372Y313047D01*
X472404Y313073D01*
X472425Y313084D01*
X472447Y313107D01*
X472503Y313152D01*
X491012Y331661D01*
X491059Y331725D01*
X491074Y331741D01*
X491077Y331749D01*
X491125Y331804D01*
X491137Y331834D01*
X491156Y331860D01*
X491183Y331947D01*
X491217Y332032D01*
X491221Y332073D01*
X491228Y332096D01*
X491227Y332128D01*
X491235Y332199D01*
X491235Y339257D01*
X491216Y339372D01*
X491199Y339488D01*
X491197Y339493D01*
X491196Y339500D01*
X491141Y339602D01*
X491088Y339707D01*
X491083Y339711D01*
X491080Y339717D01*
X490996Y339797D01*
X490912Y339879D01*
X490906Y339883D01*
X490902Y339886D01*
X490885Y339894D01*
X490765Y339960D01*
X490120Y340227D01*
X487547Y342800D01*
X486155Y346161D01*
X486155Y365039D01*
X487547Y368400D01*
X490120Y370973D01*
X490765Y371240D01*
X490865Y371301D01*
X490965Y371361D01*
X490969Y371366D01*
X490974Y371369D01*
X491049Y371460D01*
X491125Y371548D01*
X491127Y371554D01*
X491131Y371559D01*
X491173Y371667D01*
X491217Y371776D01*
X491218Y371784D01*
X491219Y371789D01*
X491220Y371807D01*
X491235Y371943D01*
X491235Y465074D01*
X491232Y465094D01*
X491234Y465113D01*
X491212Y465215D01*
X491196Y465317D01*
X491186Y465334D01*
X491182Y465354D01*
X491129Y465443D01*
X491080Y465534D01*
X491066Y465548D01*
X491056Y465565D01*
X490977Y465632D01*
X490902Y465704D01*
X490884Y465712D01*
X490869Y465725D01*
X490773Y465764D01*
X490679Y465807D01*
X490659Y465809D01*
X490641Y465817D01*
X490474Y465835D01*
X357599Y465835D01*
X357509Y465821D01*
X357418Y465813D01*
X357388Y465801D01*
X357356Y465796D01*
X357276Y465753D01*
X357192Y465717D01*
X357160Y465691D01*
X357139Y465680D01*
X357117Y465657D01*
X357061Y465612D01*
X287752Y396303D01*
X287699Y396229D01*
X287639Y396160D01*
X287627Y396130D01*
X287608Y396104D01*
X287581Y396017D01*
X287547Y395932D01*
X287543Y395891D01*
X287536Y395869D01*
X287537Y395836D01*
X287529Y395765D01*
X287529Y390333D01*
X283688Y386492D01*
X283635Y386418D01*
X283575Y386349D01*
X283563Y386318D01*
X283544Y386292D01*
X283517Y386205D01*
X283483Y386120D01*
X283479Y386079D01*
X283472Y386057D01*
X283473Y386025D01*
X283465Y385954D01*
X283465Y337946D01*
X283479Y337856D01*
X283487Y337765D01*
X283499Y337736D01*
X283504Y337704D01*
X283547Y337623D01*
X283583Y337539D01*
X283609Y337507D01*
X283620Y337486D01*
X283643Y337464D01*
X283688Y337408D01*
X287529Y333567D01*
X287529Y326833D01*
X282767Y322071D01*
X276033Y322071D01*
X271271Y326833D01*
X271271Y333567D01*
X275112Y337408D01*
X275165Y337482D01*
X275225Y337551D01*
X275237Y337582D01*
X275256Y337608D01*
X275283Y337695D01*
X275317Y337780D01*
X275321Y337821D01*
X275328Y337843D01*
X275327Y337875D01*
X275335Y337946D01*
X275335Y385954D01*
X275321Y386044D01*
X275313Y386135D01*
X275301Y386164D01*
X275296Y386196D01*
X275253Y386277D01*
X275217Y386361D01*
X275191Y386393D01*
X275180Y386414D01*
X275157Y386436D01*
X275112Y386492D01*
X271271Y390333D01*
X271271Y397067D01*
X276033Y401829D01*
X281465Y401829D01*
X281555Y401843D01*
X281646Y401851D01*
X281676Y401863D01*
X281708Y401868D01*
X281788Y401911D01*
X281872Y401947D01*
X281904Y401973D01*
X281925Y401984D01*
X281947Y402007D01*
X282003Y402052D01*
X351312Y471361D01*
X353916Y473965D01*
X490474Y473965D01*
X490494Y473968D01*
X490513Y473966D01*
X490615Y473988D01*
X490717Y474004D01*
X490734Y474014D01*
X490754Y474018D01*
X490843Y474071D01*
X490934Y474120D01*
X490948Y474134D01*
X490965Y474144D01*
X491032Y474223D01*
X491104Y474298D01*
X491112Y474316D01*
X491125Y474331D01*
X491164Y474427D01*
X491207Y474521D01*
X491209Y474541D01*
X491217Y474559D01*
X491235Y474726D01*
X491235Y506001D01*
X491221Y506091D01*
X491213Y506182D01*
X491201Y506212D01*
X491196Y506244D01*
X491153Y506324D01*
X491117Y506408D01*
X491091Y506440D01*
X491080Y506461D01*
X491057Y506483D01*
X491012Y506539D01*
X478535Y519016D01*
X478535Y537652D01*
X478516Y537767D01*
X478499Y537883D01*
X478497Y537888D01*
X478496Y537895D01*
X478441Y537997D01*
X478388Y538102D01*
X478383Y538106D01*
X478380Y538112D01*
X478296Y538192D01*
X478212Y538274D01*
X478206Y538278D01*
X478202Y538281D01*
X478185Y538289D01*
X478065Y538355D01*
X477564Y538563D01*
X475063Y541064D01*
X473709Y544332D01*
X473709Y547868D01*
X473917Y548370D01*
X473944Y548484D01*
X473972Y548597D01*
X473972Y548603D01*
X473973Y548609D01*
X473962Y548725D01*
X473953Y548842D01*
X473951Y548848D01*
X473950Y548854D01*
X473902Y548962D01*
X473857Y549069D01*
X473852Y549074D01*
X473850Y549079D01*
X473837Y549093D01*
X473752Y549200D01*
X440435Y582516D01*
X440435Y692724D01*
X440424Y692795D01*
X440422Y692867D01*
X440404Y692915D01*
X440396Y692967D01*
X440362Y693030D01*
X440337Y693098D01*
X440305Y693138D01*
X440280Y693184D01*
X440228Y693234D01*
X440184Y693290D01*
X440140Y693318D01*
X440102Y693354D01*
X440037Y693384D01*
X439977Y693423D01*
X439926Y693435D01*
X439879Y693457D01*
X439808Y693465D01*
X439738Y693483D01*
X439686Y693479D01*
X439635Y693484D01*
X439564Y693469D01*
X439493Y693463D01*
X439445Y693443D01*
X439394Y693432D01*
X439333Y693395D01*
X439267Y693367D01*
X439211Y693322D01*
X439183Y693306D01*
X439168Y693288D01*
X439136Y693262D01*
X436836Y690963D01*
X433568Y689609D01*
X430032Y689609D01*
X426764Y690963D01*
X424263Y693464D01*
X422909Y696732D01*
X422909Y700268D01*
X424263Y703536D01*
X426764Y706037D01*
X430032Y707391D01*
X433568Y707391D01*
X436836Y706037D01*
X439136Y703738D01*
X439194Y703696D01*
X439246Y703646D01*
X439293Y703624D01*
X439335Y703594D01*
X439404Y703573D01*
X439469Y703543D01*
X439521Y703537D01*
X439571Y703522D01*
X439642Y703524D01*
X439713Y703516D01*
X439764Y703527D01*
X439816Y703528D01*
X439884Y703553D01*
X439954Y703568D01*
X439999Y703595D01*
X440047Y703613D01*
X440103Y703657D01*
X440165Y703694D01*
X440199Y703734D01*
X440239Y703766D01*
X440278Y703827D01*
X440325Y703881D01*
X440344Y703929D01*
X440372Y703973D01*
X440390Y704043D01*
X440417Y704109D01*
X440425Y704181D01*
X440433Y704212D01*
X440431Y704235D01*
X440435Y704276D01*
X440435Y854369D01*
X440416Y854484D01*
X440399Y854600D01*
X440397Y854605D01*
X440396Y854612D01*
X440341Y854714D01*
X440288Y854819D01*
X440283Y854823D01*
X440280Y854829D01*
X440196Y854909D01*
X440112Y854991D01*
X440106Y854995D01*
X440102Y854998D01*
X440085Y855006D01*
X439965Y855072D01*
X439320Y855339D01*
X436747Y857912D01*
X435355Y861273D01*
X435355Y880151D01*
X436747Y883512D01*
X439320Y886085D01*
X442681Y887477D01*
X446319Y887477D01*
X449680Y886085D01*
X452253Y883512D01*
X453645Y880151D01*
X453645Y861273D01*
X452253Y857912D01*
X449680Y855339D01*
X449035Y855072D01*
X448935Y855011D01*
X448835Y854951D01*
X448831Y854946D01*
X448826Y854943D01*
X448751Y854852D01*
X448675Y854764D01*
X448673Y854758D01*
X448669Y854753D01*
X448627Y854645D01*
X448583Y854536D01*
X448582Y854528D01*
X448581Y854523D01*
X448580Y854505D01*
X448565Y854369D01*
X448565Y704276D01*
X448576Y704205D01*
X448578Y704133D01*
X448596Y704085D01*
X448604Y704033D01*
X448638Y703970D01*
X448663Y703902D01*
X448695Y703862D01*
X448720Y703816D01*
X448772Y703766D01*
X448816Y703710D01*
X448860Y703682D01*
X448898Y703646D01*
X448963Y703616D01*
X449023Y703577D01*
X449074Y703565D01*
X449121Y703543D01*
X449192Y703535D01*
X449262Y703517D01*
X449314Y703521D01*
X449365Y703516D01*
X449436Y703531D01*
X449507Y703537D01*
X449555Y703557D01*
X449606Y703568D01*
X449667Y703605D01*
X449733Y703633D01*
X449789Y703678D01*
X449817Y703694D01*
X449832Y703712D01*
X449864Y703738D01*
X452164Y706037D01*
X455432Y707391D01*
X458968Y707391D01*
X462236Y706037D01*
X464737Y703536D01*
X466091Y700268D01*
X466091Y696732D01*
X464737Y693464D01*
X462236Y690963D01*
X458968Y689609D01*
X455432Y689609D01*
X452164Y690963D01*
X449864Y693262D01*
X449806Y693304D01*
X449754Y693354D01*
X449707Y693376D01*
X449665Y693406D01*
X449596Y693427D01*
X449531Y693457D01*
X449479Y693463D01*
X449429Y693478D01*
X449358Y693476D01*
X449287Y693484D01*
X449236Y693473D01*
X449184Y693472D01*
X449116Y693447D01*
X449046Y693432D01*
X449001Y693405D01*
X448953Y693387D01*
X448897Y693343D01*
X448835Y693306D01*
X448801Y693266D01*
X448761Y693234D01*
X448722Y693173D01*
X448675Y693119D01*
X448656Y693071D01*
X448628Y693027D01*
X448610Y692957D01*
X448583Y692891D01*
X448575Y692819D01*
X448567Y692788D01*
X448569Y692765D01*
X448565Y692724D01*
X448565Y586199D01*
X448579Y586109D01*
X448587Y586018D01*
X448599Y585988D01*
X448604Y585956D01*
X448647Y585876D01*
X448683Y585792D01*
X448709Y585760D01*
X448720Y585739D01*
X448743Y585717D01*
X448788Y585661D01*
X479500Y554948D01*
X479595Y554880D01*
X479689Y554810D01*
X479695Y554808D01*
X479700Y554804D01*
X479811Y554770D01*
X479923Y554734D01*
X479929Y554734D01*
X479935Y554732D01*
X480052Y554735D01*
X480169Y554736D01*
X480176Y554738D01*
X480181Y554738D01*
X480199Y554745D01*
X480330Y554783D01*
X480832Y554991D01*
X484368Y554991D01*
X487636Y553637D01*
X490137Y551136D01*
X491491Y547868D01*
X491491Y544332D01*
X490137Y541064D01*
X487636Y538563D01*
X487135Y538355D01*
X487035Y538294D01*
X486935Y538234D01*
X486931Y538229D01*
X486926Y538225D01*
X486851Y538135D01*
X486775Y538047D01*
X486773Y538041D01*
X486769Y538036D01*
X486727Y537928D01*
X486683Y537818D01*
X486682Y537811D01*
X486681Y537806D01*
X486680Y537788D01*
X486665Y537652D01*
X486665Y522699D01*
X486679Y522609D01*
X486687Y522518D01*
X486699Y522488D01*
X486704Y522456D01*
X486747Y522376D01*
X486783Y522292D01*
X486809Y522260D01*
X486820Y522239D01*
X486843Y522217D01*
X486888Y522161D01*
X496761Y512288D01*
X499365Y509684D01*
X499365Y371943D01*
X499384Y371828D01*
X499401Y371712D01*
X499403Y371707D01*
X499404Y371700D01*
X499459Y371598D01*
X499512Y371493D01*
X499517Y371489D01*
X499520Y371483D01*
X499604Y371403D01*
X499688Y371321D01*
X499694Y371317D01*
X499698Y371314D01*
X499715Y371306D01*
X499835Y371240D01*
X500480Y370973D01*
X503053Y368400D01*
X504445Y365039D01*
X504445Y346161D01*
X503053Y342800D01*
X500480Y340227D01*
X499835Y339960D01*
X499735Y339899D01*
X499635Y339839D01*
X499631Y339834D01*
X499626Y339831D01*
X499551Y339740D01*
X499475Y339652D01*
X499473Y339646D01*
X499469Y339641D01*
X499427Y339533D01*
X499383Y339424D01*
X499382Y339416D01*
X499381Y339411D01*
X499380Y339393D01*
X499365Y339257D01*
X499365Y328516D01*
X478252Y307403D01*
X478199Y307329D01*
X478139Y307260D01*
X478127Y307230D01*
X478108Y307204D01*
X478081Y307117D01*
X478047Y307032D01*
X478043Y306991D01*
X478036Y306969D01*
X478037Y306936D01*
X478029Y306865D01*
X478029Y301433D01*
X473267Y296671D01*
X466533Y296671D01*
G37*
%LPD*%
%LPC*%
G36*
X226832Y689609D02*
X226832Y689609D01*
X223564Y690963D01*
X221063Y693464D01*
X219709Y696732D01*
X219709Y700268D01*
X221063Y703536D01*
X223564Y706037D01*
X224065Y706245D01*
X224165Y706306D01*
X224265Y706366D01*
X224269Y706371D01*
X224274Y706375D01*
X224349Y706465D01*
X224425Y706553D01*
X224427Y706559D01*
X224431Y706564D01*
X224473Y706672D01*
X224517Y706782D01*
X224518Y706789D01*
X224519Y706794D01*
X224520Y706812D01*
X224535Y706948D01*
X224535Y792513D01*
X224521Y792603D01*
X224513Y792694D01*
X224501Y792724D01*
X224496Y792756D01*
X224453Y792836D01*
X224417Y792920D01*
X224391Y792952D01*
X224380Y792973D01*
X224357Y792995D01*
X224312Y793051D01*
X163640Y853724D01*
X163620Y853744D01*
X163566Y853783D01*
X163519Y853829D01*
X163447Y853869D01*
X163420Y853888D01*
X163401Y853894D01*
X163372Y853910D01*
X159920Y855339D01*
X157347Y857912D01*
X155955Y861273D01*
X155955Y878125D01*
X155944Y878195D01*
X155942Y878267D01*
X155924Y878316D01*
X155916Y878368D01*
X155882Y878431D01*
X155857Y878498D01*
X155825Y878539D01*
X155800Y878585D01*
X155748Y878634D01*
X155704Y878690D01*
X155660Y878718D01*
X155622Y878754D01*
X155557Y878784D01*
X155497Y878823D01*
X155446Y878836D01*
X155399Y878858D01*
X155328Y878866D01*
X155258Y878883D01*
X155206Y878879D01*
X155155Y878885D01*
X155084Y878870D01*
X155013Y878864D01*
X154965Y878844D01*
X154914Y878833D01*
X154853Y878796D01*
X154787Y878768D01*
X154731Y878723D01*
X154703Y878707D01*
X154688Y878689D01*
X154656Y878663D01*
X149068Y873075D01*
X149015Y873001D01*
X148955Y872932D01*
X148943Y872901D01*
X148924Y872875D01*
X148897Y872788D01*
X148863Y872703D01*
X148859Y872662D01*
X148852Y872640D01*
X148853Y872608D01*
X148845Y872537D01*
X148845Y861273D01*
X147453Y857912D01*
X144880Y855339D01*
X141519Y853947D01*
X137881Y853947D01*
X134520Y855339D01*
X131947Y857912D01*
X130555Y861273D01*
X130555Y880151D01*
X131947Y883512D01*
X134520Y886085D01*
X137881Y887477D01*
X141519Y887477D01*
X144880Y886085D01*
X147192Y883773D01*
X147208Y883761D01*
X147221Y883745D01*
X147308Y883689D01*
X147392Y883629D01*
X147411Y883623D01*
X147428Y883612D01*
X147528Y883587D01*
X147627Y883557D01*
X147647Y883557D01*
X147666Y883552D01*
X147769Y883560D01*
X147873Y883563D01*
X147891Y883570D01*
X147911Y883571D01*
X148006Y883612D01*
X148104Y883648D01*
X148119Y883660D01*
X148138Y883668D01*
X148269Y883773D01*
X155973Y891477D01*
X158577Y894081D01*
X222423Y894081D01*
X225027Y891477D01*
X232731Y883773D01*
X232748Y883761D01*
X232760Y883745D01*
X232847Y883689D01*
X232931Y883629D01*
X232950Y883623D01*
X232967Y883612D01*
X233067Y883587D01*
X233166Y883557D01*
X233186Y883557D01*
X233206Y883552D01*
X233308Y883560D01*
X233412Y883563D01*
X233431Y883570D01*
X233451Y883571D01*
X233546Y883612D01*
X233643Y883648D01*
X233659Y883660D01*
X233677Y883668D01*
X233808Y883773D01*
X236120Y886085D01*
X239481Y887477D01*
X243119Y887477D01*
X246480Y886085D01*
X249053Y883512D01*
X250445Y880151D01*
X250445Y861273D01*
X249053Y857912D01*
X246480Y855339D01*
X245835Y855072D01*
X245735Y855011D01*
X245635Y854951D01*
X245631Y854946D01*
X245626Y854943D01*
X245551Y854852D01*
X245475Y854764D01*
X245473Y854758D01*
X245469Y854753D01*
X245427Y854645D01*
X245383Y854536D01*
X245382Y854528D01*
X245381Y854523D01*
X245380Y854505D01*
X245365Y854369D01*
X245365Y829255D01*
X245367Y829240D01*
X245366Y829226D01*
X245380Y829162D01*
X245387Y829074D01*
X245399Y829045D01*
X245404Y829013D01*
X245418Y828988D01*
X245418Y828986D01*
X245424Y828976D01*
X245447Y828932D01*
X245483Y828848D01*
X245509Y828816D01*
X245520Y828795D01*
X245543Y828773D01*
X245588Y828717D01*
X246607Y827698D01*
X246607Y823302D01*
X243498Y820193D01*
X239102Y820193D01*
X235993Y823302D01*
X235993Y827698D01*
X237012Y828717D01*
X237065Y828791D01*
X237125Y828861D01*
X237137Y828891D01*
X237156Y828917D01*
X237183Y829004D01*
X237195Y829034D01*
X237207Y829061D01*
X237208Y829066D01*
X237217Y829089D01*
X237221Y829130D01*
X237228Y829152D01*
X237227Y829184D01*
X237235Y829255D01*
X237235Y854369D01*
X237216Y854484D01*
X237199Y854600D01*
X237197Y854605D01*
X237196Y854612D01*
X237141Y854714D01*
X237088Y854819D01*
X237083Y854823D01*
X237080Y854829D01*
X236996Y854909D01*
X236912Y854991D01*
X236906Y854995D01*
X236902Y854998D01*
X236885Y855006D01*
X236765Y855072D01*
X236120Y855339D01*
X233547Y857912D01*
X232155Y861273D01*
X232155Y872537D01*
X232141Y872627D01*
X232133Y872718D01*
X232121Y872747D01*
X232116Y872779D01*
X232073Y872860D01*
X232037Y872944D01*
X232011Y872976D01*
X232000Y872997D01*
X231977Y873019D01*
X231932Y873075D01*
X226344Y878663D01*
X226286Y878705D01*
X226234Y878754D01*
X226187Y878776D01*
X226145Y878807D01*
X226076Y878828D01*
X226011Y878858D01*
X225959Y878864D01*
X225909Y878879D01*
X225838Y878877D01*
X225767Y878885D01*
X225716Y878874D01*
X225664Y878873D01*
X225596Y878848D01*
X225526Y878833D01*
X225481Y878806D01*
X225433Y878788D01*
X225377Y878743D01*
X225315Y878707D01*
X225281Y878667D01*
X225241Y878634D01*
X225202Y878574D01*
X225155Y878520D01*
X225136Y878471D01*
X225108Y878428D01*
X225090Y878358D01*
X225063Y878291D01*
X225055Y878220D01*
X225047Y878189D01*
X225049Y878166D01*
X225045Y878125D01*
X225045Y861273D01*
X223653Y857912D01*
X221080Y855339D01*
X217719Y853947D01*
X214081Y853947D01*
X210720Y855339D01*
X208147Y857912D01*
X206755Y861273D01*
X206755Y880151D01*
X208147Y883512D01*
X209287Y884652D01*
X209329Y884710D01*
X209378Y884762D01*
X209400Y884809D01*
X209431Y884851D01*
X209452Y884920D01*
X209482Y884985D01*
X209488Y885037D01*
X209503Y885087D01*
X209501Y885158D01*
X209509Y885229D01*
X209498Y885280D01*
X209497Y885332D01*
X209472Y885400D01*
X209457Y885470D01*
X209430Y885515D01*
X209412Y885563D01*
X209367Y885619D01*
X209331Y885681D01*
X209291Y885715D01*
X209259Y885755D01*
X209198Y885794D01*
X209144Y885841D01*
X209095Y885860D01*
X209052Y885888D01*
X208982Y885906D01*
X208916Y885933D01*
X208844Y885941D01*
X208813Y885949D01*
X208790Y885947D01*
X208749Y885951D01*
X197651Y885951D01*
X197580Y885940D01*
X197509Y885938D01*
X197460Y885920D01*
X197408Y885912D01*
X197345Y885878D01*
X197278Y885853D01*
X197237Y885821D01*
X197191Y885796D01*
X197142Y885744D01*
X197086Y885700D01*
X197057Y885656D01*
X197022Y885618D01*
X196991Y885553D01*
X196953Y885493D01*
X196940Y885442D01*
X196918Y885395D01*
X196910Y885324D01*
X196893Y885254D01*
X196897Y885202D01*
X196891Y885151D01*
X196906Y885080D01*
X196912Y885009D01*
X196932Y884961D01*
X196943Y884910D01*
X196980Y884849D01*
X197008Y884783D01*
X197053Y884727D01*
X197069Y884699D01*
X197087Y884684D01*
X197113Y884652D01*
X198253Y883512D01*
X199645Y880151D01*
X199645Y861273D01*
X198253Y857912D01*
X195680Y855339D01*
X195035Y855072D01*
X194935Y855011D01*
X194835Y854951D01*
X194831Y854946D01*
X194826Y854943D01*
X194751Y854852D01*
X194675Y854764D01*
X194673Y854758D01*
X194669Y854753D01*
X194627Y854645D01*
X194583Y854536D01*
X194582Y854528D01*
X194581Y854523D01*
X194580Y854505D01*
X194565Y854369D01*
X194565Y852899D01*
X194579Y852809D01*
X194587Y852718D01*
X194599Y852688D01*
X194604Y852656D01*
X194647Y852576D01*
X194683Y852492D01*
X194709Y852460D01*
X194720Y852439D01*
X194743Y852417D01*
X194788Y852361D01*
X254219Y792930D01*
X254293Y792877D01*
X254362Y792817D01*
X254392Y792805D01*
X254418Y792786D01*
X254505Y792759D01*
X254590Y792725D01*
X254631Y792721D01*
X254654Y792714D01*
X254686Y792715D01*
X254757Y792707D01*
X256198Y792707D01*
X259307Y789598D01*
X259307Y785202D01*
X256198Y782093D01*
X251802Y782093D01*
X248693Y785202D01*
X248693Y786643D01*
X248691Y786660D01*
X248692Y786675D01*
X248678Y786741D01*
X248671Y786824D01*
X248659Y786854D01*
X248654Y786886D01*
X248642Y786908D01*
X248640Y786916D01*
X248620Y786948D01*
X248611Y786966D01*
X248575Y787050D01*
X248549Y787082D01*
X248538Y787103D01*
X248515Y787125D01*
X248470Y787181D01*
X186435Y849216D01*
X186435Y854369D01*
X186416Y854484D01*
X186399Y854600D01*
X186397Y854605D01*
X186396Y854612D01*
X186341Y854714D01*
X186288Y854819D01*
X186283Y854823D01*
X186280Y854829D01*
X186196Y854909D01*
X186112Y854991D01*
X186106Y854995D01*
X186102Y854998D01*
X186085Y855006D01*
X185965Y855072D01*
X185320Y855339D01*
X182747Y857912D01*
X181355Y861273D01*
X181355Y880151D01*
X182747Y883512D01*
X183887Y884652D01*
X183929Y884710D01*
X183978Y884762D01*
X184000Y884809D01*
X184031Y884851D01*
X184052Y884920D01*
X184082Y884985D01*
X184088Y885037D01*
X184103Y885087D01*
X184101Y885158D01*
X184109Y885229D01*
X184098Y885280D01*
X184097Y885332D01*
X184072Y885400D01*
X184057Y885470D01*
X184030Y885515D01*
X184012Y885563D01*
X183967Y885619D01*
X183931Y885681D01*
X183891Y885715D01*
X183859Y885755D01*
X183798Y885794D01*
X183744Y885841D01*
X183695Y885860D01*
X183652Y885888D01*
X183582Y885906D01*
X183516Y885933D01*
X183444Y885941D01*
X183413Y885949D01*
X183390Y885947D01*
X183349Y885951D01*
X172251Y885951D01*
X172180Y885940D01*
X172109Y885938D01*
X172060Y885920D01*
X172008Y885912D01*
X171945Y885878D01*
X171878Y885853D01*
X171837Y885821D01*
X171791Y885796D01*
X171742Y885744D01*
X171686Y885700D01*
X171657Y885656D01*
X171622Y885618D01*
X171591Y885553D01*
X171553Y885493D01*
X171540Y885442D01*
X171518Y885395D01*
X171510Y885324D01*
X171493Y885254D01*
X171497Y885202D01*
X171491Y885151D01*
X171506Y885080D01*
X171512Y885009D01*
X171532Y884961D01*
X171543Y884910D01*
X171580Y884849D01*
X171608Y884783D01*
X171653Y884727D01*
X171669Y884699D01*
X171687Y884684D01*
X171713Y884652D01*
X172853Y883512D01*
X174245Y880151D01*
X174245Y861273D01*
X172853Y857912D01*
X172439Y857498D01*
X172427Y857482D01*
X172412Y857470D01*
X172356Y857382D01*
X172295Y857298D01*
X172289Y857279D01*
X172279Y857263D01*
X172253Y857162D01*
X172223Y857063D01*
X172223Y857043D01*
X172219Y857024D01*
X172227Y856921D01*
X172229Y856817D01*
X172236Y856799D01*
X172238Y856779D01*
X172278Y856684D01*
X172314Y856586D01*
X172326Y856571D01*
X172334Y856553D01*
X172439Y856422D01*
X230061Y798800D01*
X232665Y796196D01*
X232665Y745864D01*
X232676Y745793D01*
X232678Y745722D01*
X232696Y745673D01*
X232704Y745621D01*
X232738Y745558D01*
X232763Y745491D01*
X232795Y745450D01*
X232820Y745404D01*
X232872Y745355D01*
X232916Y745299D01*
X232960Y745270D01*
X232998Y745235D01*
X233063Y745204D01*
X233123Y745166D01*
X233174Y745153D01*
X233221Y745131D01*
X233292Y745123D01*
X233362Y745106D01*
X233414Y745110D01*
X233465Y745104D01*
X233536Y745119D01*
X233607Y745125D01*
X233655Y745145D01*
X233706Y745156D01*
X233767Y745193D01*
X233833Y745221D01*
X233889Y745266D01*
X233917Y745282D01*
X233932Y745300D01*
X233964Y745326D01*
X313212Y824574D01*
X313265Y824648D01*
X313325Y824717D01*
X313337Y824747D01*
X313356Y824774D01*
X313383Y824861D01*
X313417Y824945D01*
X313421Y824986D01*
X313428Y825009D01*
X313427Y825041D01*
X313435Y825112D01*
X313435Y854369D01*
X313416Y854484D01*
X313399Y854600D01*
X313397Y854605D01*
X313396Y854612D01*
X313341Y854714D01*
X313288Y854819D01*
X313283Y854823D01*
X313280Y854829D01*
X313196Y854909D01*
X313112Y854991D01*
X313106Y854995D01*
X313102Y854998D01*
X313085Y855006D01*
X312965Y855072D01*
X312320Y855339D01*
X309747Y857912D01*
X308355Y861273D01*
X308355Y880151D01*
X309747Y883512D01*
X312320Y886085D01*
X315681Y887477D01*
X319319Y887477D01*
X322680Y886085D01*
X325253Y883512D01*
X326645Y880151D01*
X326645Y861273D01*
X325253Y857912D01*
X322680Y855339D01*
X322035Y855072D01*
X321935Y855011D01*
X321835Y854951D01*
X321831Y854946D01*
X321826Y854943D01*
X321751Y854852D01*
X321675Y854764D01*
X321673Y854758D01*
X321669Y854753D01*
X321627Y854645D01*
X321583Y854536D01*
X321582Y854528D01*
X321581Y854523D01*
X321580Y854505D01*
X321565Y854369D01*
X321565Y821429D01*
X232888Y732752D01*
X232835Y732678D01*
X232775Y732609D01*
X232763Y732579D01*
X232744Y732553D01*
X232717Y732466D01*
X232683Y732381D01*
X232679Y732340D01*
X232672Y732318D01*
X232673Y732285D01*
X232665Y732214D01*
X232665Y706948D01*
X232684Y706833D01*
X232701Y706717D01*
X232703Y706712D01*
X232704Y706705D01*
X232759Y706603D01*
X232812Y706498D01*
X232817Y706494D01*
X232820Y706488D01*
X232904Y706408D01*
X232988Y706326D01*
X232994Y706322D01*
X232998Y706319D01*
X233015Y706311D01*
X233135Y706245D01*
X233636Y706037D01*
X236137Y703536D01*
X237491Y700268D01*
X237491Y696732D01*
X236137Y693464D01*
X233636Y690963D01*
X230368Y689609D01*
X226832Y689609D01*
G37*
%LPD*%
%LPC*%
G36*
X199833Y322071D02*
X199833Y322071D01*
X195071Y326833D01*
X195071Y333567D01*
X199833Y338329D01*
X205265Y338329D01*
X205355Y338343D01*
X205446Y338351D01*
X205476Y338363D01*
X205508Y338368D01*
X205588Y338411D01*
X205672Y338447D01*
X205704Y338473D01*
X205725Y338484D01*
X205747Y338507D01*
X205803Y338552D01*
X237012Y369761D01*
X237065Y369835D01*
X237125Y369904D01*
X237137Y369934D01*
X237156Y369960D01*
X237183Y370047D01*
X237217Y370132D01*
X237221Y370173D01*
X237228Y370196D01*
X237227Y370228D01*
X237235Y370299D01*
X237235Y458884D01*
X321352Y543000D01*
X321419Y543094D01*
X321490Y543189D01*
X321492Y543195D01*
X321496Y543200D01*
X321530Y543311D01*
X321566Y543423D01*
X321566Y543429D01*
X321568Y543435D01*
X321565Y543551D01*
X321564Y543669D01*
X321562Y543676D01*
X321562Y543681D01*
X321555Y543699D01*
X321517Y543830D01*
X321309Y544331D01*
X321309Y547868D01*
X322663Y551136D01*
X325164Y553637D01*
X328432Y554991D01*
X331968Y554991D01*
X335236Y553637D01*
X337737Y551136D01*
X339091Y547868D01*
X339091Y544332D01*
X337737Y541064D01*
X335236Y538563D01*
X331968Y537209D01*
X328431Y537209D01*
X327930Y537417D01*
X327817Y537444D01*
X327703Y537472D01*
X327697Y537472D01*
X327691Y537473D01*
X327574Y537462D01*
X327458Y537453D01*
X327452Y537451D01*
X327446Y537450D01*
X327338Y537402D01*
X327231Y537357D01*
X327226Y537352D01*
X327221Y537350D01*
X327207Y537337D01*
X327100Y537252D01*
X245588Y455739D01*
X245535Y455665D01*
X245475Y455596D01*
X245463Y455566D01*
X245444Y455540D01*
X245417Y455453D01*
X245383Y455368D01*
X245379Y455327D01*
X245372Y455304D01*
X245373Y455272D01*
X245365Y455201D01*
X245365Y366616D01*
X211552Y332803D01*
X211499Y332729D01*
X211439Y332660D01*
X211427Y332630D01*
X211408Y332604D01*
X211381Y332517D01*
X211347Y332432D01*
X211343Y332391D01*
X211336Y332369D01*
X211337Y332336D01*
X211329Y332265D01*
X211329Y326833D01*
X206567Y322071D01*
X199833Y322071D01*
G37*
%LPD*%
%LPC*%
G36*
X277632Y689609D02*
X277632Y689609D01*
X274364Y690963D01*
X271863Y693464D01*
X270509Y696732D01*
X270509Y700268D01*
X271863Y703536D01*
X274364Y706037D01*
X277632Y707391D01*
X281253Y707391D01*
X281343Y707405D01*
X281434Y707413D01*
X281464Y707425D01*
X281496Y707430D01*
X281577Y707473D01*
X281661Y707509D01*
X281693Y707535D01*
X281714Y707546D01*
X281736Y707569D01*
X281792Y707614D01*
X338612Y764434D01*
X338665Y764508D01*
X338725Y764578D01*
X338737Y764608D01*
X338756Y764634D01*
X338783Y764721D01*
X338817Y764806D01*
X338821Y764847D01*
X338828Y764869D01*
X338827Y764901D01*
X338835Y764973D01*
X338835Y854369D01*
X338816Y854484D01*
X338799Y854600D01*
X338797Y854605D01*
X338796Y854612D01*
X338741Y854714D01*
X338688Y854819D01*
X338683Y854823D01*
X338680Y854829D01*
X338596Y854909D01*
X338512Y854991D01*
X338506Y854995D01*
X338502Y854998D01*
X338485Y855006D01*
X338365Y855072D01*
X337720Y855339D01*
X335147Y857912D01*
X333755Y861273D01*
X333755Y880151D01*
X335147Y883512D01*
X337720Y886085D01*
X341081Y887477D01*
X344719Y887477D01*
X348080Y886085D01*
X350653Y883512D01*
X352045Y880151D01*
X352045Y861273D01*
X350653Y857912D01*
X348080Y855339D01*
X347435Y855072D01*
X347335Y855011D01*
X347235Y854951D01*
X347231Y854946D01*
X347226Y854943D01*
X347151Y854852D01*
X347075Y854764D01*
X347073Y854758D01*
X347069Y854753D01*
X347027Y854645D01*
X346983Y854536D01*
X346982Y854528D01*
X346981Y854523D01*
X346980Y854505D01*
X346965Y854369D01*
X346965Y761290D01*
X344361Y758686D01*
X287963Y702288D01*
X287895Y702193D01*
X287825Y702099D01*
X287823Y702093D01*
X287819Y702088D01*
X287785Y701977D01*
X287749Y701866D01*
X287749Y701859D01*
X287747Y701853D01*
X287750Y701737D01*
X287751Y701620D01*
X287753Y701612D01*
X287753Y701607D01*
X287760Y701590D01*
X287798Y701458D01*
X288291Y700268D01*
X288291Y696732D01*
X286937Y693464D01*
X284436Y690963D01*
X281168Y689609D01*
X277632Y689609D01*
G37*
%LPD*%
%LPC*%
G36*
X454813Y117220D02*
X454813Y117220D01*
X450401Y119048D01*
X447025Y122424D01*
X445198Y126835D01*
X445198Y152565D01*
X447025Y156976D01*
X450401Y160352D01*
X452665Y161290D01*
X452765Y161352D01*
X452865Y161412D01*
X452869Y161417D01*
X452874Y161420D01*
X452949Y161510D01*
X453025Y161599D01*
X453027Y161605D01*
X453031Y161609D01*
X453073Y161718D01*
X453117Y161827D01*
X453118Y161834D01*
X453119Y161839D01*
X453120Y161857D01*
X453135Y161994D01*
X453135Y179484D01*
X477070Y203419D01*
X477123Y203493D01*
X477183Y203562D01*
X477195Y203592D01*
X477214Y203618D01*
X477241Y203705D01*
X477275Y203790D01*
X477279Y203831D01*
X477286Y203854D01*
X477285Y203886D01*
X477293Y203957D01*
X477293Y205398D01*
X480402Y208507D01*
X484798Y208507D01*
X487907Y205398D01*
X487907Y201002D01*
X484798Y197893D01*
X483357Y197893D01*
X483267Y197879D01*
X483176Y197871D01*
X483146Y197859D01*
X483114Y197854D01*
X483034Y197811D01*
X482950Y197775D01*
X482918Y197749D01*
X482897Y197738D01*
X482875Y197715D01*
X482819Y197670D01*
X461488Y176339D01*
X461435Y176265D01*
X461375Y176196D01*
X461363Y176166D01*
X461344Y176140D01*
X461317Y176053D01*
X461283Y175968D01*
X461279Y175927D01*
X461272Y175904D01*
X461273Y175872D01*
X461265Y175801D01*
X461265Y161994D01*
X461284Y161879D01*
X461301Y161763D01*
X461303Y161757D01*
X461304Y161751D01*
X461359Y161648D01*
X461412Y161543D01*
X461417Y161539D01*
X461420Y161533D01*
X461504Y161454D01*
X461588Y161371D01*
X461594Y161368D01*
X461598Y161364D01*
X461615Y161356D01*
X461735Y161290D01*
X463999Y160352D01*
X467375Y156976D01*
X469202Y152565D01*
X469202Y126835D01*
X467375Y122424D01*
X463999Y119048D01*
X459587Y117220D01*
X454813Y117220D01*
G37*
%LPD*%
%LPC*%
G36*
X201432Y638809D02*
X201432Y638809D01*
X198164Y640163D01*
X195663Y642664D01*
X194309Y645932D01*
X194309Y649468D01*
X195663Y652736D01*
X197962Y655036D01*
X198004Y655094D01*
X198054Y655146D01*
X198076Y655193D01*
X198106Y655235D01*
X198127Y655304D01*
X198157Y655369D01*
X198163Y655421D01*
X198178Y655471D01*
X198176Y655542D01*
X198184Y655613D01*
X198173Y655664D01*
X198172Y655716D01*
X198147Y655784D01*
X198132Y655854D01*
X198105Y655899D01*
X198087Y655947D01*
X198043Y656003D01*
X198006Y656065D01*
X197966Y656099D01*
X197934Y656139D01*
X197873Y656178D01*
X197819Y656225D01*
X197771Y656244D01*
X197727Y656272D01*
X197657Y656290D01*
X197591Y656317D01*
X197519Y656325D01*
X197488Y656333D01*
X197465Y656331D01*
X197424Y656335D01*
X143455Y656335D01*
X143365Y656321D01*
X143274Y656313D01*
X143245Y656301D01*
X143213Y656296D01*
X143132Y656253D01*
X143048Y656217D01*
X143016Y656191D01*
X142995Y656180D01*
X142973Y656157D01*
X142917Y656112D01*
X141898Y655093D01*
X137502Y655093D01*
X134393Y658202D01*
X134393Y662598D01*
X137502Y665707D01*
X141898Y665707D01*
X142917Y664688D01*
X142991Y664635D01*
X143061Y664575D01*
X143091Y664563D01*
X143117Y664544D01*
X143204Y664517D01*
X143289Y664483D01*
X143330Y664479D01*
X143352Y664472D01*
X143384Y664473D01*
X143455Y664465D01*
X197424Y664465D01*
X197495Y664476D01*
X197567Y664478D01*
X197615Y664496D01*
X197667Y664504D01*
X197730Y664538D01*
X197798Y664563D01*
X197838Y664595D01*
X197884Y664620D01*
X197934Y664672D01*
X197990Y664716D01*
X198018Y664760D01*
X198054Y664798D01*
X198084Y664863D01*
X198123Y664923D01*
X198135Y664974D01*
X198157Y665021D01*
X198165Y665092D01*
X198183Y665162D01*
X198179Y665214D01*
X198184Y665265D01*
X198169Y665336D01*
X198163Y665407D01*
X198143Y665455D01*
X198132Y665506D01*
X198095Y665567D01*
X198067Y665633D01*
X198022Y665689D01*
X198006Y665717D01*
X197988Y665732D01*
X197962Y665764D01*
X195663Y668064D01*
X194309Y671332D01*
X194309Y674868D01*
X195663Y678136D01*
X198164Y680637D01*
X201432Y681991D01*
X204968Y681991D01*
X208236Y680637D01*
X210737Y678136D01*
X212091Y674868D01*
X212091Y671332D01*
X210737Y668064D01*
X208438Y665764D01*
X208396Y665706D01*
X208346Y665654D01*
X208324Y665607D01*
X208294Y665565D01*
X208273Y665496D01*
X208243Y665431D01*
X208237Y665379D01*
X208222Y665329D01*
X208224Y665258D01*
X208216Y665187D01*
X208227Y665136D01*
X208228Y665084D01*
X208253Y665016D01*
X208268Y664946D01*
X208295Y664901D01*
X208313Y664853D01*
X208357Y664797D01*
X208394Y664735D01*
X208434Y664701D01*
X208466Y664661D01*
X208527Y664622D01*
X208581Y664575D01*
X208629Y664556D01*
X208673Y664528D01*
X208743Y664510D01*
X208809Y664483D01*
X208881Y664475D01*
X208912Y664467D01*
X208935Y664469D01*
X208976Y664465D01*
X224845Y664465D01*
X224935Y664479D01*
X225026Y664487D01*
X225055Y664499D01*
X225087Y664504D01*
X225168Y664547D01*
X225252Y664583D01*
X225284Y664609D01*
X225305Y664620D01*
X225327Y664643D01*
X225383Y664688D01*
X226402Y665707D01*
X230798Y665707D01*
X233907Y662598D01*
X233907Y658202D01*
X230798Y655093D01*
X226402Y655093D01*
X225383Y656112D01*
X225309Y656165D01*
X225239Y656225D01*
X225209Y656237D01*
X225183Y656256D01*
X225096Y656283D01*
X225011Y656317D01*
X224970Y656321D01*
X224948Y656328D01*
X224916Y656327D01*
X224845Y656335D01*
X208976Y656335D01*
X208905Y656324D01*
X208833Y656322D01*
X208785Y656304D01*
X208733Y656296D01*
X208670Y656262D01*
X208602Y656237D01*
X208562Y656205D01*
X208516Y656180D01*
X208466Y656128D01*
X208410Y656084D01*
X208382Y656040D01*
X208346Y656002D01*
X208316Y655937D01*
X208277Y655877D01*
X208265Y655826D01*
X208243Y655779D01*
X208235Y655708D01*
X208217Y655638D01*
X208221Y655586D01*
X208216Y655535D01*
X208231Y655464D01*
X208237Y655393D01*
X208257Y655345D01*
X208268Y655294D01*
X208305Y655233D01*
X208333Y655167D01*
X208378Y655111D01*
X208394Y655083D01*
X208412Y655068D01*
X208438Y655036D01*
X210737Y652736D01*
X212091Y649468D01*
X212091Y645932D01*
X210737Y642664D01*
X208236Y640163D01*
X204968Y638809D01*
X201432Y638809D01*
G37*
%LPD*%
%LPC*%
G36*
X263333Y791971D02*
X263333Y791971D01*
X258571Y796733D01*
X258571Y803467D01*
X262412Y807308D01*
X262465Y807382D01*
X262525Y807451D01*
X262537Y807482D01*
X262556Y807508D01*
X262583Y807595D01*
X262617Y807680D01*
X262621Y807721D01*
X262628Y807743D01*
X262627Y807775D01*
X262635Y807846D01*
X262635Y854369D01*
X262616Y854484D01*
X262599Y854600D01*
X262597Y854605D01*
X262596Y854612D01*
X262541Y854714D01*
X262488Y854819D01*
X262483Y854823D01*
X262480Y854829D01*
X262396Y854909D01*
X262312Y854991D01*
X262306Y854995D01*
X262302Y854998D01*
X262285Y855006D01*
X262165Y855072D01*
X261520Y855339D01*
X258947Y857912D01*
X257555Y861273D01*
X257555Y880151D01*
X258947Y883512D01*
X261520Y886085D01*
X264881Y887477D01*
X268519Y887477D01*
X271880Y886085D01*
X274453Y883512D01*
X275845Y880151D01*
X275845Y861273D01*
X274453Y857912D01*
X271880Y855339D01*
X271235Y855072D01*
X271135Y855011D01*
X271035Y854951D01*
X271031Y854946D01*
X271026Y854943D01*
X270951Y854852D01*
X270875Y854764D01*
X270873Y854758D01*
X270869Y854753D01*
X270827Y854645D01*
X270783Y854536D01*
X270782Y854528D01*
X270781Y854523D01*
X270780Y854505D01*
X270765Y854369D01*
X270765Y807846D01*
X270779Y807756D01*
X270787Y807665D01*
X270799Y807636D01*
X270804Y807604D01*
X270847Y807523D01*
X270883Y807439D01*
X270909Y807407D01*
X270920Y807386D01*
X270943Y807364D01*
X270988Y807308D01*
X274829Y803467D01*
X274829Y796733D01*
X270067Y791971D01*
X263333Y791971D01*
G37*
%LPD*%
%LPC*%
G36*
X252232Y689609D02*
X252232Y689609D01*
X248964Y690963D01*
X246463Y693464D01*
X245109Y696732D01*
X245109Y700268D01*
X246463Y703536D01*
X248964Y706037D01*
X252232Y707391D01*
X255769Y707391D01*
X256270Y707183D01*
X256383Y707156D01*
X256497Y707128D01*
X256503Y707128D01*
X256509Y707127D01*
X256626Y707138D01*
X256742Y707147D01*
X256748Y707149D01*
X256754Y707150D01*
X256862Y707198D01*
X256969Y707243D01*
X256974Y707248D01*
X256979Y707250D01*
X256993Y707263D01*
X257100Y707348D01*
X324670Y774919D01*
X324723Y774993D01*
X324783Y775062D01*
X324795Y775092D01*
X324814Y775118D01*
X324841Y775205D01*
X324875Y775290D01*
X324879Y775331D01*
X324886Y775354D01*
X324885Y775386D01*
X324893Y775457D01*
X324893Y776898D01*
X328002Y780007D01*
X332398Y780007D01*
X335507Y776898D01*
X335507Y772502D01*
X332398Y769393D01*
X330957Y769393D01*
X330867Y769379D01*
X330776Y769371D01*
X330746Y769359D01*
X330714Y769354D01*
X330634Y769311D01*
X330550Y769275D01*
X330518Y769249D01*
X330497Y769238D01*
X330475Y769215D01*
X330419Y769170D01*
X262848Y701600D01*
X262781Y701506D01*
X262710Y701411D01*
X262708Y701405D01*
X262704Y701400D01*
X262670Y701289D01*
X262634Y701177D01*
X262634Y701171D01*
X262632Y701165D01*
X262635Y701048D01*
X262636Y700931D01*
X262638Y700924D01*
X262638Y700919D01*
X262645Y700902D01*
X262683Y700770D01*
X262891Y700269D01*
X262891Y696732D01*
X261537Y693464D01*
X259036Y690963D01*
X255768Y689609D01*
X252232Y689609D01*
G37*
%LPD*%
%LPC*%
G36*
X390333Y296671D02*
X390333Y296671D01*
X385571Y301433D01*
X385571Y306865D01*
X385557Y306955D01*
X385549Y307046D01*
X385537Y307076D01*
X385532Y307108D01*
X385489Y307188D01*
X385453Y307272D01*
X385427Y307304D01*
X385416Y307325D01*
X385393Y307347D01*
X385348Y307403D01*
X366839Y325912D01*
X364235Y328516D01*
X364235Y339257D01*
X364216Y339372D01*
X364199Y339488D01*
X364197Y339493D01*
X364196Y339500D01*
X364141Y339602D01*
X364088Y339707D01*
X364083Y339711D01*
X364080Y339717D01*
X363996Y339797D01*
X363912Y339879D01*
X363906Y339883D01*
X363902Y339886D01*
X363885Y339894D01*
X363765Y339960D01*
X363120Y340227D01*
X360547Y342800D01*
X359155Y346161D01*
X359155Y365039D01*
X360547Y368400D01*
X363120Y370973D01*
X366481Y372365D01*
X370119Y372365D01*
X373480Y370973D01*
X376053Y368400D01*
X377445Y365039D01*
X377445Y346161D01*
X376053Y342800D01*
X373480Y340227D01*
X372835Y339960D01*
X372735Y339899D01*
X372635Y339839D01*
X372631Y339834D01*
X372626Y339831D01*
X372551Y339740D01*
X372475Y339652D01*
X372473Y339646D01*
X372469Y339641D01*
X372427Y339533D01*
X372383Y339424D01*
X372382Y339416D01*
X372381Y339411D01*
X372380Y339393D01*
X372365Y339257D01*
X372365Y332199D01*
X372379Y332109D01*
X372387Y332018D01*
X372399Y331988D01*
X372404Y331956D01*
X372447Y331876D01*
X372483Y331792D01*
X372509Y331760D01*
X372520Y331739D01*
X372543Y331717D01*
X372588Y331661D01*
X391097Y313152D01*
X391171Y313099D01*
X391240Y313039D01*
X391270Y313027D01*
X391296Y313008D01*
X391383Y312981D01*
X391468Y312947D01*
X391509Y312943D01*
X391531Y312936D01*
X391564Y312937D01*
X391635Y312929D01*
X397067Y312929D01*
X401829Y308167D01*
X401829Y301433D01*
X397067Y296671D01*
X390333Y296671D01*
G37*
%LPD*%
%LPC*%
G36*
X213513Y117220D02*
X213513Y117220D01*
X209101Y119048D01*
X205725Y122424D01*
X203898Y126835D01*
X203898Y152565D01*
X205725Y156976D01*
X209101Y160352D01*
X213513Y162180D01*
X218287Y162180D01*
X222699Y160352D01*
X226075Y156976D01*
X227902Y152565D01*
X227902Y126835D01*
X226075Y122424D01*
X222699Y119048D01*
X218287Y117220D01*
X213513Y117220D01*
G37*
%LPD*%
%LPC*%
G36*
X404013Y117220D02*
X404013Y117220D01*
X399601Y119048D01*
X396225Y122424D01*
X394398Y126835D01*
X394398Y152565D01*
X396225Y156976D01*
X399601Y160352D01*
X404013Y162180D01*
X408787Y162180D01*
X413199Y160352D01*
X416575Y156976D01*
X418402Y152565D01*
X418402Y126835D01*
X416575Y122424D01*
X413199Y119048D01*
X408787Y117220D01*
X404013Y117220D01*
G37*
%LPD*%
%LPC*%
G36*
X505613Y117220D02*
X505613Y117220D01*
X501201Y119048D01*
X497825Y122424D01*
X495998Y126835D01*
X495998Y152565D01*
X497825Y156976D01*
X501201Y160352D01*
X505613Y162180D01*
X510387Y162180D01*
X514799Y160352D01*
X518175Y156976D01*
X520002Y152565D01*
X520002Y126835D01*
X518175Y122424D01*
X514799Y119048D01*
X510387Y117220D01*
X505613Y117220D01*
G37*
%LPD*%
%LPC*%
G36*
X162713Y117220D02*
X162713Y117220D01*
X158301Y119048D01*
X154925Y122424D01*
X153098Y126835D01*
X153098Y152565D01*
X154925Y156976D01*
X158301Y160352D01*
X162713Y162180D01*
X167487Y162180D01*
X171899Y160352D01*
X175275Y156976D01*
X177102Y152565D01*
X177102Y126835D01*
X175275Y122424D01*
X171899Y119048D01*
X167487Y117220D01*
X162713Y117220D01*
G37*
%LPD*%
%LPC*%
G36*
X417281Y338835D02*
X417281Y338835D01*
X413920Y340227D01*
X411347Y342800D01*
X409955Y346161D01*
X409955Y365039D01*
X411347Y368400D01*
X413920Y370973D01*
X417281Y372365D01*
X420919Y372365D01*
X424280Y370973D01*
X426853Y368400D01*
X428245Y365039D01*
X428245Y346161D01*
X426853Y342800D01*
X424280Y340227D01*
X420919Y338835D01*
X417281Y338835D01*
G37*
%LPD*%
%LPC*%
G36*
X391881Y338835D02*
X391881Y338835D01*
X388520Y340227D01*
X385947Y342800D01*
X384555Y346161D01*
X384555Y365039D01*
X385947Y368400D01*
X388520Y370973D01*
X391881Y372365D01*
X395519Y372365D01*
X398880Y370973D01*
X401453Y368400D01*
X402845Y365039D01*
X402845Y346161D01*
X401453Y342800D01*
X398880Y340227D01*
X395519Y338835D01*
X391881Y338835D01*
G37*
%LPD*%
%LPC*%
G36*
X366481Y853947D02*
X366481Y853947D01*
X363120Y855339D01*
X360547Y857912D01*
X359155Y861273D01*
X359155Y880151D01*
X360547Y883512D01*
X363120Y886085D01*
X366481Y887477D01*
X370119Y887477D01*
X373480Y886085D01*
X376053Y883512D01*
X377445Y880151D01*
X377445Y861273D01*
X376053Y857912D01*
X373480Y855339D01*
X370119Y853947D01*
X366481Y853947D01*
G37*
%LPD*%
%LPC*%
G36*
X290281Y853947D02*
X290281Y853947D01*
X286920Y855339D01*
X284347Y857912D01*
X282955Y861273D01*
X282955Y880151D01*
X284347Y883512D01*
X286920Y886085D01*
X290281Y887477D01*
X293919Y887477D01*
X297280Y886085D01*
X299853Y883512D01*
X301245Y880151D01*
X301245Y861273D01*
X299853Y857912D01*
X297280Y855339D01*
X293919Y853947D01*
X290281Y853947D01*
G37*
%LPD*%
%LPC*%
G36*
X112481Y853947D02*
X112481Y853947D01*
X109120Y855339D01*
X106547Y857912D01*
X105155Y861273D01*
X105155Y880151D01*
X106547Y883512D01*
X109120Y886085D01*
X112481Y887477D01*
X116119Y887477D01*
X119480Y886085D01*
X122053Y883512D01*
X123445Y880151D01*
X123445Y861273D01*
X122053Y857912D01*
X119480Y855339D01*
X116119Y853947D01*
X112481Y853947D01*
G37*
%LPD*%
%LPC*%
G36*
X391881Y853947D02*
X391881Y853947D01*
X388520Y855339D01*
X385947Y857912D01*
X384555Y861273D01*
X384555Y880151D01*
X385947Y883512D01*
X388520Y886085D01*
X391881Y887477D01*
X395519Y887477D01*
X398880Y886085D01*
X401453Y883512D01*
X402845Y880151D01*
X402845Y861273D01*
X401453Y857912D01*
X398880Y855339D01*
X395519Y853947D01*
X391881Y853947D01*
G37*
%LPD*%
%LPC*%
G36*
X417281Y237235D02*
X417281Y237235D01*
X413920Y238627D01*
X411347Y241200D01*
X409955Y244561D01*
X409955Y263439D01*
X411347Y266800D01*
X413920Y269373D01*
X417281Y270765D01*
X420919Y270765D01*
X424280Y269373D01*
X426853Y266800D01*
X428245Y263439D01*
X428245Y244561D01*
X426853Y241200D01*
X424280Y238627D01*
X420919Y237235D01*
X417281Y237235D01*
G37*
%LPD*%
%LPC*%
G36*
X391881Y237235D02*
X391881Y237235D01*
X388520Y238627D01*
X385947Y241200D01*
X384555Y244561D01*
X384555Y263439D01*
X385947Y266800D01*
X388520Y269373D01*
X391881Y270765D01*
X395519Y270765D01*
X398880Y269373D01*
X401453Y266800D01*
X402845Y263439D01*
X402845Y244561D01*
X401453Y241200D01*
X398880Y238627D01*
X395519Y237235D01*
X391881Y237235D01*
G37*
%LPD*%
%LPC*%
G36*
X468081Y237235D02*
X468081Y237235D01*
X464720Y238627D01*
X462147Y241200D01*
X460755Y244561D01*
X460755Y263439D01*
X462147Y266800D01*
X464720Y269373D01*
X468081Y270765D01*
X471719Y270765D01*
X475080Y269373D01*
X477653Y266800D01*
X479045Y263439D01*
X479045Y244561D01*
X477653Y241200D01*
X475080Y238627D01*
X471719Y237235D01*
X468081Y237235D01*
G37*
%LPD*%
%LPC*%
G36*
X442681Y237235D02*
X442681Y237235D01*
X439320Y238627D01*
X436747Y241200D01*
X435355Y244561D01*
X435355Y263439D01*
X436747Y266800D01*
X439320Y269373D01*
X442681Y270765D01*
X446319Y270765D01*
X449680Y269373D01*
X452253Y266800D01*
X453645Y263439D01*
X453645Y244561D01*
X452253Y241200D01*
X449680Y238627D01*
X446319Y237235D01*
X442681Y237235D01*
G37*
%LPD*%
%LPC*%
G36*
X318729Y43941D02*
X318729Y43941D01*
X315368Y45333D01*
X312795Y47906D01*
X311403Y51267D01*
X311403Y70145D01*
X312795Y73506D01*
X315368Y76079D01*
X318729Y77471D01*
X322367Y77471D01*
X325728Y76079D01*
X328301Y73506D01*
X329693Y70145D01*
X329693Y51267D01*
X328301Y47906D01*
X325728Y45333D01*
X322367Y43941D01*
X318729Y43941D01*
G37*
%LPD*%
%LPC*%
G36*
X468081Y338835D02*
X468081Y338835D01*
X464720Y340227D01*
X462147Y342800D01*
X460755Y346161D01*
X460755Y365039D01*
X462147Y368400D01*
X464720Y370973D01*
X468081Y372365D01*
X471719Y372365D01*
X475080Y370973D01*
X477653Y368400D01*
X479045Y365039D01*
X479045Y346161D01*
X477653Y342800D01*
X475080Y340227D01*
X471719Y338835D01*
X468081Y338835D01*
G37*
%LPD*%
%LPC*%
G36*
X293329Y43941D02*
X293329Y43941D01*
X289968Y45333D01*
X287395Y47906D01*
X286003Y51267D01*
X286003Y70145D01*
X287395Y73506D01*
X289968Y76079D01*
X293329Y77471D01*
X296967Y77471D01*
X300328Y76079D01*
X302901Y73506D01*
X304293Y70145D01*
X304293Y51267D01*
X302901Y47906D01*
X300328Y45333D01*
X296967Y43941D01*
X293329Y43941D01*
G37*
%LPD*%
%LPC*%
G36*
X267929Y43941D02*
X267929Y43941D01*
X264568Y45333D01*
X261995Y47906D01*
X260603Y51267D01*
X260603Y70145D01*
X261995Y73506D01*
X264568Y76079D01*
X267929Y77471D01*
X271567Y77471D01*
X274928Y76079D01*
X277501Y73506D01*
X278893Y70145D01*
X278893Y51267D01*
X277501Y47906D01*
X274928Y45333D01*
X271567Y43941D01*
X267929Y43941D01*
G37*
%LPD*%
%LPC*%
G36*
X242529Y43941D02*
X242529Y43941D01*
X239168Y45333D01*
X236595Y47906D01*
X235203Y51267D01*
X235203Y70145D01*
X236595Y73506D01*
X239168Y76079D01*
X242529Y77471D01*
X246167Y77471D01*
X249528Y76079D01*
X252101Y73506D01*
X253493Y70145D01*
X253493Y51267D01*
X252101Y47906D01*
X249528Y45333D01*
X246167Y43941D01*
X242529Y43941D01*
G37*
%LPD*%
%LPC*%
G36*
X442681Y338835D02*
X442681Y338835D01*
X439320Y340227D01*
X436747Y342800D01*
X435355Y346161D01*
X435355Y365039D01*
X436747Y368400D01*
X439320Y370973D01*
X442681Y372365D01*
X446319Y372365D01*
X449680Y370973D01*
X452253Y368400D01*
X453645Y365039D01*
X453645Y346161D01*
X452253Y342800D01*
X449680Y340227D01*
X446319Y338835D01*
X442681Y338835D01*
G37*
%LPD*%
%LPC*%
G36*
X353832Y689609D02*
X353832Y689609D01*
X350564Y690963D01*
X348063Y693464D01*
X346709Y696732D01*
X346709Y700268D01*
X348063Y703536D01*
X350564Y706037D01*
X353832Y707391D01*
X357368Y707391D01*
X360636Y706037D01*
X363137Y703536D01*
X364491Y700268D01*
X364491Y696732D01*
X363137Y693464D01*
X360636Y690963D01*
X357368Y689609D01*
X353832Y689609D01*
G37*
%LPD*%
%LPC*%
G36*
X277632Y537209D02*
X277632Y537209D01*
X274364Y538563D01*
X271863Y541064D01*
X270509Y544332D01*
X270509Y547868D01*
X271863Y551136D01*
X274364Y553637D01*
X277632Y554991D01*
X281168Y554991D01*
X284436Y553637D01*
X286937Y551136D01*
X288291Y547868D01*
X288291Y544332D01*
X286937Y541064D01*
X284436Y538563D01*
X281168Y537209D01*
X277632Y537209D01*
G37*
%LPD*%
%LPC*%
G36*
X430032Y537209D02*
X430032Y537209D01*
X426764Y538563D01*
X424263Y541064D01*
X422909Y544332D01*
X422909Y547868D01*
X424263Y551136D01*
X426764Y553637D01*
X430032Y554991D01*
X433568Y554991D01*
X436836Y553637D01*
X439337Y551136D01*
X440691Y547868D01*
X440691Y544332D01*
X439337Y541064D01*
X436836Y538563D01*
X433568Y537209D01*
X430032Y537209D01*
G37*
%LPD*%
%LPC*%
G36*
X252232Y537209D02*
X252232Y537209D01*
X248964Y538563D01*
X246463Y541064D01*
X245109Y544332D01*
X245109Y547868D01*
X246463Y551136D01*
X248964Y553637D01*
X252232Y554991D01*
X255768Y554991D01*
X259036Y553637D01*
X261537Y551136D01*
X262891Y547868D01*
X262891Y544332D01*
X261537Y541064D01*
X259036Y538563D01*
X255768Y537209D01*
X252232Y537209D01*
G37*
%LPD*%
%LPC*%
G36*
X226832Y537209D02*
X226832Y537209D01*
X223564Y538563D01*
X221063Y541064D01*
X219709Y544332D01*
X219709Y547868D01*
X221063Y551136D01*
X223564Y553637D01*
X226832Y554991D01*
X230368Y554991D01*
X233636Y553637D01*
X236137Y551136D01*
X237491Y547868D01*
X237491Y544332D01*
X236137Y541064D01*
X233636Y538563D01*
X230368Y537209D01*
X226832Y537209D01*
G37*
%LPD*%
%LPC*%
G36*
X455432Y537209D02*
X455432Y537209D01*
X452164Y538563D01*
X449663Y541064D01*
X448309Y544332D01*
X448309Y547868D01*
X449663Y551136D01*
X452164Y553637D01*
X455432Y554991D01*
X458968Y554991D01*
X462236Y553637D01*
X464737Y551136D01*
X466091Y547868D01*
X466091Y544332D01*
X464737Y541064D01*
X462236Y538563D01*
X458968Y537209D01*
X455432Y537209D01*
G37*
%LPD*%
%LPC*%
G36*
X201432Y588009D02*
X201432Y588009D01*
X198164Y589363D01*
X195663Y591864D01*
X194309Y595132D01*
X194309Y598668D01*
X195663Y601936D01*
X198164Y604437D01*
X201432Y605791D01*
X204968Y605791D01*
X208236Y604437D01*
X210737Y601936D01*
X212091Y598668D01*
X212091Y595132D01*
X210737Y591864D01*
X208236Y589363D01*
X204968Y588009D01*
X201432Y588009D01*
G37*
%LPD*%
%LPC*%
G36*
X328432Y689609D02*
X328432Y689609D01*
X325164Y690963D01*
X322663Y693464D01*
X321309Y696732D01*
X321309Y700268D01*
X322663Y703536D01*
X325164Y706037D01*
X328432Y707391D01*
X331968Y707391D01*
X335236Y706037D01*
X337737Y703536D01*
X339091Y700268D01*
X339091Y696732D01*
X337737Y693464D01*
X335236Y690963D01*
X331968Y689609D01*
X328432Y689609D01*
G37*
%LPD*%
%LPC*%
G36*
X506232Y689609D02*
X506232Y689609D01*
X502964Y690963D01*
X500463Y693464D01*
X499109Y696732D01*
X499109Y700268D01*
X500463Y703536D01*
X502964Y706037D01*
X506232Y707391D01*
X509768Y707391D01*
X513036Y706037D01*
X515537Y703536D01*
X516891Y700268D01*
X516891Y696732D01*
X515537Y693464D01*
X513036Y690963D01*
X509768Y689609D01*
X506232Y689609D01*
G37*
%LPD*%
%LPC*%
G36*
X480832Y689609D02*
X480832Y689609D01*
X477564Y690963D01*
X475063Y693464D01*
X473709Y696732D01*
X473709Y700268D01*
X475063Y703536D01*
X477564Y706037D01*
X480832Y707391D01*
X484368Y707391D01*
X487636Y706037D01*
X490137Y703536D01*
X491491Y700268D01*
X491491Y696732D01*
X490137Y693464D01*
X487636Y690963D01*
X484368Y689609D01*
X480832Y689609D01*
G37*
%LPD*%
%LPC*%
G36*
X404632Y689609D02*
X404632Y689609D01*
X401364Y690963D01*
X398863Y693464D01*
X397509Y696732D01*
X397509Y700268D01*
X398863Y703536D01*
X401364Y706037D01*
X404632Y707391D01*
X408168Y707391D01*
X411436Y706037D01*
X413937Y703536D01*
X415291Y700268D01*
X415291Y696732D01*
X413937Y693464D01*
X411436Y690963D01*
X408168Y689609D01*
X404632Y689609D01*
G37*
%LPD*%
%LPC*%
G36*
X379232Y689609D02*
X379232Y689609D01*
X375964Y690963D01*
X373463Y693464D01*
X372109Y696732D01*
X372109Y700268D01*
X373463Y703536D01*
X375964Y706037D01*
X379232Y707391D01*
X382768Y707391D01*
X386036Y706037D01*
X388537Y703536D01*
X389891Y700268D01*
X389891Y696732D01*
X388537Y693464D01*
X386036Y690963D01*
X382768Y689609D01*
X379232Y689609D01*
G37*
%LPD*%
%LPC*%
G36*
X353832Y537209D02*
X353832Y537209D01*
X350564Y538563D01*
X348063Y541064D01*
X346709Y544332D01*
X346709Y547868D01*
X348063Y551136D01*
X350564Y553637D01*
X353832Y554991D01*
X357368Y554991D01*
X360636Y553637D01*
X363137Y551136D01*
X364491Y547868D01*
X364491Y544332D01*
X363137Y541064D01*
X360636Y538563D01*
X357368Y537209D01*
X353832Y537209D01*
G37*
%LPD*%
%LPC*%
G36*
X303032Y689609D02*
X303032Y689609D01*
X299764Y690963D01*
X297263Y693464D01*
X295909Y696732D01*
X295909Y700268D01*
X297263Y703536D01*
X299764Y706037D01*
X303032Y707391D01*
X306568Y707391D01*
X309836Y706037D01*
X312337Y703536D01*
X313691Y700268D01*
X313691Y696732D01*
X312337Y693464D01*
X309836Y690963D01*
X306568Y689609D01*
X303032Y689609D01*
G37*
%LPD*%
%LPC*%
G36*
X201432Y689609D02*
X201432Y689609D01*
X198164Y690963D01*
X195663Y693464D01*
X194309Y696732D01*
X194309Y700268D01*
X195663Y703536D01*
X198164Y706037D01*
X201432Y707391D01*
X204968Y707391D01*
X208236Y706037D01*
X210737Y703536D01*
X212091Y700268D01*
X212091Y696732D01*
X210737Y693464D01*
X208236Y690963D01*
X204968Y689609D01*
X201432Y689609D01*
G37*
%LPD*%
%LPC*%
G36*
X303032Y537209D02*
X303032Y537209D01*
X299764Y538563D01*
X297263Y541064D01*
X295909Y544332D01*
X295909Y547868D01*
X297263Y551136D01*
X299764Y553637D01*
X303032Y554991D01*
X306568Y554991D01*
X309836Y553637D01*
X312337Y551136D01*
X313691Y547868D01*
X313691Y544332D01*
X312337Y541064D01*
X309836Y538563D01*
X306568Y537209D01*
X303032Y537209D01*
G37*
%LPD*%
%LPC*%
G36*
X404632Y537209D02*
X404632Y537209D01*
X401364Y538563D01*
X398863Y541064D01*
X397509Y544332D01*
X397509Y547868D01*
X398863Y551136D01*
X401364Y553637D01*
X404632Y554991D01*
X408168Y554991D01*
X411436Y553637D01*
X413937Y551136D01*
X415291Y547868D01*
X415291Y544332D01*
X413937Y541064D01*
X411436Y538563D01*
X408168Y537209D01*
X404632Y537209D01*
G37*
%LPD*%
%LPC*%
G36*
X379232Y537209D02*
X379232Y537209D01*
X375964Y538563D01*
X373463Y541064D01*
X372109Y544332D01*
X372109Y547868D01*
X373463Y551136D01*
X375964Y553637D01*
X379232Y554991D01*
X382768Y554991D01*
X386036Y553637D01*
X388537Y551136D01*
X389891Y547868D01*
X389891Y544332D01*
X388537Y541064D01*
X386036Y538563D01*
X382768Y537209D01*
X379232Y537209D01*
G37*
%LPD*%
%LPC*%
G36*
X201432Y613409D02*
X201432Y613409D01*
X198164Y614763D01*
X195663Y617264D01*
X194309Y620532D01*
X194309Y624068D01*
X195663Y627336D01*
X198164Y629837D01*
X201432Y631191D01*
X204968Y631191D01*
X208236Y629837D01*
X210737Y627336D01*
X212091Y624068D01*
X212091Y620532D01*
X210737Y617264D01*
X208236Y614763D01*
X204968Y613409D01*
X201432Y613409D01*
G37*
%LPD*%
%LPC*%
G36*
X201432Y562609D02*
X201432Y562609D01*
X198164Y563963D01*
X195663Y566464D01*
X194309Y569732D01*
X194309Y573268D01*
X195663Y576536D01*
X198164Y579037D01*
X201432Y580391D01*
X204968Y580391D01*
X208236Y579037D01*
X210737Y576536D01*
X212091Y573268D01*
X212091Y569732D01*
X210737Y566464D01*
X208236Y563963D01*
X204968Y562609D01*
X201432Y562609D01*
G37*
%LPD*%
%LPC*%
G36*
X201432Y537209D02*
X201432Y537209D01*
X198164Y538563D01*
X195663Y541064D01*
X194309Y544332D01*
X194309Y547868D01*
X195663Y551136D01*
X198164Y553637D01*
X201432Y554991D01*
X204968Y554991D01*
X208236Y553637D01*
X210737Y551136D01*
X212091Y547868D01*
X212091Y544332D01*
X210737Y541064D01*
X208236Y538563D01*
X204968Y537209D01*
X201432Y537209D01*
G37*
%LPD*%
%LPC*%
G36*
X199833Y385571D02*
X199833Y385571D01*
X195071Y390333D01*
X195071Y397067D01*
X199833Y401829D01*
X206567Y401829D01*
X211329Y397067D01*
X211329Y390333D01*
X206567Y385571D01*
X199833Y385571D01*
G37*
%LPD*%
%LPC*%
G36*
X357123Y141223D02*
X357123Y141223D01*
X357123Y163117D01*
X358648Y162875D01*
X360597Y162242D01*
X362423Y161312D01*
X364081Y160107D01*
X365530Y158658D01*
X366734Y157000D01*
X367664Y155175D01*
X368298Y153226D01*
X368618Y151202D01*
X368618Y141223D01*
X357123Y141223D01*
G37*
%LPD*%
%LPC*%
G36*
X65023Y141223D02*
X65023Y141223D01*
X65023Y163117D01*
X66548Y162875D01*
X68497Y162242D01*
X70323Y161312D01*
X71981Y160107D01*
X73430Y158658D01*
X74634Y157000D01*
X75564Y155175D01*
X76198Y153226D01*
X76518Y151202D01*
X76518Y141223D01*
X65023Y141223D01*
G37*
%LPD*%
%LPC*%
G36*
X65023Y138177D02*
X65023Y138177D01*
X76518Y138177D01*
X76518Y128198D01*
X76198Y126174D01*
X75564Y124225D01*
X74634Y122400D01*
X73430Y120742D01*
X71981Y119293D01*
X70323Y118088D01*
X68497Y117158D01*
X66548Y116525D01*
X65023Y116283D01*
X65023Y138177D01*
G37*
%LPD*%
%LPC*%
G36*
X357123Y138177D02*
X357123Y138177D01*
X368618Y138177D01*
X368618Y128198D01*
X368298Y126174D01*
X367664Y124225D01*
X366734Y122400D01*
X365530Y120742D01*
X364081Y119293D01*
X362423Y118088D01*
X360597Y117158D01*
X358648Y116525D01*
X357123Y116283D01*
X357123Y138177D01*
G37*
%LPD*%
%LPC*%
G36*
X342582Y141223D02*
X342582Y141223D01*
X342582Y151202D01*
X342902Y153226D01*
X343536Y155175D01*
X344466Y157000D01*
X345670Y158658D01*
X347119Y160107D01*
X348777Y161312D01*
X350603Y162242D01*
X352552Y162875D01*
X354077Y163117D01*
X354077Y141223D01*
X342582Y141223D01*
G37*
%LPD*%
%LPC*%
G36*
X50482Y141223D02*
X50482Y141223D01*
X50482Y151202D01*
X50802Y153226D01*
X51436Y155175D01*
X52366Y157000D01*
X53570Y158658D01*
X55019Y160107D01*
X56677Y161312D01*
X58503Y162242D01*
X60452Y162875D01*
X61977Y163117D01*
X61977Y141223D01*
X50482Y141223D01*
G37*
%LPD*%
%LPC*%
G36*
X352552Y116525D02*
X352552Y116525D01*
X350603Y117158D01*
X348777Y118088D01*
X347119Y119293D01*
X345670Y120742D01*
X344466Y122400D01*
X343536Y124225D01*
X342902Y126174D01*
X342582Y128198D01*
X342582Y138177D01*
X354077Y138177D01*
X354077Y116283D01*
X352552Y116525D01*
G37*
%LPD*%
%LPC*%
G36*
X60452Y116525D02*
X60452Y116525D01*
X58503Y117158D01*
X56677Y118088D01*
X55019Y119293D01*
X53570Y120742D01*
X52366Y122400D01*
X51436Y124225D01*
X50802Y126174D01*
X50482Y128198D01*
X50482Y138177D01*
X61977Y138177D01*
X61977Y116283D01*
X60452Y116525D01*
G37*
%LPD*%
%LPC*%
G36*
X420623Y872235D02*
X420623Y872235D01*
X420623Y888378D01*
X421479Y888243D01*
X423000Y887748D01*
X424425Y887022D01*
X425719Y886082D01*
X426850Y884951D01*
X427790Y883657D01*
X428516Y882232D01*
X429011Y880711D01*
X429261Y879132D01*
X429261Y872235D01*
X420623Y872235D01*
G37*
%LPD*%
%LPC*%
G36*
X369823Y255523D02*
X369823Y255523D01*
X369823Y271666D01*
X370679Y271531D01*
X372200Y271036D01*
X373625Y270310D01*
X374919Y269370D01*
X376050Y268239D01*
X376990Y266945D01*
X377716Y265520D01*
X378211Y263999D01*
X378461Y262420D01*
X378461Y255523D01*
X369823Y255523D01*
G37*
%LPD*%
%LPC*%
G36*
X420623Y869189D02*
X420623Y869189D01*
X429261Y869189D01*
X429261Y862292D01*
X429011Y860713D01*
X428516Y859192D01*
X427790Y857767D01*
X426850Y856473D01*
X425719Y855342D01*
X424425Y854402D01*
X423000Y853676D01*
X421479Y853181D01*
X420623Y853046D01*
X420623Y869189D01*
G37*
%LPD*%
%LPC*%
G36*
X369823Y252477D02*
X369823Y252477D01*
X378461Y252477D01*
X378461Y245580D01*
X378211Y244001D01*
X377716Y242480D01*
X376990Y241055D01*
X376050Y239761D01*
X374919Y238630D01*
X373625Y237690D01*
X372200Y236964D01*
X370679Y236469D01*
X369823Y236334D01*
X369823Y252477D01*
G37*
%LPD*%
%LPC*%
G36*
X408939Y872235D02*
X408939Y872235D01*
X408939Y879132D01*
X409189Y880711D01*
X409684Y882232D01*
X410410Y883657D01*
X411350Y884951D01*
X412481Y886082D01*
X413775Y887022D01*
X415200Y887748D01*
X416721Y888243D01*
X417577Y888378D01*
X417577Y872235D01*
X408939Y872235D01*
G37*
%LPD*%
%LPC*%
G36*
X358139Y255523D02*
X358139Y255523D01*
X358139Y262420D01*
X358389Y263999D01*
X358884Y265520D01*
X359610Y266945D01*
X360550Y268239D01*
X361681Y269370D01*
X362975Y270310D01*
X364400Y271036D01*
X365921Y271531D01*
X366777Y271666D01*
X366777Y255523D01*
X358139Y255523D01*
G37*
%LPD*%
%LPC*%
G36*
X416721Y853181D02*
X416721Y853181D01*
X415200Y853676D01*
X413775Y854402D01*
X412481Y855342D01*
X411350Y856473D01*
X410410Y857767D01*
X409684Y859192D01*
X409189Y860713D01*
X408939Y862292D01*
X408939Y869189D01*
X417577Y869189D01*
X417577Y853046D01*
X416721Y853181D01*
G37*
%LPD*%
%LPC*%
G36*
X365921Y236469D02*
X365921Y236469D01*
X364400Y236964D01*
X362975Y237690D01*
X361681Y238630D01*
X360550Y239761D01*
X359610Y241055D01*
X358884Y242480D01*
X358389Y244001D01*
X358139Y245580D01*
X358139Y252477D01*
X366777Y252477D01*
X366777Y236334D01*
X365921Y236469D01*
G37*
%LPD*%
%LPC*%
G36*
X534923Y700023D02*
X534923Y700023D01*
X534923Y708289D01*
X535720Y708163D01*
X537203Y707681D01*
X538592Y706973D01*
X539854Y706056D01*
X540956Y704954D01*
X541873Y703692D01*
X542581Y702303D01*
X543063Y700820D01*
X543189Y700023D01*
X534923Y700023D01*
G37*
%LPD*%
%LPC*%
G36*
X509523Y547623D02*
X509523Y547623D01*
X509523Y555889D01*
X510320Y555763D01*
X511803Y555281D01*
X513192Y554573D01*
X514454Y553656D01*
X515556Y552554D01*
X516473Y551292D01*
X517181Y549903D01*
X517663Y548420D01*
X517789Y547623D01*
X509523Y547623D01*
G37*
%LPD*%
%LPC*%
G36*
X498211Y547623D02*
X498211Y547623D01*
X498337Y548420D01*
X498819Y549903D01*
X499527Y551292D01*
X500444Y552554D01*
X501546Y553656D01*
X502808Y554573D01*
X504197Y555281D01*
X505680Y555763D01*
X506477Y555889D01*
X506477Y547623D01*
X498211Y547623D01*
G37*
%LPD*%
%LPC*%
G36*
X509523Y544577D02*
X509523Y544577D01*
X517789Y544577D01*
X517663Y543780D01*
X517181Y542297D01*
X516473Y540908D01*
X515556Y539646D01*
X514454Y538544D01*
X513192Y537627D01*
X511803Y536919D01*
X510320Y536437D01*
X509523Y536311D01*
X509523Y544577D01*
G37*
%LPD*%
%LPC*%
G36*
X534923Y696977D02*
X534923Y696977D01*
X543189Y696977D01*
X543063Y696180D01*
X542581Y694697D01*
X541873Y693308D01*
X540956Y692046D01*
X539854Y690944D01*
X538592Y690027D01*
X537203Y689319D01*
X535720Y688837D01*
X534923Y688711D01*
X534923Y696977D01*
G37*
%LPD*%
%LPC*%
G36*
X523611Y700023D02*
X523611Y700023D01*
X523737Y700820D01*
X524219Y702303D01*
X524927Y703692D01*
X525844Y704954D01*
X526946Y706056D01*
X528208Y706973D01*
X529597Y707681D01*
X531080Y708163D01*
X531877Y708289D01*
X531877Y700023D01*
X523611Y700023D01*
G37*
%LPD*%
%LPC*%
G36*
X505680Y536437D02*
X505680Y536437D01*
X504197Y536919D01*
X502808Y537627D01*
X501546Y538544D01*
X500444Y539646D01*
X499527Y540908D01*
X498819Y542297D01*
X498337Y543780D01*
X498211Y544577D01*
X506477Y544577D01*
X506477Y536311D01*
X505680Y536437D01*
G37*
%LPD*%
%LPC*%
G36*
X531080Y688837D02*
X531080Y688837D01*
X529597Y689319D01*
X528208Y690027D01*
X526946Y690944D01*
X525844Y692046D01*
X524927Y693308D01*
X524219Y694697D01*
X523737Y696180D01*
X523611Y696977D01*
X531877Y696977D01*
X531877Y688711D01*
X531080Y688837D01*
G37*
%LPD*%
%LPC*%
G36*
X419099Y870711D02*
X419099Y870711D01*
X419099Y870713D01*
X419101Y870713D01*
X419101Y870711D01*
X419099Y870711D01*
G37*
%LPD*%
%LPC*%
G36*
X507999Y546099D02*
X507999Y546099D01*
X507999Y546101D01*
X508001Y546101D01*
X508001Y546099D01*
X507999Y546099D01*
G37*
%LPD*%
%LPC*%
G36*
X355599Y139699D02*
X355599Y139699D01*
X355599Y139701D01*
X355601Y139701D01*
X355601Y139699D01*
X355599Y139699D01*
G37*
%LPD*%
%LPC*%
G36*
X63499Y139699D02*
X63499Y139699D01*
X63499Y139701D01*
X63501Y139701D01*
X63501Y139699D01*
X63499Y139699D01*
G37*
%LPD*%
%LPC*%
G36*
X368299Y253999D02*
X368299Y253999D01*
X368299Y254001D01*
X368301Y254001D01*
X368301Y253999D01*
X368299Y253999D01*
G37*
%LPD*%
%LPC*%
G36*
X533399Y698499D02*
X533399Y698499D01*
X533399Y698501D01*
X533401Y698501D01*
X533401Y698499D01*
X533399Y698499D01*
G37*
%LPD*%
D10*
X495300Y261620D02*
X495300Y246380D01*
X469900Y246380D02*
X469900Y261620D01*
X444500Y261620D02*
X444500Y246380D01*
X419100Y246380D02*
X419100Y261620D01*
X393700Y261620D02*
X393700Y246380D01*
X368300Y246380D02*
X368300Y261620D01*
X495300Y347980D02*
X495300Y363220D01*
X469900Y363220D02*
X469900Y347980D01*
X444500Y347980D02*
X444500Y363220D01*
X419100Y363220D02*
X419100Y347980D01*
X393700Y347980D02*
X393700Y363220D01*
X368300Y363220D02*
X368300Y347980D01*
D11*
X190500Y800100D03*
X266700Y800100D03*
D12*
X279400Y330200D03*
X203200Y330200D03*
X279400Y393700D03*
X203200Y393700D03*
D11*
X393700Y304800D03*
X469900Y304800D03*
D10*
X444500Y863092D02*
X444500Y878332D01*
X419100Y878332D02*
X419100Y863092D01*
X393700Y863092D02*
X393700Y878332D01*
X368300Y878332D02*
X368300Y863092D01*
X342900Y863092D02*
X342900Y878332D01*
X317500Y878332D02*
X317500Y863092D01*
X292100Y863092D02*
X292100Y878332D01*
X266700Y878332D02*
X266700Y863092D01*
X241300Y863092D02*
X241300Y878332D01*
X215900Y878332D02*
X215900Y863092D01*
X190500Y863092D02*
X190500Y878332D01*
X165100Y878332D02*
X165100Y863092D01*
X139700Y863092D02*
X139700Y878332D01*
X114300Y878332D02*
X114300Y863092D01*
D13*
X63500Y150178D02*
X63500Y129223D01*
X114300Y129223D02*
X114300Y150178D01*
X165100Y150178D02*
X165100Y129223D01*
X215900Y129223D02*
X215900Y150178D01*
X355600Y150178D02*
X355600Y129223D01*
X406400Y129223D02*
X406400Y150178D01*
X457200Y150178D02*
X457200Y129223D01*
X508000Y129223D02*
X508000Y150178D01*
D10*
X320548Y68326D02*
X320548Y53086D01*
X295148Y53086D02*
X295148Y68326D01*
X269748Y68326D02*
X269748Y53086D01*
X244348Y53086D02*
X244348Y68326D01*
D14*
X482600Y698500D03*
X457200Y698500D03*
X431800Y698500D03*
X406400Y698500D03*
X381000Y698500D03*
X355600Y698500D03*
X330200Y698500D03*
X304800Y698500D03*
X279400Y698500D03*
X254000Y698500D03*
X228600Y698500D03*
X203200Y698500D03*
X203200Y546100D03*
X228600Y546100D03*
X254000Y546100D03*
X279400Y546100D03*
X304800Y546100D03*
X330200Y546100D03*
X355600Y546100D03*
X381000Y546100D03*
X406400Y546100D03*
X431800Y546100D03*
X457200Y546100D03*
X508000Y698500D03*
X482600Y546100D03*
X533400Y698500D03*
X533400Y546100D03*
X508000Y546100D03*
X203200Y571500D03*
X203200Y596900D03*
X203200Y622300D03*
X203200Y647700D03*
X203200Y673100D03*
D15*
X444500Y584200D02*
X444500Y870712D01*
X444500Y584200D02*
X482600Y546100D01*
X482600Y520700D01*
X495300Y508000D01*
X495300Y469900D01*
X495300Y355600D01*
X495300Y330200D01*
X469900Y304800D01*
X279400Y330200D02*
X279400Y393700D01*
X355600Y469900D01*
X495300Y469900D01*
X254000Y698500D02*
X330200Y774700D01*
D16*
X330200Y774700D03*
D15*
X279400Y699474D02*
X279400Y698500D01*
X279400Y699474D02*
X342900Y762974D01*
X342900Y870712D01*
X228600Y794512D02*
X165100Y858012D01*
X165100Y870712D01*
X228600Y794512D02*
X228600Y698500D01*
X228600Y734213D02*
X317500Y823113D01*
X317500Y870712D01*
X228600Y734213D02*
X228600Y698500D01*
X266700Y800100D02*
X266700Y870712D01*
D16*
X241300Y825500D03*
D15*
X241300Y870712D01*
X140956Y870712D02*
X139700Y870712D01*
X240044Y870712D02*
X241300Y870712D01*
X160260Y890016D02*
X140956Y870712D01*
X220740Y890016D02*
X240044Y870712D01*
X220740Y890016D02*
X160260Y890016D01*
D16*
X254000Y787400D03*
D15*
X190500Y850900D01*
X190500Y870712D01*
D16*
X228600Y660400D03*
D15*
X139700Y660400D01*
D16*
X139700Y660400D03*
D17*
X76200Y685800D02*
X190500Y800100D01*
X76200Y177800D02*
X114300Y139700D01*
X76200Y177800D02*
X76200Y685800D01*
X533400Y546100D02*
X533400Y292100D01*
X495300Y254000D01*
X190500Y215900D02*
X114300Y139700D01*
X190500Y215900D02*
X469900Y215900D01*
X495300Y241300D01*
X495300Y254000D01*
D15*
X241300Y368300D02*
X241300Y457200D01*
X330200Y546100D01*
X241300Y368300D02*
X203200Y330200D01*
X368300Y330200D02*
X393700Y304800D01*
X368300Y330200D02*
X368300Y355600D01*
X457200Y177800D02*
X457200Y139700D01*
X457200Y177800D02*
X482600Y203200D01*
D16*
X482600Y203200D03*
M02*
